ISO-10303-21;
HEADER;
/* Generated by software containing ST-Developer
 * from STEP Tools, Inc. (www.steptools.com) 
 */

FILE_DESCRIPTION(
/* description */ ('TOUCHSCREEN MOUNT'),
/* implementation_level */ '2;1');

FILE_NAME(
/* name */ '152108001_01 - Touchscreen Mount 2025-4-9.step',
/* time_stamp */ '2025-09-08T16:37:49-05:00',
/* author */ (''),
/* organization */ (''),
/* preprocessor_version */ 'ST-DEVELOPER v20.1',
/* originating_system */ 'Autodesk Translation Framework v14.10.0.0',
/* authorisation */ '');

FILE_SCHEMA (('AUTOMOTIVE_DESIGN { 1 0 10303 214 3 1 1 }'));
ENDSEC;

DATA;
#10=MECHANICAL_DESIGN_GEOMETRIC_PRESENTATION_REPRESENTATION('',(#13),#987);
#11=SHAPE_REPRESENTATION_RELATIONSHIP('SRR','None',#994,#12);
#12=ADVANCED_BREP_SHAPE_REPRESENTATION('',(#14),#986);
#13=STYLED_ITEM('',(#1004),#14);
#14=MANIFOLD_SOLID_BREP('Body1',#575);
#15=FACE_BOUND('',#91,.T.);
#16=FACE_BOUND('',#92,.T.);
#17=FACE_BOUND('',#93,.T.);
#18=FACE_BOUND('',#98,.T.);
#19=FACE_BOUND('',#99,.T.);
#20=FACE_BOUND('',#100,.T.);
#21=FACE_BOUND('',#101,.T.);
#22=FACE_BOUND('',#102,.T.);
#23=FACE_BOUND('',#103,.T.);
#24=FACE_BOUND('',#104,.T.);
#25=FACE_BOUND('',#105,.T.);
#26=FACE_BOUND('',#106,.T.);
#27=FACE_BOUND('',#115,.T.);
#28=FACE_BOUND('',#116,.T.);
#29=FACE_BOUND('',#117,.T.);
#30=FACE_BOUND('',#119,.T.);
#31=FACE_BOUND('',#120,.T.);
#32=FACE_BOUND('',#121,.T.);
#33=FACE_BOUND('',#122,.T.);
#34=FACE_BOUND('',#123,.T.);
#35=FACE_BOUND('',#124,.T.);
#36=FACE_BOUND('',#125,.T.);
#37=FACE_BOUND('',#126,.T.);
#38=FACE_BOUND('',#127,.T.);
#39=PLANE('',#616);
#40=PLANE('',#621);
#41=PLANE('',#627);
#42=PLANE('',#630);
#43=PLANE('',#644);
#44=PLANE('',#645);
#45=PLANE('',#649);
#46=PLANE('',#650);
#47=PLANE('',#651);
#48=PLANE('',#652);
#49=PLANE('',#653);
#50=PLANE('',#654);
#51=FACE_OUTER_BOUND('',#81,.T.);
#52=FACE_OUTER_BOUND('',#82,.T.);
#53=FACE_OUTER_BOUND('',#83,.T.);
#54=FACE_OUTER_BOUND('',#84,.T.);
#55=FACE_OUTER_BOUND('',#85,.T.);
#56=FACE_OUTER_BOUND('',#86,.T.);
#57=FACE_OUTER_BOUND('',#87,.T.);
#58=FACE_OUTER_BOUND('',#88,.T.);
#59=FACE_OUTER_BOUND('',#89,.T.);
#60=FACE_OUTER_BOUND('',#90,.T.);
#61=FACE_OUTER_BOUND('',#94,.T.);
#62=FACE_OUTER_BOUND('',#95,.T.);
#63=FACE_OUTER_BOUND('',#96,.T.);
#64=FACE_OUTER_BOUND('',#97,.T.);
#65=FACE_OUTER_BOUND('',#107,.T.);
#66=FACE_OUTER_BOUND('',#108,.T.);
#67=FACE_OUTER_BOUND('',#109,.T.);
#68=FACE_OUTER_BOUND('',#110,.T.);
#69=FACE_OUTER_BOUND('',#111,.T.);
#70=FACE_OUTER_BOUND('',#112,.T.);
#71=FACE_OUTER_BOUND('',#113,.T.);
#72=FACE_OUTER_BOUND('',#114,.T.);
#73=FACE_OUTER_BOUND('',#118,.T.);
#74=FACE_OUTER_BOUND('',#128,.T.);
#75=FACE_OUTER_BOUND('',#129,.T.);
#76=FACE_OUTER_BOUND('',#130,.T.);
#77=FACE_OUTER_BOUND('',#131,.T.);
#78=FACE_OUTER_BOUND('',#132,.T.);
#79=FACE_OUTER_BOUND('',#133,.T.);
#80=FACE_OUTER_BOUND('',#134,.T.);
#81=EDGE_LOOP('',(#375,#376,#377,#378));
#82=EDGE_LOOP('',(#379,#380,#381,#382));
#83=EDGE_LOOP('',(#383,#384,#385,#386));
#84=EDGE_LOOP('',(#387,#388,#389,#390));
#85=EDGE_LOOP('',(#391,#392,#393,#394));
#86=EDGE_LOOP('',(#395,#396,#397,#398));
#87=EDGE_LOOP('',(#399,#400,#401,#402));
#88=EDGE_LOOP('',(#403,#404,#405,#406));
#89=EDGE_LOOP('',(#407,#408,#409,#410));
#90=EDGE_LOOP('',(#411,#412,#413,#414,#415,#416));
#91=EDGE_LOOP('',(#417));
#92=EDGE_LOOP('',(#418));
#93=EDGE_LOOP('',(#419));
#94=EDGE_LOOP('',(#420,#421,#422,#423));
#95=EDGE_LOOP('',(#424,#425,#426,#427));
#96=EDGE_LOOP('',(#428,#429,#430,#431));
#97=EDGE_LOOP('',(#432,#433,#434,#435,#436,#437));
#98=EDGE_LOOP('',(#438));
#99=EDGE_LOOP('',(#439));
#100=EDGE_LOOP('',(#440));
#101=EDGE_LOOP('',(#441));
#102=EDGE_LOOP('',(#442));
#103=EDGE_LOOP('',(#443));
#104=EDGE_LOOP('',(#444));
#105=EDGE_LOOP('',(#445));
#106=EDGE_LOOP('',(#446));
#107=EDGE_LOOP('',(#447,#448,#449,#450));
#108=EDGE_LOOP('',(#451,#452,#453,#454));
#109=EDGE_LOOP('',(#455,#456,#457,#458));
#110=EDGE_LOOP('',(#459,#460,#461,#462));
#111=EDGE_LOOP('',(#463,#464,#465,#466));
#112=EDGE_LOOP('',(#467,#468,#469,#470));
#113=EDGE_LOOP('',(#471,#472,#473,#474));
#114=EDGE_LOOP('',(#475,#476,#477,#478,#479,#480));
#115=EDGE_LOOP('',(#481));
#116=EDGE_LOOP('',(#482));
#117=EDGE_LOOP('',(#483));
#118=EDGE_LOOP('',(#484,#485,#486,#487,#488,#489));
#119=EDGE_LOOP('',(#490));
#120=EDGE_LOOP('',(#491));
#121=EDGE_LOOP('',(#492));
#122=EDGE_LOOP('',(#493));
#123=EDGE_LOOP('',(#494));
#124=EDGE_LOOP('',(#495));
#125=EDGE_LOOP('',(#496));
#126=EDGE_LOOP('',(#497));
#127=EDGE_LOOP('',(#498));
#128=EDGE_LOOP('',(#499,#500,#501,#502));
#129=EDGE_LOOP('',(#503,#504,#505,#506));
#130=EDGE_LOOP('',(#507,#508,#509,#510));
#131=EDGE_LOOP('',(#511,#512,#513,#514));
#132=EDGE_LOOP('',(#515,#516,#517,#518));
#133=EDGE_LOOP('',(#519,#520,#521,#522));
#134=EDGE_LOOP('',(#523,#524,#525,#526));
#135=LINE('',#834,#175);
#136=LINE('',#840,#176);
#137=LINE('',#846,#177);
#138=LINE('',#852,#178);
#139=LINE('',#858,#179);
#140=LINE('',#864,#180);
#141=LINE('',#870,#181);
#142=LINE('',#876,#182);
#143=LINE('',#883,#183);
#144=LINE('',#886,#184);
#145=LINE('',#889,#185);
#146=LINE('',#893,#186);
#147=LINE('',#895,#187);
#148=LINE('',#896,#188);
#149=LINE('',#905,#189);
#150=LINE('',#906,#190);
#151=LINE('',#910,#191);
#152=LINE('',#916,#192);
#153=LINE('',#919,#193);
#154=LINE('',#922,#194);
#155=LINE('',#926,#195);
#156=LINE('',#928,#196);
#157=LINE('',#929,#197);
#158=LINE('',#934,#198);
#159=LINE('',#935,#199);
#160=LINE('',#939,#200);
#161=LINE('',#942,#201);
#162=LINE('',#946,#202);
#163=LINE('',#950,#203);
#164=LINE('',#954,#204);
#165=LINE('',#961,#205);
#166=LINE('',#964,#206);
#167=LINE('',#966,#207);
#168=LINE('',#967,#208);
#169=LINE('',#969,#209);
#170=LINE('',#970,#210);
#171=LINE('',#975,#211);
#172=LINE('',#976,#212);
#173=LINE('',#978,#213);
#174=LINE('',#979,#214);
#175=VECTOR('',#661,2.15);
#176=VECTOR('',#668,2.15);
#177=VECTOR('',#675,2.15);
#178=VECTOR('',#682,2.15);
#179=VECTOR('',#689,2.15);
#180=VECTOR('',#696,2.15);
#181=VECTOR('',#703,2.15);
#182=VECTOR('',#710,2.15);
#183=VECTOR('',#717,10.);
#184=VECTOR('',#720,10.);
#185=VECTOR('',#723,10.);
#186=VECTOR('',#726,10.);
#187=VECTOR('',#727,10.);
#188=VECTOR('',#728,10.);
#189=VECTOR('',#737,10.);
#190=VECTOR('',#738,10.);
#191=VECTOR('',#743,10.);
#192=VECTOR('',#748,10.);
#193=VECTOR('',#751,10.);
#194=VECTOR('',#754,10.);
#195=VECTOR('',#757,10.);
#196=VECTOR('',#758,10.);
#197=VECTOR('',#759,10.);
#198=VECTOR('',#764,10.);
#199=VECTOR('',#765,10.);
#200=VECTOR('',#770,10.);
#201=VECTOR('',#773,2.6);
#202=VECTOR('',#778,2.6);
#203=VECTOR('',#783,2.6);
#204=VECTOR('',#788,40.);
#205=VECTOR('',#795,10.);
#206=VECTOR('',#798,10.);
#207=VECTOR('',#801,10.);
#208=VECTOR('',#802,10.);
#209=VECTOR('',#805,10.);
#210=VECTOR('',#806,10.);
#211=VECTOR('',#815,10.);
#212=VECTOR('',#816,10.);
#213=VECTOR('',#819,10.);
#214=VECTOR('',#820,10.);
#215=CIRCLE('',#590,2.15);
#216=CIRCLE('',#591,2.15);
#217=CIRCLE('',#593,2.15);
#218=CIRCLE('',#594,2.15);
#219=CIRCLE('',#596,2.15);
#220=CIRCLE('',#597,2.15);
#221=CIRCLE('',#599,2.15);
#222=CIRCLE('',#600,2.15);
#223=CIRCLE('',#602,2.15);
#224=CIRCLE('',#603,2.15);
#225=CIRCLE('',#605,2.15);
#226=CIRCLE('',#606,2.15);
#227=CIRCLE('',#608,2.15);
#228=CIRCLE('',#609,2.15);
#229=CIRCLE('',#611,2.15);
#230=CIRCLE('',#612,2.15);
#231=CIRCLE('',#614,5.);
#232=CIRCLE('',#615,5.);
#233=CIRCLE('',#617,5.);
#234=CIRCLE('',#618,2.6);
#235=CIRCLE('',#619,2.6);
#236=CIRCLE('',#620,2.6);
#237=CIRCLE('',#623,5.);
#238=CIRCLE('',#625,5.);
#239=CIRCLE('',#626,5.);
#240=CIRCLE('',#628,5.);
#241=CIRCLE('',#629,40.);
#242=CIRCLE('',#632,5.);
#243=CIRCLE('',#634,2.6);
#244=CIRCLE('',#636,2.6);
#245=CIRCLE('',#638,2.6);
#246=CIRCLE('',#640,40.);
#247=CIRCLE('',#642,0.761999999999999);
#248=CIRCLE('',#643,0.761999999999999);
#249=CIRCLE('',#647,3.302);
#250=CIRCLE('',#648,3.302);
#251=VERTEX_POINT('',#831);
#252=VERTEX_POINT('',#833);
#253=VERTEX_POINT('',#837);
#254=VERTEX_POINT('',#839);
#255=VERTEX_POINT('',#843);
#256=VERTEX_POINT('',#845);
#257=VERTEX_POINT('',#849);
#258=VERTEX_POINT('',#851);
#259=VERTEX_POINT('',#855);
#260=VERTEX_POINT('',#857);
#261=VERTEX_POINT('',#861);
#262=VERTEX_POINT('',#863);
#263=VERTEX_POINT('',#867);
#264=VERTEX_POINT('',#869);
#265=VERTEX_POINT('',#873);
#266=VERTEX_POINT('',#875);
#267=VERTEX_POINT('',#879);
#268=VERTEX_POINT('',#880);
#269=VERTEX_POINT('',#882);
#270=VERTEX_POINT('',#884);
#271=VERTEX_POINT('',#888);
#272=VERTEX_POINT('',#890);
#273=VERTEX_POINT('',#892);
#274=VERTEX_POINT('',#894);
#275=VERTEX_POINT('',#897);
#276=VERTEX_POINT('',#899);
#277=VERTEX_POINT('',#901);
#278=VERTEX_POINT('',#904);
#279=VERTEX_POINT('',#908);
#280=VERTEX_POINT('',#912);
#281=VERTEX_POINT('',#913);
#282=VERTEX_POINT('',#915);
#283=VERTEX_POINT('',#917);
#284=VERTEX_POINT('',#921);
#285=VERTEX_POINT('',#923);
#286=VERTEX_POINT('',#925);
#287=VERTEX_POINT('',#927);
#288=VERTEX_POINT('',#930);
#289=VERTEX_POINT('',#933);
#290=VERTEX_POINT('',#937);
#291=VERTEX_POINT('',#941);
#292=VERTEX_POINT('',#945);
#293=VERTEX_POINT('',#949);
#294=VERTEX_POINT('',#953);
#295=VERTEX_POINT('',#957);
#296=VERTEX_POINT('',#958);
#297=VERTEX_POINT('',#960);
#298=VERTEX_POINT('',#962);
#299=EDGE_CURVE('',#251,#251,#215,.T.);
#300=EDGE_CURVE('',#251,#252,#135,.T.);
#301=EDGE_CURVE('',#252,#252,#216,.T.);
#302=EDGE_CURVE('',#253,#253,#217,.T.);
#303=EDGE_CURVE('',#253,#254,#136,.T.);
#304=EDGE_CURVE('',#254,#254,#218,.T.);
#305=EDGE_CURVE('',#255,#255,#219,.T.);
#306=EDGE_CURVE('',#255,#256,#137,.T.);
#307=EDGE_CURVE('',#256,#256,#220,.T.);
#308=EDGE_CURVE('',#257,#257,#221,.T.);
#309=EDGE_CURVE('',#257,#258,#138,.T.);
#310=EDGE_CURVE('',#258,#258,#222,.T.);
#311=EDGE_CURVE('',#259,#259,#223,.T.);
#312=EDGE_CURVE('',#259,#260,#139,.T.);
#313=EDGE_CURVE('',#260,#260,#224,.T.);
#314=EDGE_CURVE('',#261,#261,#225,.T.);
#315=EDGE_CURVE('',#261,#262,#140,.T.);
#316=EDGE_CURVE('',#262,#262,#226,.T.);
#317=EDGE_CURVE('',#263,#263,#227,.T.);
#318=EDGE_CURVE('',#263,#264,#141,.T.);
#319=EDGE_CURVE('',#264,#264,#228,.T.);
#320=EDGE_CURVE('',#265,#265,#229,.T.);
#321=EDGE_CURVE('',#265,#266,#142,.T.);
#322=EDGE_CURVE('',#266,#266,#230,.T.);
#323=EDGE_CURVE('',#267,#268,#231,.T.);
#324=EDGE_CURVE('',#268,#269,#143,.T.);
#325=EDGE_CURVE('',#269,#270,#232,.T.);
#326=EDGE_CURVE('',#270,#267,#144,.T.);
#327=EDGE_CURVE('',#269,#271,#145,.T.);
#328=EDGE_CURVE('',#272,#271,#233,.T.);
#329=EDGE_CURVE('',#273,#272,#146,.T.);
#330=EDGE_CURVE('',#273,#274,#147,.T.);
#331=EDGE_CURVE('',#270,#274,#148,.T.);
#332=EDGE_CURVE('',#275,#275,#234,.T.);
#333=EDGE_CURVE('',#276,#276,#235,.T.);
#334=EDGE_CURVE('',#277,#277,#236,.T.);
#335=EDGE_CURVE('',#268,#278,#149,.T.);
#336=EDGE_CURVE('',#271,#278,#150,.T.);
#337=EDGE_CURVE('',#278,#279,#237,.T.);
#338=EDGE_CURVE('',#279,#272,#151,.T.);
#339=EDGE_CURVE('',#280,#281,#238,.T.);
#340=EDGE_CURVE('',#281,#282,#152,.T.);
#341=EDGE_CURVE('',#282,#283,#239,.T.);
#342=EDGE_CURVE('',#283,#280,#153,.T.);
#343=EDGE_CURVE('',#282,#284,#154,.T.);
#344=EDGE_CURVE('',#285,#284,#240,.T.);
#345=EDGE_CURVE('',#286,#285,#155,.T.);
#346=EDGE_CURVE('',#286,#287,#156,.T.);
#347=EDGE_CURVE('',#283,#287,#157,.T.);
#348=EDGE_CURVE('',#288,#288,#241,.T.);
#349=EDGE_CURVE('',#281,#289,#158,.T.);
#350=EDGE_CURVE('',#284,#289,#159,.T.);
#351=EDGE_CURVE('',#289,#290,#242,.T.);
#352=EDGE_CURVE('',#290,#285,#160,.T.);
#353=EDGE_CURVE('',#275,#291,#161,.T.);
#354=EDGE_CURVE('',#291,#291,#243,.T.);
#355=EDGE_CURVE('',#276,#292,#162,.T.);
#356=EDGE_CURVE('',#292,#292,#244,.T.);
#357=EDGE_CURVE('',#277,#293,#163,.T.);
#358=EDGE_CURVE('',#293,#293,#245,.T.);
#359=EDGE_CURVE('',#288,#294,#164,.T.);
#360=EDGE_CURVE('',#294,#294,#246,.T.);
#361=EDGE_CURVE('',#295,#296,#247,.T.);
#362=EDGE_CURVE('',#296,#297,#165,.T.);
#363=EDGE_CURVE('',#297,#298,#248,.T.);
#364=EDGE_CURVE('',#298,#295,#166,.T.);
#365=EDGE_CURVE('',#267,#297,#167,.T.);
#366=EDGE_CURVE('',#296,#279,#168,.T.);
#367=EDGE_CURVE('',#280,#295,#169,.T.);
#368=EDGE_CURVE('',#298,#290,#170,.T.);
#369=EDGE_CURVE('',#287,#273,#249,.T.);
#370=EDGE_CURVE('',#274,#286,#250,.T.);
#371=EDGE_CURVE('',#273,#296,#171,.T.);
#372=EDGE_CURVE('',#287,#295,#172,.T.);
#373=EDGE_CURVE('',#286,#298,#173,.T.);
#374=EDGE_CURVE('',#274,#297,#174,.T.);
#375=ORIENTED_EDGE('',*,*,#299,.F.);
#376=ORIENTED_EDGE('',*,*,#300,.T.);
#377=ORIENTED_EDGE('',*,*,#301,.F.);
#378=ORIENTED_EDGE('',*,*,#300,.F.);
#379=ORIENTED_EDGE('',*,*,#302,.F.);
#380=ORIENTED_EDGE('',*,*,#303,.T.);
#381=ORIENTED_EDGE('',*,*,#304,.F.);
#382=ORIENTED_EDGE('',*,*,#303,.F.);
#383=ORIENTED_EDGE('',*,*,#305,.F.);
#384=ORIENTED_EDGE('',*,*,#306,.T.);
#385=ORIENTED_EDGE('',*,*,#307,.F.);
#386=ORIENTED_EDGE('',*,*,#306,.F.);
#387=ORIENTED_EDGE('',*,*,#308,.F.);
#388=ORIENTED_EDGE('',*,*,#309,.T.);
#389=ORIENTED_EDGE('',*,*,#310,.F.);
#390=ORIENTED_EDGE('',*,*,#309,.F.);
#391=ORIENTED_EDGE('',*,*,#311,.F.);
#392=ORIENTED_EDGE('',*,*,#312,.T.);
#393=ORIENTED_EDGE('',*,*,#313,.F.);
#394=ORIENTED_EDGE('',*,*,#312,.F.);
#395=ORIENTED_EDGE('',*,*,#314,.F.);
#396=ORIENTED_EDGE('',*,*,#315,.T.);
#397=ORIENTED_EDGE('',*,*,#316,.F.);
#398=ORIENTED_EDGE('',*,*,#315,.F.);
#399=ORIENTED_EDGE('',*,*,#317,.F.);
#400=ORIENTED_EDGE('',*,*,#318,.T.);
#401=ORIENTED_EDGE('',*,*,#319,.F.);
#402=ORIENTED_EDGE('',*,*,#318,.F.);
#403=ORIENTED_EDGE('',*,*,#320,.F.);
#404=ORIENTED_EDGE('',*,*,#321,.T.);
#405=ORIENTED_EDGE('',*,*,#322,.F.);
#406=ORIENTED_EDGE('',*,*,#321,.F.);
#407=ORIENTED_EDGE('',*,*,#323,.T.);
#408=ORIENTED_EDGE('',*,*,#324,.T.);
#409=ORIENTED_EDGE('',*,*,#325,.T.);
#410=ORIENTED_EDGE('',*,*,#326,.T.);
#411=ORIENTED_EDGE('',*,*,#325,.F.);
#412=ORIENTED_EDGE('',*,*,#327,.T.);
#413=ORIENTED_EDGE('',*,*,#328,.F.);
#414=ORIENTED_EDGE('',*,*,#329,.F.);
#415=ORIENTED_EDGE('',*,*,#330,.T.);
#416=ORIENTED_EDGE('',*,*,#331,.F.);
#417=ORIENTED_EDGE('',*,*,#332,.T.);
#418=ORIENTED_EDGE('',*,*,#333,.T.);
#419=ORIENTED_EDGE('',*,*,#334,.T.);
#420=ORIENTED_EDGE('',*,*,#324,.F.);
#421=ORIENTED_EDGE('',*,*,#335,.T.);
#422=ORIENTED_EDGE('',*,*,#336,.F.);
#423=ORIENTED_EDGE('',*,*,#327,.F.);
#424=ORIENTED_EDGE('',*,*,#337,.T.);
#425=ORIENTED_EDGE('',*,*,#338,.T.);
#426=ORIENTED_EDGE('',*,*,#328,.T.);
#427=ORIENTED_EDGE('',*,*,#336,.T.);
#428=ORIENTED_EDGE('',*,*,#339,.T.);
#429=ORIENTED_EDGE('',*,*,#340,.T.);
#430=ORIENTED_EDGE('',*,*,#341,.T.);
#431=ORIENTED_EDGE('',*,*,#342,.T.);
#432=ORIENTED_EDGE('',*,*,#341,.F.);
#433=ORIENTED_EDGE('',*,*,#343,.T.);
#434=ORIENTED_EDGE('',*,*,#344,.F.);
#435=ORIENTED_EDGE('',*,*,#345,.F.);
#436=ORIENTED_EDGE('',*,*,#346,.T.);
#437=ORIENTED_EDGE('',*,*,#347,.F.);
#438=ORIENTED_EDGE('',*,*,#301,.T.);
#439=ORIENTED_EDGE('',*,*,#304,.T.);
#440=ORIENTED_EDGE('',*,*,#307,.T.);
#441=ORIENTED_EDGE('',*,*,#310,.T.);
#442=ORIENTED_EDGE('',*,*,#313,.T.);
#443=ORIENTED_EDGE('',*,*,#316,.T.);
#444=ORIENTED_EDGE('',*,*,#319,.T.);
#445=ORIENTED_EDGE('',*,*,#322,.T.);
#446=ORIENTED_EDGE('',*,*,#348,.T.);
#447=ORIENTED_EDGE('',*,*,#340,.F.);
#448=ORIENTED_EDGE('',*,*,#349,.T.);
#449=ORIENTED_EDGE('',*,*,#350,.F.);
#450=ORIENTED_EDGE('',*,*,#343,.F.);
#451=ORIENTED_EDGE('',*,*,#351,.T.);
#452=ORIENTED_EDGE('',*,*,#352,.T.);
#453=ORIENTED_EDGE('',*,*,#344,.T.);
#454=ORIENTED_EDGE('',*,*,#350,.T.);
#455=ORIENTED_EDGE('',*,*,#332,.F.);
#456=ORIENTED_EDGE('',*,*,#353,.T.);
#457=ORIENTED_EDGE('',*,*,#354,.F.);
#458=ORIENTED_EDGE('',*,*,#353,.F.);
#459=ORIENTED_EDGE('',*,*,#333,.F.);
#460=ORIENTED_EDGE('',*,*,#355,.T.);
#461=ORIENTED_EDGE('',*,*,#356,.F.);
#462=ORIENTED_EDGE('',*,*,#355,.F.);
#463=ORIENTED_EDGE('',*,*,#334,.F.);
#464=ORIENTED_EDGE('',*,*,#357,.T.);
#465=ORIENTED_EDGE('',*,*,#358,.F.);
#466=ORIENTED_EDGE('',*,*,#357,.F.);
#467=ORIENTED_EDGE('',*,*,#348,.F.);
#468=ORIENTED_EDGE('',*,*,#359,.T.);
#469=ORIENTED_EDGE('',*,*,#360,.F.);
#470=ORIENTED_EDGE('',*,*,#359,.F.);
#471=ORIENTED_EDGE('',*,*,#361,.T.);
#472=ORIENTED_EDGE('',*,*,#362,.T.);
#473=ORIENTED_EDGE('',*,*,#363,.T.);
#474=ORIENTED_EDGE('',*,*,#364,.T.);
#475=ORIENTED_EDGE('',*,*,#323,.F.);
#476=ORIENTED_EDGE('',*,*,#365,.T.);
#477=ORIENTED_EDGE('',*,*,#362,.F.);
#478=ORIENTED_EDGE('',*,*,#366,.T.);
#479=ORIENTED_EDGE('',*,*,#337,.F.);
#480=ORIENTED_EDGE('',*,*,#335,.F.);
#481=ORIENTED_EDGE('',*,*,#354,.T.);
#482=ORIENTED_EDGE('',*,*,#356,.T.);
#483=ORIENTED_EDGE('',*,*,#358,.T.);
#484=ORIENTED_EDGE('',*,*,#339,.F.);
#485=ORIENTED_EDGE('',*,*,#367,.T.);
#486=ORIENTED_EDGE('',*,*,#364,.F.);
#487=ORIENTED_EDGE('',*,*,#368,.T.);
#488=ORIENTED_EDGE('',*,*,#351,.F.);
#489=ORIENTED_EDGE('',*,*,#349,.F.);
#490=ORIENTED_EDGE('',*,*,#299,.T.);
#491=ORIENTED_EDGE('',*,*,#302,.T.);
#492=ORIENTED_EDGE('',*,*,#305,.T.);
#493=ORIENTED_EDGE('',*,*,#308,.T.);
#494=ORIENTED_EDGE('',*,*,#311,.T.);
#495=ORIENTED_EDGE('',*,*,#314,.T.);
#496=ORIENTED_EDGE('',*,*,#317,.T.);
#497=ORIENTED_EDGE('',*,*,#320,.T.);
#498=ORIENTED_EDGE('',*,*,#360,.T.);
#499=ORIENTED_EDGE('',*,*,#369,.F.);
#500=ORIENTED_EDGE('',*,*,#346,.F.);
#501=ORIENTED_EDGE('',*,*,#370,.F.);
#502=ORIENTED_EDGE('',*,*,#330,.F.);
#503=ORIENTED_EDGE('',*,*,#369,.T.);
#504=ORIENTED_EDGE('',*,*,#371,.T.);
#505=ORIENTED_EDGE('',*,*,#361,.F.);
#506=ORIENTED_EDGE('',*,*,#372,.F.);
#507=ORIENTED_EDGE('',*,*,#370,.T.);
#508=ORIENTED_EDGE('',*,*,#373,.T.);
#509=ORIENTED_EDGE('',*,*,#363,.F.);
#510=ORIENTED_EDGE('',*,*,#374,.F.);
#511=ORIENTED_EDGE('',*,*,#338,.F.);
#512=ORIENTED_EDGE('',*,*,#366,.F.);
#513=ORIENTED_EDGE('',*,*,#371,.F.);
#514=ORIENTED_EDGE('',*,*,#329,.T.);
#515=ORIENTED_EDGE('',*,*,#326,.F.);
#516=ORIENTED_EDGE('',*,*,#331,.T.);
#517=ORIENTED_EDGE('',*,*,#374,.T.);
#518=ORIENTED_EDGE('',*,*,#365,.F.);
#519=ORIENTED_EDGE('',*,*,#352,.F.);
#520=ORIENTED_EDGE('',*,*,#368,.F.);
#521=ORIENTED_EDGE('',*,*,#373,.F.);
#522=ORIENTED_EDGE('',*,*,#345,.T.);
#523=ORIENTED_EDGE('',*,*,#342,.F.);
#524=ORIENTED_EDGE('',*,*,#347,.T.);
#525=ORIENTED_EDGE('',*,*,#372,.T.);
#526=ORIENTED_EDGE('',*,*,#367,.F.);
#527=CYLINDRICAL_SURFACE('',#589,2.15);
#528=CYLINDRICAL_SURFACE('',#592,2.15);
#529=CYLINDRICAL_SURFACE('',#595,2.15);
#530=CYLINDRICAL_SURFACE('',#598,2.15);
#531=CYLINDRICAL_SURFACE('',#601,2.15);
#532=CYLINDRICAL_SURFACE('',#604,2.15);
#533=CYLINDRICAL_SURFACE('',#607,2.15);
#534=CYLINDRICAL_SURFACE('',#610,2.15);
#535=CYLINDRICAL_SURFACE('',#613,5.);
#536=CYLINDRICAL_SURFACE('',#622,5.);
#537=CYLINDRICAL_SURFACE('',#624,5.);
#538=CYLINDRICAL_SURFACE('',#631,5.);
#539=CYLINDRICAL_SURFACE('',#633,2.6);
#540=CYLINDRICAL_SURFACE('',#635,2.6);
#541=CYLINDRICAL_SURFACE('',#637,2.6);
#542=CYLINDRICAL_SURFACE('',#639,40.);
#543=CYLINDRICAL_SURFACE('',#641,0.762);
#544=CYLINDRICAL_SURFACE('',#646,3.302);
#545=ADVANCED_FACE('',(#51),#527,.F.);
#546=ADVANCED_FACE('',(#52),#528,.F.);
#547=ADVANCED_FACE('',(#53),#529,.F.);
#548=ADVANCED_FACE('',(#54),#530,.F.);
#549=ADVANCED_FACE('',(#55),#531,.F.);
#550=ADVANCED_FACE('',(#56),#532,.F.);
#551=ADVANCED_FACE('',(#57),#533,.F.);
#552=ADVANCED_FACE('',(#58),#534,.F.);
#553=ADVANCED_FACE('',(#59),#535,.T.);
#554=ADVANCED_FACE('',(#60,#15,#16,#17),#39,.T.);
#555=ADVANCED_FACE('',(#61),#40,.F.);
#556=ADVANCED_FACE('',(#62),#536,.T.);
#557=ADVANCED_FACE('',(#63),#537,.T.);
#558=ADVANCED_FACE('',(#64,#18,#19,#20,#21,#22,#23,#24,#25,#26),#41,.T.);
#559=ADVANCED_FACE('',(#65),#42,.F.);
#560=ADVANCED_FACE('',(#66),#538,.T.);
#561=ADVANCED_FACE('',(#67),#539,.F.);
#562=ADVANCED_FACE('',(#68),#540,.F.);
#563=ADVANCED_FACE('',(#69),#541,.F.);
#564=ADVANCED_FACE('',(#70),#542,.F.);
#565=ADVANCED_FACE('',(#71),#543,.F.);
#566=ADVANCED_FACE('',(#72,#27,#28,#29),#43,.F.);
#567=ADVANCED_FACE('',(#73,#30,#31,#32,#33,#34,#35,#36,#37,#38),#44,.F.);
#568=ADVANCED_FACE('',(#74),#544,.T.);
#569=ADVANCED_FACE('',(#75),#45,.F.);
#570=ADVANCED_FACE('',(#76),#46,.F.);
#571=ADVANCED_FACE('',(#77),#47,.F.);
#572=ADVANCED_FACE('',(#78),#48,.F.);
#573=ADVANCED_FACE('',(#79),#49,.F.);
#574=ADVANCED_FACE('',(#80),#50,.F.);
#575=CLOSED_SHELL('',(#545,#546,#547,#548,#549,#550,#551,#552,#553,#554,
#555,#556,#557,#558,#559,#560,#561,#562,#563,#564,#565,#566,#567,#568,#569,
#570,#571,#572,#573,#574));
#576=DERIVED_UNIT_ELEMENT(#578,1.);
#577=DERIVED_UNIT_ELEMENT(#989,-3.);
#578=(
MASS_UNIT()
NAMED_UNIT(*)
SI_UNIT(.KILO.,.GRAM.)
);
#579=DERIVED_UNIT((#576,#577));
#580=MEASURE_REPRESENTATION_ITEM('density measure',
POSITIVE_RATIO_MEASURE(7850.),#579);
#581=PROPERTY_DEFINITION_REPRESENTATION(#586,#583);
#582=PROPERTY_DEFINITION_REPRESENTATION(#587,#584);
#583=REPRESENTATION('material name',(#585),#986);
#584=REPRESENTATION('density',(#580),#986);
#585=DESCRIPTIVE_REPRESENTATION_ITEM('Steel','Steel');
#586=PROPERTY_DEFINITION('material property','material name',#996);
#587=PROPERTY_DEFINITION('material property','density of part',#996);
#588=AXIS2_PLACEMENT_3D('',#829,#655,#656);
#589=AXIS2_PLACEMENT_3D('',#830,#657,#658);
#590=AXIS2_PLACEMENT_3D('',#832,#659,#660);
#591=AXIS2_PLACEMENT_3D('',#835,#662,#663);
#592=AXIS2_PLACEMENT_3D('',#836,#664,#665);
#593=AXIS2_PLACEMENT_3D('',#838,#666,#667);
#594=AXIS2_PLACEMENT_3D('',#841,#669,#670);
#595=AXIS2_PLACEMENT_3D('',#842,#671,#672);
#596=AXIS2_PLACEMENT_3D('',#844,#673,#674);
#597=AXIS2_PLACEMENT_3D('',#847,#676,#677);
#598=AXIS2_PLACEMENT_3D('',#848,#678,#679);
#599=AXIS2_PLACEMENT_3D('',#850,#680,#681);
#600=AXIS2_PLACEMENT_3D('',#853,#683,#684);
#601=AXIS2_PLACEMENT_3D('',#854,#685,#686);
#602=AXIS2_PLACEMENT_3D('',#856,#687,#688);
#603=AXIS2_PLACEMENT_3D('',#859,#690,#691);
#604=AXIS2_PLACEMENT_3D('',#860,#692,#693);
#605=AXIS2_PLACEMENT_3D('',#862,#694,#695);
#606=AXIS2_PLACEMENT_3D('',#865,#697,#698);
#607=AXIS2_PLACEMENT_3D('',#866,#699,#700);
#608=AXIS2_PLACEMENT_3D('',#868,#701,#702);
#609=AXIS2_PLACEMENT_3D('',#871,#704,#705);
#610=AXIS2_PLACEMENT_3D('',#872,#706,#707);
#611=AXIS2_PLACEMENT_3D('',#874,#708,#709);
#612=AXIS2_PLACEMENT_3D('',#877,#711,#712);
#613=AXIS2_PLACEMENT_3D('',#878,#713,#714);
#614=AXIS2_PLACEMENT_3D('',#881,#715,#716);
#615=AXIS2_PLACEMENT_3D('',#885,#718,#719);
#616=AXIS2_PLACEMENT_3D('',#887,#721,#722);
#617=AXIS2_PLACEMENT_3D('',#891,#724,#725);
#618=AXIS2_PLACEMENT_3D('',#898,#729,#730);
#619=AXIS2_PLACEMENT_3D('',#900,#731,#732);
#620=AXIS2_PLACEMENT_3D('',#902,#733,#734);
#621=AXIS2_PLACEMENT_3D('',#903,#735,#736);
#622=AXIS2_PLACEMENT_3D('',#907,#739,#740);
#623=AXIS2_PLACEMENT_3D('',#909,#741,#742);
#624=AXIS2_PLACEMENT_3D('',#911,#744,#745);
#625=AXIS2_PLACEMENT_3D('',#914,#746,#747);
#626=AXIS2_PLACEMENT_3D('',#918,#749,#750);
#627=AXIS2_PLACEMENT_3D('',#920,#752,#753);
#628=AXIS2_PLACEMENT_3D('',#924,#755,#756);
#629=AXIS2_PLACEMENT_3D('',#931,#760,#761);
#630=AXIS2_PLACEMENT_3D('',#932,#762,#763);
#631=AXIS2_PLACEMENT_3D('',#936,#766,#767);
#632=AXIS2_PLACEMENT_3D('',#938,#768,#769);
#633=AXIS2_PLACEMENT_3D('',#940,#771,#772);
#634=AXIS2_PLACEMENT_3D('',#943,#774,#775);
#635=AXIS2_PLACEMENT_3D('',#944,#776,#777);
#636=AXIS2_PLACEMENT_3D('',#947,#779,#780);
#637=AXIS2_PLACEMENT_3D('',#948,#781,#782);
#638=AXIS2_PLACEMENT_3D('',#951,#784,#785);
#639=AXIS2_PLACEMENT_3D('',#952,#786,#787);
#640=AXIS2_PLACEMENT_3D('',#955,#789,#790);
#641=AXIS2_PLACEMENT_3D('',#956,#791,#792);
#642=AXIS2_PLACEMENT_3D('',#959,#793,#794);
#643=AXIS2_PLACEMENT_3D('',#963,#796,#797);
#644=AXIS2_PLACEMENT_3D('',#965,#799,#800);
#645=AXIS2_PLACEMENT_3D('',#968,#803,#804);
#646=AXIS2_PLACEMENT_3D('',#971,#807,#808);
#647=AXIS2_PLACEMENT_3D('',#972,#809,#810);
#648=AXIS2_PLACEMENT_3D('',#973,#811,#812);
#649=AXIS2_PLACEMENT_3D('',#974,#813,#814);
#650=AXIS2_PLACEMENT_3D('',#977,#817,#818);
#651=AXIS2_PLACEMENT_3D('',#980,#821,#822);
#652=AXIS2_PLACEMENT_3D('',#981,#823,#824);
#653=AXIS2_PLACEMENT_3D('',#982,#825,#826);
#654=AXIS2_PLACEMENT_3D('',#983,#827,#828);
#655=DIRECTION('axis',(0.,0.,1.));
#656=DIRECTION('refdir',(1.,0.,0.));
#657=DIRECTION('center_axis',(0.,0.,1.));
#658=DIRECTION('ref_axis',(-1.83697019872103E-16,1.,0.));
#659=DIRECTION('center_axis',(0.,0.,1.));
#660=DIRECTION('ref_axis',(-1.83697019872103E-16,1.,0.));
#661=DIRECTION('',(0.,0.,1.));
#662=DIRECTION('center_axis',(0.,0.,-1.));
#663=DIRECTION('ref_axis',(-1.83697019872103E-16,1.,0.));
#664=DIRECTION('center_axis',(0.,0.,1.));
#665=DIRECTION('ref_axis',(-1.83697019872103E-16,1.,0.));
#666=DIRECTION('center_axis',(0.,0.,1.));
#667=DIRECTION('ref_axis',(-1.83697019872103E-16,1.,0.));
#668=DIRECTION('',(0.,0.,1.));
#669=DIRECTION('center_axis',(0.,0.,-1.));
#670=DIRECTION('ref_axis',(-1.83697019872103E-16,1.,0.));
#671=DIRECTION('center_axis',(0.,0.,1.));
#672=DIRECTION('ref_axis',(-1.,-1.22464679914735E-16,0.));
#673=DIRECTION('center_axis',(0.,0.,1.));
#674=DIRECTION('ref_axis',(-1.,-1.22464679914735E-16,0.));
#675=DIRECTION('',(0.,0.,1.));
#676=DIRECTION('center_axis',(0.,0.,-1.));
#677=DIRECTION('ref_axis',(-1.,-1.22464679914735E-16,0.));
#678=DIRECTION('center_axis',(0.,0.,1.));
#679=DIRECTION('ref_axis',(-1.,-1.22464679914735E-16,0.));
#680=DIRECTION('center_axis',(0.,0.,1.));
#681=DIRECTION('ref_axis',(-1.,-1.22464679914735E-16,0.));
#682=DIRECTION('',(0.,0.,1.));
#683=DIRECTION('center_axis',(0.,0.,-1.));
#684=DIRECTION('ref_axis',(-1.,-1.22464679914735E-16,0.));
#685=DIRECTION('center_axis',(0.,0.,1.));
#686=DIRECTION('ref_axis',(6.12323399573677E-17,-1.,0.));
#687=DIRECTION('center_axis',(0.,0.,1.));
#688=DIRECTION('ref_axis',(6.12323399573677E-17,-1.,0.));
#689=DIRECTION('',(0.,0.,1.));
#690=DIRECTION('center_axis',(0.,0.,-1.));
#691=DIRECTION('ref_axis',(6.12323399573677E-17,-1.,0.));
#692=DIRECTION('center_axis',(0.,0.,1.));
#693=DIRECTION('ref_axis',(6.12323399573677E-17,-1.,0.));
#694=DIRECTION('center_axis',(0.,0.,1.));
#695=DIRECTION('ref_axis',(6.12323399573677E-17,-1.,0.));
#696=DIRECTION('',(0.,0.,1.));
#697=DIRECTION('center_axis',(0.,0.,-1.));
#698=DIRECTION('ref_axis',(6.12323399573677E-17,-1.,0.));
#699=DIRECTION('center_axis',(0.,0.,1.));
#700=DIRECTION('ref_axis',(1.,0.,0.));
#701=DIRECTION('center_axis',(0.,0.,1.));
#702=DIRECTION('ref_axis',(1.,0.,0.));
#703=DIRECTION('',(0.,0.,1.));
#704=DIRECTION('center_axis',(0.,0.,-1.));
#705=DIRECTION('ref_axis',(1.,0.,0.));
#706=DIRECTION('center_axis',(0.,0.,1.));
#707=DIRECTION('ref_axis',(1.,0.,0.));
#708=DIRECTION('center_axis',(0.,0.,1.));
#709=DIRECTION('ref_axis',(1.,0.,0.));
#710=DIRECTION('',(0.,0.,1.));
#711=DIRECTION('center_axis',(0.,0.,-1.));
#712=DIRECTION('ref_axis',(1.,0.,0.));
#713=DIRECTION('center_axis',(0.,-0.5,-0.866025403784439));
#714=DIRECTION('ref_axis',(0.707106781186547,0.612372435695795,-0.353553390593274));
#715=DIRECTION('center_axis',(0.,0.5,0.866025403784439));
#716=DIRECTION('ref_axis',(0.707106781186547,0.612372435695795,-0.353553390593274));
#717=DIRECTION('',(0.,0.5,0.866025403784439));
#718=DIRECTION('center_axis',(0.,-0.5,-0.866025403784439));
#719=DIRECTION('ref_axis',(0.707106781186547,0.612372435695795,-0.353553390593274));
#720=DIRECTION('',(0.,-0.5,-0.866025403784439));
#721=DIRECTION('center_axis',(0.,0.5,0.866025403784439));
#722=DIRECTION('ref_axis',(0.,-0.866025403784439,0.5));
#723=DIRECTION('',(-1.,0.,0.));
#724=DIRECTION('center_axis',(0.,-0.5,-0.866025403784439));
#725=DIRECTION('ref_axis',(-0.707106781186547,0.612372435695795,-0.353553390593274));
#726=DIRECTION('',(0.,0.866025403784439,-0.5));
#727=DIRECTION('',(1.,0.,0.));
#728=DIRECTION('',(0.,-0.866025403784439,0.5));
#729=DIRECTION('center_axis',(0.,-0.5,-0.866025403784439));
#730=DIRECTION('ref_axis',(-1.,0.,0.));
#731=DIRECTION('center_axis',(0.,-0.5,-0.866025403784439));
#732=DIRECTION('ref_axis',(-1.,0.,0.));
#733=DIRECTION('center_axis',(0.,-0.5,-0.866025403784439));
#734=DIRECTION('ref_axis',(-1.,0.,0.));
#735=DIRECTION('center_axis',(0.,-0.866025403784439,0.5));
#736=DIRECTION('ref_axis',(0.,-0.5,-0.866025403784439));
#737=DIRECTION('',(-1.,0.,0.));
#738=DIRECTION('',(0.,-0.5,-0.866025403784439));
#739=DIRECTION('center_axis',(0.,-0.5,-0.866025403784439));
#740=DIRECTION('ref_axis',(-0.707106781186547,0.612372435695795,-0.353553390593274));
#741=DIRECTION('center_axis',(0.,0.5,0.866025403784439));
#742=DIRECTION('ref_axis',(-0.707106781186547,0.612372435695795,-0.353553390593274));
#743=DIRECTION('',(0.,0.5,0.866025403784439));
#744=DIRECTION('center_axis',(0.,0.,-1.));
#745=DIRECTION('ref_axis',(-0.707106781186548,-0.707106781186548,0.));
#746=DIRECTION('center_axis',(0.,0.,1.));
#747=DIRECTION('ref_axis',(-0.707106781186548,-0.707106781186548,0.));
#748=DIRECTION('',(0.,0.,1.));
#749=DIRECTION('center_axis',(0.,0.,-1.));
#750=DIRECTION('ref_axis',(-0.707106781186548,-0.707106781186548,0.));
#751=DIRECTION('',(0.,0.,-1.));
#752=DIRECTION('center_axis',(0.,0.,1.));
#753=DIRECTION('ref_axis',(0.,-1.,0.));
#754=DIRECTION('',(1.,0.,0.));
#755=DIRECTION('center_axis',(0.,0.,-1.));
#756=DIRECTION('ref_axis',(0.707106781186548,-0.707106781186548,0.));
#757=DIRECTION('',(0.,-1.,0.));
#758=DIRECTION('',(-1.,0.,0.));
#759=DIRECTION('',(0.,1.,0.));
#760=DIRECTION('center_axis',(0.,0.,-1.));
#761=DIRECTION('ref_axis',(-1.,0.,0.));
#762=DIRECTION('center_axis',(0.,1.,0.));
#763=DIRECTION('ref_axis',(0.,0.,1.));
#764=DIRECTION('',(1.,0.,0.));
#765=DIRECTION('',(0.,0.,-1.));
#766=DIRECTION('center_axis',(0.,0.,-1.));
#767=DIRECTION('ref_axis',(0.707106781186548,-0.707106781186548,0.));
#768=DIRECTION('center_axis',(0.,0.,1.));
#769=DIRECTION('ref_axis',(0.707106781186548,-0.707106781186548,0.));
#770=DIRECTION('',(0.,0.,1.));
#771=DIRECTION('center_axis',(0.,-0.5,-0.866025403784439));
#772=DIRECTION('ref_axis',(-1.,0.,0.));
#773=DIRECTION('',(0.,-0.5,-0.866025403784439));
#774=DIRECTION('center_axis',(0.,0.5,0.866025403784439));
#775=DIRECTION('ref_axis',(-1.,0.,0.));
#776=DIRECTION('center_axis',(0.,-0.5,-0.866025403784439));
#777=DIRECTION('ref_axis',(-1.,0.,0.));
#778=DIRECTION('',(0.,-0.5,-0.866025403784439));
#779=DIRECTION('center_axis',(0.,0.5,0.866025403784439));
#780=DIRECTION('ref_axis',(-1.,0.,0.));
#781=DIRECTION('center_axis',(0.,-0.5,-0.866025403784439));
#782=DIRECTION('ref_axis',(-1.,0.,0.));
#783=DIRECTION('',(0.,-0.5,-0.866025403784439));
#784=DIRECTION('center_axis',(0.,0.5,0.866025403784439));
#785=DIRECTION('ref_axis',(-1.,0.,0.));
#786=DIRECTION('center_axis',(0.,0.,-1.));
#787=DIRECTION('ref_axis',(-1.,0.,0.));
#788=DIRECTION('',(0.,0.,-1.));
#789=DIRECTION('center_axis',(0.,0.,1.));
#790=DIRECTION('ref_axis',(-1.,0.,0.));
#791=DIRECTION('center_axis',(-1.,0.,0.));
#792=DIRECTION('ref_axis',(0.,0.258819045102524,0.965925826289067));
#793=DIRECTION('center_axis',(-1.,-1.00385432722808E-14,2.6898195629925E-15));
#794=DIRECTION('ref_axis',(-1.02551917678732E-29,0.25881904510252,0.965925826289069));
#795=DIRECTION('',(1.,0.,0.));
#796=DIRECTION('center_axis',(1.,1.00385432722807E-14,-2.68981956299248E-15));
#797=DIRECTION('ref_axis',(-3.94430452610506E-30,0.25881904510252,0.965925826289069));
#798=DIRECTION('',(-1.,0.,0.));
#799=DIRECTION('center_axis',(0.,0.5,0.866025403784439));
#800=DIRECTION('ref_axis',(0.,-0.866025403784439,0.5));
#801=DIRECTION('',(0.,-0.866025403784439,0.5));
#802=DIRECTION('',(0.,0.866025403784439,-0.5));
#803=DIRECTION('center_axis',(0.,0.,1.));
#804=DIRECTION('ref_axis',(0.,-1.,0.));
#805=DIRECTION('',(0.,1.,0.));
#806=DIRECTION('',(0.,-1.,0.));
#807=DIRECTION('center_axis',(-1.,0.,0.));
#808=DIRECTION('ref_axis',(0.,0.258819045102524,0.965925826289067));
#809=DIRECTION('center_axis',(-1.,-1.00385432722808E-14,2.6898195629925E-15));
#810=DIRECTION('ref_axis',(-1.30162049361467E-29,0.25881904510252,0.965925826289068));
#811=DIRECTION('center_axis',(1.,1.00385432722807E-14,-2.68981956299248E-15));
#812=DIRECTION('ref_axis',(-6.70531769437861E-30,0.25881904510252,0.965925826289068));
#813=DIRECTION('center_axis',(1.,1.00385432722808E-14,-2.6898195629925E-15));
#814=DIRECTION('ref_axis',(-2.6898195629925E-15,0.,-1.));
#815=DIRECTION('',(0.,-0.5,-0.866025403784439));
#816=DIRECTION('',(0.,0.,-1.));
#817=DIRECTION('center_axis',(-1.,-1.00385432722807E-14,2.68981956299248E-15));
#818=DIRECTION('ref_axis',(2.68981956299248E-15,0.,1.));
#819=DIRECTION('',(0.,0.,-1.));
#820=DIRECTION('',(0.,-0.5,-0.866025403784439));
#821=DIRECTION('center_axis',(1.,0.,0.));
#822=DIRECTION('ref_axis',(0.,0.,-1.));
#823=DIRECTION('center_axis',(-1.,0.,0.));
#824=DIRECTION('ref_axis',(0.,0.,1.));
#825=DIRECTION('center_axis',(-1.,0.,0.));
#826=DIRECTION('ref_axis',(0.,0.,1.));
#827=DIRECTION('center_axis',(1.,0.,0.));
#828=DIRECTION('ref_axis',(0.,0.,-1.));
#829=CARTESIAN_POINT('',(0.,0.,0.));
#830=CARTESIAN_POINT('Origin',(-37.5000005587935,37.5000005587935,-2.54));
#831=CARTESIAN_POINT('',(-37.5000005587935,35.3500005587935,-2.54));
#832=CARTESIAN_POINT('Origin',(-37.5000005587935,37.5000005587935,-2.54));
#833=CARTESIAN_POINT('',(-37.5000005587935,35.3500005587935,0.));
#834=CARTESIAN_POINT('',(-37.5000005587935,35.3500005587935,-2.54));
#835=CARTESIAN_POINT('Origin',(-37.5000005587935,37.5000005587935,0.));
#836=CARTESIAN_POINT('Origin',(-50.,50.,-2.54));
#837=CARTESIAN_POINT('',(-50.,47.85,-2.54));
#838=CARTESIAN_POINT('Origin',(-50.,50.,-2.54));
#839=CARTESIAN_POINT('',(-50.,47.85,0.));
#840=CARTESIAN_POINT('',(-50.,47.85,-2.54));
#841=CARTESIAN_POINT('Origin',(-50.,50.,0.));
#842=CARTESIAN_POINT('Origin',(-37.5000005587936,-37.5000005587935,-2.54));
#843=CARTESIAN_POINT('',(-35.3500005587936,-37.5000005587935,-2.54));
#844=CARTESIAN_POINT('Origin',(-37.5000005587936,-37.5000005587935,-2.54));
#845=CARTESIAN_POINT('',(-35.3500005587936,-37.5000005587935,0.));
#846=CARTESIAN_POINT('',(-35.3500005587936,-37.5000005587935,-2.54));
#847=CARTESIAN_POINT('Origin',(-37.5000005587936,-37.5000005587935,0.));
#848=CARTESIAN_POINT('Origin',(-50.,-50.,-2.54));
#849=CARTESIAN_POINT('',(-47.85,-50.,-2.54));
#850=CARTESIAN_POINT('Origin',(-50.,-50.,-2.54));
#851=CARTESIAN_POINT('',(-47.85,-50.,0.));
#852=CARTESIAN_POINT('',(-47.85,-50.,-2.54));
#853=CARTESIAN_POINT('Origin',(-50.,-50.,0.));
#854=CARTESIAN_POINT('Origin',(37.5000005587935,-37.5000005587936,-2.54));
#855=CARTESIAN_POINT('',(37.5000005587935,-35.3500005587936,-2.54));
#856=CARTESIAN_POINT('Origin',(37.5000005587935,-37.5000005587936,-2.54));
#857=CARTESIAN_POINT('',(37.5000005587935,-35.3500005587936,0.));
#858=CARTESIAN_POINT('',(37.5000005587935,-35.3500005587936,-2.54));
#859=CARTESIAN_POINT('Origin',(37.5000005587935,-37.5000005587936,0.));
#860=CARTESIAN_POINT('Origin',(50.,-50.,-2.54));
#861=CARTESIAN_POINT('',(50.,-47.85,-2.54));
#862=CARTESIAN_POINT('Origin',(50.,-50.,-2.54));
#863=CARTESIAN_POINT('',(50.,-47.85,0.));
#864=CARTESIAN_POINT('',(50.,-47.85,-2.54));
#865=CARTESIAN_POINT('Origin',(50.,-50.,0.));
#866=CARTESIAN_POINT('Origin',(37.5000005587936,37.5000005587935,-2.54));
#867=CARTESIAN_POINT('',(35.3500005587936,37.5000005587935,-2.54));
#868=CARTESIAN_POINT('Origin',(37.5000005587936,37.5000005587935,-2.54));
#869=CARTESIAN_POINT('',(35.3500005587936,37.5000005587935,0.));
#870=CARTESIAN_POINT('',(35.3500005587936,37.5000005587935,-2.54));
#871=CARTESIAN_POINT('Origin',(37.5000005587936,37.5000005587935,0.));
#872=CARTESIAN_POINT('Origin',(50.,50.,-2.54));
#873=CARTESIAN_POINT('',(47.85,50.,-2.54));
#874=CARTESIAN_POINT('Origin',(50.,50.,-2.54));
#875=CARTESIAN_POINT('',(47.85,50.,0.));
#876=CARTESIAN_POINT('',(47.85,50.,-2.54));
#877=CARTESIAN_POINT('Origin',(50.,50.,0.));
#878=CARTESIAN_POINT('Origin',(55.,106.650635094611,-12.5));
#879=CARTESIAN_POINT('',(60.,105.380635094611,-14.6997045256125));
#880=CARTESIAN_POINT('',(55.,109.710762113533,-17.1997045256125));
#881=CARTESIAN_POINT('Origin',(55.,105.380635094611,-14.6997045256125));
#882=CARTESIAN_POINT('',(55.,110.980762113533,-15.));
#883=CARTESIAN_POINT('',(55.,110.980762113533,-15.));
#884=CARTESIAN_POINT('',(60.,106.650635094611,-12.5));
#885=CARTESIAN_POINT('Origin',(55.,106.650635094611,-12.5));
#886=CARTESIAN_POINT('',(60.,106.650635094611,-12.5));
#887=CARTESIAN_POINT('Origin',(0.,110.980762113533,-15.));
#888=CARTESIAN_POINT('',(-55.,110.980762113533,-15.));
#889=CARTESIAN_POINT('',(0.,110.980762113533,-15.));
#890=CARTESIAN_POINT('',(-60.,106.650635094611,-12.5));
#891=CARTESIAN_POINT('Origin',(-55.,106.650635094611,-12.5));
#892=CARTESIAN_POINT('',(-60.,85.7662317665924,-0.442384116703774));
#893=CARTESIAN_POINT('',(-60.,85.,0.));
#894=CARTESIAN_POINT('',(60.,85.7662317665924,-0.442384116703774));
#895=CARTESIAN_POINT('',(0.,85.7662317665924,-0.442384116703775));
#896=CARTESIAN_POINT('',(60.,85.,0.));
#897=CARTESIAN_POINT('',(-47.4,102.320508075689,-10.));
#898=CARTESIAN_POINT('Origin',(-50.,102.320508075689,-9.99999999999999));
#899=CARTESIAN_POINT('',(2.6,102.320508075689,-10.));
#900=CARTESIAN_POINT('Origin',(0.,102.320508075689,-9.99999999999999));
#901=CARTESIAN_POINT('',(52.6,102.320508075689,-10.));
#902=CARTESIAN_POINT('Origin',(50.,102.320508075689,-9.99999999999999));
#903=CARTESIAN_POINT('Origin',(0.,110.980762113533,-15.));
#904=CARTESIAN_POINT('',(-55.,109.710762113533,-17.1997045256125));
#905=CARTESIAN_POINT('',(0.,109.710762113533,-17.1997045256125));
#906=CARTESIAN_POINT('',(-55.,110.980762113533,-15.));
#907=CARTESIAN_POINT('Origin',(-55.,106.650635094611,-12.5));
#908=CARTESIAN_POINT('',(-60.,105.380635094611,-14.6997045256125));
#909=CARTESIAN_POINT('Origin',(-55.,105.380635094611,-14.6997045256125));
#910=CARTESIAN_POINT('',(-60.,106.650635094611,-12.5));
#911=CARTESIAN_POINT('Origin',(-55.,-55.,0.));
#912=CARTESIAN_POINT('',(-60.,-55.,-2.54));
#913=CARTESIAN_POINT('',(-55.,-60.,-2.54));
#914=CARTESIAN_POINT('Origin',(-55.,-55.,-2.54));
#915=CARTESIAN_POINT('',(-55.,-60.,0.));
#916=CARTESIAN_POINT('',(-55.,-60.,0.));
#917=CARTESIAN_POINT('',(-60.,-55.,0.));
#918=CARTESIAN_POINT('Origin',(-55.,-55.,0.));
#919=CARTESIAN_POINT('',(-60.,-55.,0.));
#920=CARTESIAN_POINT('Origin',(0.,85.,0.));
#921=CARTESIAN_POINT('',(55.,-60.,0.));
#922=CARTESIAN_POINT('',(0.,-60.,0.));
#923=CARTESIAN_POINT('',(60.,-55.,0.));
#924=CARTESIAN_POINT('Origin',(55.,-55.,0.));
#925=CARTESIAN_POINT('',(60.,84.1152317665924,0.));
#926=CARTESIAN_POINT('',(60.,-60.,0.));
#927=CARTESIAN_POINT('',(-60.,84.1152317665924,0.));
#928=CARTESIAN_POINT('',(0.,84.1152317665924,0.));
#929=CARTESIAN_POINT('',(-60.,-60.,0.));
#930=CARTESIAN_POINT('',(40.,-4.89858719658941E-15,0.));
#931=CARTESIAN_POINT('Origin',(0.,0.,0.));
#932=CARTESIAN_POINT('Origin',(0.,-60.,0.));
#933=CARTESIAN_POINT('',(55.,-60.,-2.54));
#934=CARTESIAN_POINT('',(0.,-60.,-2.54));
#935=CARTESIAN_POINT('',(55.,-60.,0.));
#936=CARTESIAN_POINT('Origin',(55.,-55.,0.));
#937=CARTESIAN_POINT('',(60.,-55.,-2.54));
#938=CARTESIAN_POINT('Origin',(55.,-55.,-2.54));
#939=CARTESIAN_POINT('',(60.,-55.,0.));
#940=CARTESIAN_POINT('Origin',(-50.,102.320508075689,-10.));
#941=CARTESIAN_POINT('',(-47.4,101.050508075689,-12.1997045256125));
#942=CARTESIAN_POINT('',(-47.4,102.320508075689,-10.));
#943=CARTESIAN_POINT('Origin',(-50.,101.050508075689,-12.1997045256125));
#944=CARTESIAN_POINT('Origin',(0.,102.320508075689,-10.));
#945=CARTESIAN_POINT('',(2.6,101.050508075689,-12.1997045256125));
#946=CARTESIAN_POINT('',(2.6,102.320508075689,-10.));
#947=CARTESIAN_POINT('Origin',(0.,101.050508075689,-12.1997045256125));
#948=CARTESIAN_POINT('Origin',(50.,102.320508075689,-10.));
#949=CARTESIAN_POINT('',(52.6,101.050508075689,-12.1997045256125));
#950=CARTESIAN_POINT('',(52.6,102.320508075689,-10.));
#951=CARTESIAN_POINT('Origin',(50.,101.050508075689,-12.1997045256125));
#952=CARTESIAN_POINT('Origin',(0.,0.,17.5));
#953=CARTESIAN_POINT('',(40.,4.89858719658941E-15,-2.54));
#954=CARTESIAN_POINT('',(40.,-4.89858719658941E-15,17.5));
#955=CARTESIAN_POINT('Origin',(0.,0.,-2.54));
#956=CARTESIAN_POINT('Origin',(0.,84.1152317665924,-3.302));
#957=CARTESIAN_POINT('',(-60.,84.1152317665924,-2.54));
#958=CARTESIAN_POINT('',(-60.,84.4962317665924,-2.64208864231625));
#959=CARTESIAN_POINT('Origin',(-60.,84.1152317665924,-3.302));
#960=CARTESIAN_POINT('',(60.,84.4962317665924,-2.64208864231625));
#961=CARTESIAN_POINT('',(0.,84.4962317665924,-2.64208864231625));
#962=CARTESIAN_POINT('',(60.,84.1152317665924,-2.54));
#963=CARTESIAN_POINT('Origin',(60.,84.1152317665924,-3.302));
#964=CARTESIAN_POINT('',(0.,84.1152317665924,-2.54));
#965=CARTESIAN_POINT('Origin',(0.,109.710762113533,-17.1997045256125));
#966=CARTESIAN_POINT('',(60.,83.73,-2.19970452561247));
#967=CARTESIAN_POINT('',(-60.,83.73,-2.19970452561247));
#968=CARTESIAN_POINT('Origin',(0.,85.,-2.54));
#969=CARTESIAN_POINT('',(-60.,-60.,-2.54));
#970=CARTESIAN_POINT('',(60.,-60.,-2.54));
#971=CARTESIAN_POINT('Origin',(0.,84.1152317665924,-3.302));
#972=CARTESIAN_POINT('Origin',(-60.,84.1152317665924,-3.302));
#973=CARTESIAN_POINT('Origin',(60.,84.1152317665924,-3.302));
#974=CARTESIAN_POINT('Origin',(-60.,84.9698522535209,-0.112512921593499));
#975=CARTESIAN_POINT('',(-60.,85.7662317665924,-0.442384116703774));
#976=CARTESIAN_POINT('',(-60.,84.1152317665924,0.));
#977=CARTESIAN_POINT('Origin',(60.,84.9698522535209,-0.112512921593499));
#978=CARTESIAN_POINT('',(60.,84.1152317665924,0.));
#979=CARTESIAN_POINT('',(60.,85.7662317665924,-0.442384116703774));
#980=CARTESIAN_POINT('Origin',(-60.,98.3734969400628,-7.72119205835188));
#981=CARTESIAN_POINT('Origin',(60.,98.3734969400628,-7.72119205835188));
#982=CARTESIAN_POINT('Origin',(60.,12.0576158832962,0.));
#983=CARTESIAN_POINT('Origin',(-60.,12.0576158832962,0.));
#984=UNCERTAINTY_MEASURE_WITH_UNIT(LENGTH_MEASURE(0.01),#988,
'DISTANCE_ACCURACY_VALUE',
'Maximum model space distance between geometric entities at asserted c
onnectivities');
#985=UNCERTAINTY_MEASURE_WITH_UNIT(LENGTH_MEASURE(0.01),#988,
'DISTANCE_ACCURACY_VALUE',
'Maximum model space distance between geometric entities at asserted c
onnectivities');
#986=(
GEOMETRIC_REPRESENTATION_CONTEXT(3)
GLOBAL_UNCERTAINTY_ASSIGNED_CONTEXT((#984))
GLOBAL_UNIT_ASSIGNED_CONTEXT((#988,#990,#991))
REPRESENTATION_CONTEXT('','3D')
);
#987=(
GEOMETRIC_REPRESENTATION_CONTEXT(3)
GLOBAL_UNCERTAINTY_ASSIGNED_CONTEXT((#985))
GLOBAL_UNIT_ASSIGNED_CONTEXT((#988,#990,#991))
REPRESENTATION_CONTEXT('','3D')
);
#988=(
LENGTH_UNIT()
NAMED_UNIT(*)
SI_UNIT(.MILLI.,.METRE.)
);
#989=(
LENGTH_UNIT()
NAMED_UNIT(*)
SI_UNIT($,.METRE.)
);
#990=(
NAMED_UNIT(*)
PLANE_ANGLE_UNIT()
SI_UNIT($,.RADIAN.)
);
#991=(
NAMED_UNIT(*)
SI_UNIT($,.STERADIAN.)
SOLID_ANGLE_UNIT()
);
#992=SHAPE_DEFINITION_REPRESENTATION(#993,#994);
#993=PRODUCT_DEFINITION_SHAPE('',$,#996);
#994=SHAPE_REPRESENTATION('',(#588),#986);
#995=PRODUCT_DEFINITION_CONTEXT('part definition',#1000,'design');
#996=PRODUCT_DEFINITION('152108001_01',
'152108001_01 - Touchscreen Mount 2025-4-9 v1',#997,#995);
#997=PRODUCT_DEFINITION_FORMATION('',$,#1002);
#998=PRODUCT_RELATED_PRODUCT_CATEGORY(
'152108001_01 - Touchscreen Mount 2025-4-9 v1',
'152108001_01 - Touchscreen Mount 2025-4-9 v1',(#1002));
#999=APPLICATION_PROTOCOL_DEFINITION('international standard',
'automotive_design',2009,#1000);
#1000=APPLICATION_CONTEXT(
'Core Data for Automotive Mechanical Design Process');
#1001=PRODUCT_CONTEXT('part definition',#1000,'mechanical');
#1002=PRODUCT('152108001_01',
'152108001_01 - Touchscreen Mount 2025-4-9 v1','TOUCHSCREEN MOUNT',(#1001));
#1003=PRESENTATION_STYLE_ASSIGNMENT((#1005));
#1004=PRESENTATION_STYLE_ASSIGNMENT((#1006));
#1005=SURFACE_STYLE_USAGE(.BOTH.,#1007);
#1006=SURFACE_STYLE_USAGE(.BOTH.,#1008);
#1007=SURFACE_SIDE_STYLE('',(#1009));
#1008=SURFACE_SIDE_STYLE('',(#1010));
#1009=SURFACE_STYLE_FILL_AREA(#1011);
#1010=SURFACE_STYLE_FILL_AREA(#1012);
#1011=FILL_AREA_STYLE('Plate',(#1013));
#1012=FILL_AREA_STYLE('Opaque(115,115,115)',(#1014));
#1013=FILL_AREA_STYLE_COLOUR('Plate',#1015);
#1014=FILL_AREA_STYLE_COLOUR('Opaque(115,115,115)',#1016);
#1015=COLOUR_RGB('Plate',0.6,0.6,0.6);
#1016=COLOUR_RGB('Opaque(115,115,115)',0.450980392156863,0.450980392156863,
0.450980392156863);
ENDSEC;
END-ISO-10303-21;
