ISO-10303-21;
HEADER;
/* Generated by software containing ST-Developer
 * from STEP Tools, Inc. (www.steptools.com) 
 */

FILE_DESCRIPTION(
/* description */ (''),
/* implementation_level */ '2;1');

FILE_NAME(
/* name */ '3D-AM06.step',
/* time_stamp */ '2025-04-09T13:46:58-05:00',
/* author */ (''),
/* organization */ (''),
/* preprocessor_version */ 'ST-DEVELOPER v20.1',
/* originating_system */ 'Autodesk Translation Framework v14.4.0.0',
/* authorisation */ '');

FILE_SCHEMA (('AUTOMOTIVE_DESIGN { 1 0 10303 214 3 1 1 }'));
ENDSEC;

DATA;
#10=MECHANICAL_DESIGN_GEOMETRIC_PRESENTATION_REPRESENTATION('',(#17),#589);
#11=ITEM_DEFINED_TRANSFORMATION($,$,#345,#385);
#12=(
REPRESENTATION_RELATIONSHIP($,$,#600,#599)
REPRESENTATION_RELATIONSHIP_WITH_TRANSFORMATION(#11)
SHAPE_REPRESENTATION_RELATIONSHIP()
);
#13=CONTEXT_DEPENDENT_SHAPE_REPRESENTATION(#12,#598);
#14=NEXT_ASSEMBLY_USAGE_OCCURRENCE('Endcap:1','Endcap:1','Endcap:1',#602,
#603,'Endcap:1');
#15=SHAPE_REPRESENTATION_RELATIONSHIP('SRR','None',#600,#16);
#16=ADVANCED_BREP_SHAPE_REPRESENTATION('',(#18),#588);
#17=STYLED_ITEM('',(#614),#18);
#18=MANIFOLD_SOLID_BREP('Body1',#331);
#19=CYLINDRICAL_SURFACE('',#355,5.);
#20=CYLINDRICAL_SURFACE('',#358,5.);
#21=CYLINDRICAL_SURFACE('',#370,5.);
#22=CYLINDRICAL_SURFACE('',#372,5.);
#23=CYLINDRICAL_SURFACE('',#374,4.75);
#24=CYLINDRICAL_SURFACE('',#375,4.75);
#25=CYLINDRICAL_SURFACE('',#376,4.75);
#26=CYLINDRICAL_SURFACE('',#377,2.65000000000001);
#27=CYLINDRICAL_SURFACE('',#379,2.65000000000001);
#28=CYLINDRICAL_SURFACE('',#381,2.65000000000001);
#29=FACE_BOUND('',#58,.T.);
#30=FACE_BOUND('',#59,.T.);
#31=FACE_BOUND('',#60,.T.);
#32=FACE_BOUND('',#66,.T.);
#33=FACE_BOUND('',#68,.T.);
#34=FACE_BOUND('',#70,.T.);
#35=FACE_BOUND('',#82,.T.);
#36=FACE_BOUND('',#83,.T.);
#37=FACE_BOUND('',#84,.T.);
#38=FACE_OUTER_BOUND('',#57,.T.);
#39=FACE_OUTER_BOUND('',#61,.T.);
#40=FACE_OUTER_BOUND('',#62,.T.);
#41=FACE_OUTER_BOUND('',#63,.T.);
#42=FACE_OUTER_BOUND('',#64,.T.);
#43=FACE_OUTER_BOUND('',#65,.T.);
#44=FACE_OUTER_BOUND('',#67,.T.);
#45=FACE_OUTER_BOUND('',#69,.T.);
#46=FACE_OUTER_BOUND('',#71,.T.);
#47=FACE_OUTER_BOUND('',#72,.T.);
#48=FACE_OUTER_BOUND('',#73,.T.);
#49=FACE_OUTER_BOUND('',#74,.T.);
#50=FACE_OUTER_BOUND('',#75,.T.);
#51=FACE_OUTER_BOUND('',#76,.T.);
#52=FACE_OUTER_BOUND('',#77,.T.);
#53=FACE_OUTER_BOUND('',#78,.T.);
#54=FACE_OUTER_BOUND('',#79,.T.);
#55=FACE_OUTER_BOUND('',#80,.T.);
#56=FACE_OUTER_BOUND('',#81,.T.);
#57=EDGE_LOOP('',(#219,#220,#221,#222,#223,#224,#225,#226));
#58=EDGE_LOOP('',(#227));
#59=EDGE_LOOP('',(#228));
#60=EDGE_LOOP('',(#229));
#61=EDGE_LOOP('',(#230,#231,#232,#233));
#62=EDGE_LOOP('',(#234,#235,#236,#237));
#63=EDGE_LOOP('',(#238,#239,#240,#241));
#64=EDGE_LOOP('',(#242,#243,#244,#245));
#65=EDGE_LOOP('',(#246));
#66=EDGE_LOOP('',(#247));
#67=EDGE_LOOP('',(#248));
#68=EDGE_LOOP('',(#249));
#69=EDGE_LOOP('',(#250));
#70=EDGE_LOOP('',(#251));
#71=EDGE_LOOP('',(#252,#253,#254,#255));
#72=EDGE_LOOP('',(#256,#257,#258,#259));
#73=EDGE_LOOP('',(#260,#261,#262,#263));
#74=EDGE_LOOP('',(#264,#265,#266,#267));
#75=EDGE_LOOP('',(#268,#269,#270,#271));
#76=EDGE_LOOP('',(#272,#273,#274,#275));
#77=EDGE_LOOP('',(#276,#277,#278,#279));
#78=EDGE_LOOP('',(#280,#281,#282,#283));
#79=EDGE_LOOP('',(#284,#285,#286,#287));
#80=EDGE_LOOP('',(#288,#289,#290,#291));
#81=EDGE_LOOP('',(#292,#293,#294,#295,#296,#297,#298,#299));
#82=EDGE_LOOP('',(#300));
#83=EDGE_LOOP('',(#301));
#84=EDGE_LOOP('',(#302));
#85=LINE('',#499,#107);
#86=LINE('',#503,#108);
#87=LINE('',#507,#109);
#88=LINE('',#510,#110);
#89=LINE('',#519,#111);
#90=LINE('',#521,#112);
#91=LINE('',#522,#113);
#92=LINE('',#525,#114);
#93=LINE('',#529,#115);
#94=LINE('',#530,#116);
#95=LINE('',#533,#117);
#96=LINE('',#552,#118);
#97=LINE('',#553,#119);
#98=LINE('',#556,#120);
#99=LINE('',#561,#121);
#100=LINE('',#563,#122);
#101=LINE('',#565,#123);
#102=LINE('',#567,#124);
#103=LINE('',#570,#125);
#104=LINE('',#574,#126);
#105=LINE('',#578,#127);
#106=LINE('',#581,#128);
#107=VECTOR('',#394,10.);
#108=VECTOR('',#397,10.);
#109=VECTOR('',#400,10.);
#110=VECTOR('',#403,10.);
#111=VECTOR('',#412,10.);
#112=VECTOR('',#413,10.);
#113=VECTOR('',#414,10.);
#114=VECTOR('',#417,10.);
#115=VECTOR('',#422,10.);
#116=VECTOR('',#423,10.);
#117=VECTOR('',#426,10.);
#118=VECTOR('',#449,10.);
#119=VECTOR('',#450,10.);
#120=VECTOR('',#453,10.);
#121=VECTOR('',#460,10.);
#122=VECTOR('',#463,4.75);
#123=VECTOR('',#466,4.75);
#124=VECTOR('',#469,4.75);
#125=VECTOR('',#472,2.65000000000001);
#126=VECTOR('',#477,2.65000000000001);
#127=VECTOR('',#482,2.65000000000001);
#128=VECTOR('',#487,10.);
#129=CIRCLE('',#347,5.);
#130=CIRCLE('',#348,5.);
#131=CIRCLE('',#349,5.);
#132=CIRCLE('',#350,5.);
#133=CIRCLE('',#351,4.75);
#134=CIRCLE('',#352,4.75);
#135=CIRCLE('',#353,4.75);
#136=CIRCLE('',#356,5.);
#137=CIRCLE('',#359,5.);
#138=CIRCLE('',#361,4.75);
#139=CIRCLE('',#362,2.65000000000001);
#140=CIRCLE('',#364,4.75);
#141=CIRCLE('',#365,2.65000000000001);
#142=CIRCLE('',#367,4.75);
#143=CIRCLE('',#368,2.65000000000001);
#144=CIRCLE('',#371,5.);
#145=CIRCLE('',#373,5.);
#146=CIRCLE('',#378,2.65000000000001);
#147=CIRCLE('',#380,2.65000000000001);
#148=CIRCLE('',#382,2.65000000000001);
#149=VERTEX_POINT('',#495);
#150=VERTEX_POINT('',#496);
#151=VERTEX_POINT('',#498);
#152=VERTEX_POINT('',#500);
#153=VERTEX_POINT('',#502);
#154=VERTEX_POINT('',#504);
#155=VERTEX_POINT('',#506);
#156=VERTEX_POINT('',#508);
#157=VERTEX_POINT('',#511);
#158=VERTEX_POINT('',#513);
#159=VERTEX_POINT('',#515);
#160=VERTEX_POINT('',#518);
#161=VERTEX_POINT('',#520);
#162=VERTEX_POINT('',#524);
#163=VERTEX_POINT('',#528);
#164=VERTEX_POINT('',#532);
#165=VERTEX_POINT('',#536);
#166=VERTEX_POINT('',#538);
#167=VERTEX_POINT('',#541);
#168=VERTEX_POINT('',#543);
#169=VERTEX_POINT('',#546);
#170=VERTEX_POINT('',#548);
#171=VERTEX_POINT('',#551);
#172=VERTEX_POINT('',#555);
#173=VERTEX_POINT('',#559);
#174=VERTEX_POINT('',#569);
#175=VERTEX_POINT('',#573);
#176=VERTEX_POINT('',#577);
#177=EDGE_CURVE('',#149,#150,#129,.T.);
#178=EDGE_CURVE('',#151,#149,#85,.T.);
#179=EDGE_CURVE('',#152,#151,#130,.T.);
#180=EDGE_CURVE('',#153,#152,#86,.T.);
#181=EDGE_CURVE('',#154,#153,#131,.T.);
#182=EDGE_CURVE('',#155,#154,#87,.T.);
#183=EDGE_CURVE('',#156,#155,#132,.T.);
#184=EDGE_CURVE('',#150,#156,#88,.T.);
#185=EDGE_CURVE('',#157,#157,#133,.T.);
#186=EDGE_CURVE('',#158,#158,#134,.T.);
#187=EDGE_CURVE('',#159,#159,#135,.T.);
#188=EDGE_CURVE('',#160,#154,#89,.T.);
#189=EDGE_CURVE('',#161,#160,#90,.T.);
#190=EDGE_CURVE('',#155,#161,#91,.T.);
#191=EDGE_CURVE('',#153,#162,#92,.T.);
#192=EDGE_CURVE('',#162,#160,#136,.T.);
#193=EDGE_CURVE('',#163,#152,#93,.T.);
#194=EDGE_CURVE('',#162,#163,#94,.T.);
#195=EDGE_CURVE('',#151,#164,#95,.T.);
#196=EDGE_CURVE('',#164,#163,#137,.T.);
#197=EDGE_CURVE('',#165,#165,#138,.T.);
#198=EDGE_CURVE('',#166,#166,#139,.T.);
#199=EDGE_CURVE('',#167,#167,#140,.T.);
#200=EDGE_CURVE('',#168,#168,#141,.T.);
#201=EDGE_CURVE('',#169,#169,#142,.T.);
#202=EDGE_CURVE('',#170,#170,#143,.T.);
#203=EDGE_CURVE('',#171,#149,#96,.T.);
#204=EDGE_CURVE('',#164,#171,#97,.T.);
#205=EDGE_CURVE('',#150,#172,#98,.T.);
#206=EDGE_CURVE('',#172,#171,#144,.T.);
#207=EDGE_CURVE('',#161,#173,#145,.T.);
#208=EDGE_CURVE('',#173,#156,#99,.T.);
#209=EDGE_CURVE('',#159,#167,#100,.T.);
#210=EDGE_CURVE('',#158,#169,#101,.T.);
#211=EDGE_CURVE('',#157,#165,#102,.T.);
#212=EDGE_CURVE('',#166,#174,#103,.T.);
#213=EDGE_CURVE('',#174,#174,#146,.T.);
#214=EDGE_CURVE('',#170,#175,#104,.T.);
#215=EDGE_CURVE('',#175,#175,#147,.T.);
#216=EDGE_CURVE('',#168,#176,#105,.T.);
#217=EDGE_CURVE('',#176,#176,#148,.T.);
#218=EDGE_CURVE('',#172,#173,#106,.T.);
#219=ORIENTED_EDGE('',*,*,#177,.F.);
#220=ORIENTED_EDGE('',*,*,#178,.F.);
#221=ORIENTED_EDGE('',*,*,#179,.F.);
#222=ORIENTED_EDGE('',*,*,#180,.F.);
#223=ORIENTED_EDGE('',*,*,#181,.F.);
#224=ORIENTED_EDGE('',*,*,#182,.F.);
#225=ORIENTED_EDGE('',*,*,#183,.F.);
#226=ORIENTED_EDGE('',*,*,#184,.F.);
#227=ORIENTED_EDGE('',*,*,#185,.F.);
#228=ORIENTED_EDGE('',*,*,#186,.F.);
#229=ORIENTED_EDGE('',*,*,#187,.F.);
#230=ORIENTED_EDGE('',*,*,#182,.T.);
#231=ORIENTED_EDGE('',*,*,#188,.F.);
#232=ORIENTED_EDGE('',*,*,#189,.F.);
#233=ORIENTED_EDGE('',*,*,#190,.F.);
#234=ORIENTED_EDGE('',*,*,#181,.T.);
#235=ORIENTED_EDGE('',*,*,#191,.T.);
#236=ORIENTED_EDGE('',*,*,#192,.T.);
#237=ORIENTED_EDGE('',*,*,#188,.T.);
#238=ORIENTED_EDGE('',*,*,#180,.T.);
#239=ORIENTED_EDGE('',*,*,#193,.F.);
#240=ORIENTED_EDGE('',*,*,#194,.F.);
#241=ORIENTED_EDGE('',*,*,#191,.F.);
#242=ORIENTED_EDGE('',*,*,#179,.T.);
#243=ORIENTED_EDGE('',*,*,#195,.T.);
#244=ORIENTED_EDGE('',*,*,#196,.T.);
#245=ORIENTED_EDGE('',*,*,#193,.T.);
#246=ORIENTED_EDGE('',*,*,#197,.F.);
#247=ORIENTED_EDGE('',*,*,#198,.F.);
#248=ORIENTED_EDGE('',*,*,#199,.F.);
#249=ORIENTED_EDGE('',*,*,#200,.F.);
#250=ORIENTED_EDGE('',*,*,#201,.F.);
#251=ORIENTED_EDGE('',*,*,#202,.F.);
#252=ORIENTED_EDGE('',*,*,#178,.T.);
#253=ORIENTED_EDGE('',*,*,#203,.F.);
#254=ORIENTED_EDGE('',*,*,#204,.F.);
#255=ORIENTED_EDGE('',*,*,#195,.F.);
#256=ORIENTED_EDGE('',*,*,#177,.T.);
#257=ORIENTED_EDGE('',*,*,#205,.T.);
#258=ORIENTED_EDGE('',*,*,#206,.T.);
#259=ORIENTED_EDGE('',*,*,#203,.T.);
#260=ORIENTED_EDGE('',*,*,#183,.T.);
#261=ORIENTED_EDGE('',*,*,#190,.T.);
#262=ORIENTED_EDGE('',*,*,#207,.T.);
#263=ORIENTED_EDGE('',*,*,#208,.T.);
#264=ORIENTED_EDGE('',*,*,#187,.T.);
#265=ORIENTED_EDGE('',*,*,#209,.T.);
#266=ORIENTED_EDGE('',*,*,#199,.T.);
#267=ORIENTED_EDGE('',*,*,#209,.F.);
#268=ORIENTED_EDGE('',*,*,#186,.T.);
#269=ORIENTED_EDGE('',*,*,#210,.T.);
#270=ORIENTED_EDGE('',*,*,#201,.T.);
#271=ORIENTED_EDGE('',*,*,#210,.F.);
#272=ORIENTED_EDGE('',*,*,#185,.T.);
#273=ORIENTED_EDGE('',*,*,#211,.T.);
#274=ORIENTED_EDGE('',*,*,#197,.T.);
#275=ORIENTED_EDGE('',*,*,#211,.F.);
#276=ORIENTED_EDGE('',*,*,#198,.T.);
#277=ORIENTED_EDGE('',*,*,#212,.T.);
#278=ORIENTED_EDGE('',*,*,#213,.T.);
#279=ORIENTED_EDGE('',*,*,#212,.F.);
#280=ORIENTED_EDGE('',*,*,#202,.T.);
#281=ORIENTED_EDGE('',*,*,#214,.T.);
#282=ORIENTED_EDGE('',*,*,#215,.T.);
#283=ORIENTED_EDGE('',*,*,#214,.F.);
#284=ORIENTED_EDGE('',*,*,#200,.T.);
#285=ORIENTED_EDGE('',*,*,#216,.T.);
#286=ORIENTED_EDGE('',*,*,#217,.T.);
#287=ORIENTED_EDGE('',*,*,#216,.F.);
#288=ORIENTED_EDGE('',*,*,#184,.T.);
#289=ORIENTED_EDGE('',*,*,#208,.F.);
#290=ORIENTED_EDGE('',*,*,#218,.F.);
#291=ORIENTED_EDGE('',*,*,#205,.F.);
#292=ORIENTED_EDGE('',*,*,#206,.F.);
#293=ORIENTED_EDGE('',*,*,#218,.T.);
#294=ORIENTED_EDGE('',*,*,#207,.F.);
#295=ORIENTED_EDGE('',*,*,#189,.T.);
#296=ORIENTED_EDGE('',*,*,#192,.F.);
#297=ORIENTED_EDGE('',*,*,#194,.T.);
#298=ORIENTED_EDGE('',*,*,#196,.F.);
#299=ORIENTED_EDGE('',*,*,#204,.T.);
#300=ORIENTED_EDGE('',*,*,#215,.F.);
#301=ORIENTED_EDGE('',*,*,#213,.F.);
#302=ORIENTED_EDGE('',*,*,#217,.F.);
#303=PLANE('',#346);
#304=PLANE('',#354);
#305=PLANE('',#357);
#306=PLANE('',#360);
#307=PLANE('',#363);
#308=PLANE('',#366);
#309=PLANE('',#369);
#310=PLANE('',#383);
#311=PLANE('',#384);
#312=ADVANCED_FACE('',(#38,#29,#30,#31),#303,.T.);
#313=ADVANCED_FACE('',(#39),#304,.T.);
#314=ADVANCED_FACE('',(#40),#19,.T.);
#315=ADVANCED_FACE('',(#41),#305,.T.);
#316=ADVANCED_FACE('',(#42),#20,.T.);
#317=ADVANCED_FACE('',(#43,#32),#306,.T.);
#318=ADVANCED_FACE('',(#44,#33),#307,.T.);
#319=ADVANCED_FACE('',(#45,#34),#308,.T.);
#320=ADVANCED_FACE('',(#46),#309,.T.);
#321=ADVANCED_FACE('',(#47),#21,.T.);
#322=ADVANCED_FACE('',(#48),#22,.T.);
#323=ADVANCED_FACE('',(#49),#23,.F.);
#324=ADVANCED_FACE('',(#50),#24,.F.);
#325=ADVANCED_FACE('',(#51),#25,.F.);
#326=ADVANCED_FACE('',(#52),#26,.F.);
#327=ADVANCED_FACE('',(#53),#27,.F.);
#328=ADVANCED_FACE('',(#54),#28,.F.);
#329=ADVANCED_FACE('',(#55),#310,.T.);
#330=ADVANCED_FACE('',(#56,#35,#36,#37),#311,.F.);
#331=CLOSED_SHELL('',(#312,#313,#314,#315,#316,#317,#318,#319,#320,#321,
#322,#323,#324,#325,#326,#327,#328,#329,#330));
#332=DERIVED_UNIT_ELEMENT(#334,1.);
#333=DERIVED_UNIT_ELEMENT(#591,-3.);
#334=(
MASS_UNIT()
NAMED_UNIT(*)
SI_UNIT(.KILO.,.GRAM.)
);
#335=DERIVED_UNIT((#332,#333));
#336=MEASURE_REPRESENTATION_ITEM('density measure',
POSITIVE_RATIO_MEASURE(1300.),#335);
#337=PROPERTY_DEFINITION_REPRESENTATION(#342,#339);
#338=PROPERTY_DEFINITION_REPRESENTATION(#343,#340);
#339=REPRESENTATION('material name',(#341),#588);
#340=REPRESENTATION('density',(#336),#588);
#341=DESCRIPTIVE_REPRESENTATION_ITEM('PLA','PLA');
#342=PROPERTY_DEFINITION('material property','material name',#603);
#343=PROPERTY_DEFINITION('material property','density of part',#603);
#344=AXIS2_PLACEMENT_3D('',#492,#386,#387);
#345=AXIS2_PLACEMENT_3D('',#493,#388,#389);
#346=AXIS2_PLACEMENT_3D('',#494,#390,#391);
#347=AXIS2_PLACEMENT_3D('',#497,#392,#393);
#348=AXIS2_PLACEMENT_3D('',#501,#395,#396);
#349=AXIS2_PLACEMENT_3D('',#505,#398,#399);
#350=AXIS2_PLACEMENT_3D('',#509,#401,#402);
#351=AXIS2_PLACEMENT_3D('',#512,#404,#405);
#352=AXIS2_PLACEMENT_3D('',#514,#406,#407);
#353=AXIS2_PLACEMENT_3D('',#516,#408,#409);
#354=AXIS2_PLACEMENT_3D('',#517,#410,#411);
#355=AXIS2_PLACEMENT_3D('',#523,#415,#416);
#356=AXIS2_PLACEMENT_3D('',#526,#418,#419);
#357=AXIS2_PLACEMENT_3D('',#527,#420,#421);
#358=AXIS2_PLACEMENT_3D('',#531,#424,#425);
#359=AXIS2_PLACEMENT_3D('',#534,#427,#428);
#360=AXIS2_PLACEMENT_3D('',#535,#429,#430);
#361=AXIS2_PLACEMENT_3D('',#537,#431,#432);
#362=AXIS2_PLACEMENT_3D('',#539,#433,#434);
#363=AXIS2_PLACEMENT_3D('',#540,#435,#436);
#364=AXIS2_PLACEMENT_3D('',#542,#437,#438);
#365=AXIS2_PLACEMENT_3D('',#544,#439,#440);
#366=AXIS2_PLACEMENT_3D('',#545,#441,#442);
#367=AXIS2_PLACEMENT_3D('',#547,#443,#444);
#368=AXIS2_PLACEMENT_3D('',#549,#445,#446);
#369=AXIS2_PLACEMENT_3D('',#550,#447,#448);
#370=AXIS2_PLACEMENT_3D('',#554,#451,#452);
#371=AXIS2_PLACEMENT_3D('',#557,#454,#455);
#372=AXIS2_PLACEMENT_3D('',#558,#456,#457);
#373=AXIS2_PLACEMENT_3D('',#560,#458,#459);
#374=AXIS2_PLACEMENT_3D('',#562,#461,#462);
#375=AXIS2_PLACEMENT_3D('',#564,#464,#465);
#376=AXIS2_PLACEMENT_3D('',#566,#467,#468);
#377=AXIS2_PLACEMENT_3D('',#568,#470,#471);
#378=AXIS2_PLACEMENT_3D('',#571,#473,#474);
#379=AXIS2_PLACEMENT_3D('',#572,#475,#476);
#380=AXIS2_PLACEMENT_3D('',#575,#478,#479);
#381=AXIS2_PLACEMENT_3D('',#576,#480,#481);
#382=AXIS2_PLACEMENT_3D('',#579,#483,#484);
#383=AXIS2_PLACEMENT_3D('',#580,#485,#486);
#384=AXIS2_PLACEMENT_3D('',#582,#488,#489);
#385=AXIS2_PLACEMENT_3D('',#583,#490,#491);
#386=DIRECTION('axis',(0.,0.,1.));
#387=DIRECTION('refdir',(1.,0.,0.));
#388=DIRECTION('axis',(0.,0.,1.));
#389=DIRECTION('refdir',(1.,0.,0.));
#390=DIRECTION('center_axis',(0.,0.,1.));
#391=DIRECTION('ref_axis',(1.,0.,0.));
#392=DIRECTION('center_axis',(0.,0.,-1.));
#393=DIRECTION('ref_axis',(0.707106781186547,-0.707106781186547,0.));
#394=DIRECTION('',(0.,-1.,0.));
#395=DIRECTION('center_axis',(0.,0.,-1.));
#396=DIRECTION('ref_axis',(0.707106781186547,0.707106781186547,0.));
#397=DIRECTION('',(1.,0.,0.));
#398=DIRECTION('center_axis',(0.,0.,-1.));
#399=DIRECTION('ref_axis',(-0.707106781186547,0.707106781186547,0.));
#400=DIRECTION('',(0.,1.,0.));
#401=DIRECTION('center_axis',(0.,0.,-1.));
#402=DIRECTION('ref_axis',(-0.707106781186547,-0.707106781186547,0.));
#403=DIRECTION('',(-1.,0.,0.));
#404=DIRECTION('center_axis',(0.,0.,1.));
#405=DIRECTION('ref_axis',(1.,0.,0.));
#406=DIRECTION('center_axis',(0.,0.,1.));
#407=DIRECTION('ref_axis',(1.,0.,0.));
#408=DIRECTION('center_axis',(0.,0.,1.));
#409=DIRECTION('ref_axis',(1.,0.,0.));
#410=DIRECTION('center_axis',(-1.,0.,0.));
#411=DIRECTION('ref_axis',(0.,-1.,0.));
#412=DIRECTION('',(0.,0.,1.));
#413=DIRECTION('',(0.,1.,0.));
#414=DIRECTION('',(0.,0.,-1.));
#415=DIRECTION('center_axis',(0.,0.,1.));
#416=DIRECTION('ref_axis',(-0.707106781186547,0.707106781186547,0.));
#417=DIRECTION('',(0.,0.,-1.));
#418=DIRECTION('center_axis',(0.,0.,1.));
#419=DIRECTION('ref_axis',(-0.707106781186547,0.707106781186547,0.));
#420=DIRECTION('center_axis',(0.,1.,0.));
#421=DIRECTION('ref_axis',(-1.,0.,0.));
#422=DIRECTION('',(0.,0.,1.));
#423=DIRECTION('',(1.,0.,0.));
#424=DIRECTION('center_axis',(0.,0.,1.));
#425=DIRECTION('ref_axis',(0.707106781186547,0.707106781186547,0.));
#426=DIRECTION('',(0.,0.,-1.));
#427=DIRECTION('center_axis',(0.,0.,1.));
#428=DIRECTION('ref_axis',(0.707106781186547,0.707106781186547,0.));
#429=DIRECTION('center_axis',(0.,0.,1.));
#430=DIRECTION('ref_axis',(1.,0.,0.));
#431=DIRECTION('center_axis',(0.,0.,-1.));
#432=DIRECTION('ref_axis',(1.,0.,0.));
#433=DIRECTION('center_axis',(0.,0.,1.));
#434=DIRECTION('ref_axis',(-1.,0.,0.));
#435=DIRECTION('center_axis',(0.,0.,1.));
#436=DIRECTION('ref_axis',(1.,0.,0.));
#437=DIRECTION('center_axis',(0.,0.,-1.));
#438=DIRECTION('ref_axis',(1.,0.,0.));
#439=DIRECTION('center_axis',(0.,0.,1.));
#440=DIRECTION('ref_axis',(-1.,0.,0.));
#441=DIRECTION('center_axis',(0.,0.,1.));
#442=DIRECTION('ref_axis',(1.,0.,0.));
#443=DIRECTION('center_axis',(0.,0.,-1.));
#444=DIRECTION('ref_axis',(1.,0.,0.));
#445=DIRECTION('center_axis',(0.,0.,1.));
#446=DIRECTION('ref_axis',(-1.,0.,0.));
#447=DIRECTION('center_axis',(1.,0.,0.));
#448=DIRECTION('ref_axis',(0.,1.,0.));
#449=DIRECTION('',(0.,0.,1.));
#450=DIRECTION('',(0.,-1.,0.));
#451=DIRECTION('center_axis',(0.,0.,1.));
#452=DIRECTION('ref_axis',(0.707106781186547,-0.707106781186547,0.));
#453=DIRECTION('',(0.,0.,-1.));
#454=DIRECTION('center_axis',(0.,0.,1.));
#455=DIRECTION('ref_axis',(0.707106781186547,-0.707106781186547,0.));
#456=DIRECTION('center_axis',(0.,0.,1.));
#457=DIRECTION('ref_axis',(-0.707106781186547,-0.707106781186547,0.));
#458=DIRECTION('center_axis',(0.,0.,1.));
#459=DIRECTION('ref_axis',(-0.707106781186547,-0.707106781186547,0.));
#460=DIRECTION('',(0.,0.,1.));
#461=DIRECTION('center_axis',(0.,0.,1.));
#462=DIRECTION('ref_axis',(1.,0.,0.));
#463=DIRECTION('',(0.,0.,-1.));
#464=DIRECTION('center_axis',(0.,0.,1.));
#465=DIRECTION('ref_axis',(1.,0.,0.));
#466=DIRECTION('',(0.,0.,-1.));
#467=DIRECTION('center_axis',(0.,0.,1.));
#468=DIRECTION('ref_axis',(1.,0.,0.));
#469=DIRECTION('',(0.,0.,-1.));
#470=DIRECTION('center_axis',(0.,0.,1.));
#471=DIRECTION('ref_axis',(-1.,0.,0.));
#472=DIRECTION('',(0.,0.,-1.));
#473=DIRECTION('center_axis',(0.,0.,-1.));
#474=DIRECTION('ref_axis',(-1.,0.,0.));
#475=DIRECTION('center_axis',(0.,0.,1.));
#476=DIRECTION('ref_axis',(-1.,0.,0.));
#477=DIRECTION('',(0.,0.,-1.));
#478=DIRECTION('center_axis',(0.,0.,-1.));
#479=DIRECTION('ref_axis',(-1.,0.,0.));
#480=DIRECTION('center_axis',(0.,0.,1.));
#481=DIRECTION('ref_axis',(-1.,0.,0.));
#482=DIRECTION('',(0.,0.,-1.));
#483=DIRECTION('center_axis',(0.,0.,-1.));
#484=DIRECTION('ref_axis',(-1.,0.,0.));
#485=DIRECTION('center_axis',(0.,-1.,0.));
#486=DIRECTION('ref_axis',(1.,0.,0.));
#487=DIRECTION('',(-1.,0.,0.));
#488=DIRECTION('center_axis',(0.,0.,1.));
#489=DIRECTION('ref_axis',(1.,0.,0.));
#490=DIRECTION('',(0.,0.,1.));
#491=DIRECTION('',(1.,0.,0.));
#492=CARTESIAN_POINT('',(0.,0.,0.));
#493=CARTESIAN_POINT('',(0.,0.,0.));
#494=CARTESIAN_POINT('Origin',(0.,20.,16.));
#495=CARTESIAN_POINT('',(30.,11.,16.));
#496=CARTESIAN_POINT('',(25.,6.,16.));
#497=CARTESIAN_POINT('Origin',(25.,11.,16.));
#498=CARTESIAN_POINT('',(30.,29.,16.));
#499=CARTESIAN_POINT('',(30.,13.,16.));
#500=CARTESIAN_POINT('',(25.,34.,16.));
#501=CARTESIAN_POINT('Origin',(25.,29.,16.));
#502=CARTESIAN_POINT('',(-25.,34.,16.));
#503=CARTESIAN_POINT('',(15.,34.,16.));
#504=CARTESIAN_POINT('',(-30.,29.,16.));
#505=CARTESIAN_POINT('Origin',(-25.,29.,16.));
#506=CARTESIAN_POINT('',(-30.,11.,16.));
#507=CARTESIAN_POINT('',(-30.,27.,16.));
#508=CARTESIAN_POINT('',(-25.,6.,16.));
#509=CARTESIAN_POINT('Origin',(-25.,11.,16.));
#510=CARTESIAN_POINT('',(-15.,6.,16.));
#511=CARTESIAN_POINT('',(-4.75,20.,16.));
#512=CARTESIAN_POINT('Origin',(0.,20.,16.));
#513=CARTESIAN_POINT('',(15.25,20.,16.));
#514=CARTESIAN_POINT('Origin',(20.,20.,16.));
#515=CARTESIAN_POINT('',(-24.75,20.,16.));
#516=CARTESIAN_POINT('Origin',(-20.,20.,16.));
#517=CARTESIAN_POINT('Origin',(-30.,34.,0.));
#518=CARTESIAN_POINT('',(-30.,29.,0.));
#519=CARTESIAN_POINT('',(-30.,29.,0.));
#520=CARTESIAN_POINT('',(-30.,11.,0.));
#521=CARTESIAN_POINT('',(-30.,6.,0.));
#522=CARTESIAN_POINT('',(-30.,11.,0.));
#523=CARTESIAN_POINT('Origin',(-25.,29.,0.));
#524=CARTESIAN_POINT('',(-25.,34.,0.));
#525=CARTESIAN_POINT('',(-25.,34.,0.));
#526=CARTESIAN_POINT('Origin',(-25.,29.,0.));
#527=CARTESIAN_POINT('Origin',(30.,34.,0.));
#528=CARTESIAN_POINT('',(25.,34.,0.));
#529=CARTESIAN_POINT('',(25.,34.,0.));
#530=CARTESIAN_POINT('',(-30.,34.,0.));
#531=CARTESIAN_POINT('Origin',(25.,29.,0.));
#532=CARTESIAN_POINT('',(30.,29.,0.));
#533=CARTESIAN_POINT('',(30.,29.,0.));
#534=CARTESIAN_POINT('Origin',(25.,29.,0.));
#535=CARTESIAN_POINT('Origin',(0.,20.,5.));
#536=CARTESIAN_POINT('',(-4.75,20.,5.));
#537=CARTESIAN_POINT('Origin',(0.,20.,5.));
#538=CARTESIAN_POINT('',(2.65000000000001,20.,5.));
#539=CARTESIAN_POINT('Origin',(0.,20.,5.));
#540=CARTESIAN_POINT('Origin',(0.,20.,5.));
#541=CARTESIAN_POINT('',(-24.75,20.,5.));
#542=CARTESIAN_POINT('Origin',(-20.,20.,5.));
#543=CARTESIAN_POINT('',(-17.35,20.,5.));
#544=CARTESIAN_POINT('Origin',(-20.,20.,5.));
#545=CARTESIAN_POINT('Origin',(0.,20.,5.));
#546=CARTESIAN_POINT('',(15.25,20.,5.));
#547=CARTESIAN_POINT('Origin',(20.,20.,5.));
#548=CARTESIAN_POINT('',(22.65,20.,5.));
#549=CARTESIAN_POINT('Origin',(20.,20.,5.));
#550=CARTESIAN_POINT('Origin',(30.,6.,0.));
#551=CARTESIAN_POINT('',(30.,11.,0.));
#552=CARTESIAN_POINT('',(30.,11.,0.));
#553=CARTESIAN_POINT('',(30.,34.,0.));
#554=CARTESIAN_POINT('Origin',(25.,11.,0.));
#555=CARTESIAN_POINT('',(25.,6.,0.));
#556=CARTESIAN_POINT('',(25.,6.,0.));
#557=CARTESIAN_POINT('Origin',(25.,11.,0.));
#558=CARTESIAN_POINT('Origin',(-25.,11.,0.));
#559=CARTESIAN_POINT('',(-25.,6.,0.));
#560=CARTESIAN_POINT('Origin',(-25.,11.,0.));
#561=CARTESIAN_POINT('',(-25.,6.,0.));
#562=CARTESIAN_POINT('Origin',(-20.,20.,0.));
#563=CARTESIAN_POINT('',(-24.75,20.,0.));
#564=CARTESIAN_POINT('Origin',(20.,20.,0.));
#565=CARTESIAN_POINT('',(15.25,20.,0.));
#566=CARTESIAN_POINT('Origin',(0.,20.,0.));
#567=CARTESIAN_POINT('',(-4.75,20.,0.));
#568=CARTESIAN_POINT('Origin',(0.,20.,0.));
#569=CARTESIAN_POINT('',(2.65000000000001,20.,0.));
#570=CARTESIAN_POINT('',(2.65000000000001,20.,0.));
#571=CARTESIAN_POINT('Origin',(0.,20.,0.));
#572=CARTESIAN_POINT('Origin',(20.,20.,0.));
#573=CARTESIAN_POINT('',(22.65,20.,0.));
#574=CARTESIAN_POINT('',(22.65,20.,0.));
#575=CARTESIAN_POINT('Origin',(20.,20.,0.));
#576=CARTESIAN_POINT('Origin',(-20.,20.,0.));
#577=CARTESIAN_POINT('',(-17.35,20.,0.));
#578=CARTESIAN_POINT('',(-17.35,20.,0.));
#579=CARTESIAN_POINT('Origin',(-20.,20.,0.));
#580=CARTESIAN_POINT('Origin',(-30.,6.,0.));
#581=CARTESIAN_POINT('',(30.,6.,0.));
#582=CARTESIAN_POINT('Origin',(0.,20.,0.));
#583=CARTESIAN_POINT('',(0.,0.,0.));
#584=UNCERTAINTY_MEASURE_WITH_UNIT(LENGTH_MEASURE(0.01),#590,
'DISTANCE_ACCURACY_VALUE',
'Maximum model space distance between geometric entities at asserted c
onnectivities');
#585=UNCERTAINTY_MEASURE_WITH_UNIT(LENGTH_MEASURE(0.01),#590,
'DISTANCE_ACCURACY_VALUE',
'Maximum model space distance between geometric entities at asserted c
onnectivities');
#586=UNCERTAINTY_MEASURE_WITH_UNIT(LENGTH_MEASURE(0.01),#590,
'DISTANCE_ACCURACY_VALUE',
'Maximum model space distance between geometric entities at asserted c
onnectivities');
#587=(
GEOMETRIC_REPRESENTATION_CONTEXT(3)
GLOBAL_UNCERTAINTY_ASSIGNED_CONTEXT((#584))
GLOBAL_UNIT_ASSIGNED_CONTEXT((#590,#592,#593))
REPRESENTATION_CONTEXT('','3D')
);
#588=(
GEOMETRIC_REPRESENTATION_CONTEXT(3)
GLOBAL_UNCERTAINTY_ASSIGNED_CONTEXT((#585))
GLOBAL_UNIT_ASSIGNED_CONTEXT((#590,#592,#593))
REPRESENTATION_CONTEXT('','3D')
);
#589=(
GEOMETRIC_REPRESENTATION_CONTEXT(3)
GLOBAL_UNCERTAINTY_ASSIGNED_CONTEXT((#586))
GLOBAL_UNIT_ASSIGNED_CONTEXT((#590,#592,#593))
REPRESENTATION_CONTEXT('','3D')
);
#590=(
LENGTH_UNIT()
NAMED_UNIT(*)
SI_UNIT(.MILLI.,.METRE.)
);
#591=(
LENGTH_UNIT()
NAMED_UNIT(*)
SI_UNIT($,.METRE.)
);
#592=(
NAMED_UNIT(*)
PLANE_ANGLE_UNIT()
SI_UNIT($,.RADIAN.)
);
#593=(
NAMED_UNIT(*)
SI_UNIT($,.STERADIAN.)
SOLID_ANGLE_UNIT()
);
#594=SHAPE_DEFINITION_REPRESENTATION(#596,#599);
#595=SHAPE_DEFINITION_REPRESENTATION(#597,#600);
#596=PRODUCT_DEFINITION_SHAPE('',$,#602);
#597=PRODUCT_DEFINITION_SHAPE('',$,#603);
#598=PRODUCT_DEFINITION_SHAPE($,$,#14);
#599=SHAPE_REPRESENTATION('',(#344,#385),#587);
#600=SHAPE_REPRESENTATION('',(#345),#588);
#601=PRODUCT_DEFINITION_CONTEXT('part definition',#609,'design');
#602=PRODUCT_DEFINITION('3D-AM06 - SGR Upright Endcap',
'3D-AM06 - SGR Upright Endcap v4',#604,#601);
#603=PRODUCT_DEFINITION('Endcap','Endcap',#605,#601);
#604=PRODUCT_DEFINITION_FORMATION('',$,#611);
#605=PRODUCT_DEFINITION_FORMATION('',$,#612);
#606=PRODUCT_RELATED_PRODUCT_CATEGORY('3D-AM06 - SGR Upright Endcap v4',
'3D-AM06 - SGR Upright Endcap v4',(#611));
#607=PRODUCT_RELATED_PRODUCT_CATEGORY('Endcap','Endcap',(#612));
#608=APPLICATION_PROTOCOL_DEFINITION('international standard',
'automotive_design',2009,#609);
#609=APPLICATION_CONTEXT(
'Core Data for Automotive Mechanical Design Process');
#610=PRODUCT_CONTEXT('part definition',#609,'mechanical');
#611=PRODUCT('3D-AM06 - SGR Upright Endcap',
'3D-AM06 - SGR Upright Endcap v4',$,(#610));
#612=PRODUCT('Endcap','Endcap',$,(#610));
#613=PRESENTATION_STYLE_ASSIGNMENT((#615));
#614=PRESENTATION_STYLE_ASSIGNMENT((#616));
#615=SURFACE_STYLE_USAGE(.BOTH.,#617);
#616=SURFACE_STYLE_USAGE(.BOTH.,#618);
#617=SURFACE_SIDE_STYLE('',(#619));
#618=SURFACE_SIDE_STYLE('',(#620));
#619=SURFACE_STYLE_FILL_AREA(#621);
#620=SURFACE_STYLE_FILL_AREA(#622);
#621=FILL_AREA_STYLE('Steel - Satin',(#623));
#622=FILL_AREA_STYLE('Coating - Black Oxide',(#624));
#623=FILL_AREA_STYLE_COLOUR('Steel - Satin',#625);
#624=FILL_AREA_STYLE_COLOUR('Coating - Black Oxide',#626);
#625=COLOUR_RGB('Steel - Satin',0.627450980392157,0.627450980392157,0.627450980392157);
#626=COLOUR_RGB('Coating - Black Oxide',0.172549019607843,0.172549019607843,
0.172549019607843);
ENDSEC;
END-ISO-10303-21;
