ISO-10303-21;
HEADER;
/* Generated by software containing ST-Developer
 * from STEP Tools, Inc. (www.steptools.com) 
 */

FILE_DESCRIPTION(
/* description */ (''),
/* implementation_level */ '2;1');

FILE_NAME(
/* name */ '3D-A5 - 2020 USB Cable Clip.step',
/* time_stamp */ '2025-04-10T14:25:24-05:00',
/* author */ (''),
/* organization */ (''),
/* preprocessor_version */ 'ST-DEVELOPER v20.1',
/* originating_system */ 'Autodesk Translation Framework v14.4.0.0',
/* authorisation */ '');

FILE_SCHEMA (('AUTOMOTIVE_DESIGN { 1 0 10303 214 3 1 1 }'));
ENDSEC;

DATA;
#10=MECHANICAL_DESIGN_GEOMETRIC_PRESENTATION_REPRESENTATION('',(#13),#1687);
#11=SHAPE_REPRESENTATION_RELATIONSHIP('SRR','None',#1694,#12);
#12=ADVANCED_BREP_SHAPE_REPRESENTATION('',(#14),#1686);
#13=STYLED_ITEM('',(#1704),#14);
#14=MANIFOLD_SOLID_BREP('Body1',#1027);
#15=CYLINDRICAL_SURFACE('',#1068,1.);
#16=CYLINDRICAL_SURFACE('',#1080,1.);
#17=CYLINDRICAL_SURFACE('',#1102,1.);
#18=CYLINDRICAL_SURFACE('',#1112,1.);
#19=CONICAL_SURFACE('',#1061,0.9,0.785398163397449);
#20=CONICAL_SURFACE('',#1063,0.9,0.785398163397449);
#21=CONICAL_SURFACE('',#1073,0.9,0.785398163397449);
#22=CONICAL_SURFACE('',#1076,0.9,0.785398163397449);
#23=CONICAL_SURFACE('',#1095,0.9,0.785398163397449);
#24=CONICAL_SURFACE('',#1097,0.9,0.785398163397449);
#25=CONICAL_SURFACE('',#1107,0.9,0.785398163397449);
#26=CONICAL_SURFACE('',#1109,0.9,0.785398163397449);
#27=FACE_OUTER_BOUND('',#89,.T.);
#28=FACE_OUTER_BOUND('',#90,.T.);
#29=FACE_OUTER_BOUND('',#91,.T.);
#30=FACE_OUTER_BOUND('',#92,.T.);
#31=FACE_OUTER_BOUND('',#93,.T.);
#32=FACE_OUTER_BOUND('',#94,.T.);
#33=FACE_OUTER_BOUND('',#95,.T.);
#34=FACE_OUTER_BOUND('',#96,.T.);
#35=FACE_OUTER_BOUND('',#97,.T.);
#36=FACE_OUTER_BOUND('',#98,.T.);
#37=FACE_OUTER_BOUND('',#99,.T.);
#38=FACE_OUTER_BOUND('',#100,.T.);
#39=FACE_OUTER_BOUND('',#101,.T.);
#40=FACE_OUTER_BOUND('',#102,.T.);
#41=FACE_OUTER_BOUND('',#103,.T.);
#42=FACE_OUTER_BOUND('',#104,.T.);
#43=FACE_OUTER_BOUND('',#105,.T.);
#44=FACE_OUTER_BOUND('',#106,.T.);
#45=FACE_OUTER_BOUND('',#107,.T.);
#46=FACE_OUTER_BOUND('',#108,.T.);
#47=FACE_OUTER_BOUND('',#109,.T.);
#48=FACE_OUTER_BOUND('',#110,.T.);
#49=FACE_OUTER_BOUND('',#111,.T.);
#50=FACE_OUTER_BOUND('',#112,.T.);
#51=FACE_OUTER_BOUND('',#113,.T.);
#52=FACE_OUTER_BOUND('',#114,.T.);
#53=FACE_OUTER_BOUND('',#115,.T.);
#54=FACE_OUTER_BOUND('',#116,.T.);
#55=FACE_OUTER_BOUND('',#117,.T.);
#56=FACE_OUTER_BOUND('',#118,.T.);
#57=FACE_OUTER_BOUND('',#119,.T.);
#58=FACE_OUTER_BOUND('',#120,.T.);
#59=FACE_OUTER_BOUND('',#121,.T.);
#60=FACE_OUTER_BOUND('',#122,.T.);
#61=FACE_OUTER_BOUND('',#123,.T.);
#62=FACE_OUTER_BOUND('',#124,.T.);
#63=FACE_OUTER_BOUND('',#125,.T.);
#64=FACE_OUTER_BOUND('',#126,.T.);
#65=FACE_OUTER_BOUND('',#127,.T.);
#66=FACE_OUTER_BOUND('',#128,.T.);
#67=FACE_OUTER_BOUND('',#129,.T.);
#68=FACE_OUTER_BOUND('',#130,.T.);
#69=FACE_OUTER_BOUND('',#131,.T.);
#70=FACE_OUTER_BOUND('',#132,.T.);
#71=FACE_OUTER_BOUND('',#133,.T.);
#72=FACE_OUTER_BOUND('',#134,.T.);
#73=FACE_OUTER_BOUND('',#135,.T.);
#74=FACE_OUTER_BOUND('',#136,.T.);
#75=FACE_OUTER_BOUND('',#137,.T.);
#76=FACE_OUTER_BOUND('',#138,.T.);
#77=FACE_OUTER_BOUND('',#139,.T.);
#78=FACE_OUTER_BOUND('',#140,.T.);
#79=FACE_OUTER_BOUND('',#141,.T.);
#80=FACE_OUTER_BOUND('',#142,.T.);
#81=FACE_OUTER_BOUND('',#143,.T.);
#82=FACE_OUTER_BOUND('',#144,.T.);
#83=FACE_OUTER_BOUND('',#145,.T.);
#84=FACE_OUTER_BOUND('',#146,.T.);
#85=FACE_OUTER_BOUND('',#147,.T.);
#86=FACE_OUTER_BOUND('',#148,.T.);
#87=FACE_OUTER_BOUND('',#149,.T.);
#88=FACE_OUTER_BOUND('',#150,.T.);
#89=EDGE_LOOP('',(#635,#636,#637,#638,#639,#640,#641,#642,#643,#644,#645,
#646,#647,#648,#649,#650,#651,#652,#653,#654));
#90=EDGE_LOOP('',(#655,#656,#657,#658));
#91=EDGE_LOOP('',(#659,#660,#661,#662));
#92=EDGE_LOOP('',(#663,#664,#665,#666));
#93=EDGE_LOOP('',(#667,#668,#669,#670));
#94=EDGE_LOOP('',(#671,#672,#673,#674));
#95=EDGE_LOOP('',(#675,#676,#677,#678));
#96=EDGE_LOOP('',(#679,#680,#681,#682));
#97=EDGE_LOOP('',(#683,#684,#685,#686));
#98=EDGE_LOOP('',(#687,#688,#689,#690));
#99=EDGE_LOOP('',(#691,#692,#693,#694));
#100=EDGE_LOOP('',(#695,#696,#697,#698));
#101=EDGE_LOOP('',(#699,#700,#701,#702));
#102=EDGE_LOOP('',(#703,#704,#705,#706));
#103=EDGE_LOOP('',(#707,#708,#709,#710));
#104=EDGE_LOOP('',(#711,#712,#713,#714));
#105=EDGE_LOOP('',(#715,#716,#717,#718));
#106=EDGE_LOOP('',(#719,#720,#721,#722));
#107=EDGE_LOOP('',(#723,#724,#725,#726));
#108=EDGE_LOOP('',(#727,#728,#729,#730));
#109=EDGE_LOOP('',(#731,#732,#733,#734));
#110=EDGE_LOOP('',(#735,#736,#737,#738));
#111=EDGE_LOOP('',(#739,#740,#741,#742));
#112=EDGE_LOOP('',(#743,#744,#745,#746));
#113=EDGE_LOOP('',(#747,#748,#749,#750));
#114=EDGE_LOOP('',(#751,#752,#753,#754));
#115=EDGE_LOOP('',(#755,#756,#757,#758));
#116=EDGE_LOOP('',(#759,#760,#761,#762));
#117=EDGE_LOOP('',(#763,#764,#765,#766));
#118=EDGE_LOOP('',(#767,#768,#769,#770));
#119=EDGE_LOOP('',(#771,#772,#773,#774));
#120=EDGE_LOOP('',(#775,#776,#777,#778));
#121=EDGE_LOOP('',(#779,#780,#781,#782));
#122=EDGE_LOOP('',(#783,#784,#785,#786));
#123=EDGE_LOOP('',(#787,#788,#789,#790));
#124=EDGE_LOOP('',(#791,#792,#793,#794));
#125=EDGE_LOOP('',(#795,#796,#797,#798));
#126=EDGE_LOOP('',(#799,#800,#801,#802));
#127=EDGE_LOOP('',(#803,#804,#805,#806,#807,#808,#809,#810,#811,#812,#813,
#814,#815,#816,#817,#818,#819,#820,#821,#822));
#128=EDGE_LOOP('',(#823,#824,#825,#826));
#129=EDGE_LOOP('',(#827,#828,#829,#830));
#130=EDGE_LOOP('',(#831,#832,#833,#834));
#131=EDGE_LOOP('',(#835,#836,#837,#838));
#132=EDGE_LOOP('',(#839,#840,#841,#842));
#133=EDGE_LOOP('',(#843,#844,#845,#846));
#134=EDGE_LOOP('',(#847,#848,#849,#850));
#135=EDGE_LOOP('',(#851,#852,#853,#854));
#136=EDGE_LOOP('',(#855,#856,#857,#858));
#137=EDGE_LOOP('',(#859,#860,#861,#862));
#138=EDGE_LOOP('',(#863,#864,#865,#866));
#139=EDGE_LOOP('',(#867,#868,#869,#870));
#140=EDGE_LOOP('',(#871,#872,#873,#874));
#141=EDGE_LOOP('',(#875,#876,#877,#878));
#142=EDGE_LOOP('',(#879,#880,#881,#882));
#143=EDGE_LOOP('',(#883,#884,#885,#886));
#144=EDGE_LOOP('',(#887,#888,#889,#890));
#145=EDGE_LOOP('',(#891,#892,#893,#894));
#146=EDGE_LOOP('',(#895,#896,#897,#898));
#147=EDGE_LOOP('',(#899,#900,#901,#902));
#148=EDGE_LOOP('',(#903,#904,#905,#906));
#149=EDGE_LOOP('',(#907,#908,#909,#910));
#150=EDGE_LOOP('',(#911,#912,#913,#914));
#151=CIRCLE('',#1042,0.799999999999999);
#152=CIRCLE('',#1043,0.799999999999999);
#153=CIRCLE('',#1044,0.799999999999999);
#154=CIRCLE('',#1045,0.799999999999999);
#155=CIRCLE('',#1062,1.);
#156=CIRCLE('',#1064,1.);
#157=CIRCLE('',#1069,1.);
#158=CIRCLE('',#1074,1.);
#159=CIRCLE('',#1075,0.799999999999999);
#160=CIRCLE('',#1077,0.8);
#161=CIRCLE('',#1090,0.8);
#162=CIRCLE('',#1091,0.799999999999999);
#163=CIRCLE('',#1096,1.);
#164=CIRCLE('',#1098,1.);
#165=CIRCLE('',#1103,1.);
#166=CIRCLE('',#1108,1.);
#167=LINE('',#1405,#291);
#168=LINE('',#1407,#292);
#169=LINE('',#1409,#293);
#170=LINE('',#1413,#294);
#171=LINE('',#1417,#295);
#172=LINE('',#1419,#296);
#173=LINE('',#1421,#297);
#174=LINE('',#1423,#298);
#175=LINE('',#1425,#299);
#176=LINE('',#1427,#300);
#177=LINE('',#1429,#301);
#178=LINE('',#1431,#302);
#179=LINE('',#1433,#303);
#180=LINE('',#1437,#304);
#181=LINE('',#1441,#305);
#182=LINE('',#1442,#306);
#183=LINE('',#1446,#307);
#184=LINE('',#1448,#308);
#185=LINE('',#1450,#309);
#186=LINE('',#1451,#310);
#187=LINE('',#1454,#311);
#188=LINE('',#1456,#312);
#189=LINE('',#1457,#313);
#190=LINE('',#1460,#314);
#191=LINE('',#1462,#315);
#192=LINE('',#1464,#316);
#193=LINE('',#1465,#317);
#194=LINE('',#1468,#318);
#195=LINE('',#1470,#319);
#196=LINE('',#1471,#320);
#197=LINE('',#1473,#321);
#198=LINE('',#1476,#322);
#199=LINE('',#1478,#323);
#200=LINE('',#1479,#324);
#201=LINE('',#1481,#325);
#202=LINE('',#1484,#326);
#203=LINE('',#1486,#327);
#204=LINE('',#1487,#328);
#205=LINE('',#1490,#329);
#206=LINE('',#1491,#330);
#207=LINE('',#1495,#331);
#208=LINE('',#1496,#332);
#209=LINE('',#1497,#333);
#210=LINE('',#1499,#334);
#211=LINE('',#1501,#335);
#212=LINE('',#1502,#336);
#213=LINE('',#1505,#337);
#214=LINE('',#1507,#338);
#215=LINE('',#1508,#339);
#216=LINE('',#1511,#340);
#217=LINE('',#1513,#341);
#218=LINE('',#1514,#342);
#219=LINE('',#1517,#343);
#220=LINE('',#1519,#344);
#221=LINE('',#1520,#345);
#222=LINE('',#1523,#346);
#223=LINE('',#1528,#347);
#224=LINE('',#1531,#348);
#225=LINE('',#1532,#349);
#226=LINE('',#1535,#350);
#227=LINE('',#1536,#351);
#228=LINE('',#1539,#352);
#229=LINE('',#1541,#353);
#230=LINE('',#1542,#354);
#231=LINE('',#1545,#355);
#232=LINE('',#1549,#356);
#233=LINE('',#1550,#357);
#234=LINE('',#1553,#358);
#235=LINE('',#1554,#359);
#236=LINE('',#1557,#360);
#237=LINE('',#1559,#361);
#238=LINE('',#1560,#362);
#239=LINE('',#1564,#363);
#240=LINE('',#1569,#364);
#241=LINE('',#1573,#365);
#242=LINE('',#1574,#366);
#243=LINE('',#1576,#367);
#244=LINE('',#1577,#368);
#245=LINE('',#1579,#369);
#246=LINE('',#1581,#370);
#247=LINE('',#1583,#371);
#248=LINE('',#1584,#372);
#249=LINE('',#1586,#373);
#250=LINE('',#1588,#374);
#251=LINE('',#1590,#375);
#252=LINE('',#1595,#376);
#253=LINE('',#1597,#377);
#254=LINE('',#1598,#378);
#255=LINE('',#1601,#379);
#256=LINE('',#1603,#380);
#257=LINE('',#1605,#381);
#258=LINE('',#1609,#382);
#259=LINE('',#1612,#383);
#260=LINE('',#1615,#384);
#261=LINE('',#1616,#385);
#262=LINE('',#1619,#386);
#263=LINE('',#1620,#387);
#264=LINE('',#1623,#388);
#265=LINE('',#1625,#389);
#266=LINE('',#1626,#390);
#267=LINE('',#1629,#391);
#268=LINE('',#1633,#392);
#269=LINE('',#1637,#393);
#270=LINE('',#1638,#394);
#271=LINE('',#1641,#395);
#272=LINE('',#1642,#396);
#273=LINE('',#1645,#397);
#274=LINE('',#1647,#398);
#275=LINE('',#1648,#399);
#276=LINE('',#1652,#400);
#277=LINE('',#1655,#401);
#278=LINE('',#1656,#402);
#279=LINE('',#1658,#403);
#280=LINE('',#1659,#404);
#281=LINE('',#1661,#405);
#282=LINE('',#1662,#406);
#283=LINE('',#1665,#407);
#284=LINE('',#1668,#408);
#285=LINE('',#1670,#409);
#286=LINE('',#1672,#410);
#287=LINE('',#1674,#411);
#288=LINE('',#1676,#412);
#289=LINE('',#1678,#413);
#290=LINE('',#1680,#414);
#291=VECTOR('',#1123,10.);
#292=VECTOR('',#1124,10.);
#293=VECTOR('',#1125,10.);
#294=VECTOR('',#1128,10.);
#295=VECTOR('',#1131,10.);
#296=VECTOR('',#1132,10.);
#297=VECTOR('',#1133,10.);
#298=VECTOR('',#1134,10.);
#299=VECTOR('',#1135,10.);
#300=VECTOR('',#1136,10.);
#301=VECTOR('',#1137,10.);
#302=VECTOR('',#1138,10.);
#303=VECTOR('',#1139,10.);
#304=VECTOR('',#1142,10.);
#305=VECTOR('',#1145,10.);
#306=VECTOR('',#1146,10.);
#307=VECTOR('',#1149,10.);
#308=VECTOR('',#1150,10.);
#309=VECTOR('',#1151,10.);
#310=VECTOR('',#1152,10.);
#311=VECTOR('',#1155,10.);
#312=VECTOR('',#1156,10.);
#313=VECTOR('',#1157,10.);
#314=VECTOR('',#1160,10.);
#315=VECTOR('',#1161,10.);
#316=VECTOR('',#1162,10.);
#317=VECTOR('',#1163,10.);
#318=VECTOR('',#1166,10.);
#319=VECTOR('',#1167,10.);
#320=VECTOR('',#1168,10.);
#321=VECTOR('',#1171,10.);
#322=VECTOR('',#1174,10.);
#323=VECTOR('',#1175,10.);
#324=VECTOR('',#1176,10.);
#325=VECTOR('',#1179,10.);
#326=VECTOR('',#1182,10.);
#327=VECTOR('',#1183,10.);
#328=VECTOR('',#1184,10.);
#329=VECTOR('',#1187,10.);
#330=VECTOR('',#1188,10.);
#331=VECTOR('',#1191,10.);
#332=VECTOR('',#1192,10.);
#333=VECTOR('',#1193,10.);
#334=VECTOR('',#1196,10.);
#335=VECTOR('',#1199,10.);
#336=VECTOR('',#1200,10.);
#337=VECTOR('',#1203,10.);
#338=VECTOR('',#1204,10.);
#339=VECTOR('',#1205,10.);
#340=VECTOR('',#1208,10.);
#341=VECTOR('',#1209,10.);
#342=VECTOR('',#1210,10.);
#343=VECTOR('',#1213,10.);
#344=VECTOR('',#1214,10.);
#345=VECTOR('',#1215,10.);
#346=VECTOR('',#1218,10.);
#347=VECTOR('',#1225,9.99999999999999);
#348=VECTOR('',#1228,10.);
#349=VECTOR('',#1229,10.);
#350=VECTOR('',#1232,10.);
#351=VECTOR('',#1233,10.);
#352=VECTOR('',#1236,10.);
#353=VECTOR('',#1237,10.);
#354=VECTOR('',#1238,10.);
#355=VECTOR('',#1241,10.);
#356=VECTOR('',#1246,10.);
#357=VECTOR('',#1247,10.);
#358=VECTOR('',#1250,10.);
#359=VECTOR('',#1251,10.);
#360=VECTOR('',#1254,10.);
#361=VECTOR('',#1255,10.);
#362=VECTOR('',#1256,10.);
#363=VECTOR('',#1259,9.99999999999999);
#364=VECTOR('',#1266,10.);
#365=VECTOR('',#1271,10.);
#366=VECTOR('',#1272,10.);
#367=VECTOR('',#1275,10.);
#368=VECTOR('',#1276,10.);
#369=VECTOR('',#1279,10.);
#370=VECTOR('',#1282,10.);
#371=VECTOR('',#1285,10.);
#372=VECTOR('',#1286,10.);
#373=VECTOR('',#1289,10.);
#374=VECTOR('',#1292,10.);
#375=VECTOR('',#1295,10.);
#376=VECTOR('',#1302,10.);
#377=VECTOR('',#1303,10.);
#378=VECTOR('',#1304,10.);
#379=VECTOR('',#1307,10.);
#380=VECTOR('',#1308,10.);
#381=VECTOR('',#1309,10.);
#382=VECTOR('',#1312,10.);
#383=VECTOR('',#1315,10.);
#384=VECTOR('',#1318,10.);
#385=VECTOR('',#1319,10.);
#386=VECTOR('',#1322,10.);
#387=VECTOR('',#1323,10.);
#388=VECTOR('',#1326,10.);
#389=VECTOR('',#1327,10.);
#390=VECTOR('',#1328,10.);
#391=VECTOR('',#1331,10.);
#392=VECTOR('',#1336,9.99999999999999);
#393=VECTOR('',#1341,10.);
#394=VECTOR('',#1342,10.);
#395=VECTOR('',#1345,10.);
#396=VECTOR('',#1346,10.);
#397=VECTOR('',#1349,10.);
#398=VECTOR('',#1350,10.);
#399=VECTOR('',#1351,10.);
#400=VECTOR('',#1356,10.);
#401=VECTOR('',#1359,10.);
#402=VECTOR('',#1360,10.);
#403=VECTOR('',#1363,10.);
#404=VECTOR('',#1364,10.);
#405=VECTOR('',#1367,10.);
#406=VECTOR('',#1368,10.);
#407=VECTOR('',#1371,9.99999999999999);
#408=VECTOR('',#1376,10.);
#409=VECTOR('',#1379,10.);
#410=VECTOR('',#1382,10.);
#411=VECTOR('',#1385,10.);
#412=VECTOR('',#1388,10.);
#413=VECTOR('',#1391,10.);
#414=VECTOR('',#1394,10.);
#415=VERTEX_POINT('',#1403);
#416=VERTEX_POINT('',#1404);
#417=VERTEX_POINT('',#1406);
#418=VERTEX_POINT('',#1408);
#419=VERTEX_POINT('',#1410);
#420=VERTEX_POINT('',#1412);
#421=VERTEX_POINT('',#1414);
#422=VERTEX_POINT('',#1416);
#423=VERTEX_POINT('',#1418);
#424=VERTEX_POINT('',#1420);
#425=VERTEX_POINT('',#1422);
#426=VERTEX_POINT('',#1424);
#427=VERTEX_POINT('',#1426);
#428=VERTEX_POINT('',#1428);
#429=VERTEX_POINT('',#1430);
#430=VERTEX_POINT('',#1432);
#431=VERTEX_POINT('',#1434);
#432=VERTEX_POINT('',#1436);
#433=VERTEX_POINT('',#1438);
#434=VERTEX_POINT('',#1440);
#435=VERTEX_POINT('',#1444);
#436=VERTEX_POINT('',#1445);
#437=VERTEX_POINT('',#1447);
#438=VERTEX_POINT('',#1449);
#439=VERTEX_POINT('',#1453);
#440=VERTEX_POINT('',#1455);
#441=VERTEX_POINT('',#1459);
#442=VERTEX_POINT('',#1461);
#443=VERTEX_POINT('',#1463);
#444=VERTEX_POINT('',#1467);
#445=VERTEX_POINT('',#1469);
#446=VERTEX_POINT('',#1475);
#447=VERTEX_POINT('',#1477);
#448=VERTEX_POINT('',#1483);
#449=VERTEX_POINT('',#1485);
#450=VERTEX_POINT('',#1489);
#451=VERTEX_POINT('',#1493);
#452=VERTEX_POINT('',#1494);
#453=VERTEX_POINT('',#1504);
#454=VERTEX_POINT('',#1506);
#455=VERTEX_POINT('',#1510);
#456=VERTEX_POINT('',#1512);
#457=VERTEX_POINT('',#1516);
#458=VERTEX_POINT('',#1518);
#459=VERTEX_POINT('',#1522);
#460=VERTEX_POINT('',#1526);
#461=VERTEX_POINT('',#1530);
#462=VERTEX_POINT('',#1534);
#463=VERTEX_POINT('',#1538);
#464=VERTEX_POINT('',#1540);
#465=VERTEX_POINT('',#1544);
#466=VERTEX_POINT('',#1548);
#467=VERTEX_POINT('',#1552);
#468=VERTEX_POINT('',#1556);
#469=VERTEX_POINT('',#1558);
#470=VERTEX_POINT('',#1562);
#471=VERTEX_POINT('',#1563);
#472=VERTEX_POINT('',#1568);
#473=VERTEX_POINT('',#1572);
#474=VERTEX_POINT('',#1594);
#475=VERTEX_POINT('',#1596);
#476=VERTEX_POINT('',#1600);
#477=VERTEX_POINT('',#1602);
#478=VERTEX_POINT('',#1604);
#479=VERTEX_POINT('',#1606);
#480=VERTEX_POINT('',#1608);
#481=VERTEX_POINT('',#1610);
#482=VERTEX_POINT('',#1614);
#483=VERTEX_POINT('',#1618);
#484=VERTEX_POINT('',#1622);
#485=VERTEX_POINT('',#1624);
#486=VERTEX_POINT('',#1628);
#487=VERTEX_POINT('',#1632);
#488=VERTEX_POINT('',#1636);
#489=VERTEX_POINT('',#1640);
#490=VERTEX_POINT('',#1644);
#491=VERTEX_POINT('',#1646);
#492=VERTEX_POINT('',#1650);
#493=VERTEX_POINT('',#1654);
#494=VERTEX_POINT('',#1664);
#495=EDGE_CURVE('',#415,#416,#167,.T.);
#496=EDGE_CURVE('',#416,#417,#168,.T.);
#497=EDGE_CURVE('',#417,#418,#169,.T.);
#498=EDGE_CURVE('',#418,#419,#151,.T.);
#499=EDGE_CURVE('',#419,#420,#170,.T.);
#500=EDGE_CURVE('',#420,#421,#152,.T.);
#501=EDGE_CURVE('',#421,#422,#171,.T.);
#502=EDGE_CURVE('',#422,#423,#172,.T.);
#503=EDGE_CURVE('',#423,#424,#173,.T.);
#504=EDGE_CURVE('',#424,#425,#174,.T.);
#505=EDGE_CURVE('',#426,#425,#175,.T.);
#506=EDGE_CURVE('',#427,#426,#176,.T.);
#507=EDGE_CURVE('',#428,#427,#177,.T.);
#508=EDGE_CURVE('',#429,#428,#178,.T.);
#509=EDGE_CURVE('',#430,#429,#179,.T.);
#510=EDGE_CURVE('',#431,#430,#153,.T.);
#511=EDGE_CURVE('',#432,#431,#180,.T.);
#512=EDGE_CURVE('',#433,#432,#154,.T.);
#513=EDGE_CURVE('',#434,#433,#181,.T.);
#514=EDGE_CURVE('',#415,#434,#182,.T.);
#515=EDGE_CURVE('',#435,#436,#183,.T.);
#516=EDGE_CURVE('',#436,#437,#184,.T.);
#517=EDGE_CURVE('',#437,#438,#185,.T.);
#518=EDGE_CURVE('',#435,#438,#186,.T.);
#519=EDGE_CURVE('',#425,#439,#187,.T.);
#520=EDGE_CURVE('',#439,#440,#188,.T.);
#521=EDGE_CURVE('',#426,#440,#189,.T.);
#522=EDGE_CURVE('',#439,#441,#190,.T.);
#523=EDGE_CURVE('',#442,#441,#191,.T.);
#524=EDGE_CURVE('',#442,#443,#192,.T.);
#525=EDGE_CURVE('',#439,#443,#193,.T.);
#526=EDGE_CURVE('',#442,#444,#194,.T.);
#527=EDGE_CURVE('',#445,#444,#195,.T.);
#528=EDGE_CURVE('',#443,#445,#196,.T.);
#529=EDGE_CURVE('',#424,#441,#197,.T.);
#530=EDGE_CURVE('',#446,#443,#198,.T.);
#531=EDGE_CURVE('',#445,#447,#199,.T.);
#532=EDGE_CURVE('',#446,#447,#200,.T.);
#533=EDGE_CURVE('',#440,#446,#201,.T.);
#534=EDGE_CURVE('',#440,#448,#202,.T.);
#535=EDGE_CURVE('',#449,#446,#203,.T.);
#536=EDGE_CURVE('',#449,#448,#204,.T.);
#537=EDGE_CURVE('',#449,#450,#205,.T.);
#538=EDGE_CURVE('',#447,#450,#206,.T.);
#539=EDGE_CURVE('',#451,#452,#207,.T.);
#540=EDGE_CURVE('',#451,#438,#208,.T.);
#541=EDGE_CURVE('',#452,#437,#209,.T.);
#542=EDGE_CURVE('',#427,#448,#210,.T.);
#543=EDGE_CURVE('',#416,#435,#211,.T.);
#544=EDGE_CURVE('',#415,#436,#212,.T.);
#545=EDGE_CURVE('',#450,#453,#213,.T.);
#546=EDGE_CURVE('',#454,#453,#214,.T.);
#547=EDGE_CURVE('',#454,#449,#215,.T.);
#548=EDGE_CURVE('',#437,#455,#216,.T.);
#549=EDGE_CURVE('',#456,#455,#217,.F.);
#550=EDGE_CURVE('',#456,#452,#218,.T.);
#551=EDGE_CURVE('',#431,#457,#219,.T.);
#552=EDGE_CURVE('',#457,#458,#220,.T.);
#553=EDGE_CURVE('',#458,#432,#221,.T.);
#554=EDGE_CURVE('',#430,#459,#222,.T.);
#555=EDGE_CURVE('',#459,#457,#155,.T.);
#556=EDGE_CURVE('',#458,#460,#156,.T.);
#557=EDGE_CURVE('',#460,#433,#223,.T.);
#558=EDGE_CURVE('',#461,#434,#224,.F.);
#559=EDGE_CURVE('',#460,#461,#225,.T.);
#560=EDGE_CURVE('',#429,#462,#226,.T.);
#561=EDGE_CURVE('',#462,#459,#227,.T.);
#562=EDGE_CURVE('',#463,#457,#228,.T.);
#563=EDGE_CURVE('',#464,#463,#229,.T.);
#564=EDGE_CURVE('',#458,#464,#230,.T.);
#565=EDGE_CURVE('',#459,#465,#231,.T.);
#566=EDGE_CURVE('',#463,#465,#157,.T.);
#567=EDGE_CURVE('',#466,#462,#232,.T.);
#568=EDGE_CURVE('',#465,#466,#233,.T.);
#569=EDGE_CURVE('',#428,#467,#234,.T.);
#570=EDGE_CURVE('',#467,#462,#235,.T.);
#571=EDGE_CURVE('',#468,#464,#236,.T.);
#572=EDGE_CURVE('',#463,#469,#237,.T.);
#573=EDGE_CURVE('',#469,#468,#238,.T.);
#574=EDGE_CURVE('',#470,#471,#239,.T.);
#575=EDGE_CURVE('',#471,#464,#158,.T.);
#576=EDGE_CURVE('',#468,#470,#159,.T.);
#577=EDGE_CURVE('',#465,#472,#240,.T.);
#578=EDGE_CURVE('',#472,#469,#160,.T.);
#579=EDGE_CURVE('',#466,#473,#241,.T.);
#580=EDGE_CURVE('',#473,#472,#242,.T.);
#581=EDGE_CURVE('',#455,#471,#243,.T.);
#582=EDGE_CURVE('',#470,#456,#244,.T.);
#583=EDGE_CURVE('',#471,#460,#245,.T.);
#584=EDGE_CURVE('',#455,#461,#246,.T.);
#585=EDGE_CURVE('',#466,#454,#247,.T.);
#586=EDGE_CURVE('',#453,#473,#248,.T.);
#587=EDGE_CURVE('',#461,#436,#249,.T.);
#588=EDGE_CURVE('',#467,#454,#250,.T.);
#589=EDGE_CURVE('',#448,#467,#251,.T.);
#590=EDGE_CURVE('',#474,#451,#252,.T.);
#591=EDGE_CURVE('',#474,#475,#253,.F.);
#592=EDGE_CURVE('',#438,#475,#254,.T.);
#593=EDGE_CURVE('',#444,#476,#255,.T.);
#594=EDGE_CURVE('',#476,#477,#256,.T.);
#595=EDGE_CURVE('',#477,#478,#257,.T.);
#596=EDGE_CURVE('',#478,#479,#161,.T.);
#597=EDGE_CURVE('',#479,#480,#258,.T.);
#598=EDGE_CURVE('',#480,#481,#162,.T.);
#599=EDGE_CURVE('',#481,#474,#259,.T.);
#600=EDGE_CURVE('',#482,#442,#260,.T.);
#601=EDGE_CURVE('',#482,#476,#261,.T.);
#602=EDGE_CURVE('',#441,#483,#262,.T.);
#603=EDGE_CURVE('',#483,#482,#263,.T.);
#604=EDGE_CURVE('',#420,#484,#264,.T.);
#605=EDGE_CURVE('',#485,#419,#265,.T.);
#606=EDGE_CURVE('',#484,#485,#266,.T.);
#607=EDGE_CURVE('',#421,#486,#267,.T.);
#608=EDGE_CURVE('',#486,#484,#163,.T.);
#609=EDGE_CURVE('',#487,#418,#268,.T.);
#610=EDGE_CURVE('',#485,#487,#164,.T.);
#611=EDGE_CURVE('',#488,#417,#269,.F.);
#612=EDGE_CURVE('',#487,#488,#270,.T.);
#613=EDGE_CURVE('',#422,#489,#271,.T.);
#614=EDGE_CURVE('',#489,#486,#272,.T.);
#615=EDGE_CURVE('',#485,#490,#273,.T.);
#616=EDGE_CURVE('',#490,#491,#274,.T.);
#617=EDGE_CURVE('',#491,#484,#275,.T.);
#618=EDGE_CURVE('',#491,#492,#165,.T.);
#619=EDGE_CURVE('',#486,#492,#276,.T.);
#620=EDGE_CURVE('',#492,#493,#277,.T.);
#621=EDGE_CURVE('',#493,#489,#278,.T.);
#622=EDGE_CURVE('',#483,#489,#279,.T.);
#623=EDGE_CURVE('',#423,#483,#280,.T.);
#624=EDGE_CURVE('',#480,#490,#281,.T.);
#625=EDGE_CURVE('',#491,#479,#282,.T.);
#626=EDGE_CURVE('',#481,#494,#283,.T.);
#627=EDGE_CURVE('',#494,#490,#166,.T.);
#628=EDGE_CURVE('',#492,#478,#284,.T.);
#629=EDGE_CURVE('',#493,#477,#285,.T.);
#630=EDGE_CURVE('',#475,#494,#286,.T.);
#631=EDGE_CURVE('',#494,#487,#287,.T.);
#632=EDGE_CURVE('',#475,#488,#288,.T.);
#633=EDGE_CURVE('',#493,#482,#289,.T.);
#634=EDGE_CURVE('',#488,#435,#290,.T.);
#635=ORIENTED_EDGE('',*,*,#495,.T.);
#636=ORIENTED_EDGE('',*,*,#496,.T.);
#637=ORIENTED_EDGE('',*,*,#497,.T.);
#638=ORIENTED_EDGE('',*,*,#498,.T.);
#639=ORIENTED_EDGE('',*,*,#499,.T.);
#640=ORIENTED_EDGE('',*,*,#500,.T.);
#641=ORIENTED_EDGE('',*,*,#501,.T.);
#642=ORIENTED_EDGE('',*,*,#502,.T.);
#643=ORIENTED_EDGE('',*,*,#503,.T.);
#644=ORIENTED_EDGE('',*,*,#504,.T.);
#645=ORIENTED_EDGE('',*,*,#505,.F.);
#646=ORIENTED_EDGE('',*,*,#506,.F.);
#647=ORIENTED_EDGE('',*,*,#507,.F.);
#648=ORIENTED_EDGE('',*,*,#508,.F.);
#649=ORIENTED_EDGE('',*,*,#509,.F.);
#650=ORIENTED_EDGE('',*,*,#510,.F.);
#651=ORIENTED_EDGE('',*,*,#511,.F.);
#652=ORIENTED_EDGE('',*,*,#512,.F.);
#653=ORIENTED_EDGE('',*,*,#513,.F.);
#654=ORIENTED_EDGE('',*,*,#514,.F.);
#655=ORIENTED_EDGE('',*,*,#515,.T.);
#656=ORIENTED_EDGE('',*,*,#516,.T.);
#657=ORIENTED_EDGE('',*,*,#517,.T.);
#658=ORIENTED_EDGE('',*,*,#518,.F.);
#659=ORIENTED_EDGE('',*,*,#505,.T.);
#660=ORIENTED_EDGE('',*,*,#519,.T.);
#661=ORIENTED_EDGE('',*,*,#520,.T.);
#662=ORIENTED_EDGE('',*,*,#521,.F.);
#663=ORIENTED_EDGE('',*,*,#522,.T.);
#664=ORIENTED_EDGE('',*,*,#523,.F.);
#665=ORIENTED_EDGE('',*,*,#524,.T.);
#666=ORIENTED_EDGE('',*,*,#525,.F.);
#667=ORIENTED_EDGE('',*,*,#526,.T.);
#668=ORIENTED_EDGE('',*,*,#527,.F.);
#669=ORIENTED_EDGE('',*,*,#528,.F.);
#670=ORIENTED_EDGE('',*,*,#524,.F.);
#671=ORIENTED_EDGE('',*,*,#504,.F.);
#672=ORIENTED_EDGE('',*,*,#529,.T.);
#673=ORIENTED_EDGE('',*,*,#522,.F.);
#674=ORIENTED_EDGE('',*,*,#519,.F.);
#675=ORIENTED_EDGE('',*,*,#530,.T.);
#676=ORIENTED_EDGE('',*,*,#528,.T.);
#677=ORIENTED_EDGE('',*,*,#531,.T.);
#678=ORIENTED_EDGE('',*,*,#532,.F.);
#679=ORIENTED_EDGE('',*,*,#520,.F.);
#680=ORIENTED_EDGE('',*,*,#525,.T.);
#681=ORIENTED_EDGE('',*,*,#530,.F.);
#682=ORIENTED_EDGE('',*,*,#533,.F.);
#683=ORIENTED_EDGE('',*,*,#534,.F.);
#684=ORIENTED_EDGE('',*,*,#533,.T.);
#685=ORIENTED_EDGE('',*,*,#535,.F.);
#686=ORIENTED_EDGE('',*,*,#536,.T.);
#687=ORIENTED_EDGE('',*,*,#537,.F.);
#688=ORIENTED_EDGE('',*,*,#535,.T.);
#689=ORIENTED_EDGE('',*,*,#532,.T.);
#690=ORIENTED_EDGE('',*,*,#538,.T.);
#691=ORIENTED_EDGE('',*,*,#539,.F.);
#692=ORIENTED_EDGE('',*,*,#540,.T.);
#693=ORIENTED_EDGE('',*,*,#517,.F.);
#694=ORIENTED_EDGE('',*,*,#541,.F.);
#695=ORIENTED_EDGE('',*,*,#506,.T.);
#696=ORIENTED_EDGE('',*,*,#521,.T.);
#697=ORIENTED_EDGE('',*,*,#534,.T.);
#698=ORIENTED_EDGE('',*,*,#542,.F.);
#699=ORIENTED_EDGE('',*,*,#515,.F.);
#700=ORIENTED_EDGE('',*,*,#543,.F.);
#701=ORIENTED_EDGE('',*,*,#495,.F.);
#702=ORIENTED_EDGE('',*,*,#544,.T.);
#703=ORIENTED_EDGE('',*,*,#545,.T.);
#704=ORIENTED_EDGE('',*,*,#546,.F.);
#705=ORIENTED_EDGE('',*,*,#547,.T.);
#706=ORIENTED_EDGE('',*,*,#537,.T.);
#707=ORIENTED_EDGE('',*,*,#548,.T.);
#708=ORIENTED_EDGE('',*,*,#549,.F.);
#709=ORIENTED_EDGE('',*,*,#550,.T.);
#710=ORIENTED_EDGE('',*,*,#541,.T.);
#711=ORIENTED_EDGE('',*,*,#551,.T.);
#712=ORIENTED_EDGE('',*,*,#552,.T.);
#713=ORIENTED_EDGE('',*,*,#553,.T.);
#714=ORIENTED_EDGE('',*,*,#511,.T.);
#715=ORIENTED_EDGE('',*,*,#554,.T.);
#716=ORIENTED_EDGE('',*,*,#555,.T.);
#717=ORIENTED_EDGE('',*,*,#551,.F.);
#718=ORIENTED_EDGE('',*,*,#510,.T.);
#719=ORIENTED_EDGE('',*,*,#553,.F.);
#720=ORIENTED_EDGE('',*,*,#556,.T.);
#721=ORIENTED_EDGE('',*,*,#557,.T.);
#722=ORIENTED_EDGE('',*,*,#512,.T.);
#723=ORIENTED_EDGE('',*,*,#558,.T.);
#724=ORIENTED_EDGE('',*,*,#513,.T.);
#725=ORIENTED_EDGE('',*,*,#557,.F.);
#726=ORIENTED_EDGE('',*,*,#559,.T.);
#727=ORIENTED_EDGE('',*,*,#560,.T.);
#728=ORIENTED_EDGE('',*,*,#561,.T.);
#729=ORIENTED_EDGE('',*,*,#554,.F.);
#730=ORIENTED_EDGE('',*,*,#509,.T.);
#731=ORIENTED_EDGE('',*,*,#552,.F.);
#732=ORIENTED_EDGE('',*,*,#562,.F.);
#733=ORIENTED_EDGE('',*,*,#563,.F.);
#734=ORIENTED_EDGE('',*,*,#564,.F.);
#735=ORIENTED_EDGE('',*,*,#555,.F.);
#736=ORIENTED_EDGE('',*,*,#565,.T.);
#737=ORIENTED_EDGE('',*,*,#566,.F.);
#738=ORIENTED_EDGE('',*,*,#562,.T.);
#739=ORIENTED_EDGE('',*,*,#561,.F.);
#740=ORIENTED_EDGE('',*,*,#567,.F.);
#741=ORIENTED_EDGE('',*,*,#568,.F.);
#742=ORIENTED_EDGE('',*,*,#565,.F.);
#743=ORIENTED_EDGE('',*,*,#560,.F.);
#744=ORIENTED_EDGE('',*,*,#508,.T.);
#745=ORIENTED_EDGE('',*,*,#569,.T.);
#746=ORIENTED_EDGE('',*,*,#570,.T.);
#747=ORIENTED_EDGE('',*,*,#571,.T.);
#748=ORIENTED_EDGE('',*,*,#563,.T.);
#749=ORIENTED_EDGE('',*,*,#572,.T.);
#750=ORIENTED_EDGE('',*,*,#573,.T.);
#751=ORIENTED_EDGE('',*,*,#574,.T.);
#752=ORIENTED_EDGE('',*,*,#575,.T.);
#753=ORIENTED_EDGE('',*,*,#571,.F.);
#754=ORIENTED_EDGE('',*,*,#576,.T.);
#755=ORIENTED_EDGE('',*,*,#572,.F.);
#756=ORIENTED_EDGE('',*,*,#566,.T.);
#757=ORIENTED_EDGE('',*,*,#577,.T.);
#758=ORIENTED_EDGE('',*,*,#578,.T.);
#759=ORIENTED_EDGE('',*,*,#579,.T.);
#760=ORIENTED_EDGE('',*,*,#580,.T.);
#761=ORIENTED_EDGE('',*,*,#577,.F.);
#762=ORIENTED_EDGE('',*,*,#568,.T.);
#763=ORIENTED_EDGE('',*,*,#549,.T.);
#764=ORIENTED_EDGE('',*,*,#581,.T.);
#765=ORIENTED_EDGE('',*,*,#574,.F.);
#766=ORIENTED_EDGE('',*,*,#582,.T.);
#767=ORIENTED_EDGE('',*,*,#556,.F.);
#768=ORIENTED_EDGE('',*,*,#564,.T.);
#769=ORIENTED_EDGE('',*,*,#575,.F.);
#770=ORIENTED_EDGE('',*,*,#583,.T.);
#771=ORIENTED_EDGE('',*,*,#559,.F.);
#772=ORIENTED_EDGE('',*,*,#583,.F.);
#773=ORIENTED_EDGE('',*,*,#581,.F.);
#774=ORIENTED_EDGE('',*,*,#584,.T.);
#775=ORIENTED_EDGE('',*,*,#579,.F.);
#776=ORIENTED_EDGE('',*,*,#585,.T.);
#777=ORIENTED_EDGE('',*,*,#546,.T.);
#778=ORIENTED_EDGE('',*,*,#586,.T.);
#779=ORIENTED_EDGE('',*,*,#514,.T.);
#780=ORIENTED_EDGE('',*,*,#558,.F.);
#781=ORIENTED_EDGE('',*,*,#587,.T.);
#782=ORIENTED_EDGE('',*,*,#544,.F.);
#783=ORIENTED_EDGE('',*,*,#570,.F.);
#784=ORIENTED_EDGE('',*,*,#588,.T.);
#785=ORIENTED_EDGE('',*,*,#585,.F.);
#786=ORIENTED_EDGE('',*,*,#567,.T.);
#787=ORIENTED_EDGE('',*,*,#589,.T.);
#788=ORIENTED_EDGE('',*,*,#569,.F.);
#789=ORIENTED_EDGE('',*,*,#507,.T.);
#790=ORIENTED_EDGE('',*,*,#542,.T.);
#791=ORIENTED_EDGE('',*,*,#547,.F.);
#792=ORIENTED_EDGE('',*,*,#588,.F.);
#793=ORIENTED_EDGE('',*,*,#589,.F.);
#794=ORIENTED_EDGE('',*,*,#536,.F.);
#795=ORIENTED_EDGE('',*,*,#587,.F.);
#796=ORIENTED_EDGE('',*,*,#584,.F.);
#797=ORIENTED_EDGE('',*,*,#548,.F.);
#798=ORIENTED_EDGE('',*,*,#516,.F.);
#799=ORIENTED_EDGE('',*,*,#590,.F.);
#800=ORIENTED_EDGE('',*,*,#591,.T.);
#801=ORIENTED_EDGE('',*,*,#592,.F.);
#802=ORIENTED_EDGE('',*,*,#540,.F.);
#803=ORIENTED_EDGE('',*,*,#539,.T.);
#804=ORIENTED_EDGE('',*,*,#550,.F.);
#805=ORIENTED_EDGE('',*,*,#582,.F.);
#806=ORIENTED_EDGE('',*,*,#576,.F.);
#807=ORIENTED_EDGE('',*,*,#573,.F.);
#808=ORIENTED_EDGE('',*,*,#578,.F.);
#809=ORIENTED_EDGE('',*,*,#580,.F.);
#810=ORIENTED_EDGE('',*,*,#586,.F.);
#811=ORIENTED_EDGE('',*,*,#545,.F.);
#812=ORIENTED_EDGE('',*,*,#538,.F.);
#813=ORIENTED_EDGE('',*,*,#531,.F.);
#814=ORIENTED_EDGE('',*,*,#527,.T.);
#815=ORIENTED_EDGE('',*,*,#593,.T.);
#816=ORIENTED_EDGE('',*,*,#594,.T.);
#817=ORIENTED_EDGE('',*,*,#595,.T.);
#818=ORIENTED_EDGE('',*,*,#596,.T.);
#819=ORIENTED_EDGE('',*,*,#597,.T.);
#820=ORIENTED_EDGE('',*,*,#598,.T.);
#821=ORIENTED_EDGE('',*,*,#599,.T.);
#822=ORIENTED_EDGE('',*,*,#590,.T.);
#823=ORIENTED_EDGE('',*,*,#600,.F.);
#824=ORIENTED_EDGE('',*,*,#601,.T.);
#825=ORIENTED_EDGE('',*,*,#593,.F.);
#826=ORIENTED_EDGE('',*,*,#526,.F.);
#827=ORIENTED_EDGE('',*,*,#602,.T.);
#828=ORIENTED_EDGE('',*,*,#603,.T.);
#829=ORIENTED_EDGE('',*,*,#600,.T.);
#830=ORIENTED_EDGE('',*,*,#523,.T.);
#831=ORIENTED_EDGE('',*,*,#604,.F.);
#832=ORIENTED_EDGE('',*,*,#499,.F.);
#833=ORIENTED_EDGE('',*,*,#605,.F.);
#834=ORIENTED_EDGE('',*,*,#606,.F.);
#835=ORIENTED_EDGE('',*,*,#607,.F.);
#836=ORIENTED_EDGE('',*,*,#500,.F.);
#837=ORIENTED_EDGE('',*,*,#604,.T.);
#838=ORIENTED_EDGE('',*,*,#608,.F.);
#839=ORIENTED_EDGE('',*,*,#605,.T.);
#840=ORIENTED_EDGE('',*,*,#498,.F.);
#841=ORIENTED_EDGE('',*,*,#609,.F.);
#842=ORIENTED_EDGE('',*,*,#610,.F.);
#843=ORIENTED_EDGE('',*,*,#611,.F.);
#844=ORIENTED_EDGE('',*,*,#612,.F.);
#845=ORIENTED_EDGE('',*,*,#609,.T.);
#846=ORIENTED_EDGE('',*,*,#497,.F.);
#847=ORIENTED_EDGE('',*,*,#613,.F.);
#848=ORIENTED_EDGE('',*,*,#501,.F.);
#849=ORIENTED_EDGE('',*,*,#607,.T.);
#850=ORIENTED_EDGE('',*,*,#614,.F.);
#851=ORIENTED_EDGE('',*,*,#606,.T.);
#852=ORIENTED_EDGE('',*,*,#615,.T.);
#853=ORIENTED_EDGE('',*,*,#616,.T.);
#854=ORIENTED_EDGE('',*,*,#617,.T.);
#855=ORIENTED_EDGE('',*,*,#608,.T.);
#856=ORIENTED_EDGE('',*,*,#617,.F.);
#857=ORIENTED_EDGE('',*,*,#618,.T.);
#858=ORIENTED_EDGE('',*,*,#619,.F.);
#859=ORIENTED_EDGE('',*,*,#614,.T.);
#860=ORIENTED_EDGE('',*,*,#619,.T.);
#861=ORIENTED_EDGE('',*,*,#620,.T.);
#862=ORIENTED_EDGE('',*,*,#621,.T.);
#863=ORIENTED_EDGE('',*,*,#613,.T.);
#864=ORIENTED_EDGE('',*,*,#622,.F.);
#865=ORIENTED_EDGE('',*,*,#623,.F.);
#866=ORIENTED_EDGE('',*,*,#502,.F.);
#867=ORIENTED_EDGE('',*,*,#624,.F.);
#868=ORIENTED_EDGE('',*,*,#597,.F.);
#869=ORIENTED_EDGE('',*,*,#625,.F.);
#870=ORIENTED_EDGE('',*,*,#616,.F.);
#871=ORIENTED_EDGE('',*,*,#626,.F.);
#872=ORIENTED_EDGE('',*,*,#598,.F.);
#873=ORIENTED_EDGE('',*,*,#624,.T.);
#874=ORIENTED_EDGE('',*,*,#627,.F.);
#875=ORIENTED_EDGE('',*,*,#625,.T.);
#876=ORIENTED_EDGE('',*,*,#596,.F.);
#877=ORIENTED_EDGE('',*,*,#628,.F.);
#878=ORIENTED_EDGE('',*,*,#618,.F.);
#879=ORIENTED_EDGE('',*,*,#629,.F.);
#880=ORIENTED_EDGE('',*,*,#620,.F.);
#881=ORIENTED_EDGE('',*,*,#628,.T.);
#882=ORIENTED_EDGE('',*,*,#595,.F.);
#883=ORIENTED_EDGE('',*,*,#591,.F.);
#884=ORIENTED_EDGE('',*,*,#599,.F.);
#885=ORIENTED_EDGE('',*,*,#626,.T.);
#886=ORIENTED_EDGE('',*,*,#630,.F.);
#887=ORIENTED_EDGE('',*,*,#610,.T.);
#888=ORIENTED_EDGE('',*,*,#631,.F.);
#889=ORIENTED_EDGE('',*,*,#627,.T.);
#890=ORIENTED_EDGE('',*,*,#615,.F.);
#891=ORIENTED_EDGE('',*,*,#612,.T.);
#892=ORIENTED_EDGE('',*,*,#632,.F.);
#893=ORIENTED_EDGE('',*,*,#630,.T.);
#894=ORIENTED_EDGE('',*,*,#631,.T.);
#895=ORIENTED_EDGE('',*,*,#629,.T.);
#896=ORIENTED_EDGE('',*,*,#594,.F.);
#897=ORIENTED_EDGE('',*,*,#601,.F.);
#898=ORIENTED_EDGE('',*,*,#633,.F.);
#899=ORIENTED_EDGE('',*,*,#634,.F.);
#900=ORIENTED_EDGE('',*,*,#611,.T.);
#901=ORIENTED_EDGE('',*,*,#496,.F.);
#902=ORIENTED_EDGE('',*,*,#543,.T.);
#903=ORIENTED_EDGE('',*,*,#622,.T.);
#904=ORIENTED_EDGE('',*,*,#621,.F.);
#905=ORIENTED_EDGE('',*,*,#633,.T.);
#906=ORIENTED_EDGE('',*,*,#603,.F.);
#907=ORIENTED_EDGE('',*,*,#503,.F.);
#908=ORIENTED_EDGE('',*,*,#623,.T.);
#909=ORIENTED_EDGE('',*,*,#602,.F.);
#910=ORIENTED_EDGE('',*,*,#529,.F.);
#911=ORIENTED_EDGE('',*,*,#634,.T.);
#912=ORIENTED_EDGE('',*,*,#518,.T.);
#913=ORIENTED_EDGE('',*,*,#592,.T.);
#914=ORIENTED_EDGE('',*,*,#632,.T.);
#915=PLANE('',#1041);
#916=PLANE('',#1046);
#917=PLANE('',#1047);
#918=PLANE('',#1048);
#919=PLANE('',#1049);
#920=PLANE('',#1050);
#921=PLANE('',#1051);
#922=PLANE('',#1052);
#923=PLANE('',#1053);
#924=PLANE('',#1054);
#925=PLANE('',#1055);
#926=PLANE('',#1056);
#927=PLANE('',#1057);
#928=PLANE('',#1058);
#929=PLANE('',#1059);
#930=PLANE('',#1060);
#931=PLANE('',#1065);
#932=PLANE('',#1066);
#933=PLANE('',#1067);
#934=PLANE('',#1070);
#935=PLANE('',#1071);
#936=PLANE('',#1072);
#937=PLANE('',#1078);
#938=PLANE('',#1079);
#939=PLANE('',#1081);
#940=PLANE('',#1082);
#941=PLANE('',#1083);
#942=PLANE('',#1084);
#943=PLANE('',#1085);
#944=PLANE('',#1086);
#945=PLANE('',#1087);
#946=PLANE('',#1088);
#947=PLANE('',#1089);
#948=PLANE('',#1092);
#949=PLANE('',#1093);
#950=PLANE('',#1094);
#951=PLANE('',#1099);
#952=PLANE('',#1100);
#953=PLANE('',#1101);
#954=PLANE('',#1104);
#955=PLANE('',#1105);
#956=PLANE('',#1106);
#957=PLANE('',#1110);
#958=PLANE('',#1111);
#959=PLANE('',#1113);
#960=PLANE('',#1114);
#961=PLANE('',#1115);
#962=PLANE('',#1116);
#963=PLANE('',#1117);
#964=PLANE('',#1118);
#965=ADVANCED_FACE('',(#27),#915,.F.);
#966=ADVANCED_FACE('',(#28),#916,.T.);
#967=ADVANCED_FACE('',(#29),#917,.T.);
#968=ADVANCED_FACE('',(#30),#918,.F.);
#969=ADVANCED_FACE('',(#31),#919,.F.);
#970=ADVANCED_FACE('',(#32),#920,.F.);
#971=ADVANCED_FACE('',(#33),#921,.T.);
#972=ADVANCED_FACE('',(#34),#922,.T.);
#973=ADVANCED_FACE('',(#35),#923,.T.);
#974=ADVANCED_FACE('',(#36),#924,.T.);
#975=ADVANCED_FACE('',(#37),#925,.T.);
#976=ADVANCED_FACE('',(#38),#926,.T.);
#977=ADVANCED_FACE('',(#39),#927,.T.);
#978=ADVANCED_FACE('',(#40),#928,.T.);
#979=ADVANCED_FACE('',(#41),#929,.T.);
#980=ADVANCED_FACE('',(#42),#930,.T.);
#981=ADVANCED_FACE('',(#43),#19,.T.);
#982=ADVANCED_FACE('',(#44),#20,.T.);
#983=ADVANCED_FACE('',(#45),#931,.T.);
#984=ADVANCED_FACE('',(#46),#932,.T.);
#985=ADVANCED_FACE('',(#47),#933,.T.);
#986=ADVANCED_FACE('',(#48),#15,.T.);
#987=ADVANCED_FACE('',(#49),#934,.T.);
#988=ADVANCED_FACE('',(#50),#935,.T.);
#989=ADVANCED_FACE('',(#51),#936,.T.);
#990=ADVANCED_FACE('',(#52),#21,.T.);
#991=ADVANCED_FACE('',(#53),#22,.T.);
#992=ADVANCED_FACE('',(#54),#937,.T.);
#993=ADVANCED_FACE('',(#55),#938,.T.);
#994=ADVANCED_FACE('',(#56),#16,.T.);
#995=ADVANCED_FACE('',(#57),#939,.T.);
#996=ADVANCED_FACE('',(#58),#940,.T.);
#997=ADVANCED_FACE('',(#59),#941,.T.);
#998=ADVANCED_FACE('',(#60),#942,.T.);
#999=ADVANCED_FACE('',(#61),#943,.T.);
#1000=ADVANCED_FACE('',(#62),#944,.T.);
#1001=ADVANCED_FACE('',(#63),#945,.F.);
#1002=ADVANCED_FACE('',(#64),#946,.F.);
#1003=ADVANCED_FACE('',(#65),#947,.T.);
#1004=ADVANCED_FACE('',(#66),#948,.F.);
#1005=ADVANCED_FACE('',(#67),#949,.F.);
#1006=ADVANCED_FACE('',(#68),#950,.F.);
#1007=ADVANCED_FACE('',(#69),#23,.T.);
#1008=ADVANCED_FACE('',(#70),#24,.T.);
#1009=ADVANCED_FACE('',(#71),#951,.F.);
#1010=ADVANCED_FACE('',(#72),#952,.F.);
#1011=ADVANCED_FACE('',(#73),#953,.F.);
#1012=ADVANCED_FACE('',(#74),#17,.T.);
#1013=ADVANCED_FACE('',(#75),#954,.F.);
#1014=ADVANCED_FACE('',(#76),#955,.F.);
#1015=ADVANCED_FACE('',(#77),#956,.F.);
#1016=ADVANCED_FACE('',(#78),#25,.T.);
#1017=ADVANCED_FACE('',(#79),#26,.T.);
#1018=ADVANCED_FACE('',(#80),#957,.F.);
#1019=ADVANCED_FACE('',(#81),#958,.F.);
#1020=ADVANCED_FACE('',(#82),#18,.T.);
#1021=ADVANCED_FACE('',(#83),#959,.F.);
#1022=ADVANCED_FACE('',(#84),#960,.F.);
#1023=ADVANCED_FACE('',(#85),#961,.F.);
#1024=ADVANCED_FACE('',(#86),#962,.F.);
#1025=ADVANCED_FACE('',(#87),#963,.F.);
#1026=ADVANCED_FACE('',(#88),#964,.T.);
#1027=CLOSED_SHELL('',(#965,#966,#967,#968,#969,#970,#971,#972,#973,#974,
#975,#976,#977,#978,#979,#980,#981,#982,#983,#984,#985,#986,#987,#988,#989,
#990,#991,#992,#993,#994,#995,#996,#997,#998,#999,#1000,#1001,#1002,#1003,
#1004,#1005,#1006,#1007,#1008,#1009,#1010,#1011,#1012,#1013,#1014,#1015,
#1016,#1017,#1018,#1019,#1020,#1021,#1022,#1023,#1024,#1025,#1026));
#1028=DERIVED_UNIT_ELEMENT(#1030,1.);
#1029=DERIVED_UNIT_ELEMENT(#1689,-3.);
#1030=(
MASS_UNIT()
NAMED_UNIT(*)
SI_UNIT(.KILO.,.GRAM.)
);
#1031=DERIVED_UNIT((#1028,#1029));
#1032=MEASURE_REPRESENTATION_ITEM('density measure',
POSITIVE_RATIO_MEASURE(2700.),#1031);
#1033=PROPERTY_DEFINITION_REPRESENTATION(#1038,#1035);
#1034=PROPERTY_DEFINITION_REPRESENTATION(#1039,#1036);
#1035=REPRESENTATION('material name',(#1037),#1686);
#1036=REPRESENTATION('density',(#1032),#1686);
#1037=DESCRIPTIVE_REPRESENTATION_ITEM('Aluminum','Aluminum');
#1038=PROPERTY_DEFINITION('material property','material name',#1696);
#1039=PROPERTY_DEFINITION('material property','density of part',#1696);
#1040=AXIS2_PLACEMENT_3D('',#1401,#1119,#1120);
#1041=AXIS2_PLACEMENT_3D('',#1402,#1121,#1122);
#1042=AXIS2_PLACEMENT_3D('',#1411,#1126,#1127);
#1043=AXIS2_PLACEMENT_3D('',#1415,#1129,#1130);
#1044=AXIS2_PLACEMENT_3D('',#1435,#1140,#1141);
#1045=AXIS2_PLACEMENT_3D('',#1439,#1143,#1144);
#1046=AXIS2_PLACEMENT_3D('',#1443,#1147,#1148);
#1047=AXIS2_PLACEMENT_3D('',#1452,#1153,#1154);
#1048=AXIS2_PLACEMENT_3D('',#1458,#1158,#1159);
#1049=AXIS2_PLACEMENT_3D('',#1466,#1164,#1165);
#1050=AXIS2_PLACEMENT_3D('',#1472,#1169,#1170);
#1051=AXIS2_PLACEMENT_3D('',#1474,#1172,#1173);
#1052=AXIS2_PLACEMENT_3D('',#1480,#1177,#1178);
#1053=AXIS2_PLACEMENT_3D('',#1482,#1180,#1181);
#1054=AXIS2_PLACEMENT_3D('',#1488,#1185,#1186);
#1055=AXIS2_PLACEMENT_3D('',#1492,#1189,#1190);
#1056=AXIS2_PLACEMENT_3D('',#1498,#1194,#1195);
#1057=AXIS2_PLACEMENT_3D('',#1500,#1197,#1198);
#1058=AXIS2_PLACEMENT_3D('',#1503,#1201,#1202);
#1059=AXIS2_PLACEMENT_3D('',#1509,#1206,#1207);
#1060=AXIS2_PLACEMENT_3D('',#1515,#1211,#1212);
#1061=AXIS2_PLACEMENT_3D('',#1521,#1216,#1217);
#1062=AXIS2_PLACEMENT_3D('',#1524,#1219,#1220);
#1063=AXIS2_PLACEMENT_3D('',#1525,#1221,#1222);
#1064=AXIS2_PLACEMENT_3D('',#1527,#1223,#1224);
#1065=AXIS2_PLACEMENT_3D('',#1529,#1226,#1227);
#1066=AXIS2_PLACEMENT_3D('',#1533,#1230,#1231);
#1067=AXIS2_PLACEMENT_3D('',#1537,#1234,#1235);
#1068=AXIS2_PLACEMENT_3D('',#1543,#1239,#1240);
#1069=AXIS2_PLACEMENT_3D('',#1546,#1242,#1243);
#1070=AXIS2_PLACEMENT_3D('',#1547,#1244,#1245);
#1071=AXIS2_PLACEMENT_3D('',#1551,#1248,#1249);
#1072=AXIS2_PLACEMENT_3D('',#1555,#1252,#1253);
#1073=AXIS2_PLACEMENT_3D('',#1561,#1257,#1258);
#1074=AXIS2_PLACEMENT_3D('',#1565,#1260,#1261);
#1075=AXIS2_PLACEMENT_3D('',#1566,#1262,#1263);
#1076=AXIS2_PLACEMENT_3D('',#1567,#1264,#1265);
#1077=AXIS2_PLACEMENT_3D('',#1570,#1267,#1268);
#1078=AXIS2_PLACEMENT_3D('',#1571,#1269,#1270);
#1079=AXIS2_PLACEMENT_3D('',#1575,#1273,#1274);
#1080=AXIS2_PLACEMENT_3D('',#1578,#1277,#1278);
#1081=AXIS2_PLACEMENT_3D('',#1580,#1280,#1281);
#1082=AXIS2_PLACEMENT_3D('',#1582,#1283,#1284);
#1083=AXIS2_PLACEMENT_3D('',#1585,#1287,#1288);
#1084=AXIS2_PLACEMENT_3D('',#1587,#1290,#1291);
#1085=AXIS2_PLACEMENT_3D('',#1589,#1293,#1294);
#1086=AXIS2_PLACEMENT_3D('',#1591,#1296,#1297);
#1087=AXIS2_PLACEMENT_3D('',#1592,#1298,#1299);
#1088=AXIS2_PLACEMENT_3D('',#1593,#1300,#1301);
#1089=AXIS2_PLACEMENT_3D('',#1599,#1305,#1306);
#1090=AXIS2_PLACEMENT_3D('',#1607,#1310,#1311);
#1091=AXIS2_PLACEMENT_3D('',#1611,#1313,#1314);
#1092=AXIS2_PLACEMENT_3D('',#1613,#1316,#1317);
#1093=AXIS2_PLACEMENT_3D('',#1617,#1320,#1321);
#1094=AXIS2_PLACEMENT_3D('',#1621,#1324,#1325);
#1095=AXIS2_PLACEMENT_3D('',#1627,#1329,#1330);
#1096=AXIS2_PLACEMENT_3D('',#1630,#1332,#1333);
#1097=AXIS2_PLACEMENT_3D('',#1631,#1334,#1335);
#1098=AXIS2_PLACEMENT_3D('',#1634,#1337,#1338);
#1099=AXIS2_PLACEMENT_3D('',#1635,#1339,#1340);
#1100=AXIS2_PLACEMENT_3D('',#1639,#1343,#1344);
#1101=AXIS2_PLACEMENT_3D('',#1643,#1347,#1348);
#1102=AXIS2_PLACEMENT_3D('',#1649,#1352,#1353);
#1103=AXIS2_PLACEMENT_3D('',#1651,#1354,#1355);
#1104=AXIS2_PLACEMENT_3D('',#1653,#1357,#1358);
#1105=AXIS2_PLACEMENT_3D('',#1657,#1361,#1362);
#1106=AXIS2_PLACEMENT_3D('',#1660,#1365,#1366);
#1107=AXIS2_PLACEMENT_3D('',#1663,#1369,#1370);
#1108=AXIS2_PLACEMENT_3D('',#1666,#1372,#1373);
#1109=AXIS2_PLACEMENT_3D('',#1667,#1374,#1375);
#1110=AXIS2_PLACEMENT_3D('',#1669,#1377,#1378);
#1111=AXIS2_PLACEMENT_3D('',#1671,#1380,#1381);
#1112=AXIS2_PLACEMENT_3D('',#1673,#1383,#1384);
#1113=AXIS2_PLACEMENT_3D('',#1675,#1386,#1387);
#1114=AXIS2_PLACEMENT_3D('',#1677,#1389,#1390);
#1115=AXIS2_PLACEMENT_3D('',#1679,#1392,#1393);
#1116=AXIS2_PLACEMENT_3D('',#1681,#1395,#1396);
#1117=AXIS2_PLACEMENT_3D('',#1682,#1397,#1398);
#1118=AXIS2_PLACEMENT_3D('',#1683,#1399,#1400);
#1119=DIRECTION('axis',(0.,0.,1.));
#1120=DIRECTION('refdir',(1.,0.,0.));
#1121=DIRECTION('center_axis',(0.,0.,1.));
#1122=DIRECTION('ref_axis',(1.,0.,0.));
#1123=DIRECTION('',(0.,1.,0.));
#1124=DIRECTION('',(-1.,0.,0.));
#1125=DIRECTION('',(0.,-1.,0.));
#1126=DIRECTION('center_axis',(0.,0.,-1.));
#1127=DIRECTION('ref_axis',(0.707106781186547,-0.707106781186548,0.));
#1128=DIRECTION('',(-1.,0.,0.));
#1129=DIRECTION('center_axis',(0.,0.,-1.));
#1130=DIRECTION('ref_axis',(-0.707106781186547,-0.707106781186548,0.));
#1131=DIRECTION('',(4.03717457484198E-17,1.,0.));
#1132=DIRECTION('',(0.707106781186547,0.707106781186548,0.));
#1133=DIRECTION('',(1.,0.,0.));
#1134=DIRECTION('',(0.707106781186547,-0.707106781186548,0.));
#1135=DIRECTION('',(0.,1.,0.));
#1136=DIRECTION('',(0.707106781186547,0.707106781186548,0.));
#1137=DIRECTION('',(1.,0.,0.));
#1138=DIRECTION('',(0.707106781186547,-0.707106781186548,0.));
#1139=DIRECTION('',(4.03717457484198E-17,-1.,0.));
#1140=DIRECTION('center_axis',(0.,0.,1.));
#1141=DIRECTION('ref_axis',(-0.707106781186547,0.707106781186548,0.));
#1142=DIRECTION('',(-1.,0.,0.));
#1143=DIRECTION('center_axis',(0.,0.,1.));
#1144=DIRECTION('ref_axis',(0.707106781186547,0.707106781186548,0.));
#1145=DIRECTION('',(0.,1.,0.));
#1146=DIRECTION('',(-1.,0.,0.));
#1147=DIRECTION('center_axis',(-1.,0.,0.));
#1148=DIRECTION('ref_axis',(0.,0.,1.));
#1149=DIRECTION('',(0.,-1.,0.));
#1150=DIRECTION('',(0.,0.,1.));
#1151=DIRECTION('',(0.,1.,0.));
#1152=DIRECTION('',(0.,0.,1.));
#1153=DIRECTION('center_axis',(0.707106781186547,0.,-0.707106781186548));
#1154=DIRECTION('ref_axis',(-0.707106781186548,0.,-0.707106781186547));
#1155=DIRECTION('',(0.678598344545844,0.281084637714837,0.678598344545843));
#1156=DIRECTION('',(0.,-1.,0.));
#1157=DIRECTION('',(0.678598344545844,-0.281084637714837,0.678598344545843));
#1158=DIRECTION('center_axis',(-0.707106781186548,-0.707106781186547,0.));
#1159=DIRECTION('ref_axis',(0.,0.,-1.));
#1160=DIRECTION('',(-0.707106781186547,0.707106781186548,0.));
#1161=DIRECTION('',(0.,0.,-1.));
#1162=DIRECTION('',(0.707106781186547,-0.707106781186548,0.));
#1163=DIRECTION('',(0.,0.,1.));
#1164=DIRECTION('center_axis',(-0.500000000000001,-0.5,-0.707106781186547));
#1165=DIRECTION('ref_axis',(0.816496580927725,-1.38777878078144E-16,-0.577350269189627));
#1166=DIRECTION('',(-0.281084637714837,-0.678598344545836,0.678598344545851));
#1167=DIRECTION('',(-0.707106781186547,0.707106781186548,0.));
#1168=DIRECTION('',(-0.678598344545847,-0.281084637714819,0.678598344545847));
#1169=DIRECTION('center_axis',(-0.499999999999998,-0.499999999999996,0.707106781186552));
#1170=DIRECTION('ref_axis',(-0.816496580927729,0.,-0.577350269189622));
#1171=DIRECTION('',(0.281084637714861,0.678598344545831,0.678598344545846));
#1172=DIRECTION('center_axis',(0.707106781186548,0.,0.707106781186548));
#1173=DIRECTION('ref_axis',(0.707106781186548,0.,-0.707106781186548));
#1174=DIRECTION('',(0.,1.,0.));
#1175=DIRECTION('',(0.,-1.,0.));
#1176=DIRECTION('',(-0.678598344545847,0.281084637714819,0.678598344545847));
#1177=DIRECTION('center_axis',(1.,0.,0.));
#1178=DIRECTION('ref_axis',(0.,1.,0.));
#1179=DIRECTION('',(0.,0.,1.));
#1180=DIRECTION('center_axis',(0.707106781186548,-0.707106781186547,0.));
#1181=DIRECTION('ref_axis',(0.,0.,-1.));
#1182=DIRECTION('',(-0.707106781186547,-0.707106781186548,0.));
#1183=DIRECTION('',(0.707106781186547,0.707106781186548,0.));
#1184=DIRECTION('',(0.,0.,-1.));
#1185=DIRECTION('center_axis',(0.500000000000001,-0.5,0.707106781186547));
#1186=DIRECTION('ref_axis',(0.816496580927725,1.38777878078144E-16,-0.577350269189627));
#1187=DIRECTION('',(-0.281084637714837,0.678598344545836,0.678598344545851));
#1188=DIRECTION('',(-0.707106781186547,-0.707106781186548,0.));
#1189=DIRECTION('center_axis',(-0.707106781186548,0.,0.707106781186548));
#1190=DIRECTION('ref_axis',(0.707106781186548,0.,0.707106781186548));
#1191=DIRECTION('',(0.,-1.,0.));
#1192=DIRECTION('',(-0.577350269189626,-0.577350269189626,-0.577350269189626));
#1193=DIRECTION('',(-0.577350269189626,0.577350269189626,-0.577350269189626));
#1194=DIRECTION('center_axis',(0.499999999999998,-0.499999999999996,-0.707106781186552));
#1195=DIRECTION('ref_axis',(-0.816496580927729,0.,-0.577350269189622));
#1196=DIRECTION('',(0.281084637714861,-0.678598344545831,0.678598344545846));
#1197=DIRECTION('center_axis',(-0.707106781186547,0.,-0.707106781186548));
#1198=DIRECTION('ref_axis',(-0.707106781186548,0.,0.707106781186547));
#1199=DIRECTION('',(-0.577350269189626,-0.577350269189626,0.577350269189626));
#1200=DIRECTION('',(-0.577350269189626,0.577350269189626,0.577350269189626));
#1201=DIRECTION('center_axis',(0.,-0.707106781186555,0.70710678118654));
#1202=DIRECTION('ref_axis',(1.,0.,0.));
#1203=DIRECTION('',(-1.,0.,0.));
#1204=DIRECTION('',(0.281084637714841,0.678598344545835,0.67859834454585));
#1205=DIRECTION('',(1.,0.,0.));
#1206=DIRECTION('center_axis',(0.,0.707106781186548,0.707106781186548));
#1207=DIRECTION('ref_axis',(1.,0.,0.));
#1208=DIRECTION('',(-1.,0.,0.));
#1209=DIRECTION('',(-0.577350269189626,-0.577350269189626,0.577350269189626));
#1210=DIRECTION('',(1.,0.,0.));
#1211=DIRECTION('center_axis',(0.,0.707106781186548,-0.707106781186548));
#1212=DIRECTION('ref_axis',(-1.,0.,0.));
#1213=DIRECTION('',(0.,0.707106781186547,0.707106781186547));
#1214=DIRECTION('',(1.,0.,0.));
#1215=DIRECTION('',(0.,-0.707106781186547,-0.707106781186547));
#1216=DIRECTION('center_axis',(0.,0.,1.));
#1217=DIRECTION('ref_axis',(-0.707106781186547,0.707106781186548,0.));
#1218=DIRECTION('',(-0.707106781186548,0.,0.707106781186547));
#1219=DIRECTION('center_axis',(0.,0.,-1.));
#1220=DIRECTION('ref_axis',(-0.707106781186547,0.707106781186548,0.));
#1221=DIRECTION('center_axis',(0.,0.,1.));
#1222=DIRECTION('ref_axis',(0.707106781186547,0.707106781186548,0.));
#1223=DIRECTION('center_axis',(0.,0.,-1.));
#1224=DIRECTION('ref_axis',(0.707106781186547,0.707106781186548,0.));
#1225=DIRECTION('',(-0.707106781186548,0.,-0.707106781186547));
#1226=DIRECTION('center_axis',(0.707106781186547,0.,-0.707106781186548));
#1227=DIRECTION('ref_axis',(-0.707106781186548,0.,-0.707106781186547));
#1228=DIRECTION('',(0.577350269189626,0.577350269189626,0.577350269189626));
#1229=DIRECTION('',(0.,-1.,0.));
#1230=DIRECTION('center_axis',(-0.707106781186548,-2.85471351870468E-17,
-0.707106781186548));
#1231=DIRECTION('ref_axis',(-0.707106781186548,0.,0.707106781186548));
#1232=DIRECTION('',(-0.678598344545846,-0.281084637714824,0.678598344545846));
#1233=DIRECTION('',(-4.03717457484198E-17,1.,0.));
#1234=DIRECTION('center_axis',(0.,1.,0.));
#1235=DIRECTION('ref_axis',(1.,0.,0.));
#1236=DIRECTION('',(0.,0.,-1.));
#1237=DIRECTION('',(-1.,0.,0.));
#1238=DIRECTION('',(0.,0.,1.));
#1239=DIRECTION('center_axis',(0.,0.,1.));
#1240=DIRECTION('ref_axis',(-0.707106781186547,0.707106781186548,0.));
#1241=DIRECTION('',(0.,0.,1.));
#1242=DIRECTION('center_axis',(0.,0.,1.));
#1243=DIRECTION('ref_axis',(-0.707106781186547,0.707106781186548,0.));
#1244=DIRECTION('center_axis',(-1.,-4.03717457484198E-17,0.));
#1245=DIRECTION('ref_axis',(4.03717457484198E-17,-1.,0.));
#1246=DIRECTION('',(0.,0.,-1.));
#1247=DIRECTION('',(4.03717457484198E-17,-1.,0.));
#1248=DIRECTION('center_axis',(-0.499999999999999,-0.499999999999999,-0.707106781186549));
#1249=DIRECTION('ref_axis',(-0.816496580927727,-3.33066907387547E-16,0.577350269189624));
#1250=DIRECTION('',(-0.281084637714841,-0.678598344545835,0.67859834454585));
#1251=DIRECTION('',(-0.707106781186547,0.707106781186548,0.));
#1252=DIRECTION('center_axis',(0.,0.707106781186548,0.707106781186548));
#1253=DIRECTION('ref_axis',(1.,0.,0.));
#1254=DIRECTION('',(0.,0.707106781186547,-0.707106781186547));
#1255=DIRECTION('',(0.,-0.707106781186547,0.707106781186547));
#1256=DIRECTION('',(1.,0.,0.));
#1257=DIRECTION('center_axis',(0.,0.,-1.));
#1258=DIRECTION('ref_axis',(0.707106781186547,0.707106781186548,0.));
#1259=DIRECTION('',(0.707106781186548,0.,-0.707106781186547));
#1260=DIRECTION('center_axis',(0.,0.,1.));
#1261=DIRECTION('ref_axis',(0.707106781186547,0.707106781186548,0.));
#1262=DIRECTION('center_axis',(0.,0.,-1.));
#1263=DIRECTION('ref_axis',(0.707106781186547,0.707106781186548,0.));
#1264=DIRECTION('center_axis',(0.,0.,-1.));
#1265=DIRECTION('ref_axis',(-0.707106781186547,0.707106781186548,0.));
#1266=DIRECTION('',(0.707106781186548,0.,0.707106781186547));
#1267=DIRECTION('center_axis',(0.,0.,-1.));
#1268=DIRECTION('ref_axis',(-0.707106781186547,0.707106781186548,0.));
#1269=DIRECTION('center_axis',(-0.707106781186548,-2.85471351870468E-17,
0.707106781186547));
#1270=DIRECTION('ref_axis',(0.707106781186547,0.,0.707106781186548));
#1271=DIRECTION('',(0.678598344545846,0.281084637714824,0.678598344545847));
#1272=DIRECTION('',(-4.03717457484198E-17,1.,0.));
#1273=DIRECTION('center_axis',(0.707106781186548,0.,0.707106781186548));
#1274=DIRECTION('ref_axis',(0.707106781186548,0.,-0.707106781186548));
#1275=DIRECTION('',(0.,1.,0.));
#1276=DIRECTION('',(0.,-1.,0.));
#1277=DIRECTION('center_axis',(0.,0.,-1.));
#1278=DIRECTION('ref_axis',(0.707106781186547,0.707106781186548,0.));
#1279=DIRECTION('',(0.,0.,-1.));
#1280=DIRECTION('center_axis',(1.,0.,0.));
#1281=DIRECTION('ref_axis',(0.,0.,1.));
#1282=DIRECTION('',(0.,0.,-1.));
#1283=DIRECTION('center_axis',(-0.5,-0.499999999999999,0.707106781186549));
#1284=DIRECTION('ref_axis',(0.816496580927727,-1.38777878078144E-16,0.577350269189625));
#1285=DIRECTION('',(0.707106781186547,-0.707106781186548,0.));
#1286=DIRECTION('',(-0.707106781186547,0.707106781186548,0.));
#1287=DIRECTION('center_axis',(0.,0.707106781186547,-0.707106781186548));
#1288=DIRECTION('ref_axis',(-1.,0.,0.));
#1289=DIRECTION('',(1.,0.,0.));
#1290=DIRECTION('center_axis',(-0.707106781186548,-0.707106781186547,0.));
#1291=DIRECTION('ref_axis',(0.,0.,1.));
#1292=DIRECTION('',(0.,0.,1.));
#1293=DIRECTION('center_axis',(0.,-0.707106781186555,-0.70710678118654));
#1294=DIRECTION('ref_axis',(-1.,0.,0.));
#1295=DIRECTION('',(-1.,0.,0.));
#1296=DIRECTION('center_axis',(0.,-1.,0.));
#1297=DIRECTION('ref_axis',(1.,0.,0.));
#1298=DIRECTION('center_axis',(0.,-1.,0.));
#1299=DIRECTION('ref_axis',(0.,0.,-1.));
#1300=DIRECTION('center_axis',(0.,0.707106781186548,-0.707106781186548));
#1301=DIRECTION('ref_axis',(1.,0.,0.));
#1302=DIRECTION('',(1.,0.,0.));
#1303=DIRECTION('',(-0.577350269189626,0.577350269189626,0.577350269189626));
#1304=DIRECTION('',(-1.,0.,0.));
#1305=DIRECTION('center_axis',(0.,0.,1.));
#1306=DIRECTION('ref_axis',(1.,0.,0.));
#1307=DIRECTION('',(-1.,0.,0.));
#1308=DIRECTION('',(-0.707106781186547,-0.707106781186548,0.));
#1309=DIRECTION('',(-4.03717457484198E-17,-1.,0.));
#1310=DIRECTION('center_axis',(0.,0.,1.));
#1311=DIRECTION('ref_axis',(-0.707106781186547,-0.707106781186548,0.));
#1312=DIRECTION('',(1.,0.,0.));
#1313=DIRECTION('center_axis',(0.,0.,1.));
#1314=DIRECTION('ref_axis',(0.707106781186547,-0.707106781186548,0.));
#1315=DIRECTION('',(0.,1.,0.));
#1316=DIRECTION('center_axis',(0.,-0.707106781186555,-0.70710678118654));
#1317=DIRECTION('ref_axis',(1.,0.,0.));
#1318=DIRECTION('',(1.,0.,0.));
#1319=DIRECTION('',(0.281084637714841,-0.678598344545835,0.67859834454585));
#1320=DIRECTION('center_axis',(0.,-1.,0.));
#1321=DIRECTION('ref_axis',(1.,0.,0.));
#1322=DIRECTION('',(-1.,0.,0.));
#1323=DIRECTION('',(0.,0.,1.));
#1324=DIRECTION('center_axis',(0.,0.707106781186548,0.707106781186548));
#1325=DIRECTION('ref_axis',(-1.,0.,0.));
#1326=DIRECTION('',(0.,-0.707106781186547,0.707106781186547));
#1327=DIRECTION('',(0.,0.707106781186547,-0.707106781186547));
#1328=DIRECTION('',(1.,0.,0.));
#1329=DIRECTION('center_axis',(0.,0.,1.));
#1330=DIRECTION('ref_axis',(-0.707106781186547,-0.707106781186548,0.));
#1331=DIRECTION('',(-0.707106781186548,0.,0.707106781186547));
#1332=DIRECTION('center_axis',(0.,0.,1.));
#1333=DIRECTION('ref_axis',(-0.707106781186547,-0.707106781186548,0.));
#1334=DIRECTION('center_axis',(0.,0.,1.));
#1335=DIRECTION('ref_axis',(0.707106781186547,-0.707106781186548,0.));
#1336=DIRECTION('',(-0.707106781186548,0.,-0.707106781186547));
#1337=DIRECTION('center_axis',(0.,0.,1.));
#1338=DIRECTION('ref_axis',(0.707106781186547,-0.707106781186548,0.));
#1339=DIRECTION('center_axis',(-0.707106781186547,0.,0.707106781186548));
#1340=DIRECTION('ref_axis',(-0.707106781186548,0.,-0.707106781186547));
#1341=DIRECTION('',(0.577350269189626,-0.577350269189626,0.577350269189626));
#1342=DIRECTION('',(0.,1.,0.));
#1343=DIRECTION('center_axis',(0.707106781186548,-2.85471351870468E-17,
0.707106781186548));
#1344=DIRECTION('ref_axis',(-0.707106781186548,0.,0.707106781186548));
#1345=DIRECTION('',(-0.678598344545846,0.281084637714824,0.678598344545846));
#1346=DIRECTION('',(-4.03717457484198E-17,-1.,0.));
#1347=DIRECTION('center_axis',(0.,1.,0.));
#1348=DIRECTION('ref_axis',(1.,0.,0.));
#1349=DIRECTION('',(0.,0.,1.));
#1350=DIRECTION('',(-1.,0.,0.));
#1351=DIRECTION('',(0.,0.,-1.));
#1352=DIRECTION('center_axis',(0.,0.,-1.));
#1353=DIRECTION('ref_axis',(-0.707106781186547,-0.707106781186548,0.));
#1354=DIRECTION('center_axis',(0.,0.,-1.));
#1355=DIRECTION('ref_axis',(-0.707106781186547,-0.707106781186548,0.));
#1356=DIRECTION('',(0.,0.,1.));
#1357=DIRECTION('center_axis',(1.,-4.03717457484198E-17,0.));
#1358=DIRECTION('ref_axis',(4.03717457484198E-17,1.,0.));
#1359=DIRECTION('',(4.03717457484198E-17,1.,0.));
#1360=DIRECTION('',(0.,0.,-1.));
#1361=DIRECTION('center_axis',(0.499999999999999,-0.499999999999999,0.707106781186549));
#1362=DIRECTION('ref_axis',(-0.816496580927727,3.33066907387547E-16,0.577350269189624));
#1363=DIRECTION('',(-0.707106781186547,-0.707106781186548,0.));
#1364=DIRECTION('',(-0.281084637714841,0.678598344545835,0.67859834454585));
#1365=DIRECTION('center_axis',(0.,0.707106781186548,-0.707106781186548));
#1366=DIRECTION('ref_axis',(1.,0.,0.));
#1367=DIRECTION('',(0.,-0.707106781186547,-0.707106781186547));
#1368=DIRECTION('',(0.,0.707106781186547,0.707106781186547));
#1369=DIRECTION('center_axis',(0.,0.,-1.));
#1370=DIRECTION('ref_axis',(0.707106781186547,-0.707106781186548,0.));
#1371=DIRECTION('',(0.707106781186548,0.,-0.707106781186547));
#1372=DIRECTION('center_axis',(0.,0.,-1.));
#1373=DIRECTION('ref_axis',(0.707106781186547,-0.707106781186548,0.));
#1374=DIRECTION('center_axis',(0.,0.,-1.));
#1375=DIRECTION('ref_axis',(-0.707106781186547,-0.707106781186548,0.));
#1376=DIRECTION('',(0.707106781186548,0.,0.707106781186547));
#1377=DIRECTION('center_axis',(0.707106781186548,-2.85471351870468E-17,
-0.707106781186547));
#1378=DIRECTION('ref_axis',(0.707106781186547,0.,0.707106781186548));
#1379=DIRECTION('',(0.678598344545846,-0.281084637714824,0.678598344545847));
#1380=DIRECTION('center_axis',(-0.707106781186548,0.,-0.707106781186548));
#1381=DIRECTION('ref_axis',(0.707106781186548,0.,-0.707106781186548));
#1382=DIRECTION('',(0.,-1.,0.));
#1383=DIRECTION('center_axis',(0.,0.,1.));
#1384=DIRECTION('ref_axis',(0.707106781186547,-0.707106781186548,0.));
#1385=DIRECTION('',(0.,0.,-1.));
#1386=DIRECTION('center_axis',(-1.,0.,0.));
#1387=DIRECTION('ref_axis',(0.,0.,1.));
#1388=DIRECTION('',(0.,0.,-1.));
#1389=DIRECTION('center_axis',(0.5,-0.499999999999999,-0.707106781186549));
#1390=DIRECTION('ref_axis',(0.816496580927727,1.38777878078144E-16,0.577350269189625));
#1391=DIRECTION('',(0.707106781186547,0.707106781186548,0.));
#1392=DIRECTION('center_axis',(0.,0.707106781186547,0.707106781186548));
#1393=DIRECTION('ref_axis',(-1.,0.,0.));
#1394=DIRECTION('',(1.,0.,0.));
#1395=DIRECTION('center_axis',(0.707106781186548,-0.707106781186547,0.));
#1396=DIRECTION('ref_axis',(0.,0.,1.));
#1397=DIRECTION('center_axis',(0.,-0.707106781186555,0.70710678118654));
#1398=DIRECTION('ref_axis',(-1.,0.,0.));
#1399=DIRECTION('center_axis',(0.,-1.,0.));
#1400=DIRECTION('ref_axis',(0.,0.,-1.));
#1401=CARTESIAN_POINT('',(0.,0.,0.));
#1402=CARTESIAN_POINT('Origin',(0.,-20.2,0.));
#1403=CARTESIAN_POINT('',(10.3,-20.5000002980232,0.));
#1404=CARTESIAN_POINT('',(10.3,4.44089209850063E-15,0.));
#1405=CARTESIAN_POINT('',(10.3,-20.5500001490116,0.));
#1406=CARTESIAN_POINT('',(2.5,4.44089209850063E-15,0.));
#1407=CARTESIAN_POINT('',(5.05,4.44089209850063E-15,0.));
#1408=CARTESIAN_POINT('',(2.5,-0.399999999999996,0.));
#1409=CARTESIAN_POINT('',(2.5,-0.450000149011611,0.));
#1410=CARTESIAN_POINT('',(1.7,-1.2,0.));
#1411=CARTESIAN_POINT('Origin',(1.7,-0.399999999999996,0.));
#1412=CARTESIAN_POINT('',(1.,-1.2,0.));
#1413=CARTESIAN_POINT('',(1.11022302462516E-15,-1.2,0.));
#1414=CARTESIAN_POINT('',(0.200000000000003,-0.399999999999996,0.));
#1415=CARTESIAN_POINT('Origin',(1.,-0.399999999999996,0.));
#1416=CARTESIAN_POINT('',(0.200000000000002,0.517157287525385,0.));
#1417=CARTESIAN_POINT('',(0.200000000000002,-1.45000014901161,0.));
#1418=CARTESIAN_POINT('',(1.08284271247463,1.40000000000001,0.));
#1419=CARTESIAN_POINT('',(0.116421281731504,0.433578569256885,0.));
#1420=CARTESIAN_POINT('',(11.0171572875254,1.40000000000001,0.));
#1421=CARTESIAN_POINT('',(1.11022302462516E-15,1.40000000000001,0.));
#1422=CARTESIAN_POINT('',(11.9,0.51715728752538,0.));
#1423=CARTESIAN_POINT('',(8.9585787182685,3.45857856925688,0.));
#1424=CARTESIAN_POINT('',(11.9,-21.0171575855486,0.));
#1425=CARTESIAN_POINT('',(11.9,-31.25,0.));
#1426=CARTESIAN_POINT('',(11.0171572875254,-21.9000002980232,0.));
#1427=CARTESIAN_POINT('',(8.9585787182685,-23.9585788672801,0.));
#1428=CARTESIAN_POINT('',(1.08284271247463,-21.9000002980232,0.));
#1429=CARTESIAN_POINT('',(1.11022302462516E-15,-21.9000002980232,0.));
#1430=CARTESIAN_POINT('',(0.200000000000002,-21.0171575855486,0.));
#1431=CARTESIAN_POINT('',(0.116421281731504,-20.9335788672801,0.));
#1432=CARTESIAN_POINT('',(0.200000000000003,-20.1000002980232,0.));
#1433=CARTESIAN_POINT('',(0.200000000000002,-19.0500001490116,0.));
#1434=CARTESIAN_POINT('',(1.,-19.3000002980232,0.));
#1435=CARTESIAN_POINT('Origin',(1.,-20.1000002980232,0.));
#1436=CARTESIAN_POINT('',(1.7,-19.3000002980232,0.));
#1437=CARTESIAN_POINT('',(1.11022302462516E-15,-19.3000002980232,0.));
#1438=CARTESIAN_POINT('',(2.5,-20.1000002980232,0.));
#1439=CARTESIAN_POINT('Origin',(1.7,-20.1000002980232,0.));
#1440=CARTESIAN_POINT('',(2.5,-20.5000002980232,0.));
#1441=CARTESIAN_POINT('',(2.5,-20.0500001490116,0.));
#1442=CARTESIAN_POINT('',(5.05,-20.5000002980232,0.));
#1443=CARTESIAN_POINT('Origin',(10.1,-10.2500001490116,3.75));
#1444=CARTESIAN_POINT('',(10.1,-0.199999999999996,0.2));
#1445=CARTESIAN_POINT('',(10.1,-20.3000002980232,0.2));
#1446=CARTESIAN_POINT('',(10.1,-11.5750002235174,0.200000000000003));
#1447=CARTESIAN_POINT('',(10.1,-20.3000002980232,7.3));
#1448=CARTESIAN_POINT('',(10.1,-20.3000002980232,0.));
#1449=CARTESIAN_POINT('',(10.1,-0.199999999999996,7.3));
#1450=CARTESIAN_POINT('',(10.1,-8.9250000745058,7.3));
#1451=CARTESIAN_POINT('',(10.1,-0.199999999999996,0.));
#1452=CARTESIAN_POINT('Origin',(12.,-31.25,0.1));
#1453=CARTESIAN_POINT('',(12.1,0.600000000000005,0.2));
#1454=CARTESIAN_POINT('',(11.9,0.51715728752538,0.));
#1455=CARTESIAN_POINT('',(12.1,-21.1000002980232,0.2));
#1456=CARTESIAN_POINT('',(12.1,-31.25,0.2));
#1457=CARTESIAN_POINT('',(11.9,-21.0171575855486,0.));
#1458=CARTESIAN_POINT('Origin',(11.6,1.1,0.));
#1459=CARTESIAN_POINT('',(11.1,1.60000000000001,0.2));
#1460=CARTESIAN_POINT('',(9.10000007450582,3.59999992549419,0.2));
#1461=CARTESIAN_POINT('',(11.1,1.60000000000001,7.3));
#1462=CARTESIAN_POINT('',(11.1,1.60000000000001,0.));
#1463=CARTESIAN_POINT('',(12.1,0.600000000000005,7.3));
#1464=CARTESIAN_POINT('',(9.10000007450581,3.5999999254942,7.3));
#1465=CARTESIAN_POINT('',(12.1,0.600000000000005,0.));
#1466=CARTESIAN_POINT('Origin',(9.02928939638716,3.52928924737554,7.4));
#1467=CARTESIAN_POINT('',(11.0171572875254,1.40000000000001,7.5));
#1468=CARTESIAN_POINT('',(10.7350886948887,0.719026178137101,8.18097382186292));
#1469=CARTESIAN_POINT('',(11.9,0.517157287525385,7.5));
#1470=CARTESIAN_POINT('',(8.95857871826851,3.45857856925689,7.5));
#1471=CARTESIAN_POINT('',(12.5522218838042,0.787316437473611,6.84777811619579));
#1472=CARTESIAN_POINT('Origin',(9.02928939638716,3.52928924737554,0.1));
#1473=CARTESIAN_POINT('',(11.0171572875254,1.40000000000001,0.));
#1474=CARTESIAN_POINT('Origin',(12.,-31.25,7.4));
#1475=CARTESIAN_POINT('',(12.1,-21.1000002980232,7.3));
#1476=CARTESIAN_POINT('',(12.1,-31.25,7.3));
#1477=CARTESIAN_POINT('',(11.9,-21.0171575855486,7.5));
#1478=CARTESIAN_POINT('',(11.9,-31.25,7.5));
#1479=CARTESIAN_POINT('',(12.5522218838042,-21.2873167354968,6.84777811619579));
#1480=CARTESIAN_POINT('Origin',(12.1,-42.3,0.));
#1481=CARTESIAN_POINT('',(12.1,-21.1000002980232,0.));
#1482=CARTESIAN_POINT('Origin',(11.6,-21.6000002980232,0.));
#1483=CARTESIAN_POINT('',(11.1,-22.1000002980232,0.2));
#1484=CARTESIAN_POINT('',(9.10000007450582,-24.1000002235174,0.2));
#1485=CARTESIAN_POINT('',(11.1,-22.1000002980232,7.3));
#1486=CARTESIAN_POINT('',(9.10000007450581,-24.1000002235174,7.3));
#1487=CARTESIAN_POINT('',(11.1,-22.1000002980232,0.));
#1488=CARTESIAN_POINT('Origin',(9.02928939638716,-24.0292895453988,7.4));
#1489=CARTESIAN_POINT('',(11.0171572875254,-21.9000002980232,7.5));
#1490=CARTESIAN_POINT('',(10.7350886948887,-21.2190264761603,8.18097382186292));
#1491=CARTESIAN_POINT('',(8.95857871826851,-23.9585788672801,7.5));
#1492=CARTESIAN_POINT('Origin',(10.2,0.0499998509883848,7.4));
#1493=CARTESIAN_POINT('',(10.3,4.44089209850063E-15,7.5));
#1494=CARTESIAN_POINT('',(10.3,-20.5000002980232,7.5));
#1495=CARTESIAN_POINT('',(10.3,-13.9,7.5));
#1496=CARTESIAN_POINT('',(10.3,4.44089209850063E-15,7.5));
#1497=CARTESIAN_POINT('',(10.3,-20.5000002980232,7.5));
#1498=CARTESIAN_POINT('Origin',(9.02928939638716,-24.0292895453988,0.1));
#1499=CARTESIAN_POINT('',(11.0171572875254,-21.9000002980232,0.));
#1500=CARTESIAN_POINT('Origin',(10.2,0.0499998509883848,0.1));
#1501=CARTESIAN_POINT('',(10.3,4.44089209850063E-15,0.));
#1502=CARTESIAN_POINT('',(10.3,-20.5000002980232,0.));
#1503=CARTESIAN_POINT('Origin',(1.11022302462516E-15,-22.0000002980232,
7.4));
#1504=CARTESIAN_POINT('',(1.08284271247463,-21.9000002980232,7.5));
#1505=CARTESIAN_POINT('',(1.11022302462516E-15,-21.9000002980232,7.5));
#1506=CARTESIAN_POINT('',(1.,-22.1000002980232,7.3));
#1507=CARTESIAN_POINT('',(1.05590861693796,-21.9650249567581,7.43497534126511));
#1508=CARTESIAN_POINT('',(1.11022302462516E-15,-22.1000002980232,7.3));
#1509=CARTESIAN_POINT('Origin',(5.05,-20.4000002980232,7.4));
#1510=CARTESIAN_POINT('',(2.7,-20.3000002980232,7.3));
#1511=CARTESIAN_POINT('',(5.05,-20.3000002980232,7.3));
#1512=CARTESIAN_POINT('',(2.5,-20.5000002980232,7.5));
#1513=CARTESIAN_POINT('',(3.06666669150194,-19.9333336065213,6.93333330849806));
#1514=CARTESIAN_POINT('',(5.05,-20.5000002980232,7.5));
#1515=CARTESIAN_POINT('Origin',(1.11022302462516E-15,-19.2000002980232,
0.1));
#1516=CARTESIAN_POINT('',(1.,-19.1000002980232,0.2));
#1517=CARTESIAN_POINT('',(1.,-19.3000002980232,0.));
#1518=CARTESIAN_POINT('',(1.7,-19.1000002980232,0.2));
#1519=CARTESIAN_POINT('',(1.11022302462516E-15,-19.1000002980232,0.2));
#1520=CARTESIAN_POINT('',(1.7,-19.1000002980232,0.2));
#1521=CARTESIAN_POINT('Origin',(1.,-20.1000002980232,0.1));
#1522=CARTESIAN_POINT('',(1.94289029309402E-15,-20.1000002980232,0.2));
#1523=CARTESIAN_POINT('',(0.200000000000003,-20.1000002980232,0.));
#1524=CARTESIAN_POINT('Origin',(1.,-20.1000002980232,0.2));
#1525=CARTESIAN_POINT('Origin',(1.7,-20.1000002980232,0.1));
#1526=CARTESIAN_POINT('',(2.7,-20.1000002980232,0.2));
#1527=CARTESIAN_POINT('Origin',(1.7,-20.1000002980232,0.2));
#1528=CARTESIAN_POINT('',(2.7,-20.1000002980232,0.2));
#1529=CARTESIAN_POINT('Origin',(2.6,-20.0500001490116,0.1));
#1530=CARTESIAN_POINT('',(2.7,-20.3000002980232,0.2));
#1531=CARTESIAN_POINT('',(3.06666669150194,-19.9333336065213,0.566666691501936));
#1532=CARTESIAN_POINT('',(2.7,-20.0500001490116,0.2));
#1533=CARTESIAN_POINT('Origin',(0.100000000000002,-19.0500001490116,0.1));
#1534=CARTESIAN_POINT('',(1.94289029309402E-15,-21.1000002980232,0.2));
#1535=CARTESIAN_POINT('',(0.284239404090467,-20.9822644818881,-0.0842394040904648));
#1536=CARTESIAN_POINT('',(1.76941794549634E-15,-19.0500001490116,0.2));
#1537=CARTESIAN_POINT('Origin',(2.22044604925031E-15,-19.1000002980232,
7.5));
#1538=CARTESIAN_POINT('',(1.,-19.1000002980232,7.3));
#1539=CARTESIAN_POINT('',(1.,-19.1000002980232,3.75));
#1540=CARTESIAN_POINT('',(1.7,-19.1000002980232,7.3));
#1541=CARTESIAN_POINT('',(1.11022302462516E-15,-19.1000002980232,7.3));
#1542=CARTESIAN_POINT('',(1.7,-19.1000002980232,3.75));
#1543=CARTESIAN_POINT('Origin',(1.,-20.1000002980232,3.75));
#1544=CARTESIAN_POINT('',(1.94289029309402E-15,-20.1000002980232,7.3));
#1545=CARTESIAN_POINT('',(1.94289029309402E-15,-20.1000002980232,3.75));
#1546=CARTESIAN_POINT('Origin',(1.,-20.1000002980232,7.3));
#1547=CARTESIAN_POINT('Origin',(1.74002225679654E-15,-18.1000002980232,
0.));
#1548=CARTESIAN_POINT('',(1.94289029309402E-15,-21.1000002980232,7.3));
#1549=CARTESIAN_POINT('',(1.94289029309402E-15,-21.1000002980232,0.));
#1550=CARTESIAN_POINT('',(1.76941794549634E-15,-19.0500001490116,7.3));
#1551=CARTESIAN_POINT('Origin',(0.0457106036128491,-21.0042895453988,0.1));
#1552=CARTESIAN_POINT('',(1.,-22.1000002980232,0.2));
#1553=CARTESIAN_POINT('',(1.05590861693796,-21.9650249567581,0.0650246587348848));
#1554=CARTESIAN_POINT('',(-0.025000074505806,-21.0750002235174,0.2));
#1555=CARTESIAN_POINT('Origin',(1.11022302462516E-15,-19.2000002980232,
7.4));
#1556=CARTESIAN_POINT('',(1.7,-19.3000002980232,7.5));
#1557=CARTESIAN_POINT('',(1.7,-19.3000002980232,7.5));
#1558=CARTESIAN_POINT('',(1.,-19.3000002980232,7.5));
#1559=CARTESIAN_POINT('',(1.,-19.1000002980232,7.3));
#1560=CARTESIAN_POINT('',(1.11022302462516E-15,-19.3000002980232,7.5));
#1561=CARTESIAN_POINT('Origin',(1.7,-20.1000002980232,7.4));
#1562=CARTESIAN_POINT('',(2.5,-20.1000002980232,7.5));
#1563=CARTESIAN_POINT('',(2.7,-20.1000002980232,7.3));
#1564=CARTESIAN_POINT('',(2.5,-20.1000002980232,7.5));
#1565=CARTESIAN_POINT('Origin',(1.7,-20.1000002980232,7.3));
#1566=CARTESIAN_POINT('Origin',(1.7,-20.1000002980232,7.5));
#1567=CARTESIAN_POINT('Origin',(1.,-20.1000002980232,7.4));
#1568=CARTESIAN_POINT('',(0.200000000000002,-20.1000002980232,7.5));
#1569=CARTESIAN_POINT('',(1.94289029309402E-15,-20.1000002980232,7.3));
#1570=CARTESIAN_POINT('Origin',(1.,-20.1000002980232,7.5));
#1571=CARTESIAN_POINT('Origin',(0.100000000000002,-19.0500001490116,7.4));
#1572=CARTESIAN_POINT('',(0.200000000000002,-21.0171575855486,7.5));
#1573=CARTESIAN_POINT('',(0.284239404090467,-20.9822644818881,7.58423940409047));
#1574=CARTESIAN_POINT('',(0.200000000000002,-19.0500001490116,7.5));
#1575=CARTESIAN_POINT('Origin',(2.6,-20.0500001490116,7.4));
#1576=CARTESIAN_POINT('',(2.7,-20.0500001490116,7.3));
#1577=CARTESIAN_POINT('',(2.5,-20.0500001490116,7.5));
#1578=CARTESIAN_POINT('Origin',(1.7,-20.1000002980232,3.75));
#1579=CARTESIAN_POINT('',(2.7,-20.1000002980232,3.75));
#1580=CARTESIAN_POINT('Origin',(2.7,-20.1000002980232,0.));
#1581=CARTESIAN_POINT('',(2.7,-20.3000002980232,0.));
#1582=CARTESIAN_POINT('Origin',(0.0457106036128492,-21.0042895453988,7.4));
#1583=CARTESIAN_POINT('',(-0.0250000745058059,-21.0750002235174,7.3));
#1584=CARTESIAN_POINT('',(0.116421281731504,-20.9335788672801,7.5));
#1585=CARTESIAN_POINT('Origin',(5.05,-20.4000002980232,0.1));
#1586=CARTESIAN_POINT('',(5.05,-20.3000002980232,0.2));
#1587=CARTESIAN_POINT('Origin',(0.500000000000001,-21.6000002980232,0.));
#1588=CARTESIAN_POINT('',(1.,-22.1000002980232,0.));
#1589=CARTESIAN_POINT('Origin',(1.11022302462516E-15,-22.0000002980232,
0.1));
#1590=CARTESIAN_POINT('',(1.11022302462516E-15,-22.1000002980232,0.2));
#1591=CARTESIAN_POINT('Origin',(2.22044604925031E-15,-22.1000002980232,
0.));
#1592=CARTESIAN_POINT('Origin',(10.1,-20.3000002980232,0.));
#1593=CARTESIAN_POINT('Origin',(5.05,-0.0999999999999934,7.4));
#1594=CARTESIAN_POINT('',(2.5,4.44089209850063E-15,7.5));
#1595=CARTESIAN_POINT('',(5.05,4.44089209850063E-15,7.5));
#1596=CARTESIAN_POINT('',(2.7,-0.199999999999996,7.3));
#1597=CARTESIAN_POINT('',(3.06666669150194,-0.566666691501929,6.93333330849806));
#1598=CARTESIAN_POINT('',(5.05,-0.199999999999996,7.3));
#1599=CARTESIAN_POINT('Origin',(0.,-20.2,7.5));
#1600=CARTESIAN_POINT('',(1.08284271247463,1.40000000000001,7.5));
#1601=CARTESIAN_POINT('',(1.11022302462516E-15,1.40000000000001,7.5));
#1602=CARTESIAN_POINT('',(0.200000000000002,0.51715728752538,7.5));
#1603=CARTESIAN_POINT('',(0.116421281731504,0.433578569256885,7.5));
#1604=CARTESIAN_POINT('',(0.200000000000002,-0.399999999999996,7.5));
#1605=CARTESIAN_POINT('',(0.200000000000002,-1.45000014901161,7.5));
#1606=CARTESIAN_POINT('',(1.,-1.2,7.5));
#1607=CARTESIAN_POINT('Origin',(1.,-0.399999999999996,7.5));
#1608=CARTESIAN_POINT('',(1.7,-1.2,7.5));
#1609=CARTESIAN_POINT('',(1.11022302462516E-15,-1.2,7.5));
#1610=CARTESIAN_POINT('',(2.5,-0.399999999999996,7.5));
#1611=CARTESIAN_POINT('Origin',(1.7,-0.399999999999996,7.5));
#1612=CARTESIAN_POINT('',(2.5,-0.450000149011611,7.5));
#1613=CARTESIAN_POINT('Origin',(1.11022302462516E-15,1.50000000000001,7.4));
#1614=CARTESIAN_POINT('',(1.,1.60000000000001,7.3));
#1615=CARTESIAN_POINT('',(1.11022302462516E-15,1.60000000000001,7.3));
#1616=CARTESIAN_POINT('',(1.05590861693796,1.46502465873489,7.43497534126511));
#1617=CARTESIAN_POINT('Origin',(2.22044604925031E-15,1.60000000000001,0.));
#1618=CARTESIAN_POINT('',(1.,1.60000000000001,0.2));
#1619=CARTESIAN_POINT('',(1.11022302462516E-15,1.60000000000001,0.2));
#1620=CARTESIAN_POINT('',(1.,1.60000000000001,0.));
#1621=CARTESIAN_POINT('Origin',(1.11022302462516E-15,-1.3,0.1));
#1622=CARTESIAN_POINT('',(1.,-1.4,0.2));
#1623=CARTESIAN_POINT('',(1.,-1.2,0.));
#1624=CARTESIAN_POINT('',(1.7,-1.4,0.2));
#1625=CARTESIAN_POINT('',(1.7,-1.4,0.2));
#1626=CARTESIAN_POINT('',(1.11022302462516E-15,-1.4,0.2));
#1627=CARTESIAN_POINT('Origin',(1.,-0.399999999999996,0.1));
#1628=CARTESIAN_POINT('',(1.94289029309402E-15,-0.399999999999996,0.2));
#1629=CARTESIAN_POINT('',(0.200000000000003,-0.399999999999996,0.));
#1630=CARTESIAN_POINT('Origin',(1.,-0.399999999999996,0.2));
#1631=CARTESIAN_POINT('Origin',(1.7,-0.399999999999996,0.1));
#1632=CARTESIAN_POINT('',(2.7,-0.399999999999996,0.2));
#1633=CARTESIAN_POINT('',(2.7,-0.399999999999996,0.2));
#1634=CARTESIAN_POINT('Origin',(1.7,-0.399999999999996,0.2));
#1635=CARTESIAN_POINT('Origin',(2.6,-0.450000149011611,0.1));
#1636=CARTESIAN_POINT('',(2.7,-0.199999999999996,0.2));
#1637=CARTESIAN_POINT('',(3.06666669150194,-0.566666691501929,0.566666691501936));
#1638=CARTESIAN_POINT('',(2.7,-0.450000149011611,0.2));
#1639=CARTESIAN_POINT('Origin',(0.100000000000002,-1.45000014901161,0.1));
#1640=CARTESIAN_POINT('',(1.94289029309402E-15,0.600000000000005,0.2));
#1641=CARTESIAN_POINT('',(0.284239404090467,0.482264183864882,-0.0842394040904648));
#1642=CARTESIAN_POINT('',(1.76941794549634E-15,-1.45000014901161,0.2));
#1643=CARTESIAN_POINT('Origin',(2.22044604925031E-15,-1.4,7.5));
#1644=CARTESIAN_POINT('',(1.7,-1.4,7.3));
#1645=CARTESIAN_POINT('',(1.7,-1.4,3.75));
#1646=CARTESIAN_POINT('',(1.,-1.4,7.3));
#1647=CARTESIAN_POINT('',(1.11022302462516E-15,-1.4,7.3));
#1648=CARTESIAN_POINT('',(1.,-1.4,3.75));
#1649=CARTESIAN_POINT('Origin',(1.,-0.399999999999996,3.75));
#1650=CARTESIAN_POINT('',(1.94289029309402E-15,-0.399999999999996,7.3));
#1651=CARTESIAN_POINT('Origin',(1.,-0.399999999999996,7.3));
#1652=CARTESIAN_POINT('',(1.94289029309402E-15,-0.399999999999996,3.75));
#1653=CARTESIAN_POINT('Origin',(1.74002225679654E-15,-2.39999999999999,
0.));
#1654=CARTESIAN_POINT('',(1.94289029309402E-15,0.600000000000005,7.3));
#1655=CARTESIAN_POINT('',(1.76941794549634E-15,-1.45000014901161,7.3));
#1656=CARTESIAN_POINT('',(1.94289029309402E-15,0.600000000000005,0.));
#1657=CARTESIAN_POINT('Origin',(0.0457106036128491,0.504289247375538,0.1));
#1658=CARTESIAN_POINT('',(-0.025000074505806,0.574999925494195,0.2));
#1659=CARTESIAN_POINT('',(1.05590861693796,1.46502465873489,0.0650246587348848));
#1660=CARTESIAN_POINT('Origin',(1.11022302462516E-15,-1.3,7.4));
#1661=CARTESIAN_POINT('',(1.7,-1.2,7.5));
#1662=CARTESIAN_POINT('',(1.,-1.4,7.3));
#1663=CARTESIAN_POINT('Origin',(1.7,-0.399999999999996,7.4));
#1664=CARTESIAN_POINT('',(2.7,-0.399999999999996,7.3));
#1665=CARTESIAN_POINT('',(2.5,-0.399999999999996,7.5));
#1666=CARTESIAN_POINT('Origin',(1.7,-0.399999999999996,7.3));
#1667=CARTESIAN_POINT('Origin',(1.,-0.399999999999996,7.4));
#1668=CARTESIAN_POINT('',(1.94289029309402E-15,-0.399999999999996,7.3));
#1669=CARTESIAN_POINT('Origin',(0.100000000000002,-1.45000014901161,7.4));
#1670=CARTESIAN_POINT('',(0.284239404090467,0.482264183864882,7.58423940409047));
#1671=CARTESIAN_POINT('Origin',(2.6,-0.450000149011611,7.4));
#1672=CARTESIAN_POINT('',(2.7,-0.450000149011611,7.3));
#1673=CARTESIAN_POINT('Origin',(1.7,-0.399999999999996,3.75));
#1674=CARTESIAN_POINT('',(2.7,-0.399999999999996,3.75));
#1675=CARTESIAN_POINT('Origin',(2.7,-0.399999999999996,0.));
#1676=CARTESIAN_POINT('',(2.7,-0.199999999999996,0.));
#1677=CARTESIAN_POINT('Origin',(0.0457106036128492,0.504289247375538,7.4));
#1678=CARTESIAN_POINT('',(-0.0250000745058059,0.574999925494195,7.3));
#1679=CARTESIAN_POINT('Origin',(5.05,-0.0999999999999934,0.1));
#1680=CARTESIAN_POINT('',(5.05,-0.199999999999996,0.2));
#1681=CARTESIAN_POINT('Origin',(0.500000000000001,1.1,0.));
#1682=CARTESIAN_POINT('Origin',(1.11022302462516E-15,1.50000000000001,0.1));
#1683=CARTESIAN_POINT('Origin',(10.1,-0.199999999999996,0.));
#1684=UNCERTAINTY_MEASURE_WITH_UNIT(LENGTH_MEASURE(0.01),#1688,
'DISTANCE_ACCURACY_VALUE',
'Maximum model space distance between geometric entities at asserted c
onnectivities');
#1685=UNCERTAINTY_MEASURE_WITH_UNIT(LENGTH_MEASURE(0.01),#1688,
'DISTANCE_ACCURACY_VALUE',
'Maximum model space distance between geometric entities at asserted c
onnectivities');
#1686=(
GEOMETRIC_REPRESENTATION_CONTEXT(3)
GLOBAL_UNCERTAINTY_ASSIGNED_CONTEXT((#1684))
GLOBAL_UNIT_ASSIGNED_CONTEXT((#1688,#1690,#1691))
REPRESENTATION_CONTEXT('','3D')
);
#1687=(
GEOMETRIC_REPRESENTATION_CONTEXT(3)
GLOBAL_UNCERTAINTY_ASSIGNED_CONTEXT((#1685))
GLOBAL_UNIT_ASSIGNED_CONTEXT((#1688,#1690,#1691))
REPRESENTATION_CONTEXT('','3D')
);
#1688=(
LENGTH_UNIT()
NAMED_UNIT(*)
SI_UNIT(.MILLI.,.METRE.)
);
#1689=(
LENGTH_UNIT()
NAMED_UNIT(*)
SI_UNIT($,.METRE.)
);
#1690=(
NAMED_UNIT(*)
PLANE_ANGLE_UNIT()
SI_UNIT($,.RADIAN.)
);
#1691=(
NAMED_UNIT(*)
SI_UNIT($,.STERADIAN.)
SOLID_ANGLE_UNIT()
);
#1692=SHAPE_DEFINITION_REPRESENTATION(#1693,#1694);
#1693=PRODUCT_DEFINITION_SHAPE('',$,#1696);
#1694=SHAPE_REPRESENTATION('',(#1040),#1686);
#1695=PRODUCT_DEFINITION_CONTEXT('part definition',#1700,'design');
#1696=PRODUCT_DEFINITION('3D-A5 - 2020 USB Cable Clip','3D-A5 v1',#1697,
#1695);
#1697=PRODUCT_DEFINITION_FORMATION('',$,#1702);
#1698=PRODUCT_RELATED_PRODUCT_CATEGORY('3D-A5 v1','3D-A5 v1',(#1702));
#1699=APPLICATION_PROTOCOL_DEFINITION('international standard',
'automotive_design',2009,#1700);
#1700=APPLICATION_CONTEXT(
'Core Data for Automotive Mechanical Design Process');
#1701=PRODUCT_CONTEXT('part definition',#1700,'mechanical');
#1702=PRODUCT('3D-A5 - 2020 USB Cable Clip','3D-A5 v1',$,(#1701));
#1703=PRESENTATION_STYLE_ASSIGNMENT((#1705));
#1704=PRESENTATION_STYLE_ASSIGNMENT((#1706));
#1705=SURFACE_STYLE_USAGE(.BOTH.,#1707);
#1706=SURFACE_STYLE_USAGE(.BOTH.,#1708);
#1707=SURFACE_SIDE_STYLE('',(#1709));
#1708=SURFACE_SIDE_STYLE('',(#1710));
#1709=SURFACE_STYLE_FILL_AREA(#1711);
#1710=SURFACE_STYLE_FILL_AREA(#1712);
#1711=FILL_AREA_STYLE('Satin',(#1713));
#1712=FILL_AREA_STYLE('Opaque(25,25,25)',(#1714));
#1713=FILL_AREA_STYLE_COLOUR('Satin',#1715);
#1714=FILL_AREA_STYLE_COLOUR('Opaque(25,25,25)',#1716);
#1715=COLOUR_RGB('Satin',0.,0.,0.);
#1716=COLOUR_RGB('Opaque(25,25,25)',0.0980392156862745,0.0980392156862745,
0.0980392156862745);
ENDSEC;
END-ISO-10303-21;
