ISO-10303-21;
HEADER;
/* Generated by software containing ST-Developer
 * from STEP Tools, Inc. (www.steptools.com) 
 */

FILE_DESCRIPTION(
/* description */ (''),
/* implementation_level */ '2;1');

FILE_NAME(
/* name */ '3D-A6 - 2040 USB Cable Clip.step',
/* time_stamp */ '2025-04-10T14:25:47-05:00',
/* author */ (''),
/* organization */ (''),
/* preprocessor_version */ 'ST-DEVELOPER v20.1',
/* originating_system */ 'Autodesk Translation Framework v14.4.0.0',
/* authorisation */ '');

FILE_SCHEMA (('AUTOMOTIVE_DESIGN { 1 0 10303 214 3 1 1 }'));
ENDSEC;

DATA;
#10=MECHANICAL_DESIGN_GEOMETRIC_PRESENTATION_REPRESENTATION('',(#13),#1687);
#11=SHAPE_REPRESENTATION_RELATIONSHIP('SRR','None',#1694,#12);
#12=ADVANCED_BREP_SHAPE_REPRESENTATION('',(#14),#1686);
#13=STYLED_ITEM('',(#1704),#14);
#14=MANIFOLD_SOLID_BREP('Body1',#1027);
#15=CYLINDRICAL_SURFACE('',#1059,1.);
#16=CYLINDRICAL_SURFACE('',#1069,1.);
#17=CYLINDRICAL_SURFACE('',#1082,1.);
#18=CYLINDRICAL_SURFACE('',#1092,1.);
#19=CONICAL_SURFACE('',#1052,0.9,0.785398163397449);
#20=CONICAL_SURFACE('',#1054,0.9,0.785398163397449);
#21=CONICAL_SURFACE('',#1064,0.9,0.785398163397449);
#22=CONICAL_SURFACE('',#1066,0.9,0.785398163397449);
#23=CONICAL_SURFACE('',#1075,0.9,0.785398163397449);
#24=CONICAL_SURFACE('',#1077,0.9,0.785398163397449);
#25=CONICAL_SURFACE('',#1087,0.9,0.785398163397449);
#26=CONICAL_SURFACE('',#1089,0.9,0.785398163397449);
#27=FACE_OUTER_BOUND('',#89,.T.);
#28=FACE_OUTER_BOUND('',#90,.T.);
#29=FACE_OUTER_BOUND('',#91,.T.);
#30=FACE_OUTER_BOUND('',#92,.T.);
#31=FACE_OUTER_BOUND('',#93,.T.);
#32=FACE_OUTER_BOUND('',#94,.T.);
#33=FACE_OUTER_BOUND('',#95,.T.);
#34=FACE_OUTER_BOUND('',#96,.T.);
#35=FACE_OUTER_BOUND('',#97,.T.);
#36=FACE_OUTER_BOUND('',#98,.T.);
#37=FACE_OUTER_BOUND('',#99,.T.);
#38=FACE_OUTER_BOUND('',#100,.T.);
#39=FACE_OUTER_BOUND('',#101,.T.);
#40=FACE_OUTER_BOUND('',#102,.T.);
#41=FACE_OUTER_BOUND('',#103,.T.);
#42=FACE_OUTER_BOUND('',#104,.T.);
#43=FACE_OUTER_BOUND('',#105,.T.);
#44=FACE_OUTER_BOUND('',#106,.T.);
#45=FACE_OUTER_BOUND('',#107,.T.);
#46=FACE_OUTER_BOUND('',#108,.T.);
#47=FACE_OUTER_BOUND('',#109,.T.);
#48=FACE_OUTER_BOUND('',#110,.T.);
#49=FACE_OUTER_BOUND('',#111,.T.);
#50=FACE_OUTER_BOUND('',#112,.T.);
#51=FACE_OUTER_BOUND('',#113,.T.);
#52=FACE_OUTER_BOUND('',#114,.T.);
#53=FACE_OUTER_BOUND('',#115,.T.);
#54=FACE_OUTER_BOUND('',#116,.T.);
#55=FACE_OUTER_BOUND('',#117,.T.);
#56=FACE_OUTER_BOUND('',#118,.T.);
#57=FACE_OUTER_BOUND('',#119,.T.);
#58=FACE_OUTER_BOUND('',#120,.T.);
#59=FACE_OUTER_BOUND('',#121,.T.);
#60=FACE_OUTER_BOUND('',#122,.T.);
#61=FACE_OUTER_BOUND('',#123,.T.);
#62=FACE_OUTER_BOUND('',#124,.T.);
#63=FACE_OUTER_BOUND('',#125,.T.);
#64=FACE_OUTER_BOUND('',#126,.T.);
#65=FACE_OUTER_BOUND('',#127,.T.);
#66=FACE_OUTER_BOUND('',#128,.T.);
#67=FACE_OUTER_BOUND('',#129,.T.);
#68=FACE_OUTER_BOUND('',#130,.T.);
#69=FACE_OUTER_BOUND('',#131,.T.);
#70=FACE_OUTER_BOUND('',#132,.T.);
#71=FACE_OUTER_BOUND('',#133,.T.);
#72=FACE_OUTER_BOUND('',#134,.T.);
#73=FACE_OUTER_BOUND('',#135,.T.);
#74=FACE_OUTER_BOUND('',#136,.T.);
#75=FACE_OUTER_BOUND('',#137,.T.);
#76=FACE_OUTER_BOUND('',#138,.T.);
#77=FACE_OUTER_BOUND('',#139,.T.);
#78=FACE_OUTER_BOUND('',#140,.T.);
#79=FACE_OUTER_BOUND('',#141,.T.);
#80=FACE_OUTER_BOUND('',#142,.T.);
#81=FACE_OUTER_BOUND('',#143,.T.);
#82=FACE_OUTER_BOUND('',#144,.T.);
#83=FACE_OUTER_BOUND('',#145,.T.);
#84=FACE_OUTER_BOUND('',#146,.T.);
#85=FACE_OUTER_BOUND('',#147,.T.);
#86=FACE_OUTER_BOUND('',#148,.T.);
#87=FACE_OUTER_BOUND('',#149,.T.);
#88=FACE_OUTER_BOUND('',#150,.T.);
#89=EDGE_LOOP('',(#635,#636,#637,#638,#639,#640,#641,#642,#643,#644,#645,
#646,#647,#648,#649,#650,#651,#652,#653,#654));
#90=EDGE_LOOP('',(#655,#656,#657,#658,#659,#660,#661,#662,#663,#664,#665,
#666,#667,#668,#669,#670,#671,#672,#673,#674));
#91=EDGE_LOOP('',(#675,#676,#677,#678));
#92=EDGE_LOOP('',(#679,#680,#681,#682));
#93=EDGE_LOOP('',(#683,#684,#685,#686));
#94=EDGE_LOOP('',(#687,#688,#689,#690));
#95=EDGE_LOOP('',(#691,#692,#693,#694));
#96=EDGE_LOOP('',(#695,#696,#697,#698));
#97=EDGE_LOOP('',(#699,#700,#701,#702));
#98=EDGE_LOOP('',(#703,#704,#705,#706));
#99=EDGE_LOOP('',(#707,#708,#709,#710));
#100=EDGE_LOOP('',(#711,#712,#713,#714));
#101=EDGE_LOOP('',(#715,#716,#717,#718));
#102=EDGE_LOOP('',(#719,#720,#721,#722));
#103=EDGE_LOOP('',(#723,#724,#725,#726));
#104=EDGE_LOOP('',(#727,#728,#729,#730));
#105=EDGE_LOOP('',(#731,#732,#733,#734));
#106=EDGE_LOOP('',(#735,#736,#737,#738));
#107=EDGE_LOOP('',(#739,#740,#741,#742));
#108=EDGE_LOOP('',(#743,#744,#745,#746));
#109=EDGE_LOOP('',(#747,#748,#749,#750));
#110=EDGE_LOOP('',(#751,#752,#753,#754));
#111=EDGE_LOOP('',(#755,#756,#757,#758));
#112=EDGE_LOOP('',(#759,#760,#761,#762));
#113=EDGE_LOOP('',(#763,#764,#765,#766));
#114=EDGE_LOOP('',(#767,#768,#769,#770));
#115=EDGE_LOOP('',(#771,#772,#773,#774));
#116=EDGE_LOOP('',(#775,#776,#777,#778));
#117=EDGE_LOOP('',(#779,#780,#781,#782));
#118=EDGE_LOOP('',(#783,#784,#785,#786));
#119=EDGE_LOOP('',(#787,#788,#789,#790));
#120=EDGE_LOOP('',(#791,#792,#793,#794));
#121=EDGE_LOOP('',(#795,#796,#797,#798));
#122=EDGE_LOOP('',(#799,#800,#801,#802));
#123=EDGE_LOOP('',(#803,#804,#805,#806));
#124=EDGE_LOOP('',(#807,#808,#809,#810));
#125=EDGE_LOOP('',(#811,#812,#813,#814));
#126=EDGE_LOOP('',(#815,#816,#817,#818));
#127=EDGE_LOOP('',(#819,#820,#821,#822));
#128=EDGE_LOOP('',(#823,#824,#825,#826));
#129=EDGE_LOOP('',(#827,#828,#829,#830));
#130=EDGE_LOOP('',(#831,#832,#833,#834));
#131=EDGE_LOOP('',(#835,#836,#837,#838));
#132=EDGE_LOOP('',(#839,#840,#841,#842));
#133=EDGE_LOOP('',(#843,#844,#845,#846));
#134=EDGE_LOOP('',(#847,#848,#849,#850));
#135=EDGE_LOOP('',(#851,#852,#853,#854));
#136=EDGE_LOOP('',(#855,#856,#857,#858));
#137=EDGE_LOOP('',(#859,#860,#861,#862));
#138=EDGE_LOOP('',(#863,#864,#865,#866));
#139=EDGE_LOOP('',(#867,#868,#869,#870));
#140=EDGE_LOOP('',(#871,#872,#873,#874));
#141=EDGE_LOOP('',(#875,#876,#877,#878));
#142=EDGE_LOOP('',(#879,#880,#881,#882));
#143=EDGE_LOOP('',(#883,#884,#885,#886));
#144=EDGE_LOOP('',(#887,#888,#889,#890));
#145=EDGE_LOOP('',(#891,#892,#893,#894));
#146=EDGE_LOOP('',(#895,#896,#897,#898));
#147=EDGE_LOOP('',(#899,#900,#901,#902));
#148=EDGE_LOOP('',(#903,#904,#905,#906));
#149=EDGE_LOOP('',(#907,#908,#909,#910));
#150=EDGE_LOOP('',(#911,#912,#913,#914));
#151=CIRCLE('',#1042,0.799999999999999);
#152=CIRCLE('',#1043,0.8);
#153=CIRCLE('',#1044,0.8);
#154=CIRCLE('',#1045,0.799999999999999);
#155=CIRCLE('',#1047,0.799999999999999);
#156=CIRCLE('',#1048,0.799999999999999);
#157=CIRCLE('',#1049,0.799999999999999);
#158=CIRCLE('',#1050,0.799999999999999);
#159=CIRCLE('',#1053,1.);
#160=CIRCLE('',#1055,1.);
#161=CIRCLE('',#1060,1.);
#162=CIRCLE('',#1065,1.);
#163=CIRCLE('',#1076,1.);
#164=CIRCLE('',#1078,1.);
#165=CIRCLE('',#1083,1.);
#166=CIRCLE('',#1088,1.);
#167=LINE('',#1405,#291);
#168=LINE('',#1407,#292);
#169=LINE('',#1409,#293);
#170=LINE('',#1413,#294);
#171=LINE('',#1417,#295);
#172=LINE('',#1419,#296);
#173=LINE('',#1421,#297);
#174=LINE('',#1423,#298);
#175=LINE('',#1425,#299);
#176=LINE('',#1427,#300);
#177=LINE('',#1429,#301);
#178=LINE('',#1431,#302);
#179=LINE('',#1433,#303);
#180=LINE('',#1437,#304);
#181=LINE('',#1441,#305);
#182=LINE('',#1442,#306);
#183=LINE('',#1446,#307);
#184=LINE('',#1448,#308);
#185=LINE('',#1450,#309);
#186=LINE('',#1454,#310);
#187=LINE('',#1458,#311);
#188=LINE('',#1460,#312);
#189=LINE('',#1462,#313);
#190=LINE('',#1464,#314);
#191=LINE('',#1466,#315);
#192=LINE('',#1468,#316);
#193=LINE('',#1470,#317);
#194=LINE('',#1472,#318);
#195=LINE('',#1474,#319);
#196=LINE('',#1478,#320);
#197=LINE('',#1482,#321);
#198=LINE('',#1483,#322);
#199=LINE('',#1486,#323);
#200=LINE('',#1488,#324);
#201=LINE('',#1489,#325);
#202=LINE('',#1492,#326);
#203=LINE('',#1496,#327);
#204=LINE('',#1500,#328);
#205=LINE('',#1501,#329);
#206=LINE('',#1504,#330);
#207=LINE('',#1505,#331);
#208=LINE('',#1508,#332);
#209=LINE('',#1510,#333);
#210=LINE('',#1511,#334);
#211=LINE('',#1515,#335);
#212=LINE('',#1518,#336);
#213=LINE('',#1519,#337);
#214=LINE('',#1522,#338);
#215=LINE('',#1523,#339);
#216=LINE('',#1525,#340);
#217=LINE('',#1526,#341);
#218=LINE('',#1529,#342);
#219=LINE('',#1532,#343);
#220=LINE('',#1534,#344);
#221=LINE('',#1537,#345);
#222=LINE('',#1538,#346);
#223=LINE('',#1540,#347);
#224=LINE('',#1542,#348);
#225=LINE('',#1545,#349);
#226=LINE('',#1546,#350);
#227=LINE('',#1548,#351);
#228=LINE('',#1551,#352);
#229=LINE('',#1553,#353);
#230=LINE('',#1554,#354);
#231=LINE('',#1557,#355);
#232=LINE('',#1559,#356);
#233=LINE('',#1560,#357);
#234=LINE('',#1563,#358);
#235=LINE('',#1568,#359);
#236=LINE('',#1571,#360);
#237=LINE('',#1572,#361);
#238=LINE('',#1575,#362);
#239=LINE('',#1576,#363);
#240=LINE('',#1579,#364);
#241=LINE('',#1581,#365);
#242=LINE('',#1582,#366);
#243=LINE('',#1585,#367);
#244=LINE('',#1589,#368);
#245=LINE('',#1590,#369);
#246=LINE('',#1593,#370);
#247=LINE('',#1594,#371);
#248=LINE('',#1596,#372);
#249=LINE('',#1597,#373);
#250=LINE('',#1600,#374);
#251=LINE('',#1603,#375);
#252=LINE('',#1605,#376);
#253=LINE('',#1608,#377);
#254=LINE('',#1609,#378);
#255=LINE('',#1611,#379);
#256=LINE('',#1613,#380);
#257=LINE('',#1616,#381);
#258=LINE('',#1617,#382);
#259=LINE('',#1619,#383);
#260=LINE('',#1622,#384);
#261=LINE('',#1624,#385);
#262=LINE('',#1625,#386);
#263=LINE('',#1629,#387);
#264=LINE('',#1630,#388);
#265=LINE('',#1631,#389);
#266=LINE('',#1635,#390);
#267=LINE('',#1636,#391);
#268=LINE('',#1637,#392);
#269=LINE('',#1640,#393);
#270=LINE('',#1642,#394);
#271=LINE('',#1643,#395);
#272=LINE('',#1645,#396);
#273=LINE('',#1646,#397);
#274=LINE('',#1648,#398);
#275=LINE('',#1650,#399);
#276=LINE('',#1651,#400);
#277=LINE('',#1652,#401);
#278=LINE('',#1655,#402);
#279=LINE('',#1657,#403);
#280=LINE('',#1659,#404);
#281=LINE('',#1662,#405);
#282=LINE('',#1664,#406);
#283=LINE('',#1665,#407);
#284=LINE('',#1667,#408);
#285=LINE('',#1669,#409);
#286=LINE('',#1672,#410);
#287=LINE('',#1674,#411);
#288=LINE('',#1675,#412);
#289=LINE('',#1676,#413);
#290=LINE('',#1681,#414);
#291=VECTOR('',#1123,10.);
#292=VECTOR('',#1124,10.);
#293=VECTOR('',#1125,10.);
#294=VECTOR('',#1128,10.);
#295=VECTOR('',#1131,10.);
#296=VECTOR('',#1132,10.);
#297=VECTOR('',#1133,10.);
#298=VECTOR('',#1134,10.);
#299=VECTOR('',#1135,10.);
#300=VECTOR('',#1136,10.);
#301=VECTOR('',#1137,10.);
#302=VECTOR('',#1138,10.);
#303=VECTOR('',#1139,10.);
#304=VECTOR('',#1142,10.);
#305=VECTOR('',#1145,10.);
#306=VECTOR('',#1146,10.);
#307=VECTOR('',#1149,10.);
#308=VECTOR('',#1150,10.);
#309=VECTOR('',#1151,10.);
#310=VECTOR('',#1154,10.);
#311=VECTOR('',#1157,10.);
#312=VECTOR('',#1158,10.);
#313=VECTOR('',#1159,10.);
#314=VECTOR('',#1160,10.);
#315=VECTOR('',#1161,10.);
#316=VECTOR('',#1162,10.);
#317=VECTOR('',#1163,10.);
#318=VECTOR('',#1164,10.);
#319=VECTOR('',#1165,10.);
#320=VECTOR('',#1168,10.);
#321=VECTOR('',#1171,10.);
#322=VECTOR('',#1172,10.);
#323=VECTOR('',#1175,10.);
#324=VECTOR('',#1176,10.);
#325=VECTOR('',#1177,10.);
#326=VECTOR('',#1180,10.);
#327=VECTOR('',#1185,9.99999999999999);
#328=VECTOR('',#1190,10.);
#329=VECTOR('',#1191,10.);
#330=VECTOR('',#1194,10.);
#331=VECTOR('',#1195,10.);
#332=VECTOR('',#1198,10.);
#333=VECTOR('',#1199,10.);
#334=VECTOR('',#1200,10.);
#335=VECTOR('',#1205,10.);
#336=VECTOR('',#1208,10.);
#337=VECTOR('',#1209,10.);
#338=VECTOR('',#1212,10.);
#339=VECTOR('',#1213,10.);
#340=VECTOR('',#1216,10.);
#341=VECTOR('',#1217,10.);
#342=VECTOR('',#1220,9.99999999999999);
#343=VECTOR('',#1225,10.);
#344=VECTOR('',#1228,10.);
#345=VECTOR('',#1231,10.);
#346=VECTOR('',#1232,10.);
#347=VECTOR('',#1235,10.);
#348=VECTOR('',#1238,10.);
#349=VECTOR('',#1241,10.);
#350=VECTOR('',#1242,10.);
#351=VECTOR('',#1245,10.);
#352=VECTOR('',#1248,10.);
#353=VECTOR('',#1249,10.);
#354=VECTOR('',#1250,10.);
#355=VECTOR('',#1253,10.);
#356=VECTOR('',#1254,10.);
#357=VECTOR('',#1255,10.);
#358=VECTOR('',#1258,10.);
#359=VECTOR('',#1265,9.99999999999999);
#360=VECTOR('',#1268,10.);
#361=VECTOR('',#1269,10.);
#362=VECTOR('',#1272,10.);
#363=VECTOR('',#1273,10.);
#364=VECTOR('',#1276,10.);
#365=VECTOR('',#1277,10.);
#366=VECTOR('',#1278,10.);
#367=VECTOR('',#1281,10.);
#368=VECTOR('',#1286,10.);
#369=VECTOR('',#1287,10.);
#370=VECTOR('',#1290,10.);
#371=VECTOR('',#1291,10.);
#372=VECTOR('',#1294,10.);
#373=VECTOR('',#1295,10.);
#374=VECTOR('',#1298,9.99999999999999);
#375=VECTOR('',#1303,10.);
#376=VECTOR('',#1306,10.);
#377=VECTOR('',#1309,10.);
#378=VECTOR('',#1310,10.);
#379=VECTOR('',#1313,10.);
#380=VECTOR('',#1316,10.);
#381=VECTOR('',#1319,10.);
#382=VECTOR('',#1320,10.);
#383=VECTOR('',#1323,10.);
#384=VECTOR('',#1326,10.);
#385=VECTOR('',#1327,10.);
#386=VECTOR('',#1328,10.);
#387=VECTOR('',#1331,10.);
#388=VECTOR('',#1332,10.);
#389=VECTOR('',#1333,10.);
#390=VECTOR('',#1336,10.);
#391=VECTOR('',#1337,10.);
#392=VECTOR('',#1338,10.);
#393=VECTOR('',#1341,10.);
#394=VECTOR('',#1342,10.);
#395=VECTOR('',#1343,10.);
#396=VECTOR('',#1346,10.);
#397=VECTOR('',#1347,10.);
#398=VECTOR('',#1350,10.);
#399=VECTOR('',#1353,10.);
#400=VECTOR('',#1354,10.);
#401=VECTOR('',#1355,10.);
#402=VECTOR('',#1360,10.);
#403=VECTOR('',#1363,10.);
#404=VECTOR('',#1366,10.);
#405=VECTOR('',#1369,10.);
#406=VECTOR('',#1370,10.);
#407=VECTOR('',#1371,10.);
#408=VECTOR('',#1374,10.);
#409=VECTOR('',#1377,10.);
#410=VECTOR('',#1382,10.);
#411=VECTOR('',#1385,10.);
#412=VECTOR('',#1386,10.);
#413=VECTOR('',#1387,10.);
#414=VECTOR('',#1396,10.);
#415=VERTEX_POINT('',#1403);
#416=VERTEX_POINT('',#1404);
#417=VERTEX_POINT('',#1406);
#418=VERTEX_POINT('',#1408);
#419=VERTEX_POINT('',#1410);
#420=VERTEX_POINT('',#1412);
#421=VERTEX_POINT('',#1414);
#422=VERTEX_POINT('',#1416);
#423=VERTEX_POINT('',#1418);
#424=VERTEX_POINT('',#1420);
#425=VERTEX_POINT('',#1422);
#426=VERTEX_POINT('',#1424);
#427=VERTEX_POINT('',#1426);
#428=VERTEX_POINT('',#1428);
#429=VERTEX_POINT('',#1430);
#430=VERTEX_POINT('',#1432);
#431=VERTEX_POINT('',#1434);
#432=VERTEX_POINT('',#1436);
#433=VERTEX_POINT('',#1438);
#434=VERTEX_POINT('',#1440);
#435=VERTEX_POINT('',#1444);
#436=VERTEX_POINT('',#1445);
#437=VERTEX_POINT('',#1447);
#438=VERTEX_POINT('',#1449);
#439=VERTEX_POINT('',#1451);
#440=VERTEX_POINT('',#1453);
#441=VERTEX_POINT('',#1455);
#442=VERTEX_POINT('',#1457);
#443=VERTEX_POINT('',#1459);
#444=VERTEX_POINT('',#1461);
#445=VERTEX_POINT('',#1463);
#446=VERTEX_POINT('',#1465);
#447=VERTEX_POINT('',#1467);
#448=VERTEX_POINT('',#1469);
#449=VERTEX_POINT('',#1471);
#450=VERTEX_POINT('',#1473);
#451=VERTEX_POINT('',#1475);
#452=VERTEX_POINT('',#1477);
#453=VERTEX_POINT('',#1479);
#454=VERTEX_POINT('',#1481);
#455=VERTEX_POINT('',#1485);
#456=VERTEX_POINT('',#1487);
#457=VERTEX_POINT('',#1491);
#458=VERTEX_POINT('',#1495);
#459=VERTEX_POINT('',#1499);
#460=VERTEX_POINT('',#1503);
#461=VERTEX_POINT('',#1507);
#462=VERTEX_POINT('',#1509);
#463=VERTEX_POINT('',#1513);
#464=VERTEX_POINT('',#1517);
#465=VERTEX_POINT('',#1521);
#466=VERTEX_POINT('',#1528);
#467=VERTEX_POINT('',#1536);
#468=VERTEX_POINT('',#1544);
#469=VERTEX_POINT('',#1550);
#470=VERTEX_POINT('',#1552);
#471=VERTEX_POINT('',#1556);
#472=VERTEX_POINT('',#1558);
#473=VERTEX_POINT('',#1562);
#474=VERTEX_POINT('',#1566);
#475=VERTEX_POINT('',#1570);
#476=VERTEX_POINT('',#1574);
#477=VERTEX_POINT('',#1578);
#478=VERTEX_POINT('',#1580);
#479=VERTEX_POINT('',#1584);
#480=VERTEX_POINT('',#1588);
#481=VERTEX_POINT('',#1592);
#482=VERTEX_POINT('',#1599);
#483=VERTEX_POINT('',#1607);
#484=VERTEX_POINT('',#1615);
#485=VERTEX_POINT('',#1621);
#486=VERTEX_POINT('',#1623);
#487=VERTEX_POINT('',#1627);
#488=VERTEX_POINT('',#1628);
#489=VERTEX_POINT('',#1633);
#490=VERTEX_POINT('',#1634);
#491=VERTEX_POINT('',#1639);
#492=VERTEX_POINT('',#1641);
#493=VERTEX_POINT('',#1661);
#494=VERTEX_POINT('',#1663);
#495=EDGE_CURVE('',#415,#416,#167,.T.);
#496=EDGE_CURVE('',#417,#416,#168,.T.);
#497=EDGE_CURVE('',#418,#417,#169,.T.);
#498=EDGE_CURVE('',#419,#418,#151,.T.);
#499=EDGE_CURVE('',#420,#419,#170,.T.);
#500=EDGE_CURVE('',#421,#420,#152,.T.);
#501=EDGE_CURVE('',#422,#421,#171,.T.);
#502=EDGE_CURVE('',#423,#422,#172,.T.);
#503=EDGE_CURVE('',#424,#423,#173,.T.);
#504=EDGE_CURVE('',#425,#424,#174,.T.);
#505=EDGE_CURVE('',#425,#426,#175,.T.);
#506=EDGE_CURVE('',#426,#427,#176,.T.);
#507=EDGE_CURVE('',#427,#428,#177,.T.);
#508=EDGE_CURVE('',#428,#429,#178,.T.);
#509=EDGE_CURVE('',#429,#430,#179,.T.);
#510=EDGE_CURVE('',#430,#431,#153,.T.);
#511=EDGE_CURVE('',#431,#432,#180,.T.);
#512=EDGE_CURVE('',#432,#433,#154,.T.);
#513=EDGE_CURVE('',#433,#434,#181,.T.);
#514=EDGE_CURVE('',#434,#415,#182,.T.);
#515=EDGE_CURVE('',#435,#436,#183,.T.);
#516=EDGE_CURVE('',#435,#437,#184,.T.);
#517=EDGE_CURVE('',#437,#438,#185,.T.);
#518=EDGE_CURVE('',#438,#439,#155,.T.);
#519=EDGE_CURVE('',#439,#440,#186,.T.);
#520=EDGE_CURVE('',#440,#441,#156,.T.);
#521=EDGE_CURVE('',#441,#442,#187,.T.);
#522=EDGE_CURVE('',#442,#443,#188,.T.);
#523=EDGE_CURVE('',#443,#444,#189,.T.);
#524=EDGE_CURVE('',#444,#445,#190,.T.);
#525=EDGE_CURVE('',#445,#446,#191,.T.);
#526=EDGE_CURVE('',#447,#446,#192,.T.);
#527=EDGE_CURVE('',#448,#447,#193,.T.);
#528=EDGE_CURVE('',#449,#448,#194,.T.);
#529=EDGE_CURVE('',#450,#449,#195,.T.);
#530=EDGE_CURVE('',#451,#450,#157,.T.);
#531=EDGE_CURVE('',#452,#451,#196,.T.);
#532=EDGE_CURVE('',#453,#452,#158,.T.);
#533=EDGE_CURVE('',#454,#453,#197,.T.);
#534=EDGE_CURVE('',#436,#454,#198,.T.);
#535=EDGE_CURVE('',#440,#455,#199,.T.);
#536=EDGE_CURVE('',#456,#439,#200,.T.);
#537=EDGE_CURVE('',#455,#456,#201,.T.);
#538=EDGE_CURVE('',#441,#457,#202,.T.);
#539=EDGE_CURVE('',#457,#455,#159,.T.);
#540=EDGE_CURVE('',#458,#438,#203,.T.);
#541=EDGE_CURVE('',#456,#458,#160,.T.);
#542=EDGE_CURVE('',#459,#437,#204,.F.);
#543=EDGE_CURVE('',#458,#459,#205,.T.);
#544=EDGE_CURVE('',#442,#460,#206,.T.);
#545=EDGE_CURVE('',#460,#457,#207,.T.);
#546=EDGE_CURVE('',#456,#461,#208,.T.);
#547=EDGE_CURVE('',#461,#462,#209,.T.);
#548=EDGE_CURVE('',#462,#455,#210,.T.);
#549=EDGE_CURVE('',#462,#463,#161,.T.);
#550=EDGE_CURVE('',#457,#463,#211,.T.);
#551=EDGE_CURVE('',#463,#464,#212,.T.);
#552=EDGE_CURVE('',#464,#460,#213,.T.);
#553=EDGE_CURVE('',#465,#460,#214,.T.);
#554=EDGE_CURVE('',#443,#465,#215,.T.);
#555=EDGE_CURVE('',#432,#461,#216,.T.);
#556=EDGE_CURVE('',#462,#431,#217,.T.);
#557=EDGE_CURVE('',#433,#466,#218,.T.);
#558=EDGE_CURVE('',#466,#461,#162,.T.);
#559=EDGE_CURVE('',#463,#430,#219,.T.);
#560=EDGE_CURVE('',#464,#429,#220,.T.);
#561=EDGE_CURVE('',#434,#467,#221,.F.);
#562=EDGE_CURVE('',#467,#466,#222,.T.);
#563=EDGE_CURVE('',#466,#458,#223,.T.);
#564=EDGE_CURVE('',#467,#459,#224,.T.);
#565=EDGE_CURVE('',#468,#428,#225,.T.);
#566=EDGE_CURVE('',#464,#468,#226,.T.);
#567=EDGE_CURVE('',#465,#468,#227,.T.);
#568=EDGE_CURVE('',#459,#469,#228,.T.);
#569=EDGE_CURVE('',#470,#469,#229,.T.);
#570=EDGE_CURVE('',#470,#467,#230,.T.);
#571=EDGE_CURVE('',#451,#471,#231,.T.);
#572=EDGE_CURVE('',#471,#472,#232,.T.);
#573=EDGE_CURVE('',#472,#452,#233,.T.);
#574=EDGE_CURVE('',#450,#473,#234,.T.);
#575=EDGE_CURVE('',#473,#471,#163,.T.);
#576=EDGE_CURVE('',#472,#474,#164,.T.);
#577=EDGE_CURVE('',#474,#453,#235,.T.);
#578=EDGE_CURVE('',#475,#454,#236,.F.);
#579=EDGE_CURVE('',#474,#475,#237,.T.);
#580=EDGE_CURVE('',#449,#476,#238,.T.);
#581=EDGE_CURVE('',#476,#473,#239,.T.);
#582=EDGE_CURVE('',#477,#471,#240,.T.);
#583=EDGE_CURVE('',#478,#477,#241,.T.);
#584=EDGE_CURVE('',#472,#478,#242,.T.);
#585=EDGE_CURVE('',#473,#479,#243,.T.);
#586=EDGE_CURVE('',#477,#479,#165,.T.);
#587=EDGE_CURVE('',#480,#476,#244,.T.);
#588=EDGE_CURVE('',#479,#480,#245,.T.);
#589=EDGE_CURVE('',#448,#481,#246,.T.);
#590=EDGE_CURVE('',#481,#476,#247,.T.);
#591=EDGE_CURVE('',#419,#478,#248,.T.);
#592=EDGE_CURVE('',#477,#420,#249,.T.);
#593=EDGE_CURVE('',#418,#482,#250,.T.);
#594=EDGE_CURVE('',#482,#478,#166,.T.);
#595=EDGE_CURVE('',#479,#421,#251,.T.);
#596=EDGE_CURVE('',#480,#422,#252,.T.);
#597=EDGE_CURVE('',#417,#483,#253,.F.);
#598=EDGE_CURVE('',#483,#482,#254,.T.);
#599=EDGE_CURVE('',#482,#474,#255,.T.);
#600=EDGE_CURVE('',#483,#475,#256,.T.);
#601=EDGE_CURVE('',#480,#484,#257,.T.);
#602=EDGE_CURVE('',#484,#423,#258,.T.);
#603=EDGE_CURVE('',#481,#484,#259,.T.);
#604=EDGE_CURVE('',#475,#485,#260,.T.);
#605=EDGE_CURVE('',#486,#483,#261,.T.);
#606=EDGE_CURVE('',#485,#486,#262,.T.);
#607=EDGE_CURVE('',#487,#488,#263,.T.);
#608=EDGE_CURVE('',#446,#487,#264,.T.);
#609=EDGE_CURVE('',#445,#488,#265,.T.);
#610=EDGE_CURVE('',#489,#490,#266,.T.);
#611=EDGE_CURVE('',#487,#490,#267,.T.);
#612=EDGE_CURVE('',#488,#489,#268,.T.);
#613=EDGE_CURVE('',#488,#491,#269,.T.);
#614=EDGE_CURVE('',#492,#491,#270,.T.);
#615=EDGE_CURVE('',#492,#489,#271,.T.);
#616=EDGE_CURVE('',#492,#427,#272,.T.);
#617=EDGE_CURVE('',#489,#426,#273,.T.);
#618=EDGE_CURVE('',#468,#492,#274,.T.);
#619=EDGE_CURVE('',#415,#470,#275,.T.);
#620=EDGE_CURVE('',#486,#470,#276,.T.);
#621=EDGE_CURVE('',#416,#486,#277,.T.);
#622=EDGE_CURVE('',#491,#465,#278,.T.);
#623=EDGE_CURVE('',#444,#491,#279,.T.);
#624=EDGE_CURVE('',#490,#425,#280,.T.);
#625=EDGE_CURVE('',#487,#493,#281,.T.);
#626=EDGE_CURVE('',#494,#490,#282,.T.);
#627=EDGE_CURVE('',#494,#493,#283,.T.);
#628=EDGE_CURVE('',#494,#424,#284,.T.);
#629=EDGE_CURVE('',#484,#494,#285,.T.);
#630=EDGE_CURVE('',#447,#493,#286,.T.);
#631=EDGE_CURVE('',#436,#485,#287,.T.);
#632=EDGE_CURVE('',#469,#485,#288,.T.);
#633=EDGE_CURVE('',#435,#469,#289,.T.);
#634=EDGE_CURVE('',#493,#481,#290,.T.);
#635=ORIENTED_EDGE('',*,*,#495,.T.);
#636=ORIENTED_EDGE('',*,*,#496,.F.);
#637=ORIENTED_EDGE('',*,*,#497,.F.);
#638=ORIENTED_EDGE('',*,*,#498,.F.);
#639=ORIENTED_EDGE('',*,*,#499,.F.);
#640=ORIENTED_EDGE('',*,*,#500,.F.);
#641=ORIENTED_EDGE('',*,*,#501,.F.);
#642=ORIENTED_EDGE('',*,*,#502,.F.);
#643=ORIENTED_EDGE('',*,*,#503,.F.);
#644=ORIENTED_EDGE('',*,*,#504,.F.);
#645=ORIENTED_EDGE('',*,*,#505,.T.);
#646=ORIENTED_EDGE('',*,*,#506,.T.);
#647=ORIENTED_EDGE('',*,*,#507,.T.);
#648=ORIENTED_EDGE('',*,*,#508,.T.);
#649=ORIENTED_EDGE('',*,*,#509,.T.);
#650=ORIENTED_EDGE('',*,*,#510,.T.);
#651=ORIENTED_EDGE('',*,*,#511,.T.);
#652=ORIENTED_EDGE('',*,*,#512,.T.);
#653=ORIENTED_EDGE('',*,*,#513,.T.);
#654=ORIENTED_EDGE('',*,*,#514,.T.);
#655=ORIENTED_EDGE('',*,*,#515,.F.);
#656=ORIENTED_EDGE('',*,*,#516,.T.);
#657=ORIENTED_EDGE('',*,*,#517,.T.);
#658=ORIENTED_EDGE('',*,*,#518,.T.);
#659=ORIENTED_EDGE('',*,*,#519,.T.);
#660=ORIENTED_EDGE('',*,*,#520,.T.);
#661=ORIENTED_EDGE('',*,*,#521,.T.);
#662=ORIENTED_EDGE('',*,*,#522,.T.);
#663=ORIENTED_EDGE('',*,*,#523,.T.);
#664=ORIENTED_EDGE('',*,*,#524,.T.);
#665=ORIENTED_EDGE('',*,*,#525,.T.);
#666=ORIENTED_EDGE('',*,*,#526,.F.);
#667=ORIENTED_EDGE('',*,*,#527,.F.);
#668=ORIENTED_EDGE('',*,*,#528,.F.);
#669=ORIENTED_EDGE('',*,*,#529,.F.);
#670=ORIENTED_EDGE('',*,*,#530,.F.);
#671=ORIENTED_EDGE('',*,*,#531,.F.);
#672=ORIENTED_EDGE('',*,*,#532,.F.);
#673=ORIENTED_EDGE('',*,*,#533,.F.);
#674=ORIENTED_EDGE('',*,*,#534,.F.);
#675=ORIENTED_EDGE('',*,*,#535,.F.);
#676=ORIENTED_EDGE('',*,*,#519,.F.);
#677=ORIENTED_EDGE('',*,*,#536,.F.);
#678=ORIENTED_EDGE('',*,*,#537,.F.);
#679=ORIENTED_EDGE('',*,*,#538,.F.);
#680=ORIENTED_EDGE('',*,*,#520,.F.);
#681=ORIENTED_EDGE('',*,*,#535,.T.);
#682=ORIENTED_EDGE('',*,*,#539,.F.);
#683=ORIENTED_EDGE('',*,*,#536,.T.);
#684=ORIENTED_EDGE('',*,*,#518,.F.);
#685=ORIENTED_EDGE('',*,*,#540,.F.);
#686=ORIENTED_EDGE('',*,*,#541,.F.);
#687=ORIENTED_EDGE('',*,*,#542,.F.);
#688=ORIENTED_EDGE('',*,*,#543,.F.);
#689=ORIENTED_EDGE('',*,*,#540,.T.);
#690=ORIENTED_EDGE('',*,*,#517,.F.);
#691=ORIENTED_EDGE('',*,*,#544,.F.);
#692=ORIENTED_EDGE('',*,*,#521,.F.);
#693=ORIENTED_EDGE('',*,*,#538,.T.);
#694=ORIENTED_EDGE('',*,*,#545,.F.);
#695=ORIENTED_EDGE('',*,*,#537,.T.);
#696=ORIENTED_EDGE('',*,*,#546,.T.);
#697=ORIENTED_EDGE('',*,*,#547,.T.);
#698=ORIENTED_EDGE('',*,*,#548,.T.);
#699=ORIENTED_EDGE('',*,*,#539,.T.);
#700=ORIENTED_EDGE('',*,*,#548,.F.);
#701=ORIENTED_EDGE('',*,*,#549,.T.);
#702=ORIENTED_EDGE('',*,*,#550,.F.);
#703=ORIENTED_EDGE('',*,*,#545,.T.);
#704=ORIENTED_EDGE('',*,*,#550,.T.);
#705=ORIENTED_EDGE('',*,*,#551,.T.);
#706=ORIENTED_EDGE('',*,*,#552,.T.);
#707=ORIENTED_EDGE('',*,*,#544,.T.);
#708=ORIENTED_EDGE('',*,*,#553,.F.);
#709=ORIENTED_EDGE('',*,*,#554,.F.);
#710=ORIENTED_EDGE('',*,*,#522,.F.);
#711=ORIENTED_EDGE('',*,*,#555,.F.);
#712=ORIENTED_EDGE('',*,*,#511,.F.);
#713=ORIENTED_EDGE('',*,*,#556,.F.);
#714=ORIENTED_EDGE('',*,*,#547,.F.);
#715=ORIENTED_EDGE('',*,*,#557,.F.);
#716=ORIENTED_EDGE('',*,*,#512,.F.);
#717=ORIENTED_EDGE('',*,*,#555,.T.);
#718=ORIENTED_EDGE('',*,*,#558,.F.);
#719=ORIENTED_EDGE('',*,*,#556,.T.);
#720=ORIENTED_EDGE('',*,*,#510,.F.);
#721=ORIENTED_EDGE('',*,*,#559,.F.);
#722=ORIENTED_EDGE('',*,*,#549,.F.);
#723=ORIENTED_EDGE('',*,*,#560,.F.);
#724=ORIENTED_EDGE('',*,*,#551,.F.);
#725=ORIENTED_EDGE('',*,*,#559,.T.);
#726=ORIENTED_EDGE('',*,*,#509,.F.);
#727=ORIENTED_EDGE('',*,*,#561,.F.);
#728=ORIENTED_EDGE('',*,*,#513,.F.);
#729=ORIENTED_EDGE('',*,*,#557,.T.);
#730=ORIENTED_EDGE('',*,*,#562,.F.);
#731=ORIENTED_EDGE('',*,*,#541,.T.);
#732=ORIENTED_EDGE('',*,*,#563,.F.);
#733=ORIENTED_EDGE('',*,*,#558,.T.);
#734=ORIENTED_EDGE('',*,*,#546,.F.);
#735=ORIENTED_EDGE('',*,*,#543,.T.);
#736=ORIENTED_EDGE('',*,*,#564,.F.);
#737=ORIENTED_EDGE('',*,*,#562,.T.);
#738=ORIENTED_EDGE('',*,*,#563,.T.);
#739=ORIENTED_EDGE('',*,*,#560,.T.);
#740=ORIENTED_EDGE('',*,*,#508,.F.);
#741=ORIENTED_EDGE('',*,*,#565,.F.);
#742=ORIENTED_EDGE('',*,*,#566,.F.);
#743=ORIENTED_EDGE('',*,*,#553,.T.);
#744=ORIENTED_EDGE('',*,*,#552,.F.);
#745=ORIENTED_EDGE('',*,*,#566,.T.);
#746=ORIENTED_EDGE('',*,*,#567,.F.);
#747=ORIENTED_EDGE('',*,*,#568,.T.);
#748=ORIENTED_EDGE('',*,*,#569,.F.);
#749=ORIENTED_EDGE('',*,*,#570,.T.);
#750=ORIENTED_EDGE('',*,*,#564,.T.);
#751=ORIENTED_EDGE('',*,*,#571,.T.);
#752=ORIENTED_EDGE('',*,*,#572,.T.);
#753=ORIENTED_EDGE('',*,*,#573,.T.);
#754=ORIENTED_EDGE('',*,*,#531,.T.);
#755=ORIENTED_EDGE('',*,*,#574,.T.);
#756=ORIENTED_EDGE('',*,*,#575,.T.);
#757=ORIENTED_EDGE('',*,*,#571,.F.);
#758=ORIENTED_EDGE('',*,*,#530,.T.);
#759=ORIENTED_EDGE('',*,*,#573,.F.);
#760=ORIENTED_EDGE('',*,*,#576,.T.);
#761=ORIENTED_EDGE('',*,*,#577,.T.);
#762=ORIENTED_EDGE('',*,*,#532,.T.);
#763=ORIENTED_EDGE('',*,*,#578,.T.);
#764=ORIENTED_EDGE('',*,*,#533,.T.);
#765=ORIENTED_EDGE('',*,*,#577,.F.);
#766=ORIENTED_EDGE('',*,*,#579,.T.);
#767=ORIENTED_EDGE('',*,*,#580,.T.);
#768=ORIENTED_EDGE('',*,*,#581,.T.);
#769=ORIENTED_EDGE('',*,*,#574,.F.);
#770=ORIENTED_EDGE('',*,*,#529,.T.);
#771=ORIENTED_EDGE('',*,*,#572,.F.);
#772=ORIENTED_EDGE('',*,*,#582,.F.);
#773=ORIENTED_EDGE('',*,*,#583,.F.);
#774=ORIENTED_EDGE('',*,*,#584,.F.);
#775=ORIENTED_EDGE('',*,*,#575,.F.);
#776=ORIENTED_EDGE('',*,*,#585,.T.);
#777=ORIENTED_EDGE('',*,*,#586,.F.);
#778=ORIENTED_EDGE('',*,*,#582,.T.);
#779=ORIENTED_EDGE('',*,*,#581,.F.);
#780=ORIENTED_EDGE('',*,*,#587,.F.);
#781=ORIENTED_EDGE('',*,*,#588,.F.);
#782=ORIENTED_EDGE('',*,*,#585,.F.);
#783=ORIENTED_EDGE('',*,*,#580,.F.);
#784=ORIENTED_EDGE('',*,*,#528,.T.);
#785=ORIENTED_EDGE('',*,*,#589,.T.);
#786=ORIENTED_EDGE('',*,*,#590,.T.);
#787=ORIENTED_EDGE('',*,*,#591,.T.);
#788=ORIENTED_EDGE('',*,*,#583,.T.);
#789=ORIENTED_EDGE('',*,*,#592,.T.);
#790=ORIENTED_EDGE('',*,*,#499,.T.);
#791=ORIENTED_EDGE('',*,*,#593,.T.);
#792=ORIENTED_EDGE('',*,*,#594,.T.);
#793=ORIENTED_EDGE('',*,*,#591,.F.);
#794=ORIENTED_EDGE('',*,*,#498,.T.);
#795=ORIENTED_EDGE('',*,*,#592,.F.);
#796=ORIENTED_EDGE('',*,*,#586,.T.);
#797=ORIENTED_EDGE('',*,*,#595,.T.);
#798=ORIENTED_EDGE('',*,*,#500,.T.);
#799=ORIENTED_EDGE('',*,*,#596,.T.);
#800=ORIENTED_EDGE('',*,*,#501,.T.);
#801=ORIENTED_EDGE('',*,*,#595,.F.);
#802=ORIENTED_EDGE('',*,*,#588,.T.);
#803=ORIENTED_EDGE('',*,*,#597,.T.);
#804=ORIENTED_EDGE('',*,*,#598,.T.);
#805=ORIENTED_EDGE('',*,*,#593,.F.);
#806=ORIENTED_EDGE('',*,*,#497,.T.);
#807=ORIENTED_EDGE('',*,*,#576,.F.);
#808=ORIENTED_EDGE('',*,*,#584,.T.);
#809=ORIENTED_EDGE('',*,*,#594,.F.);
#810=ORIENTED_EDGE('',*,*,#599,.T.);
#811=ORIENTED_EDGE('',*,*,#579,.F.);
#812=ORIENTED_EDGE('',*,*,#599,.F.);
#813=ORIENTED_EDGE('',*,*,#598,.F.);
#814=ORIENTED_EDGE('',*,*,#600,.T.);
#815=ORIENTED_EDGE('',*,*,#596,.F.);
#816=ORIENTED_EDGE('',*,*,#601,.T.);
#817=ORIENTED_EDGE('',*,*,#602,.T.);
#818=ORIENTED_EDGE('',*,*,#502,.T.);
#819=ORIENTED_EDGE('',*,*,#590,.F.);
#820=ORIENTED_EDGE('',*,*,#603,.T.);
#821=ORIENTED_EDGE('',*,*,#601,.F.);
#822=ORIENTED_EDGE('',*,*,#587,.T.);
#823=ORIENTED_EDGE('',*,*,#604,.F.);
#824=ORIENTED_EDGE('',*,*,#600,.F.);
#825=ORIENTED_EDGE('',*,*,#605,.F.);
#826=ORIENTED_EDGE('',*,*,#606,.F.);
#827=ORIENTED_EDGE('',*,*,#607,.F.);
#828=ORIENTED_EDGE('',*,*,#608,.F.);
#829=ORIENTED_EDGE('',*,*,#525,.F.);
#830=ORIENTED_EDGE('',*,*,#609,.T.);
#831=ORIENTED_EDGE('',*,*,#610,.T.);
#832=ORIENTED_EDGE('',*,*,#611,.F.);
#833=ORIENTED_EDGE('',*,*,#607,.T.);
#834=ORIENTED_EDGE('',*,*,#612,.T.);
#835=ORIENTED_EDGE('',*,*,#613,.T.);
#836=ORIENTED_EDGE('',*,*,#614,.F.);
#837=ORIENTED_EDGE('',*,*,#615,.T.);
#838=ORIENTED_EDGE('',*,*,#612,.F.);
#839=ORIENTED_EDGE('',*,*,#616,.T.);
#840=ORIENTED_EDGE('',*,*,#506,.F.);
#841=ORIENTED_EDGE('',*,*,#617,.F.);
#842=ORIENTED_EDGE('',*,*,#615,.F.);
#843=ORIENTED_EDGE('',*,*,#507,.F.);
#844=ORIENTED_EDGE('',*,*,#616,.F.);
#845=ORIENTED_EDGE('',*,*,#618,.F.);
#846=ORIENTED_EDGE('',*,*,#565,.T.);
#847=ORIENTED_EDGE('',*,*,#495,.F.);
#848=ORIENTED_EDGE('',*,*,#619,.T.);
#849=ORIENTED_EDGE('',*,*,#620,.F.);
#850=ORIENTED_EDGE('',*,*,#621,.F.);
#851=ORIENTED_EDGE('',*,*,#619,.F.);
#852=ORIENTED_EDGE('',*,*,#514,.F.);
#853=ORIENTED_EDGE('',*,*,#561,.T.);
#854=ORIENTED_EDGE('',*,*,#570,.F.);
#855=ORIENTED_EDGE('',*,*,#618,.T.);
#856=ORIENTED_EDGE('',*,*,#614,.T.);
#857=ORIENTED_EDGE('',*,*,#622,.T.);
#858=ORIENTED_EDGE('',*,*,#567,.T.);
#859=ORIENTED_EDGE('',*,*,#524,.F.);
#860=ORIENTED_EDGE('',*,*,#623,.T.);
#861=ORIENTED_EDGE('',*,*,#613,.F.);
#862=ORIENTED_EDGE('',*,*,#609,.F.);
#863=ORIENTED_EDGE('',*,*,#505,.F.);
#864=ORIENTED_EDGE('',*,*,#624,.F.);
#865=ORIENTED_EDGE('',*,*,#610,.F.);
#866=ORIENTED_EDGE('',*,*,#617,.T.);
#867=ORIENTED_EDGE('',*,*,#625,.F.);
#868=ORIENTED_EDGE('',*,*,#611,.T.);
#869=ORIENTED_EDGE('',*,*,#626,.F.);
#870=ORIENTED_EDGE('',*,*,#627,.T.);
#871=ORIENTED_EDGE('',*,*,#628,.F.);
#872=ORIENTED_EDGE('',*,*,#626,.T.);
#873=ORIENTED_EDGE('',*,*,#624,.T.);
#874=ORIENTED_EDGE('',*,*,#504,.T.);
#875=ORIENTED_EDGE('',*,*,#629,.T.);
#876=ORIENTED_EDGE('',*,*,#628,.T.);
#877=ORIENTED_EDGE('',*,*,#503,.T.);
#878=ORIENTED_EDGE('',*,*,#602,.F.);
#879=ORIENTED_EDGE('',*,*,#496,.T.);
#880=ORIENTED_EDGE('',*,*,#621,.T.);
#881=ORIENTED_EDGE('',*,*,#605,.T.);
#882=ORIENTED_EDGE('',*,*,#597,.F.);
#883=ORIENTED_EDGE('',*,*,#526,.T.);
#884=ORIENTED_EDGE('',*,*,#608,.T.);
#885=ORIENTED_EDGE('',*,*,#625,.T.);
#886=ORIENTED_EDGE('',*,*,#630,.F.);
#887=ORIENTED_EDGE('',*,*,#515,.T.);
#888=ORIENTED_EDGE('',*,*,#631,.T.);
#889=ORIENTED_EDGE('',*,*,#632,.F.);
#890=ORIENTED_EDGE('',*,*,#633,.F.);
#891=ORIENTED_EDGE('',*,*,#622,.F.);
#892=ORIENTED_EDGE('',*,*,#623,.F.);
#893=ORIENTED_EDGE('',*,*,#523,.F.);
#894=ORIENTED_EDGE('',*,*,#554,.T.);
#895=ORIENTED_EDGE('',*,*,#516,.F.);
#896=ORIENTED_EDGE('',*,*,#633,.T.);
#897=ORIENTED_EDGE('',*,*,#568,.F.);
#898=ORIENTED_EDGE('',*,*,#542,.T.);
#899=ORIENTED_EDGE('',*,*,#631,.F.);
#900=ORIENTED_EDGE('',*,*,#534,.T.);
#901=ORIENTED_EDGE('',*,*,#578,.F.);
#902=ORIENTED_EDGE('',*,*,#604,.T.);
#903=ORIENTED_EDGE('',*,*,#527,.T.);
#904=ORIENTED_EDGE('',*,*,#630,.T.);
#905=ORIENTED_EDGE('',*,*,#634,.T.);
#906=ORIENTED_EDGE('',*,*,#589,.F.);
#907=ORIENTED_EDGE('',*,*,#634,.F.);
#908=ORIENTED_EDGE('',*,*,#627,.F.);
#909=ORIENTED_EDGE('',*,*,#629,.F.);
#910=ORIENTED_EDGE('',*,*,#603,.F.);
#911=ORIENTED_EDGE('',*,*,#620,.T.);
#912=ORIENTED_EDGE('',*,*,#569,.T.);
#913=ORIENTED_EDGE('',*,*,#632,.T.);
#914=ORIENTED_EDGE('',*,*,#606,.T.);
#915=PLANE('',#1041);
#916=PLANE('',#1046);
#917=PLANE('',#1051);
#918=PLANE('',#1056);
#919=PLANE('',#1057);
#920=PLANE('',#1058);
#921=PLANE('',#1061);
#922=PLANE('',#1062);
#923=PLANE('',#1063);
#924=PLANE('',#1067);
#925=PLANE('',#1068);
#926=PLANE('',#1070);
#927=PLANE('',#1071);
#928=PLANE('',#1072);
#929=PLANE('',#1073);
#930=PLANE('',#1074);
#931=PLANE('',#1079);
#932=PLANE('',#1080);
#933=PLANE('',#1081);
#934=PLANE('',#1084);
#935=PLANE('',#1085);
#936=PLANE('',#1086);
#937=PLANE('',#1090);
#938=PLANE('',#1091);
#939=PLANE('',#1093);
#940=PLANE('',#1094);
#941=PLANE('',#1095);
#942=PLANE('',#1096);
#943=PLANE('',#1097);
#944=PLANE('',#1098);
#945=PLANE('',#1099);
#946=PLANE('',#1100);
#947=PLANE('',#1101);
#948=PLANE('',#1102);
#949=PLANE('',#1103);
#950=PLANE('',#1104);
#951=PLANE('',#1105);
#952=PLANE('',#1106);
#953=PLANE('',#1107);
#954=PLANE('',#1108);
#955=PLANE('',#1109);
#956=PLANE('',#1110);
#957=PLANE('',#1111);
#958=PLANE('',#1112);
#959=PLANE('',#1113);
#960=PLANE('',#1114);
#961=PLANE('',#1115);
#962=PLANE('',#1116);
#963=PLANE('',#1117);
#964=PLANE('',#1118);
#965=ADVANCED_FACE('',(#27),#915,.F.);
#966=ADVANCED_FACE('',(#28),#916,.T.);
#967=ADVANCED_FACE('',(#29),#917,.F.);
#968=ADVANCED_FACE('',(#30),#19,.T.);
#969=ADVANCED_FACE('',(#31),#20,.T.);
#970=ADVANCED_FACE('',(#32),#918,.F.);
#971=ADVANCED_FACE('',(#33),#919,.F.);
#972=ADVANCED_FACE('',(#34),#920,.F.);
#973=ADVANCED_FACE('',(#35),#15,.T.);
#974=ADVANCED_FACE('',(#36),#921,.F.);
#975=ADVANCED_FACE('',(#37),#922,.F.);
#976=ADVANCED_FACE('',(#38),#923,.F.);
#977=ADVANCED_FACE('',(#39),#21,.T.);
#978=ADVANCED_FACE('',(#40),#22,.T.);
#979=ADVANCED_FACE('',(#41),#924,.F.);
#980=ADVANCED_FACE('',(#42),#925,.F.);
#981=ADVANCED_FACE('',(#43),#16,.T.);
#982=ADVANCED_FACE('',(#44),#926,.F.);
#983=ADVANCED_FACE('',(#45),#927,.F.);
#984=ADVANCED_FACE('',(#46),#928,.F.);
#985=ADVANCED_FACE('',(#47),#929,.T.);
#986=ADVANCED_FACE('',(#48),#930,.T.);
#987=ADVANCED_FACE('',(#49),#23,.T.);
#988=ADVANCED_FACE('',(#50),#24,.T.);
#989=ADVANCED_FACE('',(#51),#931,.T.);
#990=ADVANCED_FACE('',(#52),#932,.T.);
#991=ADVANCED_FACE('',(#53),#933,.T.);
#992=ADVANCED_FACE('',(#54),#17,.T.);
#993=ADVANCED_FACE('',(#55),#934,.T.);
#994=ADVANCED_FACE('',(#56),#935,.T.);
#995=ADVANCED_FACE('',(#57),#936,.T.);
#996=ADVANCED_FACE('',(#58),#25,.T.);
#997=ADVANCED_FACE('',(#59),#26,.T.);
#998=ADVANCED_FACE('',(#60),#937,.T.);
#999=ADVANCED_FACE('',(#61),#938,.T.);
#1000=ADVANCED_FACE('',(#62),#18,.T.);
#1001=ADVANCED_FACE('',(#63),#939,.T.);
#1002=ADVANCED_FACE('',(#64),#940,.T.);
#1003=ADVANCED_FACE('',(#65),#941,.T.);
#1004=ADVANCED_FACE('',(#66),#942,.F.);
#1005=ADVANCED_FACE('',(#67),#943,.F.);
#1006=ADVANCED_FACE('',(#68),#944,.F.);
#1007=ADVANCED_FACE('',(#69),#945,.F.);
#1008=ADVANCED_FACE('',(#70),#946,.F.);
#1009=ADVANCED_FACE('',(#71),#947,.F.);
#1010=ADVANCED_FACE('',(#72),#948,.F.);
#1011=ADVANCED_FACE('',(#73),#949,.F.);
#1012=ADVANCED_FACE('',(#74),#950,.F.);
#1013=ADVANCED_FACE('',(#75),#951,.F.);
#1014=ADVANCED_FACE('',(#76),#952,.F.);
#1015=ADVANCED_FACE('',(#77),#953,.T.);
#1016=ADVANCED_FACE('',(#78),#954,.T.);
#1017=ADVANCED_FACE('',(#79),#955,.T.);
#1018=ADVANCED_FACE('',(#80),#956,.T.);
#1019=ADVANCED_FACE('',(#81),#957,.T.);
#1020=ADVANCED_FACE('',(#82),#958,.T.);
#1021=ADVANCED_FACE('',(#83),#959,.F.);
#1022=ADVANCED_FACE('',(#84),#960,.F.);
#1023=ADVANCED_FACE('',(#85),#961,.T.);
#1024=ADVANCED_FACE('',(#86),#962,.T.);
#1025=ADVANCED_FACE('',(#87),#963,.T.);
#1026=ADVANCED_FACE('',(#88),#964,.T.);
#1027=CLOSED_SHELL('',(#965,#966,#967,#968,#969,#970,#971,#972,#973,#974,
#975,#976,#977,#978,#979,#980,#981,#982,#983,#984,#985,#986,#987,#988,#989,
#990,#991,#992,#993,#994,#995,#996,#997,#998,#999,#1000,#1001,#1002,#1003,
#1004,#1005,#1006,#1007,#1008,#1009,#1010,#1011,#1012,#1013,#1014,#1015,
#1016,#1017,#1018,#1019,#1020,#1021,#1022,#1023,#1024,#1025,#1026));
#1028=DERIVED_UNIT_ELEMENT(#1030,1.);
#1029=DERIVED_UNIT_ELEMENT(#1689,-3.);
#1030=(
MASS_UNIT()
NAMED_UNIT(*)
SI_UNIT(.KILO.,.GRAM.)
);
#1031=DERIVED_UNIT((#1028,#1029));
#1032=MEASURE_REPRESENTATION_ITEM('density measure',
POSITIVE_RATIO_MEASURE(2700.),#1031);
#1033=PROPERTY_DEFINITION_REPRESENTATION(#1038,#1035);
#1034=PROPERTY_DEFINITION_REPRESENTATION(#1039,#1036);
#1035=REPRESENTATION('material name',(#1037),#1686);
#1036=REPRESENTATION('density',(#1032),#1686);
#1037=DESCRIPTIVE_REPRESENTATION_ITEM('Aluminum','Aluminum');
#1038=PROPERTY_DEFINITION('material property','material name',#1696);
#1039=PROPERTY_DEFINITION('material property','density of part',#1696);
#1040=AXIS2_PLACEMENT_3D('',#1401,#1119,#1120);
#1041=AXIS2_PLACEMENT_3D('',#1402,#1121,#1122);
#1042=AXIS2_PLACEMENT_3D('',#1411,#1126,#1127);
#1043=AXIS2_PLACEMENT_3D('',#1415,#1129,#1130);
#1044=AXIS2_PLACEMENT_3D('',#1435,#1140,#1141);
#1045=AXIS2_PLACEMENT_3D('',#1439,#1143,#1144);
#1046=AXIS2_PLACEMENT_3D('',#1443,#1147,#1148);
#1047=AXIS2_PLACEMENT_3D('',#1452,#1152,#1153);
#1048=AXIS2_PLACEMENT_3D('',#1456,#1155,#1156);
#1049=AXIS2_PLACEMENT_3D('',#1476,#1166,#1167);
#1050=AXIS2_PLACEMENT_3D('',#1480,#1169,#1170);
#1051=AXIS2_PLACEMENT_3D('',#1484,#1173,#1174);
#1052=AXIS2_PLACEMENT_3D('',#1490,#1178,#1179);
#1053=AXIS2_PLACEMENT_3D('',#1493,#1181,#1182);
#1054=AXIS2_PLACEMENT_3D('',#1494,#1183,#1184);
#1055=AXIS2_PLACEMENT_3D('',#1497,#1186,#1187);
#1056=AXIS2_PLACEMENT_3D('',#1498,#1188,#1189);
#1057=AXIS2_PLACEMENT_3D('',#1502,#1192,#1193);
#1058=AXIS2_PLACEMENT_3D('',#1506,#1196,#1197);
#1059=AXIS2_PLACEMENT_3D('',#1512,#1201,#1202);
#1060=AXIS2_PLACEMENT_3D('',#1514,#1203,#1204);
#1061=AXIS2_PLACEMENT_3D('',#1516,#1206,#1207);
#1062=AXIS2_PLACEMENT_3D('',#1520,#1210,#1211);
#1063=AXIS2_PLACEMENT_3D('',#1524,#1214,#1215);
#1064=AXIS2_PLACEMENT_3D('',#1527,#1218,#1219);
#1065=AXIS2_PLACEMENT_3D('',#1530,#1221,#1222);
#1066=AXIS2_PLACEMENT_3D('',#1531,#1223,#1224);
#1067=AXIS2_PLACEMENT_3D('',#1533,#1226,#1227);
#1068=AXIS2_PLACEMENT_3D('',#1535,#1229,#1230);
#1069=AXIS2_PLACEMENT_3D('',#1539,#1233,#1234);
#1070=AXIS2_PLACEMENT_3D('',#1541,#1236,#1237);
#1071=AXIS2_PLACEMENT_3D('',#1543,#1239,#1240);
#1072=AXIS2_PLACEMENT_3D('',#1547,#1243,#1244);
#1073=AXIS2_PLACEMENT_3D('',#1549,#1246,#1247);
#1074=AXIS2_PLACEMENT_3D('',#1555,#1251,#1252);
#1075=AXIS2_PLACEMENT_3D('',#1561,#1256,#1257);
#1076=AXIS2_PLACEMENT_3D('',#1564,#1259,#1260);
#1077=AXIS2_PLACEMENT_3D('',#1565,#1261,#1262);
#1078=AXIS2_PLACEMENT_3D('',#1567,#1263,#1264);
#1079=AXIS2_PLACEMENT_3D('',#1569,#1266,#1267);
#1080=AXIS2_PLACEMENT_3D('',#1573,#1270,#1271);
#1081=AXIS2_PLACEMENT_3D('',#1577,#1274,#1275);
#1082=AXIS2_PLACEMENT_3D('',#1583,#1279,#1280);
#1083=AXIS2_PLACEMENT_3D('',#1586,#1282,#1283);
#1084=AXIS2_PLACEMENT_3D('',#1587,#1284,#1285);
#1085=AXIS2_PLACEMENT_3D('',#1591,#1288,#1289);
#1086=AXIS2_PLACEMENT_3D('',#1595,#1292,#1293);
#1087=AXIS2_PLACEMENT_3D('',#1598,#1296,#1297);
#1088=AXIS2_PLACEMENT_3D('',#1601,#1299,#1300);
#1089=AXIS2_PLACEMENT_3D('',#1602,#1301,#1302);
#1090=AXIS2_PLACEMENT_3D('',#1604,#1304,#1305);
#1091=AXIS2_PLACEMENT_3D('',#1606,#1307,#1308);
#1092=AXIS2_PLACEMENT_3D('',#1610,#1311,#1312);
#1093=AXIS2_PLACEMENT_3D('',#1612,#1314,#1315);
#1094=AXIS2_PLACEMENT_3D('',#1614,#1317,#1318);
#1095=AXIS2_PLACEMENT_3D('',#1618,#1321,#1322);
#1096=AXIS2_PLACEMENT_3D('',#1620,#1324,#1325);
#1097=AXIS2_PLACEMENT_3D('',#1626,#1329,#1330);
#1098=AXIS2_PLACEMENT_3D('',#1632,#1334,#1335);
#1099=AXIS2_PLACEMENT_3D('',#1638,#1339,#1340);
#1100=AXIS2_PLACEMENT_3D('',#1644,#1344,#1345);
#1101=AXIS2_PLACEMENT_3D('',#1647,#1348,#1349);
#1102=AXIS2_PLACEMENT_3D('',#1649,#1351,#1352);
#1103=AXIS2_PLACEMENT_3D('',#1653,#1356,#1357);
#1104=AXIS2_PLACEMENT_3D('',#1654,#1358,#1359);
#1105=AXIS2_PLACEMENT_3D('',#1656,#1361,#1362);
#1106=AXIS2_PLACEMENT_3D('',#1658,#1364,#1365);
#1107=AXIS2_PLACEMENT_3D('',#1660,#1367,#1368);
#1108=AXIS2_PLACEMENT_3D('',#1666,#1372,#1373);
#1109=AXIS2_PLACEMENT_3D('',#1668,#1375,#1376);
#1110=AXIS2_PLACEMENT_3D('',#1670,#1378,#1379);
#1111=AXIS2_PLACEMENT_3D('',#1671,#1380,#1381);
#1112=AXIS2_PLACEMENT_3D('',#1673,#1383,#1384);
#1113=AXIS2_PLACEMENT_3D('',#1677,#1388,#1389);
#1114=AXIS2_PLACEMENT_3D('',#1678,#1390,#1391);
#1115=AXIS2_PLACEMENT_3D('',#1679,#1392,#1393);
#1116=AXIS2_PLACEMENT_3D('',#1680,#1394,#1395);
#1117=AXIS2_PLACEMENT_3D('',#1682,#1397,#1398);
#1118=AXIS2_PLACEMENT_3D('',#1683,#1399,#1400);
#1119=DIRECTION('axis',(0.,0.,1.));
#1120=DIRECTION('refdir',(1.,0.,0.));
#1121=DIRECTION('center_axis',(0.,0.,-1.));
#1122=DIRECTION('ref_axis',(1.,0.,0.));
#1123=DIRECTION('',(0.,-1.,0.));
#1124=DIRECTION('',(1.,0.,0.));
#1125=DIRECTION('',(0.,-1.,0.));
#1126=DIRECTION('center_axis',(0.,0.,-1.));
#1127=DIRECTION('ref_axis',(0.707106781186547,0.707106781186548,0.));
#1128=DIRECTION('',(1.,0.,0.));
#1129=DIRECTION('center_axis',(0.,0.,-1.));
#1130=DIRECTION('ref_axis',(-0.707106781186547,0.707106781186548,0.));
#1131=DIRECTION('',(-4.03717457484198E-17,1.,0.));
#1132=DIRECTION('',(-0.707106781186547,0.707106781186548,0.));
#1133=DIRECTION('',(-1.,0.,0.));
#1134=DIRECTION('',(-0.707106781186547,-0.707106781186548,0.));
#1135=DIRECTION('',(0.,1.,0.));
#1136=DIRECTION('',(-0.707106781186547,0.707106781186548,0.));
#1137=DIRECTION('',(-1.,0.,0.));
#1138=DIRECTION('',(-0.707106781186547,-0.707106781186548,0.));
#1139=DIRECTION('',(-4.03717457484198E-17,-1.,0.));
#1140=DIRECTION('center_axis',(0.,0.,1.));
#1141=DIRECTION('ref_axis',(-0.707106781186547,-0.707106781186548,0.));
#1142=DIRECTION('',(1.,0.,0.));
#1143=DIRECTION('center_axis',(0.,0.,1.));
#1144=DIRECTION('ref_axis',(0.707106781186547,-0.707106781186548,0.));
#1145=DIRECTION('',(0.,1.,0.));
#1146=DIRECTION('',(1.,0.,0.));
#1147=DIRECTION('center_axis',(0.,0.,-1.));
#1148=DIRECTION('ref_axis',(1.,0.,0.));
#1149=DIRECTION('',(0.,-1.,0.));
#1150=DIRECTION('',(-1.,0.,0.));
#1151=DIRECTION('',(0.,-1.,0.));
#1152=DIRECTION('center_axis',(0.,0.,-1.));
#1153=DIRECTION('ref_axis',(0.707106781186547,-0.707106781186548,0.));
#1154=DIRECTION('',(-1.,0.,0.));
#1155=DIRECTION('center_axis',(0.,0.,-1.));
#1156=DIRECTION('ref_axis',(-0.707106781186547,-0.707106781186548,0.));
#1157=DIRECTION('',(4.03717457484198E-17,1.,0.));
#1158=DIRECTION('',(0.707106781186547,0.707106781186548,0.));
#1159=DIRECTION('',(1.,0.,0.));
#1160=DIRECTION('',(0.707106781186547,-0.707106781186548,0.));
#1161=DIRECTION('',(0.,-1.,0.));
#1162=DIRECTION('',(0.707106781186547,0.707106781186548,0.));
#1163=DIRECTION('',(1.,0.,0.));
#1164=DIRECTION('',(0.707106781186547,-0.707106781186548,0.));
#1165=DIRECTION('',(4.03717457484198E-17,-1.,0.));
#1166=DIRECTION('center_axis',(0.,0.,1.));
#1167=DIRECTION('ref_axis',(-0.707106781186547,0.707106781186548,0.));
#1168=DIRECTION('',(-1.,0.,0.));
#1169=DIRECTION('center_axis',(0.,0.,1.));
#1170=DIRECTION('ref_axis',(0.707106781186547,0.707106781186548,0.));
#1171=DIRECTION('',(0.,1.,0.));
#1172=DIRECTION('',(-1.,0.,0.));
#1173=DIRECTION('center_axis',(0.,0.707106781186548,0.707106781186548));
#1174=DIRECTION('ref_axis',(-1.,0.,0.));
#1175=DIRECTION('',(0.,-0.707106781186547,0.707106781186547));
#1176=DIRECTION('',(0.,0.707106781186547,-0.707106781186547));
#1177=DIRECTION('',(1.,0.,0.));
#1178=DIRECTION('center_axis',(0.,0.,1.));
#1179=DIRECTION('ref_axis',(-0.707106781186547,-0.707106781186548,0.));
#1180=DIRECTION('',(-0.707106781186548,0.,0.707106781186547));
#1181=DIRECTION('center_axis',(0.,0.,1.));
#1182=DIRECTION('ref_axis',(-0.707106781186547,-0.707106781186548,0.));
#1183=DIRECTION('center_axis',(0.,0.,1.));
#1184=DIRECTION('ref_axis',(0.707106781186547,-0.707106781186548,0.));
#1185=DIRECTION('',(-0.707106781186548,0.,-0.707106781186547));
#1186=DIRECTION('center_axis',(0.,0.,1.));
#1187=DIRECTION('ref_axis',(0.707106781186547,-0.707106781186548,0.));
#1188=DIRECTION('center_axis',(-0.707106781186547,0.,0.707106781186548));
#1189=DIRECTION('ref_axis',(-0.707106781186548,0.,-0.707106781186547));
#1190=DIRECTION('',(0.577350269189626,-0.577350269189626,0.577350269189626));
#1191=DIRECTION('',(0.,1.,0.));
#1192=DIRECTION('center_axis',(0.707106781186548,-2.85471351870468E-17,
0.707106781186548));
#1193=DIRECTION('ref_axis',(-0.707106781186548,0.,0.707106781186548));
#1194=DIRECTION('',(-0.678598344545846,0.281084637714824,0.678598344545846));
#1195=DIRECTION('',(-4.03717457484198E-17,-1.,0.));
#1196=DIRECTION('center_axis',(0.,1.,0.));
#1197=DIRECTION('ref_axis',(1.,0.,0.));
#1198=DIRECTION('',(0.,0.,1.));
#1199=DIRECTION('',(-1.,0.,0.));
#1200=DIRECTION('',(0.,0.,-1.));
#1201=DIRECTION('center_axis',(0.,0.,-1.));
#1202=DIRECTION('ref_axis',(-0.707106781186547,-0.707106781186548,0.));
#1203=DIRECTION('center_axis',(0.,0.,-1.));
#1204=DIRECTION('ref_axis',(-0.707106781186547,-0.707106781186548,0.));
#1205=DIRECTION('',(0.,0.,1.));
#1206=DIRECTION('center_axis',(1.,-4.03717457484198E-17,0.));
#1207=DIRECTION('ref_axis',(4.03717457484198E-17,1.,0.));
#1208=DIRECTION('',(4.03717457484198E-17,1.,0.));
#1209=DIRECTION('',(0.,0.,-1.));
#1210=DIRECTION('center_axis',(0.499999999999999,-0.499999999999999,0.707106781186549));
#1211=DIRECTION('ref_axis',(-0.816496580927727,3.33066907387547E-16,0.577350269189624));
#1212=DIRECTION('',(-0.707106781186547,-0.707106781186548,0.));
#1213=DIRECTION('',(-0.281084637714841,0.678598344545835,0.67859834454585));
#1214=DIRECTION('center_axis',(0.,0.707106781186548,-0.707106781186548));
#1215=DIRECTION('ref_axis',(1.,0.,0.));
#1216=DIRECTION('',(0.,-0.707106781186547,-0.707106781186547));
#1217=DIRECTION('',(0.,0.707106781186547,0.707106781186547));
#1218=DIRECTION('center_axis',(0.,0.,-1.));
#1219=DIRECTION('ref_axis',(0.707106781186547,-0.707106781186548,0.));
#1220=DIRECTION('',(0.707106781186548,0.,-0.707106781186547));
#1221=DIRECTION('center_axis',(0.,0.,-1.));
#1222=DIRECTION('ref_axis',(0.707106781186547,-0.707106781186548,0.));
#1223=DIRECTION('center_axis',(0.,0.,-1.));
#1224=DIRECTION('ref_axis',(-0.707106781186547,-0.707106781186548,0.));
#1225=DIRECTION('',(0.707106781186548,0.,0.707106781186547));
#1226=DIRECTION('center_axis',(0.707106781186548,-2.85471351870468E-17,
-0.707106781186547));
#1227=DIRECTION('ref_axis',(0.707106781186547,0.,0.707106781186548));
#1228=DIRECTION('',(0.678598344545846,-0.281084637714824,0.678598344545847));
#1229=DIRECTION('center_axis',(-0.707106781186548,0.,-0.707106781186548));
#1230=DIRECTION('ref_axis',(0.707106781186548,0.,-0.707106781186548));
#1231=DIRECTION('',(-0.577350269189626,0.577350269189626,0.577350269189626));
#1232=DIRECTION('',(0.,-1.,0.));
#1233=DIRECTION('center_axis',(0.,0.,1.));
#1234=DIRECTION('ref_axis',(0.707106781186547,-0.707106781186548,0.));
#1235=DIRECTION('',(0.,0.,-1.));
#1236=DIRECTION('center_axis',(-1.,0.,0.));
#1237=DIRECTION('ref_axis',(0.,0.,1.));
#1238=DIRECTION('',(0.,0.,-1.));
#1239=DIRECTION('center_axis',(0.5,-0.499999999999999,-0.707106781186549));
#1240=DIRECTION('ref_axis',(0.816496580927727,1.38777878078144E-16,0.577350269189625));
#1241=DIRECTION('',(0.281084637714841,-0.678598344545835,0.67859834454585));
#1242=DIRECTION('',(0.707106781186547,0.707106781186548,0.));
#1243=DIRECTION('center_axis',(0.707106781186548,-0.707106781186547,0.));
#1244=DIRECTION('ref_axis',(0.,0.,1.));
#1245=DIRECTION('',(0.,0.,1.));
#1246=DIRECTION('center_axis',(0.,-1.,0.));
#1247=DIRECTION('ref_axis',(0.,0.,-1.));
#1248=DIRECTION('',(1.,0.,0.));
#1249=DIRECTION('',(0.,0.,-1.));
#1250=DIRECTION('',(-1.,0.,0.));
#1251=DIRECTION('center_axis',(0.,0.707106781186548,-0.707106781186548));
#1252=DIRECTION('ref_axis',(-1.,0.,0.));
#1253=DIRECTION('',(0.,0.707106781186547,0.707106781186547));
#1254=DIRECTION('',(1.,0.,0.));
#1255=DIRECTION('',(0.,-0.707106781186547,-0.707106781186547));
#1256=DIRECTION('center_axis',(0.,0.,1.));
#1257=DIRECTION('ref_axis',(-0.707106781186547,0.707106781186548,0.));
#1258=DIRECTION('',(-0.707106781186548,0.,0.707106781186547));
#1259=DIRECTION('center_axis',(0.,0.,-1.));
#1260=DIRECTION('ref_axis',(-0.707106781186547,0.707106781186548,0.));
#1261=DIRECTION('center_axis',(0.,0.,1.));
#1262=DIRECTION('ref_axis',(0.707106781186547,0.707106781186548,0.));
#1263=DIRECTION('center_axis',(0.,0.,-1.));
#1264=DIRECTION('ref_axis',(0.707106781186547,0.707106781186548,0.));
#1265=DIRECTION('',(-0.707106781186548,0.,-0.707106781186547));
#1266=DIRECTION('center_axis',(0.707106781186547,0.,-0.707106781186548));
#1267=DIRECTION('ref_axis',(-0.707106781186548,0.,-0.707106781186547));
#1268=DIRECTION('',(0.577350269189626,0.577350269189626,0.577350269189626));
#1269=DIRECTION('',(0.,-1.,0.));
#1270=DIRECTION('center_axis',(-0.707106781186548,-2.85471351870468E-17,
-0.707106781186548));
#1271=DIRECTION('ref_axis',(-0.707106781186548,0.,0.707106781186548));
#1272=DIRECTION('',(-0.678598344545846,-0.281084637714824,0.678598344545846));
#1273=DIRECTION('',(-4.03717457484198E-17,1.,0.));
#1274=DIRECTION('center_axis',(0.,1.,0.));
#1275=DIRECTION('ref_axis',(1.,0.,0.));
#1276=DIRECTION('',(0.,0.,-1.));
#1277=DIRECTION('',(-1.,0.,0.));
#1278=DIRECTION('',(0.,0.,1.));
#1279=DIRECTION('center_axis',(0.,0.,1.));
#1280=DIRECTION('ref_axis',(-0.707106781186547,0.707106781186548,0.));
#1281=DIRECTION('',(0.,0.,1.));
#1282=DIRECTION('center_axis',(0.,0.,1.));
#1283=DIRECTION('ref_axis',(-0.707106781186547,0.707106781186548,0.));
#1284=DIRECTION('center_axis',(-1.,-4.03717457484198E-17,0.));
#1285=DIRECTION('ref_axis',(4.03717457484198E-17,-1.,0.));
#1286=DIRECTION('',(0.,0.,-1.));
#1287=DIRECTION('',(4.03717457484198E-17,-1.,0.));
#1288=DIRECTION('center_axis',(-0.499999999999999,-0.499999999999999,-0.707106781186549));
#1289=DIRECTION('ref_axis',(-0.816496580927727,-3.33066907387547E-16,0.577350269189624));
#1290=DIRECTION('',(-0.281084637714841,-0.678598344545835,0.67859834454585));
#1291=DIRECTION('',(-0.707106781186547,0.707106781186548,0.));
#1292=DIRECTION('center_axis',(0.,0.707106781186548,0.707106781186548));
#1293=DIRECTION('ref_axis',(1.,0.,0.));
#1294=DIRECTION('',(0.,0.707106781186547,-0.707106781186547));
#1295=DIRECTION('',(0.,-0.707106781186547,0.707106781186547));
#1296=DIRECTION('center_axis',(0.,0.,-1.));
#1297=DIRECTION('ref_axis',(0.707106781186547,0.707106781186548,0.));
#1298=DIRECTION('',(0.707106781186548,0.,-0.707106781186547));
#1299=DIRECTION('center_axis',(0.,0.,1.));
#1300=DIRECTION('ref_axis',(0.707106781186547,0.707106781186548,0.));
#1301=DIRECTION('center_axis',(0.,0.,-1.));
#1302=DIRECTION('ref_axis',(-0.707106781186547,0.707106781186548,0.));
#1303=DIRECTION('',(0.707106781186548,0.,0.707106781186547));
#1304=DIRECTION('center_axis',(-0.707106781186548,-2.85471351870468E-17,
0.707106781186547));
#1305=DIRECTION('ref_axis',(0.707106781186547,0.,0.707106781186548));
#1306=DIRECTION('',(0.678598344545846,0.281084637714824,0.678598344545847));
#1307=DIRECTION('center_axis',(0.707106781186548,0.,0.707106781186548));
#1308=DIRECTION('ref_axis',(0.707106781186548,0.,-0.707106781186548));
#1309=DIRECTION('',(-0.577350269189626,-0.577350269189626,0.577350269189626));
#1310=DIRECTION('',(0.,1.,0.));
#1311=DIRECTION('center_axis',(0.,0.,-1.));
#1312=DIRECTION('ref_axis',(0.707106781186547,0.707106781186548,0.));
#1313=DIRECTION('',(0.,0.,-1.));
#1314=DIRECTION('center_axis',(1.,0.,0.));
#1315=DIRECTION('ref_axis',(0.,0.,1.));
#1316=DIRECTION('',(0.,0.,-1.));
#1317=DIRECTION('center_axis',(-0.5,-0.499999999999999,0.707106781186549));
#1318=DIRECTION('ref_axis',(0.816496580927727,-1.38777878078144E-16,0.577350269189625));
#1319=DIRECTION('',(0.707106781186547,-0.707106781186548,0.));
#1320=DIRECTION('',(0.281084637714841,0.678598344545835,0.67859834454585));
#1321=DIRECTION('center_axis',(-0.707106781186548,-0.707106781186547,0.));
#1322=DIRECTION('ref_axis',(0.,0.,1.));
#1323=DIRECTION('',(0.,0.,1.));
#1324=DIRECTION('center_axis',(0.,-1.,0.));
#1325=DIRECTION('ref_axis',(0.,0.,-1.));
#1326=DIRECTION('',(1.,0.,0.));
#1327=DIRECTION('',(-1.,0.,0.));
#1328=DIRECTION('',(0.,0.,1.));
#1329=DIRECTION('center_axis',(-0.707106781186547,0.,0.707106781186548));
#1330=DIRECTION('ref_axis',(-0.707106781186548,0.,-0.707106781186547));
#1331=DIRECTION('',(0.,1.,0.));
#1332=DIRECTION('',(0.678598344545844,-0.281084637714837,0.678598344545843));
#1333=DIRECTION('',(0.678598344545844,0.281084637714837,0.678598344545843));
#1334=DIRECTION('center_axis',(-1.,0.,0.));
#1335=DIRECTION('ref_axis',(0.,-1.,0.));
#1336=DIRECTION('',(0.,-1.,0.));
#1337=DIRECTION('',(0.,0.,1.));
#1338=DIRECTION('',(0.,0.,1.));
#1339=DIRECTION('center_axis',(-0.707106781186548,-0.707106781186547,0.));
#1340=DIRECTION('ref_axis',(0.,0.,-1.));
#1341=DIRECTION('',(-0.707106781186547,0.707106781186548,0.));
#1342=DIRECTION('',(0.,0.,-1.));
#1343=DIRECTION('',(0.707106781186547,-0.707106781186548,0.));
#1344=DIRECTION('center_axis',(-0.500000000000001,-0.5,-0.707106781186547));
#1345=DIRECTION('ref_axis',(0.816496580927725,-1.38777878078144E-16,-0.577350269189627));
#1346=DIRECTION('',(-0.281084637714837,-0.678598344545836,0.678598344545851));
#1347=DIRECTION('',(-0.678598344545847,-0.281084637714819,0.678598344545847));
#1348=DIRECTION('center_axis',(0.,-0.707106781186555,-0.70710678118654));
#1349=DIRECTION('ref_axis',(1.,0.,0.));
#1350=DIRECTION('',(1.,0.,0.));
#1351=DIRECTION('center_axis',(0.707106781186548,0.,-0.707106781186548));
#1352=DIRECTION('ref_axis',(0.707106781186548,0.,0.707106781186548));
#1353=DIRECTION('',(-0.577350269189626,-0.577350269189626,-0.577350269189626));
#1354=DIRECTION('',(0.,1.,0.));
#1355=DIRECTION('',(-0.577350269189626,0.577350269189626,-0.577350269189626));
#1356=DIRECTION('center_axis',(0.,0.707106781186548,-0.707106781186548));
#1357=DIRECTION('ref_axis',(1.,0.,0.));
#1358=DIRECTION('center_axis',(0.,-1.,0.));
#1359=DIRECTION('ref_axis',(1.,0.,0.));
#1360=DIRECTION('',(-1.,0.,0.));
#1361=DIRECTION('center_axis',(-0.499999999999998,-0.499999999999996,0.707106781186552));
#1362=DIRECTION('ref_axis',(-0.816496580927729,0.,-0.577350269189622));
#1363=DIRECTION('',(0.281084637714861,0.678598344545831,0.678598344545846));
#1364=DIRECTION('center_axis',(-0.707106781186548,0.,-0.707106781186548));
#1365=DIRECTION('ref_axis',(0.707106781186548,0.,-0.707106781186548));
#1366=DIRECTION('',(-0.678598344545847,0.281084637714819,0.678598344545847));
#1367=DIRECTION('center_axis',(0.707106781186548,-0.707106781186547,0.));
#1368=DIRECTION('ref_axis',(0.,0.,-1.));
#1369=DIRECTION('',(-0.707106781186547,-0.707106781186548,0.));
#1370=DIRECTION('',(0.707106781186547,0.707106781186548,0.));
#1371=DIRECTION('',(0.,0.,-1.));
#1372=DIRECTION('center_axis',(0.500000000000001,-0.5,0.707106781186547));
#1373=DIRECTION('ref_axis',(0.816496580927725,1.38777878078144E-16,-0.577350269189627));
#1374=DIRECTION('',(-0.281084637714837,0.678598344545836,0.678598344545851));
#1375=DIRECTION('center_axis',(0.,-0.707106781186555,0.70710678118654));
#1376=DIRECTION('ref_axis',(1.,0.,0.));
#1377=DIRECTION('',(1.,0.,0.));
#1378=DIRECTION('center_axis',(0.,0.707106781186548,0.707106781186548));
#1379=DIRECTION('ref_axis',(1.,0.,0.));
#1380=DIRECTION('center_axis',(0.499999999999998,-0.499999999999996,-0.707106781186552));
#1381=DIRECTION('ref_axis',(-0.816496580927729,0.,-0.577350269189622));
#1382=DIRECTION('',(0.281084637714861,-0.678598344545831,0.678598344545846));
#1383=DIRECTION('center_axis',(-0.707106781186547,0.,-0.707106781186548));
#1384=DIRECTION('ref_axis',(-0.707106781186548,0.,0.707106781186547));
#1385=DIRECTION('',(-0.577350269189626,0.577350269189626,0.577350269189626));
#1386=DIRECTION('',(0.,-1.,0.));
#1387=DIRECTION('',(-0.577350269189626,-0.577350269189626,0.577350269189626));
#1388=DIRECTION('center_axis',(0.,-0.707106781186555,0.70710678118654));
#1389=DIRECTION('ref_axis',(-1.,0.,0.));
#1390=DIRECTION('center_axis',(0.,0.707106781186547,0.707106781186548));
#1391=DIRECTION('ref_axis',(-1.,0.,0.));
#1392=DIRECTION('center_axis',(0.,0.707106781186547,-0.707106781186548));
#1393=DIRECTION('ref_axis',(-1.,0.,0.));
#1394=DIRECTION('center_axis',(0.,-0.707106781186555,-0.70710678118654));
#1395=DIRECTION('ref_axis',(-1.,0.,0.));
#1396=DIRECTION('',(-1.,0.,0.));
#1397=DIRECTION('center_axis',(0.,-1.,0.));
#1398=DIRECTION('ref_axis',(1.,0.,0.));
#1399=DIRECTION('center_axis',(-1.,0.,0.));
#1400=DIRECTION('ref_axis',(0.,0.,1.));
#1401=CARTESIAN_POINT('',(0.,0.,0.));
#1402=CARTESIAN_POINT('Origin',(0.,19.7,7.5));
#1403=CARTESIAN_POINT('',(10.3,20.0000002980232,7.5));
#1404=CARTESIAN_POINT('',(10.3,-20.5000002980232,7.5));
#1405=CARTESIAN_POINT('',(10.3,13.4,7.5));
#1406=CARTESIAN_POINT('',(2.5,-20.5000002980232,7.5));
#1407=CARTESIAN_POINT('',(5.05,-20.5000002980232,7.5));
#1408=CARTESIAN_POINT('',(2.5,-20.1000002980232,7.5));
#1409=CARTESIAN_POINT('',(2.5,-20.0500001490116,7.5));
#1410=CARTESIAN_POINT('',(1.7,-19.3000002980232,7.5));
#1411=CARTESIAN_POINT('Origin',(1.7,-20.1000002980232,7.5));
#1412=CARTESIAN_POINT('',(1.,-19.3000002980232,7.5));
#1413=CARTESIAN_POINT('',(1.11022302462516E-15,-19.3000002980232,7.5));
#1414=CARTESIAN_POINT('',(0.200000000000002,-20.1000002980232,7.5));
#1415=CARTESIAN_POINT('Origin',(1.,-20.1000002980232,7.5));
#1416=CARTESIAN_POINT('',(0.200000000000002,-21.0171575855486,7.5));
#1417=CARTESIAN_POINT('',(0.200000000000002,-19.0500001490116,7.5));
#1418=CARTESIAN_POINT('',(1.08284271247463,-21.9000002980232,7.5));
#1419=CARTESIAN_POINT('',(0.116421281731504,-20.9335788672801,7.5));
#1420=CARTESIAN_POINT('',(11.0171572875254,-21.9000002980232,7.5));
#1421=CARTESIAN_POINT('',(1.11022302462516E-15,-21.9000002980232,7.5));
#1422=CARTESIAN_POINT('',(11.9,-21.0171575855486,7.5));
#1423=CARTESIAN_POINT('',(8.95857871826851,-23.9585788672801,7.5));
#1424=CARTESIAN_POINT('',(11.9,20.5171575855486,7.5));
#1425=CARTESIAN_POINT('',(11.9,30.75,7.5));
#1426=CARTESIAN_POINT('',(11.0171572875254,21.4000002980232,7.5));
#1427=CARTESIAN_POINT('',(8.95857871826851,23.4585788672801,7.5));
#1428=CARTESIAN_POINT('',(1.08284271247463,21.4000002980232,7.5));
#1429=CARTESIAN_POINT('',(1.11022302462516E-15,21.4000002980232,7.5));
#1430=CARTESIAN_POINT('',(0.200000000000002,20.5171575855486,7.5));
#1431=CARTESIAN_POINT('',(0.116421281731504,20.4335788672801,7.5));
#1432=CARTESIAN_POINT('',(0.200000000000002,19.6000002980232,7.5));
#1433=CARTESIAN_POINT('',(0.200000000000002,18.5500001490116,7.5));
#1434=CARTESIAN_POINT('',(1.,18.8000002980232,7.5));
#1435=CARTESIAN_POINT('Origin',(1.,19.6000002980232,7.5));
#1436=CARTESIAN_POINT('',(1.7,18.8000002980232,7.5));
#1437=CARTESIAN_POINT('',(1.11022302462516E-15,18.8000002980232,7.5));
#1438=CARTESIAN_POINT('',(2.5,19.6000002980232,7.5));
#1439=CARTESIAN_POINT('Origin',(1.7,19.6000002980232,7.5));
#1440=CARTESIAN_POINT('',(2.5,20.0000002980232,7.5));
#1441=CARTESIAN_POINT('',(2.5,19.5500001490116,7.5));
#1442=CARTESIAN_POINT('',(5.05,20.0000002980232,7.5));
#1443=CARTESIAN_POINT('Origin',(0.,19.7,0.));
#1444=CARTESIAN_POINT('',(10.3,20.0000002980232,0.));
#1445=CARTESIAN_POINT('',(10.3,-20.5000002980232,0.));
#1446=CARTESIAN_POINT('',(10.3,0.0499998509883848,0.));
#1447=CARTESIAN_POINT('',(2.5,20.0000002980232,0.));
#1448=CARTESIAN_POINT('',(5.05,20.0000002980232,0.));
#1449=CARTESIAN_POINT('',(2.5,19.6000002980232,0.));
#1450=CARTESIAN_POINT('',(2.5,19.5500001490116,0.));
#1451=CARTESIAN_POINT('',(1.7,18.8000002980232,0.));
#1452=CARTESIAN_POINT('Origin',(1.7,19.6000002980232,0.));
#1453=CARTESIAN_POINT('',(1.,18.8000002980232,0.));
#1454=CARTESIAN_POINT('',(1.11022302462516E-15,18.8000002980232,0.));
#1455=CARTESIAN_POINT('',(0.200000000000003,19.6000002980232,0.));
#1456=CARTESIAN_POINT('Origin',(1.,19.6000002980232,0.));
#1457=CARTESIAN_POINT('',(0.200000000000002,20.5171575855486,0.));
#1458=CARTESIAN_POINT('',(0.200000000000002,18.5500001490116,0.));
#1459=CARTESIAN_POINT('',(1.08284271247463,21.4000002980232,0.));
#1460=CARTESIAN_POINT('',(0.116421281731504,20.4335788672801,0.));
#1461=CARTESIAN_POINT('',(11.0171572875254,21.4000002980232,0.));
#1462=CARTESIAN_POINT('',(1.11022302462516E-15,21.4000002980232,0.));
#1463=CARTESIAN_POINT('',(11.9,20.5171575855486,0.));
#1464=CARTESIAN_POINT('',(8.9585787182685,23.4585788672801,0.));
#1465=CARTESIAN_POINT('',(11.9,-21.0171575855486,0.));
#1466=CARTESIAN_POINT('',(11.9,30.75,0.));
#1467=CARTESIAN_POINT('',(11.0171572875254,-21.9000002980232,0.));
#1468=CARTESIAN_POINT('',(8.9585787182685,-23.9585788672801,0.));
#1469=CARTESIAN_POINT('',(1.08284271247463,-21.9000002980232,0.));
#1470=CARTESIAN_POINT('',(1.11022302462516E-15,-21.9000002980232,0.));
#1471=CARTESIAN_POINT('',(0.200000000000002,-21.0171575855486,0.));
#1472=CARTESIAN_POINT('',(0.116421281731504,-20.9335788672801,0.));
#1473=CARTESIAN_POINT('',(0.200000000000003,-20.1000002980232,0.));
#1474=CARTESIAN_POINT('',(0.200000000000002,-19.0500001490116,0.));
#1475=CARTESIAN_POINT('',(1.,-19.3000002980232,0.));
#1476=CARTESIAN_POINT('Origin',(1.,-20.1000002980232,0.));
#1477=CARTESIAN_POINT('',(1.7,-19.3000002980232,0.));
#1478=CARTESIAN_POINT('',(1.11022302462516E-15,-19.3000002980232,0.));
#1479=CARTESIAN_POINT('',(2.5,-20.1000002980232,0.));
#1480=CARTESIAN_POINT('Origin',(1.7,-20.1000002980232,0.));
#1481=CARTESIAN_POINT('',(2.5,-20.5000002980232,0.));
#1482=CARTESIAN_POINT('',(2.5,-20.0500001490116,0.));
#1483=CARTESIAN_POINT('',(5.05,-20.5000002980232,0.));
#1484=CARTESIAN_POINT('Origin',(1.11022302462516E-15,18.7000002980232,0.1));
#1485=CARTESIAN_POINT('',(1.,18.6000002980232,0.2));
#1486=CARTESIAN_POINT('',(1.,18.8000002980232,0.));
#1487=CARTESIAN_POINT('',(1.7,18.6000002980232,0.2));
#1488=CARTESIAN_POINT('',(1.7,18.6000002980232,0.2));
#1489=CARTESIAN_POINT('',(1.11022302462516E-15,18.6000002980232,0.2));
#1490=CARTESIAN_POINT('Origin',(1.,19.6000002980232,0.1));
#1491=CARTESIAN_POINT('',(1.94289029309402E-15,19.6000002980232,0.2));
#1492=CARTESIAN_POINT('',(0.200000000000003,19.6000002980232,0.));
#1493=CARTESIAN_POINT('Origin',(1.,19.6000002980232,0.2));
#1494=CARTESIAN_POINT('Origin',(1.7,19.6000002980232,0.1));
#1495=CARTESIAN_POINT('',(2.7,19.6000002980232,0.2));
#1496=CARTESIAN_POINT('',(2.7,19.6000002980232,0.2));
#1497=CARTESIAN_POINT('Origin',(1.7,19.6000002980232,0.2));
#1498=CARTESIAN_POINT('Origin',(2.6,19.5500001490116,0.1));
#1499=CARTESIAN_POINT('',(2.7,19.8000002980232,0.2));
#1500=CARTESIAN_POINT('',(3.06666669150194,19.4333336065213,0.566666691501936));
#1501=CARTESIAN_POINT('',(2.7,19.5500001490116,0.2));
#1502=CARTESIAN_POINT('Origin',(0.100000000000002,18.5500001490116,0.1));
#1503=CARTESIAN_POINT('',(1.94289029309402E-15,20.6000002980232,0.2));
#1504=CARTESIAN_POINT('',(0.284239404090467,20.4822644818881,-0.0842394040904648));
#1505=CARTESIAN_POINT('',(1.76941794549634E-15,18.5500001490116,0.2));
#1506=CARTESIAN_POINT('Origin',(2.22044604925031E-15,18.6000002980232,7.5));
#1507=CARTESIAN_POINT('',(1.7,18.6000002980232,7.3));
#1508=CARTESIAN_POINT('',(1.7,18.6000002980232,3.75));
#1509=CARTESIAN_POINT('',(1.,18.6000002980232,7.3));
#1510=CARTESIAN_POINT('',(1.11022302462516E-15,18.6000002980232,7.3));
#1511=CARTESIAN_POINT('',(1.,18.6000002980232,3.75));
#1512=CARTESIAN_POINT('Origin',(1.,19.6000002980232,3.75));
#1513=CARTESIAN_POINT('',(1.94289029309402E-15,19.6000002980232,7.3));
#1514=CARTESIAN_POINT('Origin',(1.,19.6000002980232,7.3));
#1515=CARTESIAN_POINT('',(1.94289029309402E-15,19.6000002980232,3.75));
#1516=CARTESIAN_POINT('Origin',(1.74002225679654E-15,17.6000002980232,0.));
#1517=CARTESIAN_POINT('',(1.94289029309402E-15,20.6000002980232,7.3));
#1518=CARTESIAN_POINT('',(1.76941794549634E-15,18.5500001490116,7.3));
#1519=CARTESIAN_POINT('',(1.94289029309402E-15,20.6000002980232,0.));
#1520=CARTESIAN_POINT('Origin',(0.0457106036128491,20.5042895453988,0.1));
#1521=CARTESIAN_POINT('',(1.,21.6000002980232,0.2));
#1522=CARTESIAN_POINT('',(-0.025000074505806,20.5750002235174,0.2));
#1523=CARTESIAN_POINT('',(1.05590861693796,21.4650249567581,0.0650246587348848));
#1524=CARTESIAN_POINT('Origin',(1.11022302462516E-15,18.7000002980232,7.4));
#1525=CARTESIAN_POINT('',(1.7,18.8000002980232,7.5));
#1526=CARTESIAN_POINT('',(1.,18.6000002980232,7.3));
#1527=CARTESIAN_POINT('Origin',(1.7,19.6000002980232,7.4));
#1528=CARTESIAN_POINT('',(2.7,19.6000002980232,7.3));
#1529=CARTESIAN_POINT('',(2.5,19.6000002980232,7.5));
#1530=CARTESIAN_POINT('Origin',(1.7,19.6000002980232,7.3));
#1531=CARTESIAN_POINT('Origin',(1.,19.6000002980232,7.4));
#1532=CARTESIAN_POINT('',(1.94289029309402E-15,19.6000002980232,7.3));
#1533=CARTESIAN_POINT('Origin',(0.100000000000002,18.5500001490116,7.4));
#1534=CARTESIAN_POINT('',(0.284239404090467,20.4822644818881,7.58423940409047));
#1535=CARTESIAN_POINT('Origin',(2.6,19.5500001490116,7.4));
#1536=CARTESIAN_POINT('',(2.7,19.8000002980232,7.3));
#1537=CARTESIAN_POINT('',(3.06666669150194,19.4333336065213,6.93333330849806));
#1538=CARTESIAN_POINT('',(2.7,19.5500001490116,7.3));
#1539=CARTESIAN_POINT('Origin',(1.7,19.6000002980232,3.75));
#1540=CARTESIAN_POINT('',(2.7,19.6000002980232,3.75));
#1541=CARTESIAN_POINT('Origin',(2.7,19.6000002980232,0.));
#1542=CARTESIAN_POINT('',(2.7,19.8000002980232,0.));
#1543=CARTESIAN_POINT('Origin',(0.0457106036128492,20.5042895453988,7.4));
#1544=CARTESIAN_POINT('',(1.,21.6000002980232,7.3));
#1545=CARTESIAN_POINT('',(1.05590861693796,21.4650249567581,7.43497534126511));
#1546=CARTESIAN_POINT('',(-0.0250000745058059,20.5750002235174,7.3));
#1547=CARTESIAN_POINT('Origin',(0.500000000000001,21.1000002980232,0.));
#1548=CARTESIAN_POINT('',(1.,21.6000002980232,0.));
#1549=CARTESIAN_POINT('Origin',(10.1,19.8000002980232,0.));
#1550=CARTESIAN_POINT('',(10.1,19.8000002980232,0.2));
#1551=CARTESIAN_POINT('',(5.05,19.8000002980232,0.2));
#1552=CARTESIAN_POINT('',(10.1,19.8000002980232,7.3));
#1553=CARTESIAN_POINT('',(10.1,19.8000002980232,1.875));
#1554=CARTESIAN_POINT('',(5.05,19.8000002980232,7.3));
#1555=CARTESIAN_POINT('Origin',(1.11022302462516E-15,-19.2000002980232,
0.1));
#1556=CARTESIAN_POINT('',(1.,-19.1000002980232,0.2));
#1557=CARTESIAN_POINT('',(1.,-19.3000002980232,0.));
#1558=CARTESIAN_POINT('',(1.7,-19.1000002980232,0.2));
#1559=CARTESIAN_POINT('',(1.11022302462516E-15,-19.1000002980232,0.2));
#1560=CARTESIAN_POINT('',(1.7,-19.1000002980232,0.2));
#1561=CARTESIAN_POINT('Origin',(1.,-20.1000002980232,0.1));
#1562=CARTESIAN_POINT('',(1.94289029309402E-15,-20.1000002980232,0.2));
#1563=CARTESIAN_POINT('',(0.200000000000003,-20.1000002980232,0.));
#1564=CARTESIAN_POINT('Origin',(1.,-20.1000002980232,0.2));
#1565=CARTESIAN_POINT('Origin',(1.7,-20.1000002980232,0.1));
#1566=CARTESIAN_POINT('',(2.7,-20.1000002980232,0.2));
#1567=CARTESIAN_POINT('Origin',(1.7,-20.1000002980232,0.2));
#1568=CARTESIAN_POINT('',(2.7,-20.1000002980232,0.2));
#1569=CARTESIAN_POINT('Origin',(2.6,-20.0500001490116,0.1));
#1570=CARTESIAN_POINT('',(2.7,-20.3000002980232,0.2));
#1571=CARTESIAN_POINT('',(3.06666669150194,-19.9333336065213,0.566666691501936));
#1572=CARTESIAN_POINT('',(2.7,-20.0500001490116,0.2));
#1573=CARTESIAN_POINT('Origin',(0.100000000000002,-19.0500001490116,0.1));
#1574=CARTESIAN_POINT('',(1.94289029309402E-15,-21.1000002980232,0.2));
#1575=CARTESIAN_POINT('',(0.284239404090467,-20.9822644818881,-0.0842394040904648));
#1576=CARTESIAN_POINT('',(1.76941794549634E-15,-19.0500001490116,0.2));
#1577=CARTESIAN_POINT('Origin',(2.22044604925031E-15,-19.1000002980232,
7.5));
#1578=CARTESIAN_POINT('',(1.,-19.1000002980232,7.3));
#1579=CARTESIAN_POINT('',(1.,-19.1000002980232,3.75));
#1580=CARTESIAN_POINT('',(1.7,-19.1000002980232,7.3));
#1581=CARTESIAN_POINT('',(1.11022302462516E-15,-19.1000002980232,7.3));
#1582=CARTESIAN_POINT('',(1.7,-19.1000002980232,3.75));
#1583=CARTESIAN_POINT('Origin',(1.,-20.1000002980232,3.75));
#1584=CARTESIAN_POINT('',(1.94289029309402E-15,-20.1000002980232,7.3));
#1585=CARTESIAN_POINT('',(1.94289029309402E-15,-20.1000002980232,3.75));
#1586=CARTESIAN_POINT('Origin',(1.,-20.1000002980232,7.3));
#1587=CARTESIAN_POINT('Origin',(1.74002225679654E-15,-18.1000002980232,
0.));
#1588=CARTESIAN_POINT('',(1.94289029309402E-15,-21.1000002980232,7.3));
#1589=CARTESIAN_POINT('',(1.94289029309402E-15,-21.1000002980232,0.));
#1590=CARTESIAN_POINT('',(1.76941794549634E-15,-19.0500001490116,7.3));
#1591=CARTESIAN_POINT('Origin',(0.0457106036128491,-21.0042895453988,0.1));
#1592=CARTESIAN_POINT('',(1.,-22.1000002980232,0.2));
#1593=CARTESIAN_POINT('',(1.05590861693796,-21.9650249567581,0.0650246587348848));
#1594=CARTESIAN_POINT('',(-0.025000074505806,-21.0750002235174,0.2));
#1595=CARTESIAN_POINT('Origin',(1.11022302462516E-15,-19.2000002980232,
7.4));
#1596=CARTESIAN_POINT('',(1.7,-19.3000002980232,7.5));
#1597=CARTESIAN_POINT('',(1.,-19.1000002980232,7.3));
#1598=CARTESIAN_POINT('Origin',(1.7,-20.1000002980232,7.4));
#1599=CARTESIAN_POINT('',(2.7,-20.1000002980232,7.3));
#1600=CARTESIAN_POINT('',(2.5,-20.1000002980232,7.5));
#1601=CARTESIAN_POINT('Origin',(1.7,-20.1000002980232,7.3));
#1602=CARTESIAN_POINT('Origin',(1.,-20.1000002980232,7.4));
#1603=CARTESIAN_POINT('',(1.94289029309402E-15,-20.1000002980232,7.3));
#1604=CARTESIAN_POINT('Origin',(0.100000000000002,-19.0500001490116,7.4));
#1605=CARTESIAN_POINT('',(0.284239404090467,-20.9822644818881,7.58423940409047));
#1606=CARTESIAN_POINT('Origin',(2.6,-20.0500001490116,7.4));
#1607=CARTESIAN_POINT('',(2.7,-20.3000002980232,7.3));
#1608=CARTESIAN_POINT('',(3.06666669150194,-19.9333336065213,6.93333330849806));
#1609=CARTESIAN_POINT('',(2.7,-20.0500001490116,7.3));
#1610=CARTESIAN_POINT('Origin',(1.7,-20.1000002980232,3.75));
#1611=CARTESIAN_POINT('',(2.7,-20.1000002980232,3.75));
#1612=CARTESIAN_POINT('Origin',(2.7,-20.1000002980232,0.));
#1613=CARTESIAN_POINT('',(2.7,-20.3000002980232,0.));
#1614=CARTESIAN_POINT('Origin',(0.0457106036128492,-21.0042895453988,7.4));
#1615=CARTESIAN_POINT('',(1.,-22.1000002980232,7.3));
#1616=CARTESIAN_POINT('',(-0.0250000745058059,-21.0750002235174,7.3));
#1617=CARTESIAN_POINT('',(1.05590861693796,-21.9650249567581,7.43497534126511));
#1618=CARTESIAN_POINT('Origin',(0.500000000000001,-21.6000002980232,0.));
#1619=CARTESIAN_POINT('',(1.,-22.1000002980232,0.));
#1620=CARTESIAN_POINT('Origin',(10.1,-20.3000002980232,0.));
#1621=CARTESIAN_POINT('',(10.1,-20.3000002980232,0.2));
#1622=CARTESIAN_POINT('',(5.05,-20.3000002980232,0.2));
#1623=CARTESIAN_POINT('',(10.1,-20.3000002980232,7.3));
#1624=CARTESIAN_POINT('',(5.05,-20.3000002980232,7.3));
#1625=CARTESIAN_POINT('',(10.1,-20.3000002980232,1.875));
#1626=CARTESIAN_POINT('Origin',(12.,30.75,0.1));
#1627=CARTESIAN_POINT('',(12.1,-21.1000002980232,0.2));
#1628=CARTESIAN_POINT('',(12.1,20.6000002980232,0.2));
#1629=CARTESIAN_POINT('',(12.1,30.75,0.2));
#1630=CARTESIAN_POINT('',(11.9,-21.0171575855486,0.));
#1631=CARTESIAN_POINT('',(11.9,20.5171575855486,0.));
#1632=CARTESIAN_POINT('Origin',(12.1,41.8,0.));
#1633=CARTESIAN_POINT('',(12.1,20.6000002980232,7.3));
#1634=CARTESIAN_POINT('',(12.1,-21.1000002980232,7.3));
#1635=CARTESIAN_POINT('',(12.1,1.80411241501588E-15,7.3));
#1636=CARTESIAN_POINT('',(12.1,-21.1000002980232,0.));
#1637=CARTESIAN_POINT('',(12.1,20.6000002980232,0.));
#1638=CARTESIAN_POINT('Origin',(11.6,21.1000002980232,0.));
#1639=CARTESIAN_POINT('',(11.1,21.6000002980232,0.2));
#1640=CARTESIAN_POINT('',(9.10000007450582,23.6000002235174,0.2));
#1641=CARTESIAN_POINT('',(11.1,21.6000002980232,7.3));
#1642=CARTESIAN_POINT('',(11.1,21.6000002980232,0.));
#1643=CARTESIAN_POINT('',(9.10000007450581,23.6000002235174,7.3));
#1644=CARTESIAN_POINT('Origin',(9.02928939638716,23.5292895453988,7.4));
#1645=CARTESIAN_POINT('',(10.7350886948887,20.7190264761603,8.18097382186292));
#1646=CARTESIAN_POINT('',(12.5522218838042,20.7873167354968,6.84777811619579));
#1647=CARTESIAN_POINT('Origin',(1.11022302462516E-15,21.5000002980232,7.4));
#1648=CARTESIAN_POINT('',(1.11022302462516E-15,21.6000002980232,7.3));
#1649=CARTESIAN_POINT('Origin',(10.2,-0.549999850988381,7.4));
#1650=CARTESIAN_POINT('',(10.3,20.0000002980232,7.5));
#1651=CARTESIAN_POINT('',(10.1,-0.549999850988381,7.3));
#1652=CARTESIAN_POINT('',(10.3,-20.5000002980232,7.5));
#1653=CARTESIAN_POINT('Origin',(5.05,19.9000002980232,7.4));
#1654=CARTESIAN_POINT('Origin',(2.22044604925031E-15,21.6000002980232,0.));
#1655=CARTESIAN_POINT('',(1.11022302462516E-15,21.6000002980232,0.2));
#1656=CARTESIAN_POINT('Origin',(9.02928939638716,23.5292895453988,0.1));
#1657=CARTESIAN_POINT('',(11.0171572875254,21.4000002980232,0.));
#1658=CARTESIAN_POINT('Origin',(12.,30.75,7.4));
#1659=CARTESIAN_POINT('',(12.5522218838042,-21.2873167354968,6.84777811619579));
#1660=CARTESIAN_POINT('Origin',(11.6,-21.6000002980232,0.));
#1661=CARTESIAN_POINT('',(11.1,-22.1000002980232,0.2));
#1662=CARTESIAN_POINT('',(9.10000007450582,-24.1000002235174,0.2));
#1663=CARTESIAN_POINT('',(11.1,-22.1000002980232,7.3));
#1664=CARTESIAN_POINT('',(9.10000007450581,-24.1000002235174,7.3));
#1665=CARTESIAN_POINT('',(11.1,-22.1000002980232,0.));
#1666=CARTESIAN_POINT('Origin',(9.02928939638716,-24.0292895453988,7.4));
#1667=CARTESIAN_POINT('',(10.7350886948887,-21.2190264761603,8.18097382186292));
#1668=CARTESIAN_POINT('Origin',(1.11022302462516E-15,-22.0000002980232,
7.4));
#1669=CARTESIAN_POINT('',(1.11022302462516E-15,-22.1000002980232,7.3));
#1670=CARTESIAN_POINT('Origin',(5.05,-20.4000002980232,7.4));
#1671=CARTESIAN_POINT('Origin',(9.02928939638716,-24.0292895453988,0.1));
#1672=CARTESIAN_POINT('',(11.0171572875254,-21.9000002980232,0.));
#1673=CARTESIAN_POINT('Origin',(10.2,0.0499998509883848,0.1));
#1674=CARTESIAN_POINT('',(10.3,-20.5000002980232,0.));
#1675=CARTESIAN_POINT('',(10.1,3.425,0.200000000000003));
#1676=CARTESIAN_POINT('',(10.3,20.0000002980232,0.));
#1677=CARTESIAN_POINT('Origin',(1.11022302462516E-15,21.5000002980232,0.1));
#1678=CARTESIAN_POINT('Origin',(5.05,19.9000002980232,0.1));
#1679=CARTESIAN_POINT('Origin',(5.05,-20.4000002980232,0.1));
#1680=CARTESIAN_POINT('Origin',(1.11022302462516E-15,-22.0000002980232,
0.1));
#1681=CARTESIAN_POINT('',(1.11022302462516E-15,-22.1000002980232,0.2));
#1682=CARTESIAN_POINT('Origin',(2.22044604925031E-15,-22.1000002980232,
0.));
#1683=CARTESIAN_POINT('Origin',(10.1,-0.249999999999999,3.75));
#1684=UNCERTAINTY_MEASURE_WITH_UNIT(LENGTH_MEASURE(0.01),#1688,
'DISTANCE_ACCURACY_VALUE',
'Maximum model space distance between geometric entities at asserted c
onnectivities');
#1685=UNCERTAINTY_MEASURE_WITH_UNIT(LENGTH_MEASURE(0.01),#1688,
'DISTANCE_ACCURACY_VALUE',
'Maximum model space distance between geometric entities at asserted c
onnectivities');
#1686=(
GEOMETRIC_REPRESENTATION_CONTEXT(3)
GLOBAL_UNCERTAINTY_ASSIGNED_CONTEXT((#1684))
GLOBAL_UNIT_ASSIGNED_CONTEXT((#1688,#1690,#1691))
REPRESENTATION_CONTEXT('','3D')
);
#1687=(
GEOMETRIC_REPRESENTATION_CONTEXT(3)
GLOBAL_UNCERTAINTY_ASSIGNED_CONTEXT((#1685))
GLOBAL_UNIT_ASSIGNED_CONTEXT((#1688,#1690,#1691))
REPRESENTATION_CONTEXT('','3D')
);
#1688=(
LENGTH_UNIT()
NAMED_UNIT(*)
SI_UNIT(.MILLI.,.METRE.)
);
#1689=(
LENGTH_UNIT()
NAMED_UNIT(*)
SI_UNIT($,.METRE.)
);
#1690=(
NAMED_UNIT(*)
PLANE_ANGLE_UNIT()
SI_UNIT($,.RADIAN.)
);
#1691=(
NAMED_UNIT(*)
SI_UNIT($,.STERADIAN.)
SOLID_ANGLE_UNIT()
);
#1692=SHAPE_DEFINITION_REPRESENTATION(#1693,#1694);
#1693=PRODUCT_DEFINITION_SHAPE('',$,#1696);
#1694=SHAPE_REPRESENTATION('',(#1040),#1686);
#1695=PRODUCT_DEFINITION_CONTEXT('part definition',#1700,'design');
#1696=PRODUCT_DEFINITION('3D-A6 - 2040 USB Cable Clip','3D-A6 v1',#1697,
#1695);
#1697=PRODUCT_DEFINITION_FORMATION('',$,#1702);
#1698=PRODUCT_RELATED_PRODUCT_CATEGORY('3D-A6 v1','3D-A6 v1',(#1702));
#1699=APPLICATION_PROTOCOL_DEFINITION('international standard',
'automotive_design',2009,#1700);
#1700=APPLICATION_CONTEXT(
'Core Data for Automotive Mechanical Design Process');
#1701=PRODUCT_CONTEXT('part definition',#1700,'mechanical');
#1702=PRODUCT('3D-A6 - 2040 USB Cable Clip','3D-A6 v1',$,(#1701));
#1703=PRESENTATION_STYLE_ASSIGNMENT((#1705));
#1704=PRESENTATION_STYLE_ASSIGNMENT((#1706));
#1705=SURFACE_STYLE_USAGE(.BOTH.,#1707);
#1706=SURFACE_STYLE_USAGE(.BOTH.,#1708);
#1707=SURFACE_SIDE_STYLE('',(#1709));
#1708=SURFACE_SIDE_STYLE('',(#1710));
#1709=SURFACE_STYLE_FILL_AREA(#1711);
#1710=SURFACE_STYLE_FILL_AREA(#1712);
#1711=FILL_AREA_STYLE('Satin',(#1713));
#1712=FILL_AREA_STYLE('Opaque(25,25,25)',(#1714));
#1713=FILL_AREA_STYLE_COLOUR('Satin',#1715);
#1714=FILL_AREA_STYLE_COLOUR('Opaque(25,25,25)',#1716);
#1715=COLOUR_RGB('Satin',0.,0.,0.);
#1716=COLOUR_RGB('Opaque(25,25,25)',0.0980392156862745,0.0980392156862745,
0.0980392156862745);
ENDSEC;
END-ISO-10303-21;
