ISO-10303-21;
HEADER;
/* Generated by software containing ST-Developer
 * from STEP Tools, Inc. (www.steptools.com) 
 */

FILE_DESCRIPTION(
/* description */ (''),
/* implementation_level */ '2;1');

FILE_NAME(
/* name */ '3D-AM03.step',
/* time_stamp */ '2025-04-09T13:46:28-05:00',
/* author */ (''),
/* organization */ (''),
/* preprocessor_version */ 'ST-DEVELOPER v20.1',
/* originating_system */ 'Autodesk Translation Framework v14.4.0.0',
/* authorisation */ '');

FILE_SCHEMA (('AUTOMOTIVE_DESIGN { 1 0 10303 214 3 1 1 }'));
ENDSEC;

DATA;
#10=MECHANICAL_DESIGN_GEOMETRIC_PRESENTATION_REPRESENTATION('',(#13),#1775);
#11=SHAPE_REPRESENTATION_RELATIONSHIP('SRR','None',#1782,#12);
#12=ADVANCED_BREP_SHAPE_REPRESENTATION('',(#14),#1774);
#13=STYLED_ITEM('',(#1792),#14);
#14=MANIFOLD_SOLID_BREP('Body1',#1035);
#15=B_SPLINE_CURVE_WITH_KNOTS('',3,(#1653,#1654,#1655,#1656,#1657,#1658,
#1659,#1660,#1661,#1662),.UNSPECIFIED.,.F.,.F.,(4,2,2,2,4),(3.42217653387808E-15,
0.0622453579948931,0.124490715989783,0.248981431979562,0.308998114394207),
 .UNSPECIFIED.);
#16=B_SPLINE_CURVE_WITH_KNOTS('',3,(#1667,#1668,#1669,#1670,#1671,#1672,
#1673,#1674,#1675,#1676),.UNSPECIFIED.,.F.,.F.,(4,2,2,2,4),(-0.308998114394202,
-0.24898143197956,-0.12449071598978,-0.0622453579948911,-1.27675647831893E-15),
 .UNSPECIFIED.);
#17=TOROIDAL_SURFACE('',#1104,4.554,2.);
#18=TOROIDAL_SURFACE('',#1109,4.554,2.);
#19=TOROIDAL_SURFACE('',#1113,4.554,2.);
#20=TOROIDAL_SURFACE('',#1117,4.554,2.);
#21=FACE_BOUND('',#171,.T.);
#22=FACE_BOUND('',#172,.T.);
#23=FACE_BOUND('',#181,.T.);
#24=FACE_BOUND('',#182,.T.);
#25=FACE_BOUND('',#215,.T.);
#26=FACE_BOUND('',#216,.T.);
#27=FACE_BOUND('',#217,.T.);
#28=FACE_BOUND('',#218,.T.);
#29=FACE_BOUND('',#223,.T.);
#30=FACE_BOUND('',#224,.T.);
#31=FACE_BOUND('',#225,.T.);
#32=FACE_BOUND('',#226,.T.);
#33=CYLINDRICAL_SURFACE('',#1061,1.70000035086641);
#34=CYLINDRICAL_SURFACE('',#1066,1.70000035086642);
#35=CYLINDRICAL_SURFACE('',#1071,8.55399928039252);
#36=CYLINDRICAL_SURFACE('',#1075,8.55400166646644);
#37=CYLINDRICAL_SURFACE('',#1083,8.55399999999999);
#38=CYLINDRICAL_SURFACE('',#1084,6.554);
#39=CYLINDRICAL_SURFACE('',#1087,6.554);
#40=CYLINDRICAL_SURFACE('',#1099,6.554);
#41=CYLINDRICAL_SURFACE('',#1102,6.554);
#42=CYLINDRICAL_SURFACE('',#1107,2.);
#43=CYLINDRICAL_SURFACE('',#1111,2.);
#44=CYLINDRICAL_SURFACE('',#1115,2.);
#45=CYLINDRICAL_SURFACE('',#1119,2.);
#46=CYLINDRICAL_SURFACE('',#1122,2.50000000000001);
#47=CYLINDRICAL_SURFACE('',#1124,2.49999999999999);
#48=CYLINDRICAL_SURFACE('',#1127,1.7);
#49=CYLINDRICAL_SURFACE('',#1128,1.7);
#50=CYLINDRICAL_SURFACE('',#1130,8.554);
#51=CYLINDRICAL_SURFACE('',#1131,2.05);
#52=CYLINDRICAL_SURFACE('',#1134,2.05);
#53=CYLINDRICAL_SURFACE('',#1137,2.05);
#54=CYLINDRICAL_SURFACE('',#1140,2.05);
#55=CIRCLE('',#1052,6.554);
#56=CIRCLE('',#1053,6.554);
#57=CIRCLE('',#1054,6.554);
#58=CIRCLE('',#1055,6.554);
#59=CIRCLE('',#1056,8.554);
#60=CIRCLE('',#1057,8.55399999999999);
#61=CIRCLE('',#1062,1.70000018817631);
#62=CIRCLE('',#1063,1.70000018817631);
#63=CIRCLE('',#1064,1.70000018817631);
#64=CIRCLE('',#1065,1.70000018817631);
#65=CIRCLE('',#1067,1.70000018817631);
#66=CIRCLE('',#1068,1.70000018817631);
#67=CIRCLE('',#1069,1.70000018817631);
#68=CIRCLE('',#1070,1.70000018817631);
#69=CIRCLE('',#1072,8.55400094685893);
#70=CIRCLE('',#1073,8.55400094685893);
#71=CIRCLE('',#1076,8.55400094685892);
#72=CIRCLE('',#1077,8.55400094685892);
#73=CIRCLE('',#1080,2.50000000000001);
#74=CIRCLE('',#1081,2.49999999999999);
#75=CIRCLE('',#1085,6.554);
#76=CIRCLE('',#1088,6.554);
#77=CIRCLE('',#1090,2.50000000000001);
#78=CIRCLE('',#1092,4.554);
#79=CIRCLE('',#1093,4.554);
#80=CIRCLE('',#1094,4.554);
#81=CIRCLE('',#1095,4.554);
#82=CIRCLE('',#1096,1.7);
#83=CIRCLE('',#1097,1.7);
#84=CIRCLE('',#1100,6.554);
#85=CIRCLE('',#1103,6.554);
#86=CIRCLE('',#1105,2.);
#87=CIRCLE('',#1106,2.);
#88=CIRCLE('',#1108,2.);
#89=CIRCLE('',#1110,2.);
#90=CIRCLE('',#1112,2.);
#91=CIRCLE('',#1114,1.99999999999999);
#92=CIRCLE('',#1116,2.);
#93=CIRCLE('',#1118,2.);
#94=CIRCLE('',#1121,2.49999999999999);
#95=CIRCLE('',#1132,2.05);
#96=CIRCLE('',#1133,2.05);
#97=CIRCLE('',#1135,2.05);
#98=CIRCLE('',#1136,2.05);
#99=CIRCLE('',#1138,2.05);
#100=CIRCLE('',#1139,2.05);
#101=CIRCLE('',#1141,2.05);
#102=CIRCLE('',#1142,2.05);
#103=FACE_OUTER_BOUND('',#159,.T.);
#104=FACE_OUTER_BOUND('',#160,.T.);
#105=FACE_OUTER_BOUND('',#161,.T.);
#106=FACE_OUTER_BOUND('',#162,.T.);
#107=FACE_OUTER_BOUND('',#163,.T.);
#108=FACE_OUTER_BOUND('',#164,.T.);
#109=FACE_OUTER_BOUND('',#165,.T.);
#110=FACE_OUTER_BOUND('',#166,.T.);
#111=FACE_OUTER_BOUND('',#167,.T.);
#112=FACE_OUTER_BOUND('',#168,.T.);
#113=FACE_OUTER_BOUND('',#169,.T.);
#114=FACE_OUTER_BOUND('',#170,.T.);
#115=FACE_OUTER_BOUND('',#173,.T.);
#116=FACE_OUTER_BOUND('',#174,.T.);
#117=FACE_OUTER_BOUND('',#175,.T.);
#118=FACE_OUTER_BOUND('',#176,.T.);
#119=FACE_OUTER_BOUND('',#177,.T.);
#120=FACE_OUTER_BOUND('',#178,.T.);
#121=FACE_OUTER_BOUND('',#179,.T.);
#122=FACE_OUTER_BOUND('',#180,.T.);
#123=FACE_OUTER_BOUND('',#183,.T.);
#124=FACE_OUTER_BOUND('',#184,.T.);
#125=FACE_OUTER_BOUND('',#185,.T.);
#126=FACE_OUTER_BOUND('',#186,.T.);
#127=FACE_OUTER_BOUND('',#187,.T.);
#128=FACE_OUTER_BOUND('',#188,.T.);
#129=FACE_OUTER_BOUND('',#189,.T.);
#130=FACE_OUTER_BOUND('',#190,.T.);
#131=FACE_OUTER_BOUND('',#191,.T.);
#132=FACE_OUTER_BOUND('',#192,.T.);
#133=FACE_OUTER_BOUND('',#193,.T.);
#134=FACE_OUTER_BOUND('',#194,.T.);
#135=FACE_OUTER_BOUND('',#195,.T.);
#136=FACE_OUTER_BOUND('',#196,.T.);
#137=FACE_OUTER_BOUND('',#197,.T.);
#138=FACE_OUTER_BOUND('',#198,.T.);
#139=FACE_OUTER_BOUND('',#199,.T.);
#140=FACE_OUTER_BOUND('',#200,.T.);
#141=FACE_OUTER_BOUND('',#201,.T.);
#142=FACE_OUTER_BOUND('',#202,.T.);
#143=FACE_OUTER_BOUND('',#203,.T.);
#144=FACE_OUTER_BOUND('',#204,.T.);
#145=FACE_OUTER_BOUND('',#205,.T.);
#146=FACE_OUTER_BOUND('',#206,.T.);
#147=FACE_OUTER_BOUND('',#207,.T.);
#148=FACE_OUTER_BOUND('',#208,.T.);
#149=FACE_OUTER_BOUND('',#209,.T.);
#150=FACE_OUTER_BOUND('',#210,.T.);
#151=FACE_OUTER_BOUND('',#211,.T.);
#152=FACE_OUTER_BOUND('',#212,.T.);
#153=FACE_OUTER_BOUND('',#213,.T.);
#154=FACE_OUTER_BOUND('',#214,.T.);
#155=FACE_OUTER_BOUND('',#219,.T.);
#156=FACE_OUTER_BOUND('',#220,.T.);
#157=FACE_OUTER_BOUND('',#221,.T.);
#158=FACE_OUTER_BOUND('',#222,.T.);
#159=EDGE_LOOP('',(#657,#658,#659,#660));
#160=EDGE_LOOP('',(#661,#662,#663,#664));
#161=EDGE_LOOP('',(#665,#666,#667,#668,#669,#670,#671,#672,#673,#674,#675,
#676,#677,#678,#679,#680,#681,#682,#683,#684));
#162=EDGE_LOOP('',(#685,#686,#687,#688));
#163=EDGE_LOOP('',(#689,#690,#691,#692));
#164=EDGE_LOOP('',(#693,#694,#695,#696));
#165=EDGE_LOOP('',(#697,#698,#699,#700,#701,#702));
#166=EDGE_LOOP('',(#703,#704,#705,#706,#707,#708));
#167=EDGE_LOOP('',(#709,#710,#711,#712));
#168=EDGE_LOOP('',(#713,#714,#715,#716));
#169=EDGE_LOOP('',(#717,#718,#719,#720));
#170=EDGE_LOOP('',(#721,#722,#723,#724,#725,#726,#727,#728));
#171=EDGE_LOOP('',(#729));
#172=EDGE_LOOP('',(#730));
#173=EDGE_LOOP('',(#731,#732,#733,#734,#735,#736,#737,#738,#739,#740,#741,
#742));
#174=EDGE_LOOP('',(#743,#744,#745,#746,#747,#748));
#175=EDGE_LOOP('',(#749,#750,#751,#752));
#176=EDGE_LOOP('',(#753,#754,#755,#756));
#177=EDGE_LOOP('',(#757,#758,#759,#760));
#178=EDGE_LOOP('',(#761,#762,#763,#764));
#179=EDGE_LOOP('',(#765,#766,#767,#768,#769));
#180=EDGE_LOOP('',(#770,#771,#772,#773,#774,#775,#776,#777));
#181=EDGE_LOOP('',(#778));
#182=EDGE_LOOP('',(#779));
#183=EDGE_LOOP('',(#780,#781,#782,#783));
#184=EDGE_LOOP('',(#784,#785,#786,#787));
#185=EDGE_LOOP('',(#788,#789,#790,#791));
#186=EDGE_LOOP('',(#792,#793,#794,#795));
#187=EDGE_LOOP('',(#796,#797,#798,#799));
#188=EDGE_LOOP('',(#800,#801,#802,#803));
#189=EDGE_LOOP('',(#804,#805,#806,#807));
#190=EDGE_LOOP('',(#808,#809,#810,#811,#812,#813,#814,#815));
#191=EDGE_LOOP('',(#816,#817,#818,#819));
#192=EDGE_LOOP('',(#820,#821,#822,#823));
#193=EDGE_LOOP('',(#824,#825,#826,#827));
#194=EDGE_LOOP('',(#828,#829,#830,#831));
#195=EDGE_LOOP('',(#832,#833,#834,#835,#836));
#196=EDGE_LOOP('',(#837,#838,#839,#840,#841));
#197=EDGE_LOOP('',(#842,#843,#844,#845));
#198=EDGE_LOOP('',(#846,#847,#848,#849,#850));
#199=EDGE_LOOP('',(#851,#852,#853,#854));
#200=EDGE_LOOP('',(#855,#856,#857,#858));
#201=EDGE_LOOP('',(#859,#860,#861,#862,#863,#864));
#202=EDGE_LOOP('',(#865,#866,#867,#868,#869,#870));
#203=EDGE_LOOP('',(#871,#872,#873,#874));
#204=EDGE_LOOP('',(#875,#876,#877,#878));
#205=EDGE_LOOP('',(#879,#880,#881,#882));
#206=EDGE_LOOP('',(#883,#884,#885,#886));
#207=EDGE_LOOP('',(#887,#888,#889,#890));
#208=EDGE_LOOP('',(#891,#892,#893,#894));
#209=EDGE_LOOP('',(#895,#896,#897,#898,#899,#900,#901,#902));
#210=EDGE_LOOP('',(#903,#904,#905,#906));
#211=EDGE_LOOP('',(#907,#908,#909));
#212=EDGE_LOOP('',(#910,#911,#912,#913,#914,#915));
#213=EDGE_LOOP('',(#916,#917,#918,#919,#920));
#214=EDGE_LOOP('',(#921,#922,#923,#924));
#215=EDGE_LOOP('',(#925));
#216=EDGE_LOOP('',(#926));
#217=EDGE_LOOP('',(#927));
#218=EDGE_LOOP('',(#928));
#219=EDGE_LOOP('',(#929,#930,#931,#932,#933));
#220=EDGE_LOOP('',(#934,#935,#936,#937));
#221=EDGE_LOOP('',(#938,#939,#940));
#222=EDGE_LOOP('',(#941,#942,#943,#944));
#223=EDGE_LOOP('',(#945));
#224=EDGE_LOOP('',(#946));
#225=EDGE_LOOP('',(#947));
#226=EDGE_LOOP('',(#948));
#227=LINE('',#1463,#323);
#228=LINE('',#1465,#324);
#229=LINE('',#1467,#325);
#230=LINE('',#1468,#326);
#231=LINE('',#1472,#327);
#232=LINE('',#1473,#328);
#233=LINE('',#1474,#329);
#234=LINE('',#1477,#330);
#235=LINE('',#1479,#331);
#236=LINE('',#1481,#332);
#237=LINE('',#1483,#333);
#238=LINE('',#1485,#334);
#239=LINE('',#1489,#335);
#240=LINE('',#1493,#336);
#241=LINE('',#1497,#337);
#242=LINE('',#1501,#338);
#243=LINE('',#1503,#339);
#244=LINE('',#1505,#340);
#245=LINE('',#1509,#341);
#246=LINE('',#1512,#342);
#247=LINE('',#1515,#343);
#248=LINE('',#1517,#344);
#249=LINE('',#1518,#345);
#250=LINE('',#1520,#346);
#251=LINE('',#1522,#347);
#252=LINE('',#1523,#348);
#253=LINE('',#1526,#349);
#254=LINE('',#1527,#350);
#255=LINE('',#1533,#351);
#256=LINE('',#1543,#352);
#257=LINE('',#1553,#353);
#258=LINE('',#1556,#354);
#259=LINE('',#1559,#355);
#260=LINE('',#1561,#356);
#261=LINE('',#1562,#357);
#262=LINE('',#1568,#358);
#263=LINE('',#1570,#359);
#264=LINE('',#1571,#360);
#265=LINE('',#1573,#361);
#266=LINE('',#1575,#362);
#267=LINE('',#1579,#363);
#268=LINE('',#1582,#364);
#269=LINE('',#1584,#365);
#270=LINE('',#1586,#366);
#271=LINE('',#1591,#367);
#272=LINE('',#1592,#368);
#273=LINE('',#1595,#369);
#274=LINE('',#1596,#370);
#275=LINE('',#1600,#371);
#276=LINE('',#1603,#372);
#277=LINE('',#1605,#373);
#278=LINE('',#1610,#374);
#279=LINE('',#1614,#375);
#280=LINE('',#1618,#376);
#281=LINE('',#1622,#377);
#282=LINE('',#1630,#378);
#283=LINE('',#1631,#379);
#284=LINE('',#1635,#380);
#285=LINE('',#1638,#381);
#286=LINE('',#1639,#382);
#287=LINE('',#1643,#383);
#288=LINE('',#1665,#384);
#289=LINE('',#1677,#385);
#290=LINE('',#1687,#386);
#291=LINE('',#1690,#387);
#292=LINE('',#1691,#388);
#293=LINE('',#1693,#389);
#294=LINE('',#1695,#390);
#295=LINE('',#1699,#391);
#296=LINE('',#1701,#392);
#297=LINE('',#1703,#393);
#298=LINE('',#1709,#394);
#299=LINE('',#1715,#395);
#300=LINE('',#1721,#396);
#301=LINE('',#1727,#397);
#302=LINE('',#1732,#398);
#303=LINE('',#1734,#399);
#304=LINE('',#1735,#400);
#305=LINE('',#1737,#401);
#306=LINE('',#1739,#402);
#307=LINE('',#1741,#403);
#308=LINE('',#1742,#404);
#309=LINE('',#1745,#405);
#310=LINE('',#1747,#406);
#311=LINE('',#1748,#407);
#312=LINE('',#1750,#408);
#313=LINE('',#1752,#409);
#314=LINE('',#1754,#410);
#315=LINE('',#1756,#411);
#316=LINE('',#1757,#412);
#317=LINE('',#1760,#413);
#318=LINE('',#1761,#414);
#319=LINE('',#1763,#415);
#320=LINE('',#1766,#416);
#321=LINE('',#1767,#417);
#322=LINE('',#1769,#418);
#323=VECTOR('',#1157,10.);
#324=VECTOR('',#1158,10.);
#325=VECTOR('',#1159,9.99999999999999);
#326=VECTOR('',#1160,10.);
#327=VECTOR('',#1163,10.);
#328=VECTOR('',#1164,10.);
#329=VECTOR('',#1165,10.);
#330=VECTOR('',#1168,10.);
#331=VECTOR('',#1169,10.);
#332=VECTOR('',#1170,10.);
#333=VECTOR('',#1171,10.);
#334=VECTOR('',#1172,10.);
#335=VECTOR('',#1175,10.);
#336=VECTOR('',#1178,10.);
#337=VECTOR('',#1181,10.);
#338=VECTOR('',#1184,10.);
#339=VECTOR('',#1185,10.);
#340=VECTOR('',#1186,10.);
#341=VECTOR('',#1189,10.);
#342=VECTOR('',#1192,10.);
#343=VECTOR('',#1195,10.);
#344=VECTOR('',#1196,10.);
#345=VECTOR('',#1197,10.);
#346=VECTOR('',#1200,10.);
#347=VECTOR('',#1201,10.);
#348=VECTOR('',#1202,10.);
#349=VECTOR('',#1205,10.);
#350=VECTOR('',#1206,10.);
#351=VECTOR('',#1211,1.70000035086641);
#352=VECTOR('',#1222,1.70000035086642);
#353=VECTOR('',#1233,10.);
#354=VECTOR('',#1236,10.);
#355=VECTOR('',#1239,10.);
#356=VECTOR('',#1240,10.);
#357=VECTOR('',#1241,10.);
#358=VECTOR('',#1248,10.);
#359=VECTOR('',#1251,10.);
#360=VECTOR('',#1252,10.);
#361=VECTOR('',#1255,10.);
#362=VECTOR('',#1256,10.);
#363=VECTOR('',#1259,10.);
#364=VECTOR('',#1262,10.);
#365=VECTOR('',#1265,10.);
#366=VECTOR('',#1268,10.);
#367=VECTOR('',#1273,10.);
#368=VECTOR('',#1274,10.);
#369=VECTOR('',#1277,10.);
#370=VECTOR('',#1278,10.);
#371=VECTOR('',#1283,10.);
#372=VECTOR('',#1286,10.);
#373=VECTOR('',#1287,10.);
#374=VECTOR('',#1292,10.);
#375=VECTOR('',#1295,10.);
#376=VECTOR('',#1298,10.);
#377=VECTOR('',#1301,10.);
#378=VECTOR('',#1310,10.);
#379=VECTOR('',#1311,10.);
#380=VECTOR('',#1316,10.);
#381=VECTOR('',#1319,10.);
#382=VECTOR('',#1320,10.);
#383=VECTOR('',#1325,10.);
#384=VECTOR('',#1344,10.);
#385=VECTOR('',#1345,10.);
#386=VECTOR('',#1362,10.);
#387=VECTOR('',#1367,10.);
#388=VECTOR('',#1368,10.);
#389=VECTOR('',#1371,10.);
#390=VECTOR('',#1374,10.);
#391=VECTOR('',#1381,1.7);
#392=VECTOR('',#1384,1.7);
#393=VECTOR('',#1387,10.);
#394=VECTOR('',#1394,2.05);
#395=VECTOR('',#1401,2.05);
#396=VECTOR('',#1408,2.05);
#397=VECTOR('',#1415,2.05);
#398=VECTOR('',#1420,10.);
#399=VECTOR('',#1421,10.);
#400=VECTOR('',#1422,10.);
#401=VECTOR('',#1423,10.);
#402=VECTOR('',#1424,10.);
#403=VECTOR('',#1425,10.);
#404=VECTOR('',#1426,10.);
#405=VECTOR('',#1429,10.);
#406=VECTOR('',#1430,10.);
#407=VECTOR('',#1431,10.);
#408=VECTOR('',#1434,10.);
#409=VECTOR('',#1437,10.);
#410=VECTOR('',#1438,10.);
#411=VECTOR('',#1439,10.);
#412=VECTOR('',#1440,10.);
#413=VECTOR('',#1443,10.);
#414=VECTOR('',#1444,10.);
#415=VECTOR('',#1447,10.);
#416=VECTOR('',#1450,10.);
#417=VECTOR('',#1451,10.);
#418=VECTOR('',#1454,10.);
#419=VERTEX_POINT('',#1461);
#420=VERTEX_POINT('',#1462);
#421=VERTEX_POINT('',#1464);
#422=VERTEX_POINT('',#1466);
#423=VERTEX_POINT('',#1470);
#424=VERTEX_POINT('',#1471);
#425=VERTEX_POINT('',#1476);
#426=VERTEX_POINT('',#1478);
#427=VERTEX_POINT('',#1480);
#428=VERTEX_POINT('',#1482);
#429=VERTEX_POINT('',#1484);
#430=VERTEX_POINT('',#1486);
#431=VERTEX_POINT('',#1488);
#432=VERTEX_POINT('',#1490);
#433=VERTEX_POINT('',#1492);
#434=VERTEX_POINT('',#1494);
#435=VERTEX_POINT('',#1496);
#436=VERTEX_POINT('',#1498);
#437=VERTEX_POINT('',#1500);
#438=VERTEX_POINT('',#1502);
#439=VERTEX_POINT('',#1504);
#440=VERTEX_POINT('',#1506);
#441=VERTEX_POINT('',#1508);
#442=VERTEX_POINT('',#1510);
#443=VERTEX_POINT('',#1514);
#444=VERTEX_POINT('',#1516);
#445=VERTEX_POINT('',#1521);
#446=VERTEX_POINT('',#1525);
#447=VERTEX_POINT('',#1529);
#448=VERTEX_POINT('',#1530);
#449=VERTEX_POINT('',#1532);
#450=VERTEX_POINT('',#1535);
#451=VERTEX_POINT('',#1539);
#452=VERTEX_POINT('',#1540);
#453=VERTEX_POINT('',#1542);
#454=VERTEX_POINT('',#1545);
#455=VERTEX_POINT('',#1549);
#456=VERTEX_POINT('',#1550);
#457=VERTEX_POINT('',#1552);
#458=VERTEX_POINT('',#1554);
#459=VERTEX_POINT('',#1558);
#460=VERTEX_POINT('',#1560);
#461=VERTEX_POINT('',#1564);
#462=VERTEX_POINT('',#1566);
#463=VERTEX_POINT('',#1574);
#464=VERTEX_POINT('',#1576);
#465=VERTEX_POINT('',#1578);
#466=VERTEX_POINT('',#1580);
#467=VERTEX_POINT('',#1588);
#468=VERTEX_POINT('',#1589);
#469=VERTEX_POINT('',#1594);
#470=VERTEX_POINT('',#1598);
#471=VERTEX_POINT('',#1602);
#472=VERTEX_POINT('',#1604);
#473=VERTEX_POINT('',#1608);
#474=VERTEX_POINT('',#1609);
#475=VERTEX_POINT('',#1611);
#476=VERTEX_POINT('',#1613);
#477=VERTEX_POINT('',#1615);
#478=VERTEX_POINT('',#1617);
#479=VERTEX_POINT('',#1619);
#480=VERTEX_POINT('',#1621);
#481=VERTEX_POINT('',#1624);
#482=VERTEX_POINT('',#1626);
#483=VERTEX_POINT('',#1629);
#484=VERTEX_POINT('',#1633);
#485=VERTEX_POINT('',#1637);
#486=VERTEX_POINT('',#1641);
#487=VERTEX_POINT('',#1652);
#488=VERTEX_POINT('',#1664);
#489=VERTEX_POINT('',#1666);
#490=VERTEX_POINT('',#1686);
#491=VERTEX_POINT('',#1706);
#492=VERTEX_POINT('',#1708);
#493=VERTEX_POINT('',#1712);
#494=VERTEX_POINT('',#1714);
#495=VERTEX_POINT('',#1718);
#496=VERTEX_POINT('',#1720);
#497=VERTEX_POINT('',#1724);
#498=VERTEX_POINT('',#1726);
#499=VERTEX_POINT('',#1730);
#500=VERTEX_POINT('',#1731);
#501=VERTEX_POINT('',#1733);
#502=VERTEX_POINT('',#1736);
#503=VERTEX_POINT('',#1738);
#504=VERTEX_POINT('',#1740);
#505=VERTEX_POINT('',#1744);
#506=VERTEX_POINT('',#1746);
#507=VERTEX_POINT('',#1753);
#508=VERTEX_POINT('',#1755);
#509=VERTEX_POINT('',#1759);
#510=VERTEX_POINT('',#1765);
#511=EDGE_CURVE('',#419,#420,#227,.T.);
#512=EDGE_CURVE('',#420,#421,#228,.T.);
#513=EDGE_CURVE('',#421,#422,#229,.T.);
#514=EDGE_CURVE('',#422,#419,#230,.T.);
#515=EDGE_CURVE('',#423,#424,#231,.T.);
#516=EDGE_CURVE('',#424,#420,#232,.T.);
#517=EDGE_CURVE('',#423,#419,#233,.T.);
#518=EDGE_CURVE('',#425,#423,#234,.T.);
#519=EDGE_CURVE('',#426,#425,#235,.T.);
#520=EDGE_CURVE('',#426,#427,#236,.T.);
#521=EDGE_CURVE('',#427,#428,#237,.T.);
#522=EDGE_CURVE('',#428,#429,#238,.T.);
#523=EDGE_CURVE('',#429,#430,#55,.T.);
#524=EDGE_CURVE('',#430,#431,#239,.T.);
#525=EDGE_CURVE('',#431,#432,#56,.T.);
#526=EDGE_CURVE('',#432,#433,#240,.T.);
#527=EDGE_CURVE('',#433,#434,#57,.T.);
#528=EDGE_CURVE('',#434,#435,#241,.T.);
#529=EDGE_CURVE('',#435,#436,#58,.T.);
#530=EDGE_CURVE('',#436,#437,#242,.T.);
#531=EDGE_CURVE('',#437,#438,#243,.T.);
#532=EDGE_CURVE('',#438,#439,#244,.T.);
#533=EDGE_CURVE('',#439,#440,#59,.T.);
#534=EDGE_CURVE('',#441,#440,#245,.T.);
#535=EDGE_CURVE('',#441,#442,#60,.T.);
#536=EDGE_CURVE('',#442,#424,#246,.T.);
#537=EDGE_CURVE('',#443,#422,#247,.T.);
#538=EDGE_CURVE('',#444,#443,#248,.T.);
#539=EDGE_CURVE('',#419,#444,#249,.T.);
#540=EDGE_CURVE('',#444,#425,#250,.T.);
#541=EDGE_CURVE('',#444,#445,#251,.T.);
#542=EDGE_CURVE('',#445,#426,#252,.T.);
#543=EDGE_CURVE('',#443,#446,#253,.T.);
#544=EDGE_CURVE('',#446,#445,#254,.T.);
#545=EDGE_CURVE('',#447,#448,#61,.T.);
#546=EDGE_CURVE('',#448,#449,#255,.T.);
#547=EDGE_CURVE('',#449,#449,#62,.T.);
#548=EDGE_CURVE('',#448,#450,#63,.T.);
#549=EDGE_CURVE('',#450,#447,#64,.T.);
#550=EDGE_CURVE('',#451,#452,#65,.T.);
#551=EDGE_CURVE('',#452,#453,#256,.T.);
#552=EDGE_CURVE('',#453,#453,#66,.T.);
#553=EDGE_CURVE('',#452,#454,#67,.T.);
#554=EDGE_CURVE('',#454,#451,#68,.T.);
#555=EDGE_CURVE('',#455,#456,#69,.T.);
#556=EDGE_CURVE('',#456,#457,#257,.T.);
#557=EDGE_CURVE('',#458,#457,#70,.T.);
#558=EDGE_CURVE('',#455,#458,#258,.T.);
#559=EDGE_CURVE('',#459,#455,#259,.T.);
#560=EDGE_CURVE('',#460,#458,#260,.T.);
#561=EDGE_CURVE('',#459,#460,#261,.T.);
#562=EDGE_CURVE('',#461,#459,#71,.T.);
#563=EDGE_CURVE('',#462,#460,#72,.T.);
#564=EDGE_CURVE('',#461,#462,#262,.T.);
#565=EDGE_CURVE('',#421,#462,#263,.T.);
#566=EDGE_CURVE('',#457,#446,#264,.T.);
#567=EDGE_CURVE('',#439,#456,#265,.T.);
#568=EDGE_CURVE('',#438,#463,#266,.T.);
#569=EDGE_CURVE('',#463,#464,#73,.T.);
#570=EDGE_CURVE('',#464,#465,#267,.T.);
#571=EDGE_CURVE('',#465,#466,#74,.T.);
#572=EDGE_CURVE('',#466,#427,#268,.T.);
#573=EDGE_CURVE('',#442,#461,#269,.T.);
#574=EDGE_CURVE('',#441,#459,#270,.T.);
#575=EDGE_CURVE('',#467,#468,#75,.T.);
#576=EDGE_CURVE('',#434,#467,#271,.T.);
#577=EDGE_CURVE('',#433,#468,#272,.T.);
#578=EDGE_CURVE('',#469,#467,#273,.T.);
#579=EDGE_CURVE('',#435,#469,#274,.T.);
#580=EDGE_CURVE('',#470,#469,#76,.T.);
#581=EDGE_CURVE('',#436,#470,#275,.T.);
#582=EDGE_CURVE('',#471,#437,#276,.T.);
#583=EDGE_CURVE('',#472,#470,#277,.T.);
#584=EDGE_CURVE('',#472,#471,#77,.T.);
#585=EDGE_CURVE('',#473,#474,#278,.T.);
#586=EDGE_CURVE('',#475,#473,#78,.T.);
#587=EDGE_CURVE('',#476,#475,#279,.T.);
#588=EDGE_CURVE('',#477,#476,#79,.T.);
#589=EDGE_CURVE('',#478,#477,#280,.T.);
#590=EDGE_CURVE('',#479,#478,#80,.T.);
#591=EDGE_CURVE('',#480,#479,#281,.T.);
#592=EDGE_CURVE('',#474,#480,#81,.T.);
#593=EDGE_CURVE('',#481,#481,#82,.T.);
#594=EDGE_CURVE('',#482,#482,#83,.T.);
#595=EDGE_CURVE('',#468,#483,#282,.T.);
#596=EDGE_CURVE('',#432,#483,#283,.T.);
#597=EDGE_CURVE('',#483,#484,#84,.T.);
#598=EDGE_CURVE('',#431,#484,#284,.T.);
#599=EDGE_CURVE('',#484,#485,#285,.T.);
#600=EDGE_CURVE('',#430,#485,#286,.T.);
#601=EDGE_CURVE('',#485,#486,#85,.T.);
#602=EDGE_CURVE('',#429,#486,#287,.T.);
#603=EDGE_CURVE('',#483,#473,#86,.T.);
#604=EDGE_CURVE('',#475,#484,#87,.T.);
#605=EDGE_CURVE('',#476,#485,#88,.T.);
#606=EDGE_CURVE('',#477,#486,#89,.T.);
#607=EDGE_CURVE('',#487,#472,#15,.T.);
#608=EDGE_CURVE('',#478,#470,#90,.T.);
#609=EDGE_CURVE('',#486,#488,#288,.T.);
#610=EDGE_CURVE('',#488,#489,#16,.T.);
#611=EDGE_CURVE('',#489,#487,#289,.T.);
#612=EDGE_CURVE('',#479,#469,#91,.T.);
#613=EDGE_CURVE('',#480,#467,#92,.T.);
#614=EDGE_CURVE('',#474,#468,#93,.T.);
#615=EDGE_CURVE('',#428,#490,#290,.T.);
#616=EDGE_CURVE('',#490,#488,#94,.T.);
#617=EDGE_CURVE('',#464,#487,#291,.T.);
#618=EDGE_CURVE('',#463,#471,#292,.T.);
#619=EDGE_CURVE('',#465,#489,#293,.T.);
#620=EDGE_CURVE('',#466,#490,#294,.T.);
#621=EDGE_CURVE('',#482,#447,#295,.T.);
#622=EDGE_CURVE('',#481,#451,#296,.T.);
#623=EDGE_CURVE('',#440,#455,#297,.T.);
#624=EDGE_CURVE('',#491,#491,#95,.T.);
#625=EDGE_CURVE('',#491,#492,#298,.T.);
#626=EDGE_CURVE('',#492,#492,#96,.T.);
#627=EDGE_CURVE('',#493,#493,#97,.T.);
#628=EDGE_CURVE('',#493,#494,#299,.T.);
#629=EDGE_CURVE('',#494,#494,#98,.T.);
#630=EDGE_CURVE('',#495,#495,#99,.T.);
#631=EDGE_CURVE('',#495,#496,#300,.T.);
#632=EDGE_CURVE('',#496,#496,#100,.T.);
#633=EDGE_CURVE('',#497,#497,#101,.T.);
#634=EDGE_CURVE('',#497,#498,#301,.T.);
#635=EDGE_CURVE('',#498,#498,#102,.T.);
#636=EDGE_CURVE('',#499,#500,#302,.T.);
#637=EDGE_CURVE('',#501,#499,#303,.T.);
#638=EDGE_CURVE('',#425,#501,#304,.T.);
#639=EDGE_CURVE('',#502,#423,#305,.T.);
#640=EDGE_CURVE('',#503,#502,#306,.T.);
#641=EDGE_CURVE('',#504,#503,#307,.T.);
#642=EDGE_CURVE('',#500,#504,#308,.T.);
#643=EDGE_CURVE('',#505,#504,#309,.T.);
#644=EDGE_CURVE('',#505,#506,#310,.T.);
#645=EDGE_CURVE('',#506,#500,#311,.T.);
#646=EDGE_CURVE('',#505,#503,#312,.T.);
#647=EDGE_CURVE('',#499,#503,#313,.T.);
#648=EDGE_CURVE('',#507,#502,#314,.T.);
#649=EDGE_CURVE('',#507,#508,#315,.T.);
#650=EDGE_CURVE('',#501,#508,#316,.T.);
#651=EDGE_CURVE('',#508,#509,#317,.T.);
#652=EDGE_CURVE('',#509,#444,#318,.T.);
#653=EDGE_CURVE('',#499,#506,#319,.T.);
#654=EDGE_CURVE('',#419,#510,#320,.T.);
#655=EDGE_CURVE('',#507,#510,#321,.T.);
#656=EDGE_CURVE('',#510,#509,#322,.T.);
#657=ORIENTED_EDGE('',*,*,#511,.T.);
#658=ORIENTED_EDGE('',*,*,#512,.T.);
#659=ORIENTED_EDGE('',*,*,#513,.T.);
#660=ORIENTED_EDGE('',*,*,#514,.T.);
#661=ORIENTED_EDGE('',*,*,#515,.T.);
#662=ORIENTED_EDGE('',*,*,#516,.T.);
#663=ORIENTED_EDGE('',*,*,#511,.F.);
#664=ORIENTED_EDGE('',*,*,#517,.F.);
#665=ORIENTED_EDGE('',*,*,#515,.F.);
#666=ORIENTED_EDGE('',*,*,#518,.F.);
#667=ORIENTED_EDGE('',*,*,#519,.F.);
#668=ORIENTED_EDGE('',*,*,#520,.T.);
#669=ORIENTED_EDGE('',*,*,#521,.T.);
#670=ORIENTED_EDGE('',*,*,#522,.T.);
#671=ORIENTED_EDGE('',*,*,#523,.T.);
#672=ORIENTED_EDGE('',*,*,#524,.T.);
#673=ORIENTED_EDGE('',*,*,#525,.T.);
#674=ORIENTED_EDGE('',*,*,#526,.T.);
#675=ORIENTED_EDGE('',*,*,#527,.T.);
#676=ORIENTED_EDGE('',*,*,#528,.T.);
#677=ORIENTED_EDGE('',*,*,#529,.T.);
#678=ORIENTED_EDGE('',*,*,#530,.T.);
#679=ORIENTED_EDGE('',*,*,#531,.T.);
#680=ORIENTED_EDGE('',*,*,#532,.T.);
#681=ORIENTED_EDGE('',*,*,#533,.T.);
#682=ORIENTED_EDGE('',*,*,#534,.F.);
#683=ORIENTED_EDGE('',*,*,#535,.T.);
#684=ORIENTED_EDGE('',*,*,#536,.T.);
#685=ORIENTED_EDGE('',*,*,#514,.F.);
#686=ORIENTED_EDGE('',*,*,#537,.F.);
#687=ORIENTED_EDGE('',*,*,#538,.F.);
#688=ORIENTED_EDGE('',*,*,#539,.F.);
#689=ORIENTED_EDGE('',*,*,#540,.F.);
#690=ORIENTED_EDGE('',*,*,#541,.T.);
#691=ORIENTED_EDGE('',*,*,#542,.T.);
#692=ORIENTED_EDGE('',*,*,#519,.T.);
#693=ORIENTED_EDGE('',*,*,#541,.F.);
#694=ORIENTED_EDGE('',*,*,#538,.T.);
#695=ORIENTED_EDGE('',*,*,#543,.T.);
#696=ORIENTED_EDGE('',*,*,#544,.T.);
#697=ORIENTED_EDGE('',*,*,#545,.T.);
#698=ORIENTED_EDGE('',*,*,#546,.T.);
#699=ORIENTED_EDGE('',*,*,#547,.F.);
#700=ORIENTED_EDGE('',*,*,#546,.F.);
#701=ORIENTED_EDGE('',*,*,#548,.T.);
#702=ORIENTED_EDGE('',*,*,#549,.T.);
#703=ORIENTED_EDGE('',*,*,#550,.T.);
#704=ORIENTED_EDGE('',*,*,#551,.T.);
#705=ORIENTED_EDGE('',*,*,#552,.F.);
#706=ORIENTED_EDGE('',*,*,#551,.F.);
#707=ORIENTED_EDGE('',*,*,#553,.T.);
#708=ORIENTED_EDGE('',*,*,#554,.T.);
#709=ORIENTED_EDGE('',*,*,#555,.T.);
#710=ORIENTED_EDGE('',*,*,#556,.T.);
#711=ORIENTED_EDGE('',*,*,#557,.F.);
#712=ORIENTED_EDGE('',*,*,#558,.F.);
#713=ORIENTED_EDGE('',*,*,#559,.T.);
#714=ORIENTED_EDGE('',*,*,#558,.T.);
#715=ORIENTED_EDGE('',*,*,#560,.F.);
#716=ORIENTED_EDGE('',*,*,#561,.F.);
#717=ORIENTED_EDGE('',*,*,#562,.T.);
#718=ORIENTED_EDGE('',*,*,#561,.T.);
#719=ORIENTED_EDGE('',*,*,#563,.F.);
#720=ORIENTED_EDGE('',*,*,#564,.F.);
#721=ORIENTED_EDGE('',*,*,#513,.F.);
#722=ORIENTED_EDGE('',*,*,#565,.T.);
#723=ORIENTED_EDGE('',*,*,#563,.T.);
#724=ORIENTED_EDGE('',*,*,#560,.T.);
#725=ORIENTED_EDGE('',*,*,#557,.T.);
#726=ORIENTED_EDGE('',*,*,#566,.T.);
#727=ORIENTED_EDGE('',*,*,#543,.F.);
#728=ORIENTED_EDGE('',*,*,#537,.T.);
#729=ORIENTED_EDGE('',*,*,#552,.T.);
#730=ORIENTED_EDGE('',*,*,#547,.T.);
#731=ORIENTED_EDGE('',*,*,#544,.F.);
#732=ORIENTED_EDGE('',*,*,#566,.F.);
#733=ORIENTED_EDGE('',*,*,#556,.F.);
#734=ORIENTED_EDGE('',*,*,#567,.F.);
#735=ORIENTED_EDGE('',*,*,#532,.F.);
#736=ORIENTED_EDGE('',*,*,#568,.T.);
#737=ORIENTED_EDGE('',*,*,#569,.T.);
#738=ORIENTED_EDGE('',*,*,#570,.T.);
#739=ORIENTED_EDGE('',*,*,#571,.T.);
#740=ORIENTED_EDGE('',*,*,#572,.T.);
#741=ORIENTED_EDGE('',*,*,#520,.F.);
#742=ORIENTED_EDGE('',*,*,#542,.F.);
#743=ORIENTED_EDGE('',*,*,#516,.F.);
#744=ORIENTED_EDGE('',*,*,#536,.F.);
#745=ORIENTED_EDGE('',*,*,#573,.T.);
#746=ORIENTED_EDGE('',*,*,#564,.T.);
#747=ORIENTED_EDGE('',*,*,#565,.F.);
#748=ORIENTED_EDGE('',*,*,#512,.F.);
#749=ORIENTED_EDGE('',*,*,#562,.F.);
#750=ORIENTED_EDGE('',*,*,#573,.F.);
#751=ORIENTED_EDGE('',*,*,#535,.F.);
#752=ORIENTED_EDGE('',*,*,#574,.T.);
#753=ORIENTED_EDGE('',*,*,#575,.F.);
#754=ORIENTED_EDGE('',*,*,#576,.F.);
#755=ORIENTED_EDGE('',*,*,#527,.F.);
#756=ORIENTED_EDGE('',*,*,#577,.T.);
#757=ORIENTED_EDGE('',*,*,#578,.F.);
#758=ORIENTED_EDGE('',*,*,#579,.F.);
#759=ORIENTED_EDGE('',*,*,#528,.F.);
#760=ORIENTED_EDGE('',*,*,#576,.T.);
#761=ORIENTED_EDGE('',*,*,#580,.F.);
#762=ORIENTED_EDGE('',*,*,#581,.F.);
#763=ORIENTED_EDGE('',*,*,#529,.F.);
#764=ORIENTED_EDGE('',*,*,#579,.T.);
#765=ORIENTED_EDGE('',*,*,#582,.T.);
#766=ORIENTED_EDGE('',*,*,#530,.F.);
#767=ORIENTED_EDGE('',*,*,#581,.T.);
#768=ORIENTED_EDGE('',*,*,#583,.F.);
#769=ORIENTED_EDGE('',*,*,#584,.T.);
#770=ORIENTED_EDGE('',*,*,#585,.F.);
#771=ORIENTED_EDGE('',*,*,#586,.F.);
#772=ORIENTED_EDGE('',*,*,#587,.F.);
#773=ORIENTED_EDGE('',*,*,#588,.F.);
#774=ORIENTED_EDGE('',*,*,#589,.F.);
#775=ORIENTED_EDGE('',*,*,#590,.F.);
#776=ORIENTED_EDGE('',*,*,#591,.F.);
#777=ORIENTED_EDGE('',*,*,#592,.F.);
#778=ORIENTED_EDGE('',*,*,#593,.T.);
#779=ORIENTED_EDGE('',*,*,#594,.T.);
#780=ORIENTED_EDGE('',*,*,#595,.F.);
#781=ORIENTED_EDGE('',*,*,#577,.F.);
#782=ORIENTED_EDGE('',*,*,#526,.F.);
#783=ORIENTED_EDGE('',*,*,#596,.T.);
#784=ORIENTED_EDGE('',*,*,#597,.F.);
#785=ORIENTED_EDGE('',*,*,#596,.F.);
#786=ORIENTED_EDGE('',*,*,#525,.F.);
#787=ORIENTED_EDGE('',*,*,#598,.T.);
#788=ORIENTED_EDGE('',*,*,#599,.F.);
#789=ORIENTED_EDGE('',*,*,#598,.F.);
#790=ORIENTED_EDGE('',*,*,#524,.F.);
#791=ORIENTED_EDGE('',*,*,#600,.T.);
#792=ORIENTED_EDGE('',*,*,#601,.F.);
#793=ORIENTED_EDGE('',*,*,#600,.F.);
#794=ORIENTED_EDGE('',*,*,#523,.F.);
#795=ORIENTED_EDGE('',*,*,#602,.T.);
#796=ORIENTED_EDGE('',*,*,#603,.F.);
#797=ORIENTED_EDGE('',*,*,#597,.T.);
#798=ORIENTED_EDGE('',*,*,#604,.F.);
#799=ORIENTED_EDGE('',*,*,#586,.T.);
#800=ORIENTED_EDGE('',*,*,#604,.T.);
#801=ORIENTED_EDGE('',*,*,#599,.T.);
#802=ORIENTED_EDGE('',*,*,#605,.F.);
#803=ORIENTED_EDGE('',*,*,#587,.T.);
#804=ORIENTED_EDGE('',*,*,#605,.T.);
#805=ORIENTED_EDGE('',*,*,#601,.T.);
#806=ORIENTED_EDGE('',*,*,#606,.F.);
#807=ORIENTED_EDGE('',*,*,#588,.T.);
#808=ORIENTED_EDGE('',*,*,#607,.T.);
#809=ORIENTED_EDGE('',*,*,#583,.T.);
#810=ORIENTED_EDGE('',*,*,#608,.F.);
#811=ORIENTED_EDGE('',*,*,#589,.T.);
#812=ORIENTED_EDGE('',*,*,#606,.T.);
#813=ORIENTED_EDGE('',*,*,#609,.T.);
#814=ORIENTED_EDGE('',*,*,#610,.T.);
#815=ORIENTED_EDGE('',*,*,#611,.T.);
#816=ORIENTED_EDGE('',*,*,#608,.T.);
#817=ORIENTED_EDGE('',*,*,#580,.T.);
#818=ORIENTED_EDGE('',*,*,#612,.F.);
#819=ORIENTED_EDGE('',*,*,#590,.T.);
#820=ORIENTED_EDGE('',*,*,#612,.T.);
#821=ORIENTED_EDGE('',*,*,#578,.T.);
#822=ORIENTED_EDGE('',*,*,#613,.F.);
#823=ORIENTED_EDGE('',*,*,#591,.T.);
#824=ORIENTED_EDGE('',*,*,#613,.T.);
#825=ORIENTED_EDGE('',*,*,#575,.T.);
#826=ORIENTED_EDGE('',*,*,#614,.F.);
#827=ORIENTED_EDGE('',*,*,#592,.T.);
#828=ORIENTED_EDGE('',*,*,#603,.T.);
#829=ORIENTED_EDGE('',*,*,#585,.T.);
#830=ORIENTED_EDGE('',*,*,#614,.T.);
#831=ORIENTED_EDGE('',*,*,#595,.T.);
#832=ORIENTED_EDGE('',*,*,#615,.T.);
#833=ORIENTED_EDGE('',*,*,#616,.T.);
#834=ORIENTED_EDGE('',*,*,#609,.F.);
#835=ORIENTED_EDGE('',*,*,#602,.F.);
#836=ORIENTED_EDGE('',*,*,#522,.F.);
#837=ORIENTED_EDGE('',*,*,#584,.F.);
#838=ORIENTED_EDGE('',*,*,#607,.F.);
#839=ORIENTED_EDGE('',*,*,#617,.F.);
#840=ORIENTED_EDGE('',*,*,#569,.F.);
#841=ORIENTED_EDGE('',*,*,#618,.T.);
#842=ORIENTED_EDGE('',*,*,#611,.F.);
#843=ORIENTED_EDGE('',*,*,#619,.F.);
#844=ORIENTED_EDGE('',*,*,#570,.F.);
#845=ORIENTED_EDGE('',*,*,#617,.T.);
#846=ORIENTED_EDGE('',*,*,#616,.F.);
#847=ORIENTED_EDGE('',*,*,#620,.F.);
#848=ORIENTED_EDGE('',*,*,#571,.F.);
#849=ORIENTED_EDGE('',*,*,#619,.T.);
#850=ORIENTED_EDGE('',*,*,#610,.F.);
#851=ORIENTED_EDGE('',*,*,#615,.F.);
#852=ORIENTED_EDGE('',*,*,#521,.F.);
#853=ORIENTED_EDGE('',*,*,#572,.F.);
#854=ORIENTED_EDGE('',*,*,#620,.T.);
#855=ORIENTED_EDGE('',*,*,#582,.F.);
#856=ORIENTED_EDGE('',*,*,#618,.F.);
#857=ORIENTED_EDGE('',*,*,#568,.F.);
#858=ORIENTED_EDGE('',*,*,#531,.F.);
#859=ORIENTED_EDGE('',*,*,#594,.F.);
#860=ORIENTED_EDGE('',*,*,#621,.T.);
#861=ORIENTED_EDGE('',*,*,#549,.F.);
#862=ORIENTED_EDGE('',*,*,#548,.F.);
#863=ORIENTED_EDGE('',*,*,#545,.F.);
#864=ORIENTED_EDGE('',*,*,#621,.F.);
#865=ORIENTED_EDGE('',*,*,#593,.F.);
#866=ORIENTED_EDGE('',*,*,#622,.T.);
#867=ORIENTED_EDGE('',*,*,#554,.F.);
#868=ORIENTED_EDGE('',*,*,#553,.F.);
#869=ORIENTED_EDGE('',*,*,#550,.F.);
#870=ORIENTED_EDGE('',*,*,#622,.F.);
#871=ORIENTED_EDGE('',*,*,#559,.F.);
#872=ORIENTED_EDGE('',*,*,#574,.F.);
#873=ORIENTED_EDGE('',*,*,#534,.T.);
#874=ORIENTED_EDGE('',*,*,#623,.T.);
#875=ORIENTED_EDGE('',*,*,#555,.F.);
#876=ORIENTED_EDGE('',*,*,#623,.F.);
#877=ORIENTED_EDGE('',*,*,#533,.F.);
#878=ORIENTED_EDGE('',*,*,#567,.T.);
#879=ORIENTED_EDGE('',*,*,#624,.F.);
#880=ORIENTED_EDGE('',*,*,#625,.T.);
#881=ORIENTED_EDGE('',*,*,#626,.T.);
#882=ORIENTED_EDGE('',*,*,#625,.F.);
#883=ORIENTED_EDGE('',*,*,#627,.F.);
#884=ORIENTED_EDGE('',*,*,#628,.T.);
#885=ORIENTED_EDGE('',*,*,#629,.T.);
#886=ORIENTED_EDGE('',*,*,#628,.F.);
#887=ORIENTED_EDGE('',*,*,#630,.F.);
#888=ORIENTED_EDGE('',*,*,#631,.T.);
#889=ORIENTED_EDGE('',*,*,#632,.T.);
#890=ORIENTED_EDGE('',*,*,#631,.F.);
#891=ORIENTED_EDGE('',*,*,#633,.F.);
#892=ORIENTED_EDGE('',*,*,#634,.T.);
#893=ORIENTED_EDGE('',*,*,#635,.T.);
#894=ORIENTED_EDGE('',*,*,#634,.F.);
#895=ORIENTED_EDGE('',*,*,#636,.F.);
#896=ORIENTED_EDGE('',*,*,#637,.F.);
#897=ORIENTED_EDGE('',*,*,#638,.F.);
#898=ORIENTED_EDGE('',*,*,#518,.T.);
#899=ORIENTED_EDGE('',*,*,#639,.F.);
#900=ORIENTED_EDGE('',*,*,#640,.F.);
#901=ORIENTED_EDGE('',*,*,#641,.F.);
#902=ORIENTED_EDGE('',*,*,#642,.F.);
#903=ORIENTED_EDGE('',*,*,#642,.T.);
#904=ORIENTED_EDGE('',*,*,#643,.F.);
#905=ORIENTED_EDGE('',*,*,#644,.T.);
#906=ORIENTED_EDGE('',*,*,#645,.T.);
#907=ORIENTED_EDGE('',*,*,#641,.T.);
#908=ORIENTED_EDGE('',*,*,#646,.F.);
#909=ORIENTED_EDGE('',*,*,#643,.T.);
#910=ORIENTED_EDGE('',*,*,#637,.T.);
#911=ORIENTED_EDGE('',*,*,#647,.T.);
#912=ORIENTED_EDGE('',*,*,#640,.T.);
#913=ORIENTED_EDGE('',*,*,#648,.F.);
#914=ORIENTED_EDGE('',*,*,#649,.T.);
#915=ORIENTED_EDGE('',*,*,#650,.F.);
#916=ORIENTED_EDGE('',*,*,#638,.T.);
#917=ORIENTED_EDGE('',*,*,#650,.T.);
#918=ORIENTED_EDGE('',*,*,#651,.T.);
#919=ORIENTED_EDGE('',*,*,#652,.T.);
#920=ORIENTED_EDGE('',*,*,#540,.T.);
#921=ORIENTED_EDGE('',*,*,#653,.T.);
#922=ORIENTED_EDGE('',*,*,#644,.F.);
#923=ORIENTED_EDGE('',*,*,#646,.T.);
#924=ORIENTED_EDGE('',*,*,#647,.F.);
#925=ORIENTED_EDGE('',*,*,#624,.T.);
#926=ORIENTED_EDGE('',*,*,#627,.T.);
#927=ORIENTED_EDGE('',*,*,#630,.T.);
#928=ORIENTED_EDGE('',*,*,#633,.T.);
#929=ORIENTED_EDGE('',*,*,#639,.T.);
#930=ORIENTED_EDGE('',*,*,#517,.T.);
#931=ORIENTED_EDGE('',*,*,#654,.T.);
#932=ORIENTED_EDGE('',*,*,#655,.F.);
#933=ORIENTED_EDGE('',*,*,#648,.T.);
#934=ORIENTED_EDGE('',*,*,#539,.T.);
#935=ORIENTED_EDGE('',*,*,#652,.F.);
#936=ORIENTED_EDGE('',*,*,#656,.F.);
#937=ORIENTED_EDGE('',*,*,#654,.F.);
#938=ORIENTED_EDGE('',*,*,#636,.T.);
#939=ORIENTED_EDGE('',*,*,#645,.F.);
#940=ORIENTED_EDGE('',*,*,#653,.F.);
#941=ORIENTED_EDGE('',*,*,#649,.F.);
#942=ORIENTED_EDGE('',*,*,#655,.T.);
#943=ORIENTED_EDGE('',*,*,#656,.T.);
#944=ORIENTED_EDGE('',*,*,#651,.F.);
#945=ORIENTED_EDGE('',*,*,#626,.F.);
#946=ORIENTED_EDGE('',*,*,#629,.F.);
#947=ORIENTED_EDGE('',*,*,#632,.F.);
#948=ORIENTED_EDGE('',*,*,#635,.F.);
#949=PLANE('',#1049);
#950=PLANE('',#1050);
#951=PLANE('',#1051);
#952=PLANE('',#1058);
#953=PLANE('',#1059);
#954=PLANE('',#1060);
#955=PLANE('',#1074);
#956=PLANE('',#1078);
#957=PLANE('',#1079);
#958=PLANE('',#1082);
#959=PLANE('',#1086);
#960=PLANE('',#1089);
#961=PLANE('',#1091);
#962=PLANE('',#1098);
#963=PLANE('',#1101);
#964=PLANE('',#1120);
#965=PLANE('',#1123);
#966=PLANE('',#1125);
#967=PLANE('',#1126);
#968=PLANE('',#1129);
#969=PLANE('',#1143);
#970=PLANE('',#1144);
#971=PLANE('',#1145);
#972=PLANE('',#1146);
#973=PLANE('',#1147);
#974=PLANE('',#1148);
#975=PLANE('',#1149);
#976=PLANE('',#1150);
#977=PLANE('',#1151);
#978=PLANE('',#1152);
#979=ADVANCED_FACE('',(#103),#949,.T.);
#980=ADVANCED_FACE('',(#104),#950,.T.);
#981=ADVANCED_FACE('',(#105),#951,.F.);
#982=ADVANCED_FACE('',(#106),#952,.T.);
#983=ADVANCED_FACE('',(#107),#953,.T.);
#984=ADVANCED_FACE('',(#108),#954,.T.);
#985=ADVANCED_FACE('',(#109),#33,.F.);
#986=ADVANCED_FACE('',(#110),#34,.F.);
#987=ADVANCED_FACE('',(#111),#35,.T.);
#988=ADVANCED_FACE('',(#112),#955,.T.);
#989=ADVANCED_FACE('',(#113),#36,.T.);
#990=ADVANCED_FACE('',(#114,#21,#22),#956,.T.);
#991=ADVANCED_FACE('',(#115),#957,.F.);
#992=ADVANCED_FACE('',(#116),#958,.F.);
#993=ADVANCED_FACE('',(#117),#37,.T.);
#994=ADVANCED_FACE('',(#118),#38,.F.);
#995=ADVANCED_FACE('',(#119),#959,.F.);
#996=ADVANCED_FACE('',(#120),#39,.F.);
#997=ADVANCED_FACE('',(#121),#960,.F.);
#998=ADVANCED_FACE('',(#122,#23,#24),#961,.T.);
#999=ADVANCED_FACE('',(#123),#962,.F.);
#1000=ADVANCED_FACE('',(#124),#40,.F.);
#1001=ADVANCED_FACE('',(#125),#963,.F.);
#1002=ADVANCED_FACE('',(#126),#41,.F.);
#1003=ADVANCED_FACE('',(#127),#17,.F.);
#1004=ADVANCED_FACE('',(#128),#42,.F.);
#1005=ADVANCED_FACE('',(#129),#18,.F.);
#1006=ADVANCED_FACE('',(#130),#43,.F.);
#1007=ADVANCED_FACE('',(#131),#19,.F.);
#1008=ADVANCED_FACE('',(#132),#44,.F.);
#1009=ADVANCED_FACE('',(#133),#20,.F.);
#1010=ADVANCED_FACE('',(#134),#45,.F.);
#1011=ADVANCED_FACE('',(#135),#964,.F.);
#1012=ADVANCED_FACE('',(#136),#46,.F.);
#1013=ADVANCED_FACE('',(#137),#965,.F.);
#1014=ADVANCED_FACE('',(#138),#47,.F.);
#1015=ADVANCED_FACE('',(#139),#966,.F.);
#1016=ADVANCED_FACE('',(#140),#967,.F.);
#1017=ADVANCED_FACE('',(#141),#48,.F.);
#1018=ADVANCED_FACE('',(#142),#49,.F.);
#1019=ADVANCED_FACE('',(#143),#968,.F.);
#1020=ADVANCED_FACE('',(#144),#50,.T.);
#1021=ADVANCED_FACE('',(#145),#51,.F.);
#1022=ADVANCED_FACE('',(#146),#52,.F.);
#1023=ADVANCED_FACE('',(#147),#53,.F.);
#1024=ADVANCED_FACE('',(#148),#54,.F.);
#1025=ADVANCED_FACE('',(#149),#969,.F.);
#1026=ADVANCED_FACE('',(#150),#970,.F.);
#1027=ADVANCED_FACE('',(#151),#971,.T.);
#1028=ADVANCED_FACE('',(#152),#972,.F.);
#1029=ADVANCED_FACE('',(#153),#973,.T.);
#1030=ADVANCED_FACE('',(#154,#25,#26,#27,#28),#974,.T.);
#1031=ADVANCED_FACE('',(#155),#975,.T.);
#1032=ADVANCED_FACE('',(#156),#976,.F.);
#1033=ADVANCED_FACE('',(#157),#977,.T.);
#1034=ADVANCED_FACE('',(#158,#29,#30,#31,#32),#978,.T.);
#1035=CLOSED_SHELL('',(#979,#980,#981,#982,#983,#984,#985,#986,#987,#988,
#989,#990,#991,#992,#993,#994,#995,#996,#997,#998,#999,#1000,#1001,#1002,
#1003,#1004,#1005,#1006,#1007,#1008,#1009,#1010,#1011,#1012,#1013,#1014,
#1015,#1016,#1017,#1018,#1019,#1020,#1021,#1022,#1023,#1024,#1025,#1026,
#1027,#1028,#1029,#1030,#1031,#1032,#1033,#1034));
#1036=DERIVED_UNIT_ELEMENT(#1038,1.);
#1037=DERIVED_UNIT_ELEMENT(#1777,-3.);
#1038=(
MASS_UNIT()
NAMED_UNIT(*)
SI_UNIT(.KILO.,.GRAM.)
);
#1039=DERIVED_UNIT((#1036,#1037));
#1040=MEASURE_REPRESENTATION_ITEM('density measure',
POSITIVE_RATIO_MEASURE(7850.),#1039);
#1041=PROPERTY_DEFINITION_REPRESENTATION(#1046,#1043);
#1042=PROPERTY_DEFINITION_REPRESENTATION(#1047,#1044);
#1043=REPRESENTATION('material name',(#1045),#1774);
#1044=REPRESENTATION('density',(#1040),#1774);
#1045=DESCRIPTIVE_REPRESENTATION_ITEM('Steel','Steel');
#1046=PROPERTY_DEFINITION('material property','material name',#1784);
#1047=PROPERTY_DEFINITION('material property','density of part',#1784);
#1048=AXIS2_PLACEMENT_3D('',#1459,#1153,#1154);
#1049=AXIS2_PLACEMENT_3D('',#1460,#1155,#1156);
#1050=AXIS2_PLACEMENT_3D('',#1469,#1161,#1162);
#1051=AXIS2_PLACEMENT_3D('',#1475,#1166,#1167);
#1052=AXIS2_PLACEMENT_3D('',#1487,#1173,#1174);
#1053=AXIS2_PLACEMENT_3D('',#1491,#1176,#1177);
#1054=AXIS2_PLACEMENT_3D('',#1495,#1179,#1180);
#1055=AXIS2_PLACEMENT_3D('',#1499,#1182,#1183);
#1056=AXIS2_PLACEMENT_3D('',#1507,#1187,#1188);
#1057=AXIS2_PLACEMENT_3D('',#1511,#1190,#1191);
#1058=AXIS2_PLACEMENT_3D('',#1513,#1193,#1194);
#1059=AXIS2_PLACEMENT_3D('',#1519,#1198,#1199);
#1060=AXIS2_PLACEMENT_3D('',#1524,#1203,#1204);
#1061=AXIS2_PLACEMENT_3D('',#1528,#1207,#1208);
#1062=AXIS2_PLACEMENT_3D('',#1531,#1209,#1210);
#1063=AXIS2_PLACEMENT_3D('',#1534,#1212,#1213);
#1064=AXIS2_PLACEMENT_3D('',#1536,#1214,#1215);
#1065=AXIS2_PLACEMENT_3D('',#1537,#1216,#1217);
#1066=AXIS2_PLACEMENT_3D('',#1538,#1218,#1219);
#1067=AXIS2_PLACEMENT_3D('',#1541,#1220,#1221);
#1068=AXIS2_PLACEMENT_3D('',#1544,#1223,#1224);
#1069=AXIS2_PLACEMENT_3D('',#1546,#1225,#1226);
#1070=AXIS2_PLACEMENT_3D('',#1547,#1227,#1228);
#1071=AXIS2_PLACEMENT_3D('',#1548,#1229,#1230);
#1072=AXIS2_PLACEMENT_3D('',#1551,#1231,#1232);
#1073=AXIS2_PLACEMENT_3D('',#1555,#1234,#1235);
#1074=AXIS2_PLACEMENT_3D('',#1557,#1237,#1238);
#1075=AXIS2_PLACEMENT_3D('',#1563,#1242,#1243);
#1076=AXIS2_PLACEMENT_3D('',#1565,#1244,#1245);
#1077=AXIS2_PLACEMENT_3D('',#1567,#1246,#1247);
#1078=AXIS2_PLACEMENT_3D('',#1569,#1249,#1250);
#1079=AXIS2_PLACEMENT_3D('',#1572,#1253,#1254);
#1080=AXIS2_PLACEMENT_3D('',#1577,#1257,#1258);
#1081=AXIS2_PLACEMENT_3D('',#1581,#1260,#1261);
#1082=AXIS2_PLACEMENT_3D('',#1583,#1263,#1264);
#1083=AXIS2_PLACEMENT_3D('',#1585,#1266,#1267);
#1084=AXIS2_PLACEMENT_3D('',#1587,#1269,#1270);
#1085=AXIS2_PLACEMENT_3D('',#1590,#1271,#1272);
#1086=AXIS2_PLACEMENT_3D('',#1593,#1275,#1276);
#1087=AXIS2_PLACEMENT_3D('',#1597,#1279,#1280);
#1088=AXIS2_PLACEMENT_3D('',#1599,#1281,#1282);
#1089=AXIS2_PLACEMENT_3D('',#1601,#1284,#1285);
#1090=AXIS2_PLACEMENT_3D('',#1606,#1288,#1289);
#1091=AXIS2_PLACEMENT_3D('',#1607,#1290,#1291);
#1092=AXIS2_PLACEMENT_3D('',#1612,#1293,#1294);
#1093=AXIS2_PLACEMENT_3D('',#1616,#1296,#1297);
#1094=AXIS2_PLACEMENT_3D('',#1620,#1299,#1300);
#1095=AXIS2_PLACEMENT_3D('',#1623,#1302,#1303);
#1096=AXIS2_PLACEMENT_3D('',#1625,#1304,#1305);
#1097=AXIS2_PLACEMENT_3D('',#1627,#1306,#1307);
#1098=AXIS2_PLACEMENT_3D('',#1628,#1308,#1309);
#1099=AXIS2_PLACEMENT_3D('',#1632,#1312,#1313);
#1100=AXIS2_PLACEMENT_3D('',#1634,#1314,#1315);
#1101=AXIS2_PLACEMENT_3D('',#1636,#1317,#1318);
#1102=AXIS2_PLACEMENT_3D('',#1640,#1321,#1322);
#1103=AXIS2_PLACEMENT_3D('',#1642,#1323,#1324);
#1104=AXIS2_PLACEMENT_3D('',#1644,#1326,#1327);
#1105=AXIS2_PLACEMENT_3D('',#1645,#1328,#1329);
#1106=AXIS2_PLACEMENT_3D('',#1646,#1330,#1331);
#1107=AXIS2_PLACEMENT_3D('',#1647,#1332,#1333);
#1108=AXIS2_PLACEMENT_3D('',#1648,#1334,#1335);
#1109=AXIS2_PLACEMENT_3D('',#1649,#1336,#1337);
#1110=AXIS2_PLACEMENT_3D('',#1650,#1338,#1339);
#1111=AXIS2_PLACEMENT_3D('',#1651,#1340,#1341);
#1112=AXIS2_PLACEMENT_3D('',#1663,#1342,#1343);
#1113=AXIS2_PLACEMENT_3D('',#1678,#1346,#1347);
#1114=AXIS2_PLACEMENT_3D('',#1679,#1348,#1349);
#1115=AXIS2_PLACEMENT_3D('',#1680,#1350,#1351);
#1116=AXIS2_PLACEMENT_3D('',#1681,#1352,#1353);
#1117=AXIS2_PLACEMENT_3D('',#1682,#1354,#1355);
#1118=AXIS2_PLACEMENT_3D('',#1683,#1356,#1357);
#1119=AXIS2_PLACEMENT_3D('',#1684,#1358,#1359);
#1120=AXIS2_PLACEMENT_3D('',#1685,#1360,#1361);
#1121=AXIS2_PLACEMENT_3D('',#1688,#1363,#1364);
#1122=AXIS2_PLACEMENT_3D('',#1689,#1365,#1366);
#1123=AXIS2_PLACEMENT_3D('',#1692,#1369,#1370);
#1124=AXIS2_PLACEMENT_3D('',#1694,#1372,#1373);
#1125=AXIS2_PLACEMENT_3D('',#1696,#1375,#1376);
#1126=AXIS2_PLACEMENT_3D('',#1697,#1377,#1378);
#1127=AXIS2_PLACEMENT_3D('',#1698,#1379,#1380);
#1128=AXIS2_PLACEMENT_3D('',#1700,#1382,#1383);
#1129=AXIS2_PLACEMENT_3D('',#1702,#1385,#1386);
#1130=AXIS2_PLACEMENT_3D('',#1704,#1388,#1389);
#1131=AXIS2_PLACEMENT_3D('',#1705,#1390,#1391);
#1132=AXIS2_PLACEMENT_3D('',#1707,#1392,#1393);
#1133=AXIS2_PLACEMENT_3D('',#1710,#1395,#1396);
#1134=AXIS2_PLACEMENT_3D('',#1711,#1397,#1398);
#1135=AXIS2_PLACEMENT_3D('',#1713,#1399,#1400);
#1136=AXIS2_PLACEMENT_3D('',#1716,#1402,#1403);
#1137=AXIS2_PLACEMENT_3D('',#1717,#1404,#1405);
#1138=AXIS2_PLACEMENT_3D('',#1719,#1406,#1407);
#1139=AXIS2_PLACEMENT_3D('',#1722,#1409,#1410);
#1140=AXIS2_PLACEMENT_3D('',#1723,#1411,#1412);
#1141=AXIS2_PLACEMENT_3D('',#1725,#1413,#1414);
#1142=AXIS2_PLACEMENT_3D('',#1728,#1416,#1417);
#1143=AXIS2_PLACEMENT_3D('',#1729,#1418,#1419);
#1144=AXIS2_PLACEMENT_3D('',#1743,#1427,#1428);
#1145=AXIS2_PLACEMENT_3D('',#1749,#1432,#1433);
#1146=AXIS2_PLACEMENT_3D('',#1751,#1435,#1436);
#1147=AXIS2_PLACEMENT_3D('',#1758,#1441,#1442);
#1148=AXIS2_PLACEMENT_3D('',#1762,#1445,#1446);
#1149=AXIS2_PLACEMENT_3D('',#1764,#1448,#1449);
#1150=AXIS2_PLACEMENT_3D('',#1768,#1452,#1453);
#1151=AXIS2_PLACEMENT_3D('',#1770,#1455,#1456);
#1152=AXIS2_PLACEMENT_3D('',#1771,#1457,#1458);
#1153=DIRECTION('axis',(0.,0.,1.));
#1154=DIRECTION('refdir',(1.,0.,0.));
#1155=DIRECTION('center_axis',(0.707106781186553,-0.564520296094381,0.425813145989535));
#1156=DIRECTION('ref_axis',(-0.388948238093573,-0.813423954600344,-0.432505188600371));
#1157=DIRECTION('',(0.707106771402633,0.564620463904176,-0.425680332617304));
#1158=DIRECTION('',(1.96897160950517E-14,0.602190726095176,0.798352258971543));
#1159=DIRECTION('',(-0.707106781186542,-0.564520296094382,0.425813145989552));
#1160=DIRECTION('',(-1.96897160950517E-14,-0.602190726095176,-0.798352258971543));
#1161=DIRECTION('center_axis',(0.707106781186556,-0.564720584850818,0.425547483890737));
#1162=DIRECTION('ref_axis',(-0.389281620635037,-0.813299615753013,-0.432439076462523));
#1163=DIRECTION('',(0.707106781186539,0.564720584850817,-0.425547483890769));
#1164=DIRECTION('',(1.96965478508337E-14,0.601815023152049,0.798635510047292));
#1165=DIRECTION('',(0.,0.601815023152049,0.798635510047293));
#1166=DIRECTION('center_axis',(1.96119594299099E-14,0.601815023152049,0.798635510047292));
#1167=DIRECTION('ref_axis',(-1.4515123446537E-14,0.798635510047292,-0.601815023152049));
#1168=DIRECTION('',(1.,1.84713773257909E-14,0.));
#1169=DIRECTION('',(0.707106781186559,-0.564720584850816,0.425547483890735));
#1170=DIRECTION('',(-1.4515123446537E-14,0.798635510047292,-0.601815023152049));
#1171=DIRECTION('',(1.,-2.10478801243715E-16,-2.43982265753654E-14));
#1172=DIRECTION('',(1.4515123446537E-14,-0.798635510047292,0.601815023152049));
#1173=DIRECTION('center_axis',(1.96119594299099E-14,0.601815023152049,0.798635510047292));
#1174=DIRECTION('ref_axis',(1.4515123446537E-14,-0.798635510047292,0.601815023152049));
#1175=DIRECTION('',(1.,-2.10478801243715E-16,-2.43982265753654E-14));
#1176=DIRECTION('center_axis',(1.96119594299099E-14,0.601815023152049,0.798635510047292));
#1177=DIRECTION('ref_axis',(1.,-2.10478801243715E-16,-2.43982265753654E-14));
#1178=DIRECTION('',(-1.4515123446537E-14,0.798635510047292,-0.601815023152049));
#1179=DIRECTION('center_axis',(1.96119594299099E-14,0.601815023152049,0.798635510047292));
#1180=DIRECTION('ref_axis',(-1.4515123446537E-14,0.798635510047292,-0.601815023152049));
#1181=DIRECTION('',(-1.,-9.76010602660686E-16,2.52923104710816E-14));
#1182=DIRECTION('center_axis',(1.96119594299099E-14,0.601815023152049,0.798635510047292));
#1183=DIRECTION('ref_axis',(-1.,2.10478801243715E-16,2.43982265753654E-14));
#1184=DIRECTION('',(1.4515123446537E-14,-0.798635510047292,0.601815023152049));
#1185=DIRECTION('',(-1.,2.10478801243715E-16,2.43982265753654E-14));
#1186=DIRECTION('',(-1.4515123446537E-14,0.798635510047292,-0.601815023152049));
#1187=DIRECTION('center_axis',(-1.96119594299099E-14,-0.601815023152049,
-0.798635510047292));
#1188=DIRECTION('ref_axis',(-1.,2.10478801243715E-16,2.43982265753654E-14));
#1189=DIRECTION('',(-1.,2.10478801243715E-16,2.43982265753654E-14));
#1190=DIRECTION('center_axis',(-1.96119594299099E-14,-0.601815023152049,
-0.798635510047292));
#1191=DIRECTION('ref_axis',(-1.4515123446537E-14,0.798635510047293,-0.601815023152049));
#1192=DIRECTION('',(1.4515123446537E-14,-0.798635510047292,0.601815023152049));
#1193=DIRECTION('center_axis',(1.45707093288634E-14,-0.798352258971543,
0.602190726095176));
#1194=DIRECTION('ref_axis',(1.,1.15389779009323E-14,-8.89841045905528E-15));
#1195=DIRECTION('',(1.,1.15389779009323E-14,-8.8984104590553E-15));
#1196=DIRECTION('',(1.96897160950517E-14,0.602190726095176,0.798352258971543));
#1197=DIRECTION('',(-1.,-2.4352982807141E-13,-2.98662651623886E-13));
#1198=DIRECTION('center_axis',(-0.707106781186536,-0.564720584850819,0.425547483890771));
#1199=DIRECTION('ref_axis',(-0.389281620635016,0.813299615753013,0.432439076462542));
#1200=DIRECTION('',(0.,-0.601815023152049,-0.798635510047293));
#1201=DIRECTION('',(-0.707106771402683,0.564620463915236,-0.425680332602549));
#1202=DIRECTION('',(-1.96965478508337E-14,-0.601815023152049,-0.798635510047292));
#1203=DIRECTION('center_axis',(-0.707106781186542,-0.564520296094373,0.425813145989564));
#1204=DIRECTION('ref_axis',(-0.388948238093542,0.813423954600348,0.432505188600392));
#1205=DIRECTION('',(-0.707106781186554,0.564520296094373,-0.425813145989545));
#1206=DIRECTION('',(-1.96897160950517E-14,-0.602190726095176,-0.798352258971543));
#1207=DIRECTION('center_axis',(3.20710506309459E-14,0.602190726095175,0.798352258971543));
#1208=DIRECTION('ref_axis',(-1.97489274115167E-14,0.798352258971543,-0.602190726095175));
#1209=DIRECTION('center_axis',(-1.55400610684306E-16,-0.602190726095175,
-0.798352258971543));
#1210=DIRECTION('ref_axis',(1.45243495504153E-14,-0.798352258971543,0.602190726095175));
#1211=DIRECTION('',(3.20710506309459E-14,0.602190726095175,0.798352258971543));
#1212=DIRECTION('center_axis',(-1.55400610684205E-16,-0.602190726095175,
-0.798352258971543));
#1213=DIRECTION('ref_axis',(1.45243495504153E-14,-0.798352258971543,0.602190726095175));
#1214=DIRECTION('center_axis',(-1.55400610684306E-16,-0.602190726095175,
-0.798352258971543));
#1215=DIRECTION('ref_axis',(1.45243495504153E-14,-0.798352258971543,0.602190726095175));
#1216=DIRECTION('center_axis',(-1.55400610684306E-16,-0.602190726095175,
-0.798352258971543));
#1217=DIRECTION('ref_axis',(1.45243495504153E-14,-0.798352258971543,0.602190726095175));
#1218=DIRECTION('center_axis',(2.94239657581532E-14,0.60219072609517,0.798352258971547));
#1219=DIRECTION('ref_axis',(8.98625082454098E-15,0.798352258971547,-0.60219072609517));
#1220=DIRECTION('center_axis',(-1.55400610684306E-16,-0.602190726095175,
-0.798352258971543));
#1221=DIRECTION('ref_axis',(1.45243495504153E-14,-0.798352258971543,0.602190726095175));
#1222=DIRECTION('',(2.94239657581532E-14,0.60219072609517,0.798352258971547));
#1223=DIRECTION('center_axis',(-1.55400610684205E-16,-0.602190726095175,
-0.798352258971543));
#1224=DIRECTION('ref_axis',(1.45243495504153E-14,-0.798352258971543,0.602190726095175));
#1225=DIRECTION('center_axis',(-1.55400610684306E-16,-0.602190726095175,
-0.798352258971543));
#1226=DIRECTION('ref_axis',(1.45243495504153E-14,-0.798352258971543,0.602190726095175));
#1227=DIRECTION('center_axis',(-1.55400610684306E-16,-0.602190726095175,
-0.798352258971543));
#1228=DIRECTION('ref_axis',(1.45243495504153E-14,-0.798352258971543,0.602190726095175));
#1229=DIRECTION('center_axis',(7.33369603850286E-15,0.602190726095172,0.798352258971545));
#1230=DIRECTION('ref_axis',(-9.33275208479467E-15,0.798352258971545,-0.602190726095172));
#1231=DIRECTION('center_axis',(1.55400610684306E-16,0.602190726095175,0.798352258971543));
#1232=DIRECTION('ref_axis',(1.45243893504909E-14,-0.798352258971543,0.602190726095175));
#1233=DIRECTION('',(2.93602998412698E-16,0.602190726095176,0.798352258971543));
#1234=DIRECTION('center_axis',(1.55400610684205E-16,0.602190726095175,0.798352258971543));
#1235=DIRECTION('ref_axis',(1.45243893504909E-14,-0.798352258971543,0.602190726095175));
#1236=DIRECTION('',(2.93602998412698E-16,0.602190726095176,0.798352258971543));
#1237=DIRECTION('center_axis',(-1.45151981714875E-14,0.798352258971543,
-0.602190726095176));
#1238=DIRECTION('ref_axis',(-1.,-1.14946604430431E-14,8.86498215488873E-15));
#1239=DIRECTION('',(-1.,-1.14946604430431E-14,8.86498215488876E-15));
#1240=DIRECTION('',(-1.,-1.14946604430431E-14,8.86498215488874E-15));
#1241=DIRECTION('',(2.93602998412698E-16,0.602190726095176,0.798352258971543));
#1242=DIRECTION('center_axis',(1.96051276834913E-14,0.60219072609516,0.798352258971555));
#1243=DIRECTION('ref_axis',(1.,-5.55032751865286E-15,-2.0370421380053E-14));
#1244=DIRECTION('center_axis',(1.55400610684306E-16,0.602190726095175,0.798352258971543));
#1245=DIRECTION('ref_axis',(-1.45243893504909E-14,0.798352258971543,-0.602190726095175));
#1246=DIRECTION('center_axis',(1.55400610684205E-16,0.602190726095175,0.798352258971543));
#1247=DIRECTION('ref_axis',(-1.45243893504909E-14,0.798352258971543,-0.602190726095175));
#1248=DIRECTION('',(2.93602998412698E-16,0.602190726095176,0.798352258971543));
#1249=DIRECTION('center_axis',(1.55400610684205E-16,0.602190726095175,0.798352258971543));
#1250=DIRECTION('ref_axis',(1.,-2.38234376859265E-16,-1.49533970353786E-17));
#1251=DIRECTION('',(-1.45243893504909E-14,0.798352258971543,-0.602190726095175));
#1252=DIRECTION('',(1.45243893504909E-14,-0.798352258971543,0.602190726095175));
#1253=DIRECTION('center_axis',(1.,-2.6138538374038E-16,-2.4465781892054E-14));
#1254=DIRECTION('ref_axis',(-1.4515123446537E-14,0.798635510047292,-0.601815023152049));
#1255=DIRECTION('',(1.96965478508337E-14,0.601815023152049,0.798635510047292));
#1256=DIRECTION('',(1.96965478508337E-14,0.601815023152049,0.798635510047292));
#1257=DIRECTION('center_axis',(1.,-2.6138538374038E-16,-2.4465781892054E-14));
#1258=DIRECTION('ref_axis',(1.96965478508337E-14,0.601815023152045,0.798635510047295));
#1259=DIRECTION('',(1.4515123446537E-14,-0.798635510047292,0.601815023152049));
#1260=DIRECTION('center_axis',(1.,-2.6138538374038E-16,-2.4465781892054E-14));
#1261=DIRECTION('ref_axis',(1.45151234465371E-14,-0.79863551004729,0.601815023152051));
#1262=DIRECTION('',(-1.9696547850834E-14,-0.601815023152031,-0.798635510047306));
#1263=DIRECTION('center_axis',(-1.,2.6138538374038E-16,2.4465781892054E-14));
#1264=DIRECTION('ref_axis',(1.4515123446537E-14,-0.798635510047292,0.601815023152049));
#1265=DIRECTION('',(1.96965478508337E-14,0.601815023152049,0.798635510047292));
#1266=DIRECTION('center_axis',(1.96965478508337E-14,0.601815023152049,0.798635510047292));
#1267=DIRECTION('ref_axis',(-1.4515123446537E-14,0.798635510047293,-0.601815023152049));
#1268=DIRECTION('',(1.96965478508337E-14,0.601815023152049,0.798635510047292));
#1269=DIRECTION('center_axis',(1.96119594299099E-14,0.601815023152049,0.798635510047292));
#1270=DIRECTION('ref_axis',(-1.4515123446537E-14,0.798635510047292,-0.601815023152049));
#1271=DIRECTION('center_axis',(-1.96119594299099E-14,-0.601815023152049,
-0.798635510047292));
#1272=DIRECTION('ref_axis',(0.707106781186537,0.564720584850818,-0.42554748389077));
#1273=DIRECTION('',(1.96119594299099E-14,0.601815023152049,0.798635510047292));
#1274=DIRECTION('',(1.96119594299099E-14,0.601815023152049,0.798635510047292));
#1275=DIRECTION('center_axis',(-1.60007691371903E-14,0.798635510047292,
-0.601815023152049));
#1276=DIRECTION('ref_axis',(-1.,-9.76010602660691E-16,2.52923104710816E-14));
#1277=DIRECTION('',(1.,9.76010602660686E-16,-2.52923104710816E-14));
#1278=DIRECTION('',(1.96119594299099E-14,0.601815023152049,0.798635510047292));
#1279=DIRECTION('center_axis',(1.96119594299099E-14,0.601815023152049,0.798635510047292));
#1280=DIRECTION('ref_axis',(-1.,2.10478801243715E-16,2.43982265753654E-14));
#1281=DIRECTION('center_axis',(-1.96119594299099E-14,-0.601815023152049,
-0.798635510047292));
#1282=DIRECTION('ref_axis',(-0.707106781186557,0.564720584850818,-0.425547483890736));
#1283=DIRECTION('',(1.96119594299099E-14,0.601815023152049,0.798635510047292));
#1284=DIRECTION('center_axis',(-1.,2.10478801243715E-16,2.43982265753654E-14));
#1285=DIRECTION('ref_axis',(1.4515123446537E-14,-0.798635510047292,0.601815023152049));
#1286=DIRECTION('',(-1.96119594299098E-14,-0.601815023152049,-0.798635510047292));
#1287=DIRECTION('',(-1.4515123446537E-14,0.798635510047292,-0.601815023152049));
#1288=DIRECTION('center_axis',(-1.,2.10478801243715E-16,2.43982265753654E-14));
#1289=DIRECTION('ref_axis',(1.96119594299099E-14,0.601815023152045,0.798635510047295));
#1290=DIRECTION('center_axis',(-1.96119594299099E-14,-0.601815023152049,
-0.798635510047292));
#1291=DIRECTION('ref_axis',(-1.,2.10478801243715E-16,2.43982265753654E-14));
#1292=DIRECTION('',(-1.4515123446537E-14,0.798635510047292,-0.601815023152049));
#1293=DIRECTION('center_axis',(1.96119594299099E-14,0.601815023152049,0.798635510047292));
#1294=DIRECTION('ref_axis',(0.707106781186558,-0.564720584850817,0.425547483890735));
#1295=DIRECTION('',(1.,-2.10478801243715E-16,-2.43982265753654E-14));
#1296=DIRECTION('center_axis',(1.96119594299099E-14,0.601815023152049,0.798635510047292));
#1297=DIRECTION('ref_axis',(-0.707106781186538,-0.564720584850817,0.42554748389077));
#1298=DIRECTION('',(1.4515123446537E-14,-0.798635510047292,0.601815023152049));
#1299=DIRECTION('center_axis',(1.96119594299099E-14,0.601815023152049,0.798635510047292));
#1300=DIRECTION('ref_axis',(-0.707106781186557,0.564720584850818,-0.425547483890736));
#1301=DIRECTION('',(-1.,-9.76010602660686E-16,2.52923104710816E-14));
#1302=DIRECTION('center_axis',(1.96119594299099E-14,0.601815023152049,0.798635510047292));
#1303=DIRECTION('ref_axis',(0.707106781186537,0.564720584850818,-0.42554748389077));
#1304=DIRECTION('center_axis',(1.96119594299099E-14,0.601815023152049,0.798635510047292));
#1305=DIRECTION('ref_axis',(-1.,2.10478801243715E-16,2.43982265753654E-14));
#1306=DIRECTION('center_axis',(1.96119594299099E-14,0.601815023152049,0.798635510047292));
#1307=DIRECTION('ref_axis',(-1.,2.10478801243715E-16,2.43982265753654E-14));
#1308=DIRECTION('center_axis',(1.,-2.10478801243715E-16,-2.43982265753654E-14));
#1309=DIRECTION('ref_axis',(-1.4515123446537E-14,0.798635510047292,-0.601815023152049));
#1310=DIRECTION('',(1.4515123446537E-14,-0.798635510047292,0.601815023152049));
#1311=DIRECTION('',(1.96119594299099E-14,0.601815023152049,0.798635510047292));
#1312=DIRECTION('center_axis',(1.96119594299099E-14,0.601815023152049,0.798635510047292));
#1313=DIRECTION('ref_axis',(1.,-2.10478801243715E-16,-2.43982265753654E-14));
#1314=DIRECTION('center_axis',(-1.96119594299099E-14,-0.601815023152049,
-0.798635510047292));
#1315=DIRECTION('ref_axis',(0.707106781186558,-0.564720584850817,0.425547483890735));
#1316=DIRECTION('',(1.96119594299099E-14,0.601815023152049,0.798635510047292));
#1317=DIRECTION('center_axis',(1.4515123446537E-14,-0.798635510047292,0.601815023152049));
#1318=DIRECTION('ref_axis',(1.,-2.10478801243715E-16,-2.43982265753654E-14));
#1319=DIRECTION('',(-1.,2.10478801243715E-16,2.43982265753654E-14));
#1320=DIRECTION('',(1.96119594299099E-14,0.601815023152049,0.798635510047292));
#1321=DIRECTION('center_axis',(1.96119594299099E-14,0.601815023152049,0.798635510047292));
#1322=DIRECTION('ref_axis',(1.4515123446537E-14,-0.798635510047292,0.601815023152049));
#1323=DIRECTION('center_axis',(-1.96119594299099E-14,-0.601815023152049,
-0.798635510047292));
#1324=DIRECTION('ref_axis',(-0.707106781186538,-0.564720584850817,0.42554748389077));
#1325=DIRECTION('',(1.96119594299099E-14,0.601815023152049,0.798635510047292));
#1326=DIRECTION('center_axis',(1.96119594299099E-14,0.601815023152049,0.798635510047292));
#1327=DIRECTION('ref_axis',(1.,0.,-2.43930600466925E-14));
#1328=DIRECTION('center_axis',(1.4515123446537E-14,-0.798635510047292,0.601815023152049));
#1329=DIRECTION('ref_axis',(1.,-2.10478801243715E-16,-2.43982265753654E-14));
#1330=DIRECTION('center_axis',(1.,-2.10478801243715E-16,-2.43982265753654E-14));
#1331=DIRECTION('ref_axis',(1.96119594299098E-14,0.60181502315205,0.798635510047292));
#1332=DIRECTION('center_axis',(1.,-2.10478801243715E-16,-2.43982265753654E-14));
#1333=DIRECTION('ref_axis',(2.41314917240509E-14,-0.139173100960065,0.99026806874157));
#1334=DIRECTION('center_axis',(1.,-2.10478801243715E-16,-2.43982265753654E-14));
#1335=DIRECTION('ref_axis',(1.96119594299099E-14,0.601815023152049,0.798635510047292));
#1336=DIRECTION('center_axis',(1.96119594299099E-14,0.601815023152049,0.798635510047292));
#1337=DIRECTION('ref_axis',(1.,0.,-2.43930600466925E-14));
#1338=DIRECTION('center_axis',(1.76015374871744E-14,-0.798635510047295,
0.601815023152046));
#1339=DIRECTION('ref_axis',(1.96119594299099E-14,0.601815023152046,0.798635510047295));
#1340=DIRECTION('center_axis',(1.4515123446537E-14,-0.798635510047292,0.601815023152049));
#1341=DIRECTION('ref_axis',(-0.707106781186537,0.425547483890751,0.564720584850832));
#1342=DIRECTION('center_axis',(1.4515123446537E-14,-0.798635510047295,0.601815023152046));
#1343=DIRECTION('ref_axis',(1.96119594299099E-14,0.601815023152046,0.798635510047295));
#1344=DIRECTION('',(-1.4515123446537E-14,0.798635510047292,-0.601815023152049));
#1345=DIRECTION('',(-1.4515123446537E-14,0.798635510047292,-0.601815023152049));
#1346=DIRECTION('center_axis',(1.96119594299099E-14,0.601815023152049,0.798635510047292));
#1347=DIRECTION('ref_axis',(1.,0.,-2.43930600466925E-14));
#1348=DIRECTION('center_axis',(-1.,2.10478801243715E-16,2.43982265753654E-14));
#1349=DIRECTION('ref_axis',(1.96119594299098E-14,0.601815023152052,0.79863551004729));
#1350=DIRECTION('center_axis',(-1.,-9.76010602660686E-16,2.52923104710816E-14));
#1351=DIRECTION('ref_axis',(2.55349714413679E-15,0.990268068741572,0.139173100960055));
#1352=DIRECTION('center_axis',(-1.,2.10478801243715E-16,2.43982265753654E-14));
#1353=DIRECTION('ref_axis',(1.96119594299099E-14,0.601815023152046,0.798635510047295));
#1354=DIRECTION('center_axis',(1.96119594299099E-14,0.601815023152049,0.798635510047292));
#1355=DIRECTION('ref_axis',(1.,0.,-2.43930600466925E-14));
#1356=DIRECTION('center_axis',(-1.4515123446537E-14,0.798635510047295,-0.601815023152046));
#1357=DIRECTION('ref_axis',(1.96119594299099E-14,0.601815023152046,0.798635510047295));
#1358=DIRECTION('center_axis',(-1.4515123446537E-14,0.798635510047292,-0.601815023152049));
#1359=DIRECTION('ref_axis',(0.707106781186563,0.425547483890752,0.564720584850799));
#1360=DIRECTION('center_axis',(-1.,2.10478801243715E-16,2.43982265753654E-14));
#1361=DIRECTION('ref_axis',(1.4515123446537E-14,-0.798635510047292,0.601815023152049));
#1362=DIRECTION('',(1.96119594299102E-14,0.601815023152031,0.798635510047306));
#1363=DIRECTION('center_axis',(-1.,2.10478801243715E-16,2.43982265753654E-14));
#1364=DIRECTION('ref_axis',(1.45151234465371E-14,-0.79863551004729,0.601815023152051));
#1365=DIRECTION('center_axis',(1.,-2.10478801243715E-16,-2.43982265753654E-14));
#1366=DIRECTION('ref_axis',(1.96119594299099E-14,0.601815023152045,0.798635510047295));
#1367=DIRECTION('',(1.,-2.10478801243715E-16,-2.43982265753654E-14));
#1368=DIRECTION('',(1.,-2.10478801243715E-16,-2.43982265753654E-14));
#1369=DIRECTION('center_axis',(1.96119594299099E-14,0.601815023152049,0.798635510047292));
#1370=DIRECTION('ref_axis',(1.4515123446537E-14,-0.798635510047292,0.601815023152049));
#1371=DIRECTION('',(1.,-2.10478801243715E-16,-2.43982265753654E-14));
#1372=DIRECTION('center_axis',(1.,-2.10478801243715E-16,-2.43982265753654E-14));
#1373=DIRECTION('ref_axis',(1.45151234465371E-14,-0.79863551004729,0.601815023152051));
#1374=DIRECTION('',(1.,-2.10478801243715E-16,-2.43982265753654E-14));
#1375=DIRECTION('center_axis',(1.45151234465366E-14,-0.798635510047306,
0.601815023152031));
#1376=DIRECTION('ref_axis',(-1.9696547850834E-14,-0.601815023152031,-0.798635510047306));
#1377=DIRECTION('center_axis',(-1.45151234465371E-14,0.798635510047292,
-0.60181502315205));
#1378=DIRECTION('ref_axis',(1.95828083510714E-14,0.60181502315205,0.798635510047292));
#1379=DIRECTION('center_axis',(1.96119594299099E-14,0.601815023152049,0.798635510047292));
#1380=DIRECTION('ref_axis',(-1.,2.10478801243715E-16,2.43982265753654E-14));
#1381=DIRECTION('',(1.96119594299099E-14,0.601815023152049,0.798635510047292));
#1382=DIRECTION('center_axis',(1.96119594299099E-14,0.601815023152049,0.798635510047292));
#1383=DIRECTION('ref_axis',(-1.,2.10478801243715E-16,2.43982265753654E-14));
#1384=DIRECTION('',(1.96119594299099E-14,0.601815023152049,0.798635510047292));
#1385=DIRECTION('center_axis',(1.4515123446537E-14,-0.798635510047292,0.601815023152049));
#1386=DIRECTION('ref_axis',(1.96119594299099E-14,0.601815023152049,0.798635510047292));
#1387=DIRECTION('',(1.96965478508337E-14,0.601815023152049,0.798635510047292));
#1388=DIRECTION('center_axis',(1.96965478508337E-14,0.601815023152049,0.798635510047292));
#1389=DIRECTION('ref_axis',(-1.,2.6138538374038E-16,2.4465781892054E-14));
#1390=DIRECTION('center_axis',(0.,0.,-1.));
#1391=DIRECTION('ref_axis',(-1.,0.,0.));
#1392=DIRECTION('center_axis',(0.,0.,1.));
#1393=DIRECTION('ref_axis',(-1.,0.,0.));
#1394=DIRECTION('',(0.,0.,1.));
#1395=DIRECTION('center_axis',(0.,0.,1.));
#1396=DIRECTION('ref_axis',(-1.,0.,0.));
#1397=DIRECTION('center_axis',(0.,0.,-1.));
#1398=DIRECTION('ref_axis',(-1.,0.,0.));
#1399=DIRECTION('center_axis',(0.,0.,1.));
#1400=DIRECTION('ref_axis',(-1.,0.,0.));
#1401=DIRECTION('',(0.,0.,1.));
#1402=DIRECTION('center_axis',(0.,0.,1.));
#1403=DIRECTION('ref_axis',(-1.,0.,0.));
#1404=DIRECTION('center_axis',(0.,0.,-1.));
#1405=DIRECTION('ref_axis',(-1.,0.,0.));
#1406=DIRECTION('center_axis',(0.,0.,1.));
#1407=DIRECTION('ref_axis',(-1.,0.,0.));
#1408=DIRECTION('',(0.,0.,1.));
#1409=DIRECTION('center_axis',(0.,0.,1.));
#1410=DIRECTION('ref_axis',(-1.,0.,0.));
#1411=DIRECTION('center_axis',(0.,0.,-1.));
#1412=DIRECTION('ref_axis',(-1.,0.,0.));
#1413=DIRECTION('center_axis',(0.,0.,1.));
#1414=DIRECTION('ref_axis',(-1.,0.,0.));
#1415=DIRECTION('',(0.,0.,1.));
#1416=DIRECTION('center_axis',(0.,0.,1.));
#1417=DIRECTION('ref_axis',(-1.,0.,0.));
#1418=DIRECTION('center_axis',(0.,0.447526163860027,0.894270838538711));
#1419=DIRECTION('ref_axis',(0.,-0.894270838538711,0.447526163860027));
#1420=DIRECTION('',(0.,0.89427083853871,-0.447526163860027));
#1421=DIRECTION('',(1.,0.,0.));
#1422=DIRECTION('',(0.,-0.89427083853871,0.447526163860027));
#1423=DIRECTION('',(0.,0.89427083853871,-0.447526163860027));
#1424=DIRECTION('',(1.,0.,0.));
#1425=DIRECTION('',(0.,-0.89427083853871,0.447526163860027));
#1426=DIRECTION('',(1.,0.,0.));
#1427=DIRECTION('center_axis',(0.,1.,0.));
#1428=DIRECTION('ref_axis',(-1.,0.,0.));
#1429=DIRECTION('',(0.,0.,-1.));
#1430=DIRECTION('',(-1.,0.,0.));
#1431=DIRECTION('',(0.,0.,-1.));
#1432=DIRECTION('center_axis',(-1.,0.,0.));
#1433=DIRECTION('ref_axis',(0.,1.,0.));
#1434=DIRECTION('',(0.,-1.,0.));
#1435=DIRECTION('center_axis',(0.,1.,0.));
#1436=DIRECTION('ref_axis',(1.,0.,0.));
#1437=DIRECTION('',(1.,0.,0.));
#1438=DIRECTION('',(0.,0.,-1.));
#1439=DIRECTION('',(-1.,0.,0.));
#1440=DIRECTION('',(0.,0.,1.));
#1441=DIRECTION('center_axis',(-1.,0.,0.));
#1442=DIRECTION('ref_axis',(0.,0.,1.));
#1443=DIRECTION('',(0.,1.,0.));
#1444=DIRECTION('',(0.,-0.601815023152049,-0.798635510047293));
#1445=DIRECTION('center_axis',(0.,0.,-1.));
#1446=DIRECTION('ref_axis',(-1.,0.,0.));
#1447=DIRECTION('',(0.,1.,0.));
#1448=DIRECTION('center_axis',(1.,0.,0.));
#1449=DIRECTION('ref_axis',(0.,0.,-1.));
#1450=DIRECTION('',(0.,0.601815023152049,0.798635510047293));
#1451=DIRECTION('',(0.,1.,0.));
#1452=DIRECTION('center_axis',(1.4751897851859E-14,-0.798635510047293,0.601815023152049));
#1453=DIRECTION('ref_axis',(1.,-5.52202633654708E-29,-2.45123456283875E-14));
#1454=DIRECTION('',(-1.,0.,0.));
#1455=DIRECTION('center_axis',(1.,0.,0.));
#1456=DIRECTION('ref_axis',(0.,-1.,0.));
#1457=DIRECTION('center_axis',(0.,0.,1.));
#1458=DIRECTION('ref_axis',(1.,0.,0.));
#1459=CARTESIAN_POINT('',(0.,0.,0.));
#1460=CARTESIAN_POINT('Origin',(1.34999999999999,48.0412946552529,-13.1033491480118));
#1461=CARTESIAN_POINT('',(0.850000000000246,55.3179563660218,-2.62603848685939));
#1462=CARTESIAN_POINT('',(1.85000000000023,56.1164502947168,-3.22804139481186));
#1463=CARTESIAN_POINT('',(0.850000000000246,55.3179563660218,-2.62603848685939));
#1464=CARTESIAN_POINT('',(1.85000000000029,58.0963117323943,-0.603246985456201));
#1465=CARTESIAN_POINT('',(1.84999999999998,48.4404707847386,-13.4044445110595));
#1466=CARTESIAN_POINT('',(0.850000000000311,57.2979594734228,-0.00105625936098974));
#1467=CARTESIAN_POINT('',(0.924534871541312,57.3574645564897,-0.0459404677736952));
#1468=CARTESIAN_POINT('',(0.849999999999997,47.6421185257671,-12.8022537849643));
#1469=CARTESIAN_POINT('Origin',(1.34999999999992,46.0441456003944,-15.7636211106339));
#1470=CARTESIAN_POINT('',(0.849999999999997,39.9650751511561,-23.));
#1471=CARTESIAN_POINT('',(1.84999999999973,40.7636058362593,-23.6019541305514));
#1472=CARTESIAN_POINT('',(5.47499999999968,43.6586595601806,-25.7835335894776));
#1473=CARTESIAN_POINT('',(1.84999999999991,46.4434633554181,-16.06452862221));
#1474=CARTESIAN_POINT('',(0.849999999999999,45.0400398868501,-16.2652943275912));
#1475=CARTESIAN_POINT('Origin',(18.3499999999997,39.9649703262119,-23.0001391073997));
#1476=CARTESIAN_POINT('',(-44.15,39.9650751511557,-22.9999999999994));
#1477=CARTESIAN_POINT('',(-10.9000000482408,39.9650751511559,-23.));
#1478=CARTESIAN_POINT('',(-45.1500000000003,40.7636058362594,-23.6019541305502));
#1479=CARTESIAN_POINT('',(-28.7749999999999,27.6859493592349,-13.7472331264358));
#1480=CARTESIAN_POINT('',(-45.1500000000004,47.5520076716616,-28.7173818273429));
#1481=CARTESIAN_POINT('',(-45.1500000000003,43.3807344026842,-25.5741019614194));
#1482=CARTESIAN_POINT('',(-43.1500000000004,47.5520076716616,-28.717381827343));
#1483=CARTESIAN_POINT('',(-13.4000000000004,47.5520076716616,-28.7173818273437));
#1484=CARTESIAN_POINT('',(-43.1500000000004,46.7964984791565,-28.1480648154408));
#1485=CARTESIAN_POINT('',(-43.1500000000005,55.3171407358511,-34.56882929745));
#1486=CARTESIAN_POINT('',(-36.5960000000003,41.5622413463065,-24.2037691537024));
#1487=CARTESIAN_POINT('Origin',(-36.5960000000004,46.7964984791565,-28.1480648154409));
#1488=CARTESIAN_POINT('',(-6.70400000000028,41.5622413463065,-24.2037691537032));
#1489=CARTESIAN_POINT('',(-9.12300000000029,41.5622413463065,-24.2037691537031));
#1490=CARTESIAN_POINT('',(-0.150000000000379,46.7964984791565,-28.1480648154418));
#1491=CARTESIAN_POINT('Origin',(-6.70400000000038,46.7964984791565,-28.1480648154417));
#1492=CARTESIAN_POINT('',(-0.150000000000814,70.6693111454902,-46.1375194875029));
#1493=CARTESIAN_POINT('',(-0.150000000000317,43.3807344026842,-25.5741019614205));
#1494=CARTESIAN_POINT('',(-6.7040000000009,75.9035682783401,-50.0818151492412));
#1495=CARTESIAN_POINT('Origin',(-6.70400000000081,70.6693111454901,-46.1375194875027));
#1496=CARTESIAN_POINT('',(-36.5960000000009,75.9035682783401,-50.0818151492405));
#1497=CARTESIAN_POINT('',(5.82299999999909,75.9035682783401,-50.0818151492416));
#1498=CARTESIAN_POINT('',(-43.1500000000008,70.6693111454901,-46.1375194875018));
#1499=CARTESIAN_POINT('Origin',(-36.5960000000008,70.6693111454901,-46.137519487502));
#1500=CARTESIAN_POINT('',(-43.1500000000008,69.9138019529854,-45.5682024756001));
#1501=CARTESIAN_POINT('',(-43.1500000000005,55.3171407358511,-34.56882929745));
#1502=CARTESIAN_POINT('',(-45.1500000000008,69.9138019529854,-45.5682024756));
#1503=CARTESIAN_POINT('',(-13.4000000000008,69.9138019529854,-45.5682024756008));
#1504=CARTESIAN_POINT('',(-45.1500000000008,70.6693111454901,-46.1375194875018));
#1505=CARTESIAN_POINT('',(-45.1500000000003,43.3807344026842,-25.5741019614194));
#1506=CARTESIAN_POINT('',(-36.5960000000009,77.5008392984347,-51.2854451955446));
#1507=CARTESIAN_POINT('Origin',(-36.5960000000008,70.6693111454901,-46.137519487502));
#1508=CARTESIAN_POINT('',(-6.70400000000094,77.5008392984347,-51.2854451955453));
#1509=CARTESIAN_POINT('',(-21.6500000000009,77.5008392984347,-51.285445195545));
#1510=CARTESIAN_POINT('',(1.84999999999919,70.6693111454902,-46.1375194875029));
#1511=CARTESIAN_POINT('Origin',(-6.70400000000081,70.6693111454902,-46.1375194875027));
#1512=CARTESIAN_POINT('',(1.84999999999947,55.3171407358511,-34.5688292974511));
#1513=CARTESIAN_POINT('Origin',(-45.1499999999998,55.3179563660213,-2.62603848685897));
#1514=CARTESIAN_POINT('',(-44.1499999999997,57.2979594734222,-0.00105625936053677));
#1515=CARTESIAN_POINT('',(-21.6499999999999,57.2979594734225,-0.00105625936071441));
#1516=CARTESIAN_POINT('',(-44.1499999999998,55.3179563660212,-2.62603848685893));
#1517=CARTESIAN_POINT('',(-44.15,47.6378837343936,-12.8078680448859));
#1518=CARTESIAN_POINT('',(-33.4000000482447,55.3179563658492,-2.62603848708748));
#1519=CARTESIAN_POINT('Origin',(-44.6500000000001,46.0441456003944,-15.7636211106328));
#1520=CARTESIAN_POINT('',(-44.15,38.7018667502483,-24.6763341670511));
#1521=CARTESIAN_POINT('',(-45.1499999999998,56.1164502947319,-3.22804139479056));
#1522=CARTESIAN_POINT('',(-44.1499999999998,55.3179563660212,-2.62603848685893));
#1523=CARTESIAN_POINT('',(-45.1500000000001,46.443463355418,-16.0645286222089));
#1524=CARTESIAN_POINT('Origin',(-44.65,48.0370598638794,-13.1089634079334));
#1525=CARTESIAN_POINT('',(-45.1499999999997,58.0963117323938,-0.603246985455774));
#1526=CARTESIAN_POINT('',(-44.2245348715412,57.3574645564895,-0.045940467773482));
#1527=CARTESIAN_POINT('',(-45.15,48.4362359933652,-13.410058770981));
#1528=CARTESIAN_POINT('Origin',(-31.6500000000001,75.0692379523916,-15.4650309048312));
#1529=CARTESIAN_POINT('',(-29.9499998118238,74.0792365286309,-16.7775221165929));
#1530=CARTESIAN_POINT('',(-31.6500000000001,72.7220372783244,-15.7537975729302));
#1531=CARTESIAN_POINT('Origin',(-31.6500000000001,74.079236528575,-16.7775221165508));
#1532=CARTESIAN_POINT('',(-31.65,74.7020406454934,-13.1288155413725));
#1533=CARTESIAN_POINT('',(-31.65,73.712038832025,-14.4413064591809));
#1534=CARTESIAN_POINT('Origin',(-31.65,76.059239635976,-14.1525398890524));
#1535=CARTESIAN_POINT('',(-33.3500001881764,74.0792365285194,-16.7775221165089));
#1536=CARTESIAN_POINT('Origin',(-31.6500000000001,74.079236528575,-16.7775221165508));
#1537=CARTESIAN_POINT('Origin',(-31.6500000000001,74.079236528575,-16.7775221165508));
#1538=CARTESIAN_POINT('Origin',(-11.6500000000001,75.0692379523918,-15.4650309048313));
#1539=CARTESIAN_POINT('',(-9.94999981182378,74.0792365286311,-16.7775221165931));
#1540=CARTESIAN_POINT('',(-11.6500000000001,72.7220372783247,-15.7537975729303));
#1541=CARTESIAN_POINT('Origin',(-11.6500000000001,74.0792365285753,-16.777522116551));
#1542=CARTESIAN_POINT('',(-11.6500000000001,74.7020406454937,-13.1288155413728));
#1543=CARTESIAN_POINT('',(-11.6500000000001,73.7120388320252,-14.441306459181));
#1544=CARTESIAN_POINT('Origin',(-11.65,76.0592396359763,-14.1525398890526));
#1545=CARTESIAN_POINT('',(-13.3500001881764,74.0792365285196,-16.777522116509));
#1546=CARTESIAN_POINT('Origin',(-11.6500000000001,74.0792365285753,-16.777522116551));
#1547=CARTESIAN_POINT('Origin',(-11.6500000000001,74.0792365285753,-16.777522116551));
#1548=CARTESIAN_POINT('Origin',(-36.5960000000003,87.0014135960868,-24.465375594816));
#1549=CARTESIAN_POINT('',(-36.5960000000004,92.8405166911287,-30.9290057462425));
#1550=CARTESIAN_POINT('',(-45.15000031562,86.011410711959,-25.7778657050346));
#1551=CARTESIAN_POINT('Origin',(-36.5960000000003,86.0114107119591,-25.7778657050346));
#1552=CARTESIAN_POINT('',(-45.1500003156199,87.9914138193601,-23.1528834775362));
#1553=CARTESIAN_POINT('',(-45.1500000000003,86.0114107119591,-25.7778657050346));
#1554=CARTESIAN_POINT('',(-36.5960000000004,94.8205197985297,-28.304023518744));
#1555=CARTESIAN_POINT('Origin',(-36.5960000000003,87.9914138193601,-23.1528834775362));
#1556=CARTESIAN_POINT('',(-36.5960000000004,92.8405166911287,-30.9290057462425));
#1557=CARTESIAN_POINT('Origin',(-6.70400000000043,92.8405166911291,-30.9290057462428));
#1558=CARTESIAN_POINT('',(-6.7040000000004,92.8405166910908,-30.9290057462934));
#1559=CARTESIAN_POINT('',(-1.65000000000084,92.8405166911291,-30.9290057462428));
#1560=CARTESIAN_POINT('',(-6.70400000000021,94.82051979853,-28.3040235187443));
#1561=CARTESIAN_POINT('',(-1.65000000000078,94.8205197985301,-28.3040235187444));
#1562=CARTESIAN_POINT('',(-6.70400000000043,92.8405166911291,-30.9290057462428));
#1563=CARTESIAN_POINT('Origin',(-6.70400166646668,87.0014122656602,-24.4653745912857));
#1564=CARTESIAN_POINT('',(1.85000031561933,86.0114107119596,-25.7778657050351));
#1565=CARTESIAN_POINT('Origin',(-6.70400000000031,86.0114107119595,-25.7778657050349));
#1566=CARTESIAN_POINT('',(1.85000031561937,87.9914138193606,-23.1528834775366));
#1567=CARTESIAN_POINT('Origin',(-6.70400000000025,87.9914138193605,-23.1528834775365));
#1568=CARTESIAN_POINT('',(1.84999999999969,86.0114107119597,-25.7778657050351));
#1569=CARTESIAN_POINT('Origin',(-21.6500000000003,74.7005533735792,-13.1276937040584));
#1570=CARTESIAN_POINT('',(1.84999999999987,81.3507716534898,-18.143900183927));
#1571=CARTESIAN_POINT('',(-45.1499999999999,69.418600111696,-9.1435585879735));
#1572=CARTESIAN_POINT('Origin',(-45.1500000000004,46.7964984791565,-28.1480648154407));
#1573=CARTESIAN_POINT('',(-45.1500000000008,70.6693111454901,-46.1375194875018));
#1574=CARTESIAN_POINT('',(-45.1500000000004,81.7093764067656,-29.9149464786731));
#1575=CARTESIAN_POINT('',(-45.1500000000008,69.9138019529854,-45.5682024756));
#1576=CARTESIAN_POINT('',(-45.1500000000003,81.2173251895274,-26.4138201456747));
#1577=CARTESIAN_POINT('Origin',(-45.1500000000004,79.7127876316473,-28.4104089207929));
#1578=CARTESIAN_POINT('',(-45.15,62.8487084584398,-12.5720746131775));
#1579=CARTESIAN_POINT('',(-45.1500000000001,70.6569678401721,-18.4560200945351));
#1580=CARTESIAN_POINT('',(-45.15,59.3475821254414,-13.0641258304156));
#1581=CARTESIAN_POINT('Origin',(-45.15,61.3441709005596,-14.5686633882958));
#1582=CARTESIAN_POINT('',(-45.1500000000002,53.4497948985515,-20.8907538288793));
#1583=CARTESIAN_POINT('Origin',(1.84999999999919,70.6693111454902,-46.1375194875029));
#1584=CARTESIAN_POINT('',(1.84999999999919,70.6693111454902,-46.1375194875029));
#1585=CARTESIAN_POINT('Origin',(-6.70400000000081,70.6693111454902,-46.1375194875027));
#1586=CARTESIAN_POINT('',(-6.70400000000094,77.5008392984347,-51.2854451955453));
#1587=CARTESIAN_POINT('Origin',(-6.70400000000081,70.6693111454902,-46.1375194875027));
#1588=CARTESIAN_POINT('',(-6.7040000000005,88.2407762529571,-33.7097871932718));
#1589=CARTESIAN_POINT('',(-0.15000000000041,83.0065191201072,-29.7654915315334));
#1590=CARTESIAN_POINT('Origin',(-6.70400000000041,83.0065191201072,-29.7654915315332));
#1591=CARTESIAN_POINT('',(-6.7040000000009,75.9035682783401,-50.0818151492412));
#1592=CARTESIAN_POINT('',(-0.150000000000814,70.6693111454902,-46.1375194875029));
#1593=CARTESIAN_POINT('Origin',(-6.7040000000009,75.9035682783401,-50.0818151492412));
#1594=CARTESIAN_POINT('',(-36.5960000000005,88.2407762529571,-33.7097871932711));
#1595=CARTESIAN_POINT('',(-14.1770000000005,88.2407762529571,-33.7097871932716));
#1596=CARTESIAN_POINT('',(-36.5960000000009,75.9035682783401,-50.0818151492405));
#1597=CARTESIAN_POINT('Origin',(-36.5960000000008,70.6693111454901,-46.137519487502));
#1598=CARTESIAN_POINT('',(-43.1500000000004,83.0065191201071,-29.7654915315324));
#1599=CARTESIAN_POINT('Origin',(-36.5960000000004,83.0065191201071,-29.7654915315326));
#1600=CARTESIAN_POINT('',(-43.1500000000008,70.6693111454901,-46.1375194875018));
#1601=CARTESIAN_POINT('Origin',(-43.1500000000008,70.6693111454901,-46.1375194875018));
#1602=CARTESIAN_POINT('',(-43.1500000000004,81.7093764067656,-29.9149464786731));
#1603=CARTESIAN_POINT('',(-43.1500000000008,69.9138019529855,-45.5682024756));
#1604=CARTESIAN_POINT('',(-43.1500000000004,82.1171432487246,-29.0952987415884));
#1605=CARTESIAN_POINT('',(-43.1500000000003,77.0383159535237,-25.2681278635171));
#1606=CARTESIAN_POINT('Origin',(-43.1500000000004,79.7127876316473,-28.410408920793));
#1607=CARTESIAN_POINT('Origin',(-21.6500000000002,72.2737428332445,-19.1734931754078));
#1608=CARTESIAN_POINT('',(-2.14999999999994,60.3373365000776,-10.1787658393778));
#1609=CARTESIAN_POINT('',(-2.15000000000038,84.2101491664113,-28.1682205114388));
#1610=CARTESIAN_POINT('',(-2.15000000000005,66.305539666661,-14.676129507393));
#1611=CARTESIAN_POINT('',(-6.70399999999987,56.7003503873222,-7.43810022394324));
#1612=CARTESIAN_POINT('Origin',(-6.70399999999994,60.3373365000776,-10.1787658393776));
#1613=CARTESIAN_POINT('',(-36.5959999999999,56.7003503873222,-7.43810022394252));
#1614=CARTESIAN_POINT('',(-29.1229999999999,56.7003503873222,-7.4381002239427));
#1615=CARTESIAN_POINT('',(-41.1499999999999,60.3373365000776,-10.1787658393768));
#1616=CARTESIAN_POINT('Origin',(-36.5959999999999,60.3373365000776,-10.1787658393769));
#1617=CARTESIAN_POINT('',(-41.1500000000004,84.2101491664112,-28.1682205114378));
#1618=CARTESIAN_POINT('',(-41.1500000000003,78.2419459998278,-23.6708568434226));
#1619=CARTESIAN_POINT('',(-36.5960000000004,87.8471352791666,-30.9088861268724));
#1620=CARTESIAN_POINT('Origin',(-36.5960000000004,84.2101491664112,-28.1682205114379));
#1621=CARTESIAN_POINT('',(-6.70400000000043,87.8471352791666,-30.9088861268731));
#1622=CARTESIAN_POINT('',(-14.1770000000004,87.8471352791666,-30.9088861268729));
#1623=CARTESIAN_POINT('Origin',(-6.70400000000037,84.2101491664113,-28.1682205114387));
#1624=CARTESIAN_POINT('',(-9.95000000000015,72.2737428332445,-19.173493175408));
#1625=CARTESIAN_POINT('Origin',(-11.6500000000002,72.2737428332445,-19.173493175408));
#1626=CARTESIAN_POINT('',(-29.9500000000002,72.2737428332445,-19.1734931754076));
#1627=CARTESIAN_POINT('Origin',(-31.6500000000002,72.2737428332445,-19.1734931754075));
#1628=CARTESIAN_POINT('Origin',(-0.150000000000379,46.7964984791565,-28.1480648154418));
#1629=CARTESIAN_POINT('',(-0.149999999999979,59.1337064537735,-11.7760368594724));
#1630=CARTESIAN_POINT('',(-0.150000000000086,65.1019096203569,-16.2734005274876));
#1631=CARTESIAN_POINT('',(-0.150000000000379,46.7964984791565,-28.1480648154418));
#1632=CARTESIAN_POINT('Origin',(-6.70400000000038,46.7964984791565,-28.1480648154417));
#1633=CARTESIAN_POINT('',(-6.70399999999988,53.8994493209235,-7.83174119773372));
#1634=CARTESIAN_POINT('Origin',(-6.70399999999998,59.1337064537735,-11.7760368594722));
#1635=CARTESIAN_POINT('',(-6.70400000000028,41.5622413463065,-24.2037691537032));
#1636=CARTESIAN_POINT('Origin',(-36.5960000000003,41.5622413463065,-24.2037691537024));
#1637=CARTESIAN_POINT('',(-36.5959999999999,53.8994493209235,-7.83174119773292));
#1638=CARTESIAN_POINT('',(-29.1229999999999,53.8994493209236,-7.83174119773319));
#1639=CARTESIAN_POINT('',(-36.5960000000003,41.5622413463065,-24.2037691537024));
#1640=CARTESIAN_POINT('Origin',(-36.5960000000004,46.7964984791565,-28.1480648154409));
#1641=CARTESIAN_POINT('',(-43.15,59.1337064537736,-11.7760368594714));
#1642=CARTESIAN_POINT('Origin',(-36.596,59.1337064537736,-11.7760368594715));
#1643=CARTESIAN_POINT('',(-43.1500000000004,46.7964984791565,-28.1480648154408));
#1644=CARTESIAN_POINT('Origin',(-6.70399999999998,59.1337064537735,-11.7760368594722));
#1645=CARTESIAN_POINT('Origin',(-2.14999999999998,59.1337064537735,-11.7760368594724));
#1646=CARTESIAN_POINT('Origin',(-6.70399999999991,55.4967203410181,-9.03537124403784));
#1647=CARTESIAN_POINT('Origin',(-29.1229999999999,55.4967203410181,-9.0353712440373));
#1648=CARTESIAN_POINT('Origin',(-36.5959999999999,55.4967203410181,-9.03537124403711));
#1649=CARTESIAN_POINT('Origin',(-36.596,59.1337064537736,-11.7760368594715));
#1650=CARTESIAN_POINT('Origin',(-41.15,59.1337064537736,-11.7760368594714));
#1651=CARTESIAN_POINT('Origin',(-41.1500000000003,77.0383159535237,-25.2681278635172));
#1652=CARTESIAN_POINT('',(-42.3500000000003,81.2173251895274,-26.4138201456748));
#1653=CARTESIAN_POINT('Ctrl Pts',(-42.3500000000003,81.2173251895275,-26.4138201456747));
#1654=CARTESIAN_POINT('Ctrl Pts',(-42.3500000000003,81.3830297002952,-26.5386874508841));
#1655=CARTESIAN_POINT('Ctrl Pts',(-42.38558314759,81.527773540549,-26.6798220145107));
#1656=CARTESIAN_POINT('Ctrl Pts',(-42.4978461245221,81.7773766806088,-26.9868084245224));
#1657=CARTESIAN_POINT('Ctrl Pts',(-42.5735145033856,81.8823616118803,-27.1529271000814));
#1658=CARTESIAN_POINT('Ctrl Pts',(-42.8107430082096,82.1362735276548,-27.6824135239918));
#1659=CARTESIAN_POINT('Ctrl Pts',(-42.9800942468135,82.223328708609,-28.0778397887029));
#1660=CARTESIAN_POINT('Ctrl Pts',(-43.1189739027559,82.2061894332319,-28.6767337863947));
#1661=CARTESIAN_POINT('Ctrl Pts',(-43.1500000000004,82.1755369613096,-28.8903033589838));
#1662=CARTESIAN_POINT('Ctrl Pts',(-43.1500000000004,82.1171432487246,-29.0952987415883));
#1663=CARTESIAN_POINT('Origin',(-41.1500000000004,83.0065191201071,-29.7654915315325));
#1664=CARTESIAN_POINT('',(-43.15,60.023082325156,-12.4462296494154));
#1665=CARTESIAN_POINT('',(-43.1500000000003,77.0383159535237,-25.2681278635171));
#1666=CARTESIAN_POINT('',(-42.35,62.8487084584398,-12.5720746131776));
#1667=CARTESIAN_POINT('Ctrl Pts',(-43.15,60.023082325156,-12.4462296494154));
#1668=CARTESIAN_POINT('Ctrl Pts',(-43.15,60.2040410457647,-12.3335936250079));
#1669=CARTESIAN_POINT('Ctrl Pts',(-43.1189739027555,60.4008883290027,-12.2452608255919));
#1670=CARTESIAN_POINT('Ctrl Pts',(-42.9800942468132,60.9718579643656,-12.0637079387372));
#1671=CARTESIAN_POINT('Ctrl Pts',(-42.8107430082093,61.3759617460887,-12.0383964995959));
#1672=CARTESIAN_POINT('Ctrl Pts',(-42.5735145033853,61.9549243729877,-12.1365260605446));
#1673=CARTESIAN_POINT('Ctrl Pts',(-42.4978461245218,62.1435456616389,-12.1916555411437));
#1674=CARTESIAN_POINT('Ctrl Pts',(-42.3855831475897,62.5074398882863,-12.3469725565418));
#1675=CARTESIAN_POINT('Ctrl Pts',(-42.35,62.683003947672,-12.4472073079683));
#1676=CARTESIAN_POINT('Ctrl Pts',(-42.35,62.8487084584397,-12.5720746131777));
#1677=CARTESIAN_POINT('',(-42.3500000000003,78.0012199905671,-23.9903110474415));
#1678=CARTESIAN_POINT('Origin',(-36.5960000000004,83.0065191201071,-29.7654915315326));
#1679=CARTESIAN_POINT('Origin',(-36.5960000000005,86.6435052328625,-32.5061571469669));
#1680=CARTESIAN_POINT('Origin',(-14.1770000000005,86.6435052328625,-32.5061571469675));
#1681=CARTESIAN_POINT('Origin',(-6.70400000000048,86.6435052328625,-32.5061571469677));
#1682=CARTESIAN_POINT('Origin',(-6.70400000000041,83.0065191201072,-29.7654915315332));
#1683=CARTESIAN_POINT('Origin',(-2.15000000000042,83.0065191201072,-29.7654915315334));
#1684=CARTESIAN_POINT('Origin',(-2.15000000000008,65.1019096203569,-16.2734005274876));
#1685=CARTESIAN_POINT('Origin',(-43.1500000000008,70.6693111454901,-46.1375194875018));
#1686=CARTESIAN_POINT('',(-43.15,59.3475821254414,-13.0641258304157));
#1687=CARTESIAN_POINT('',(-43.1500000000002,53.4497948985513,-20.8907538288795));
#1688=CARTESIAN_POINT('Origin',(-43.15,61.3441709005596,-14.5686633882959));
#1689=CARTESIAN_POINT('Origin',(-45.1500000000004,79.7127876316473,-28.4104089207929));
#1690=CARTESIAN_POINT('',(-45.1500000000003,81.2173251895274,-26.4138201456747));
#1691=CARTESIAN_POINT('',(-45.1500000000004,81.7093764067656,-29.9149464786731));
#1692=CARTESIAN_POINT('Origin',(-45.1500000000003,81.2173251895274,-26.4138201456747));
#1693=CARTESIAN_POINT('',(-45.15,62.8487084584398,-12.5720746131775));
#1694=CARTESIAN_POINT('Origin',(-45.15,61.3441709005596,-14.5686633882958));
#1695=CARTESIAN_POINT('',(-45.15,59.3475821254414,-13.0641258304156));
#1696=CARTESIAN_POINT('Origin',(-45.15,59.3475821254414,-13.0641258304156));
#1697=CARTESIAN_POINT('Origin',(-45.1500000000008,69.9138019529854,-45.5682024756));
#1698=CARTESIAN_POINT('Origin',(-31.6500000000002,72.2737428332445,-19.1734931754075));
#1699=CARTESIAN_POINT('',(-29.9500000000002,72.2737428332445,-19.1734931754076));
#1700=CARTESIAN_POINT('Origin',(-11.6500000000002,72.2737428332445,-19.173493175408));
#1701=CARTESIAN_POINT('',(-9.95000000000015,72.2737428332445,-19.173493175408));
#1702=CARTESIAN_POINT('Origin',(18.3499999999991,77.5008392984347,-51.2854451955459));
#1703=CARTESIAN_POINT('',(-36.5960000000009,77.5008392984347,-51.2854451955446));
#1704=CARTESIAN_POINT('Origin',(-36.5960000000008,70.6693111454901,-46.137519487502));
#1705=CARTESIAN_POINT('Origin',(-31.65,7.5,0.));
#1706=CARTESIAN_POINT('',(-29.6,7.5,-3.));
#1707=CARTESIAN_POINT('Origin',(-31.65,7.5,-3.));
#1708=CARTESIAN_POINT('',(-29.6,7.5,0.));
#1709=CARTESIAN_POINT('',(-29.6,7.5,0.));
#1710=CARTESIAN_POINT('Origin',(-31.65,7.5,0.));
#1711=CARTESIAN_POINT('Origin',(-11.65,7.5,0.));
#1712=CARTESIAN_POINT('',(-9.6,7.5,-3.));
#1713=CARTESIAN_POINT('Origin',(-11.65,7.5,-3.));
#1714=CARTESIAN_POINT('',(-9.6,7.5,0.));
#1715=CARTESIAN_POINT('',(-9.6,7.5,0.));
#1716=CARTESIAN_POINT('Origin',(-11.65,7.5,0.));
#1717=CARTESIAN_POINT('Origin',(-31.65,27.5,0.));
#1718=CARTESIAN_POINT('',(-29.6,27.5,-3.));
#1719=CARTESIAN_POINT('Origin',(-31.65,27.5,-3.));
#1720=CARTESIAN_POINT('',(-29.6,27.5,0.));
#1721=CARTESIAN_POINT('',(-29.6,27.5,0.));
#1722=CARTESIAN_POINT('Origin',(-31.65,27.5,0.));
#1723=CARTESIAN_POINT('Origin',(-11.65,27.5,0.));
#1724=CARTESIAN_POINT('',(-9.6,27.5,-3.));
#1725=CARTESIAN_POINT('Origin',(-11.65,27.5,-3.));
#1726=CARTESIAN_POINT('',(-9.6,27.5,0.));
#1727=CARTESIAN_POINT('',(-9.6,27.5,0.));
#1728=CARTESIAN_POINT('Origin',(-11.65,27.5,0.));
#1729=CARTESIAN_POINT('Origin',(-44.15,39.9650751511553,-23.));
#1730=CARTESIAN_POINT('',(-42.15,0.,-3.));
#1731=CARTESIAN_POINT('',(-42.15,35.,-20.5152929739897));
#1732=CARTESIAN_POINT('',(-42.15,33.9776433971404,-20.0036679619046));
#1733=CARTESIAN_POINT('',(-44.15,-2.32520350867083E-16,-3.));
#1734=CARTESIAN_POINT('',(-32.9,0.,-3.));
#1735=CARTESIAN_POINT('',(-44.15,19.9825375755776,-13.));
#1736=CARTESIAN_POINT('',(0.849999999999999,0.,-3.));
#1737=CARTESIAN_POINT('',(0.85,33.9776433971404,-20.0036679619046));
#1738=CARTESIAN_POINT('',(-1.15,0.,-3.));
#1739=CARTESIAN_POINT('',(-32.9,0.,-3.));
#1740=CARTESIAN_POINT('',(-1.15,35.,-20.5152929739897));
#1741=CARTESIAN_POINT('',(-1.15,19.9825375755776,-13.));
#1742=CARTESIAN_POINT('',(-32.9,35.,-20.5152929739897));
#1743=CARTESIAN_POINT('Origin',(-21.65,35.,-10.5));
#1744=CARTESIAN_POINT('',(-1.15,35.,-3.));
#1745=CARTESIAN_POINT('',(-1.15,35.,-3.));
#1746=CARTESIAN_POINT('',(-42.15,35.,-3.));
#1747=CARTESIAN_POINT('',(0.,35.,-3.));
#1748=CARTESIAN_POINT('',(-42.15,35.,-3.));
#1749=CARTESIAN_POINT('Origin',(-1.15,0.,-3.));
#1750=CARTESIAN_POINT('',(-1.15,0.,-3.));
#1751=CARTESIAN_POINT('Origin',(-21.65,0.,-11.65));
#1752=CARTESIAN_POINT('',(-10.825,0.,-3.));
#1753=CARTESIAN_POINT('',(0.849999999999998,0.,0.));
#1754=CARTESIAN_POINT('',(0.849999999999999,0.,-7.325));
#1755=CARTESIAN_POINT('',(-44.15,0.,0.));
#1756=CARTESIAN_POINT('',(0.,0.,0.));
#1757=CARTESIAN_POINT('',(-44.15,0.,-7.325));
#1758=CARTESIAN_POINT('Origin',(-44.15,0.,-3.));
#1759=CARTESIAN_POINT('',(-44.15,57.2968183035196,-4.44089209850063E-15));
#1760=CARTESIAN_POINT('',(-44.15,19.5306148751104,0.));
#1761=CARTESIAN_POINT('',(-44.15,38.7018667502483,-24.6763341670511));
#1762=CARTESIAN_POINT('Origin',(-41.8,0.,-3.));
#1763=CARTESIAN_POINT('',(-42.15,17.5,-3.));
#1764=CARTESIAN_POINT('Origin',(0.85,35.,-3.));
#1765=CARTESIAN_POINT('',(0.85,57.2968183035204,-4.44089209850063E-15));
#1766=CARTESIAN_POINT('',(0.849999999999999,45.0400398868501,-16.2652943275912));
#1767=CARTESIAN_POINT('',(0.849999999999998,39.0612297502207,0.));
#1768=CARTESIAN_POINT('Origin',(-21.6500000964813,42.3006451456899,-19.9005939332214));
#1769=CARTESIAN_POINT('',(-43.15,57.2968183035196,-4.44089209850063E-15));
#1770=CARTESIAN_POINT('Origin',(-42.15,35.,-3.));
#1771=CARTESIAN_POINT('Origin',(-43.3,0.,0.));
#1772=UNCERTAINTY_MEASURE_WITH_UNIT(LENGTH_MEASURE(0.01),#1776,
'DISTANCE_ACCURACY_VALUE',
'Maximum model space distance between geometric entities at asserted c
onnectivities');
#1773=UNCERTAINTY_MEASURE_WITH_UNIT(LENGTH_MEASURE(0.01),#1776,
'DISTANCE_ACCURACY_VALUE',
'Maximum model space distance between geometric entities at asserted c
onnectivities');
#1774=(
GEOMETRIC_REPRESENTATION_CONTEXT(3)
GLOBAL_UNCERTAINTY_ASSIGNED_CONTEXT((#1772))
GLOBAL_UNIT_ASSIGNED_CONTEXT((#1776,#1778,#1779))
REPRESENTATION_CONTEXT('','3D')
);
#1775=(
GEOMETRIC_REPRESENTATION_CONTEXT(3)
GLOBAL_UNCERTAINTY_ASSIGNED_CONTEXT((#1773))
GLOBAL_UNIT_ASSIGNED_CONTEXT((#1776,#1778,#1779))
REPRESENTATION_CONTEXT('','3D')
);
#1776=(
LENGTH_UNIT()
NAMED_UNIT(*)
SI_UNIT(.MILLI.,.METRE.)
);
#1777=(
LENGTH_UNIT()
NAMED_UNIT(*)
SI_UNIT($,.METRE.)
);
#1778=(
NAMED_UNIT(*)
PLANE_ANGLE_UNIT()
SI_UNIT($,.RADIAN.)
);
#1779=(
NAMED_UNIT(*)
SI_UNIT($,.STERADIAN.)
SOLID_ANGLE_UNIT()
);
#1780=SHAPE_DEFINITION_REPRESENTATION(#1781,#1782);
#1781=PRODUCT_DEFINITION_SHAPE('',$,#1784);
#1782=SHAPE_REPRESENTATION('',(#1048),#1774);
#1783=PRODUCT_DEFINITION_CONTEXT('part definition',#1788,'design');
#1784=PRODUCT_DEFINITION('3D-AM03 - Center Camera Mount',
'3D-AM03 - Center Camera Mount v3',#1785,#1783);
#1785=PRODUCT_DEFINITION_FORMATION('',$,#1790);
#1786=PRODUCT_RELATED_PRODUCT_CATEGORY(
'3D-AM03 - Center Camera Mount v3','3D-AM03 - Center Camera Mount v3',(#1790));
#1787=APPLICATION_PROTOCOL_DEFINITION('international standard',
'automotive_design',2009,#1788);
#1788=APPLICATION_CONTEXT(
'Core Data for Automotive Mechanical Design Process');
#1789=PRODUCT_CONTEXT('part definition',#1788,'mechanical');
#1790=PRODUCT('3D-AM03 - Center Camera Mount',
'3D-AM03 - Center Camera Mount v3',$,(#1789));
#1791=PRESENTATION_STYLE_ASSIGNMENT((#1793));
#1792=PRESENTATION_STYLE_ASSIGNMENT((#1794));
#1793=SURFACE_STYLE_USAGE(.BOTH.,#1795);
#1794=SURFACE_STYLE_USAGE(.BOTH.,#1796);
#1795=SURFACE_SIDE_STYLE('',(#1797));
#1796=SURFACE_SIDE_STYLE('',(#1798));
#1797=SURFACE_STYLE_FILL_AREA(#1799);
#1798=SURFACE_STYLE_FILL_AREA(#1800);
#1799=FILL_AREA_STYLE('Steel - Satin',(#1801));
#1800=FILL_AREA_STYLE('Coating - Black Oxide',(#1802));
#1801=FILL_AREA_STYLE_COLOUR('Steel - Satin',#1803);
#1802=FILL_AREA_STYLE_COLOUR('Coating - Black Oxide',#1804);
#1803=COLOUR_RGB('Steel - Satin',0.627450980392157,0.627450980392157,0.627450980392157);
#1804=COLOUR_RGB('Coating - Black Oxide',0.172549019607843,0.172549019607843,
0.172549019607843);
ENDSEC;
END-ISO-10303-21;
