ISO-10303-21;
HEADER;
/* Generated by software containing ST-Developer
 * from STEP Tools, Inc. (www.steptools.com) 
 */

FILE_DESCRIPTION(
/* description */ ('STEP AP214'),
/* implementation_level */ '2;1');

FILE_NAME(
/* name */ '103107037_01 - WXAI_Idler_Cable_Shroud_PLA.step',
/* time_stamp */ '2025-12-04T14:25:29-06:00',
/* author */ (''),
/* organization */ (''),
/* preprocessor_version */ 'ST-DEVELOPER v20.1',
/* originating_system */ 'Autodesk Translation Framework v14.21.0.0',
/* authorisation */ '');

FILE_SCHEMA (('AUTOMOTIVE_DESIGN { 1 0 10303 214 3 1 1 }'));
ENDSEC;

DATA;
#10=MECHANICAL_DESIGN_GEOMETRIC_PRESENTATION_REPRESENTATION('',(#13),#1606);
#11=SHAPE_REPRESENTATION_RELATIONSHIP('SRR','None',#1613,#12);
#12=ADVANCED_BREP_SHAPE_REPRESENTATION('',(#14),#1605);
#13=STYLED_ITEM('',(#1623),#14);
#14=MANIFOLD_SOLID_BREP('Body1',#892);
#15=TOROIDAL_SURFACE('',#990,34.5,1.);
#16=(
BOUNDED_SURFACE()
B_SPLINE_SURFACE(2,2,((#1529,#1530,#1531),(#1532,#1533,#1534),(#1535,#1536,
#1537)),.UNSPECIFIED.,.F.,.F.,.F.)
B_SPLINE_SURFACE_WITH_KNOTS((3,3),(3,3),(0.,1.5707963267949),(-2.89738141268605,
-1.5707963267949),.UNSPECIFIED.)
GEOMETRIC_REPRESENTATION_ITEM()
RATIONAL_B_SPLINE_SURFACE(((1.,0.78796923949356,1.),(0.707106781186542,
0.557178392612299,0.707106781186542),(1.,0.78796923949356,1.)))
REPRESENTATION_ITEM('')
SURFACE()
);
#17=(
BOUNDED_SURFACE()
B_SPLINE_SURFACE(2,2,((#1541,#1542,#1543),(#1544,#1545,#1546),(#1547,#1548,
#1549)),.UNSPECIFIED.,.F.,.F.,.F.)
B_SPLINE_SURFACE_WITH_KNOTS((3,3),(3,3),(-6.12323399573677E-17,1.5707963267949),
(1.5707963267949,2.89738141268605),.UNSPECIFIED.)
GEOMETRIC_REPRESENTATION_ITEM()
RATIONAL_B_SPLINE_SURFACE(((1.,0.78796923949356,1.),(0.707106781186541,
0.557178392612298,0.707106781186541),(1.,0.78796923949356,1.)))
REPRESENTATION_ITEM('')
SURFACE()
);
#18=FACE_BOUND('',#127,.T.);
#19=FACE_BOUND('',#153,.T.);
#20=ELLIPSE('',#937,40.3050865276331,28.5);
#21=ELLIPSE('',#939,40.3050865276331,28.5);
#22=B_SPLINE_CURVE_WITH_KNOTS('',3,(#1418,#1419,#1420,#1421,#1422,#1423,
#1424,#1425,#1426,#1427),.UNSPECIFIED.,.F.,.F.,(4,2,2,2,4),(-0.309774979677317,
-0.272181257290374,-0.23458753490343,-0.194521086478471,-0.154454638053512),
 .UNSPECIFIED.);
#23=B_SPLINE_CURVE_WITH_KNOTS('',3,(#1430,#1431,#1432,#1433,#1434,#1435,
#1436,#1437,#1438,#1439),.UNSPECIFIED.,.F.,.F.,(4,2,2,2,4),(-0.155320341623805,
-0.115253893198846,-0.0751874447738868,-0.0375937223869434,0.),
 .UNSPECIFIED.);
#24=PLANE('',#925);
#25=PLANE('',#928);
#26=PLANE('',#929);
#27=PLANE('',#933);
#28=PLANE('',#941);
#29=PLANE('',#955);
#30=PLANE('',#957);
#31=PLANE('',#976);
#32=PLANE('',#979);
#33=PLANE('',#983);
#34=PLANE('',#986);
#35=PLANE('',#994);
#36=PLANE('',#1004);
#37=PLANE('',#1008);
#38=PLANE('',#1009);
#39=PLANE('',#1016);
#40=CYLINDRICAL_SURFACE('',#918,2.);
#41=CYLINDRICAL_SURFACE('',#920,2.);
#42=CYLINDRICAL_SURFACE('',#922,1.625);
#43=CYLINDRICAL_SURFACE('',#926,34.7);
#44=CYLINDRICAL_SURFACE('',#930,35.5);
#45=CYLINDRICAL_SURFACE('',#934,28.5);
#46=CYLINDRICAL_SURFACE('',#951,28.5);
#47=CYLINDRICAL_SURFACE('',#953,28.5);
#48=CYLINDRICAL_SURFACE('',#956,21.);
#49=CYLINDRICAL_SURFACE('',#958,4.);
#50=CYLINDRICAL_SURFACE('',#960,4.);
#51=CYLINDRICAL_SURFACE('',#962,2.);
#52=CYLINDRICAL_SURFACE('',#964,2.);
#53=CYLINDRICAL_SURFACE('',#966,2.);
#54=CYLINDRICAL_SURFACE('',#969,2.);
#55=CYLINDRICAL_SURFACE('',#972,2.);
#56=CYLINDRICAL_SURFACE('',#974,2.);
#57=CYLINDRICAL_SURFACE('',#987,1.);
#58=CYLINDRICAL_SURFACE('',#993,1.);
#59=FACE_OUTER_BOUND('',#112,.T.);
#60=FACE_OUTER_BOUND('',#113,.T.);
#61=FACE_OUTER_BOUND('',#114,.T.);
#62=FACE_OUTER_BOUND('',#115,.T.);
#63=FACE_OUTER_BOUND('',#116,.T.);
#64=FACE_OUTER_BOUND('',#117,.T.);
#65=FACE_OUTER_BOUND('',#118,.T.);
#66=FACE_OUTER_BOUND('',#119,.T.);
#67=FACE_OUTER_BOUND('',#120,.T.);
#68=FACE_OUTER_BOUND('',#121,.T.);
#69=FACE_OUTER_BOUND('',#122,.T.);
#70=FACE_OUTER_BOUND('',#123,.T.);
#71=FACE_OUTER_BOUND('',#124,.T.);
#72=FACE_OUTER_BOUND('',#125,.T.);
#73=FACE_OUTER_BOUND('',#126,.T.);
#74=FACE_OUTER_BOUND('',#128,.T.);
#75=FACE_OUTER_BOUND('',#129,.T.);
#76=FACE_OUTER_BOUND('',#130,.T.);
#77=FACE_OUTER_BOUND('',#131,.T.);
#78=FACE_OUTER_BOUND('',#132,.T.);
#79=FACE_OUTER_BOUND('',#133,.T.);
#80=FACE_OUTER_BOUND('',#134,.T.);
#81=FACE_OUTER_BOUND('',#135,.T.);
#82=FACE_OUTER_BOUND('',#136,.T.);
#83=FACE_OUTER_BOUND('',#137,.T.);
#84=FACE_OUTER_BOUND('',#138,.T.);
#85=FACE_OUTER_BOUND('',#139,.T.);
#86=FACE_OUTER_BOUND('',#140,.T.);
#87=FACE_OUTER_BOUND('',#141,.T.);
#88=FACE_OUTER_BOUND('',#142,.T.);
#89=FACE_OUTER_BOUND('',#143,.T.);
#90=FACE_OUTER_BOUND('',#144,.T.);
#91=FACE_OUTER_BOUND('',#145,.T.);
#92=FACE_OUTER_BOUND('',#146,.T.);
#93=FACE_OUTER_BOUND('',#147,.T.);
#94=FACE_OUTER_BOUND('',#148,.T.);
#95=FACE_OUTER_BOUND('',#149,.T.);
#96=FACE_OUTER_BOUND('',#150,.T.);
#97=FACE_OUTER_BOUND('',#151,.T.);
#98=FACE_OUTER_BOUND('',#152,.T.);
#99=FACE_OUTER_BOUND('',#154,.T.);
#100=FACE_OUTER_BOUND('',#155,.T.);
#101=FACE_OUTER_BOUND('',#156,.T.);
#102=FACE_OUTER_BOUND('',#157,.T.);
#103=FACE_OUTER_BOUND('',#158,.T.);
#104=FACE_OUTER_BOUND('',#159,.T.);
#105=FACE_OUTER_BOUND('',#160,.T.);
#106=FACE_OUTER_BOUND('',#161,.T.);
#107=FACE_OUTER_BOUND('',#162,.T.);
#108=FACE_OUTER_BOUND('',#163,.T.);
#109=FACE_OUTER_BOUND('',#164,.T.);
#110=FACE_OUTER_BOUND('',#165,.T.);
#111=FACE_OUTER_BOUND('',#166,.T.);
#112=EDGE_LOOP('',(#566,#567,#568,#569));
#113=EDGE_LOOP('',(#570,#571,#572,#573));
#114=EDGE_LOOP('',(#574,#575,#576,#577));
#115=EDGE_LOOP('',(#578,#579,#580,#581));
#116=EDGE_LOOP('',(#582,#583,#584,#585));
#117=EDGE_LOOP('',(#586,#587,#588,#589));
#118=EDGE_LOOP('',(#590,#591,#592,#593));
#119=EDGE_LOOP('',(#594,#595,#596,#597));
#120=EDGE_LOOP('',(#598,#599,#600,#601));
#121=EDGE_LOOP('',(#602,#603,#604,#605));
#122=EDGE_LOOP('',(#606,#607,#608,#609,#610,#611));
#123=EDGE_LOOP('',(#612,#613,#614,#615));
#124=EDGE_LOOP('',(#616,#617,#618,#619,#620,#621));
#125=EDGE_LOOP('',(#622,#623,#624,#625,#626,#627,#628,#629,#630,#631,#632,
#633));
#126=EDGE_LOOP('',(#634,#635,#636,#637,#638,#639,#640,#641,#642,#643,#644,
#645,#646,#647,#648,#649,#650,#651,#652,#653));
#127=EDGE_LOOP('',(#654));
#128=EDGE_LOOP('',(#655,#656,#657,#658));
#129=EDGE_LOOP('',(#659,#660,#661,#662));
#130=EDGE_LOOP('',(#663,#664,#665,#666));
#131=EDGE_LOOP('',(#667,#668,#669,#670));
#132=EDGE_LOOP('',(#671,#672,#673,#674));
#133=EDGE_LOOP('',(#675,#676,#677,#678));
#134=EDGE_LOOP('',(#679,#680,#681,#682));
#135=EDGE_LOOP('',(#683,#684,#685,#686));
#136=EDGE_LOOP('',(#687,#688,#689,#690));
#137=EDGE_LOOP('',(#691,#692,#693,#694));
#138=EDGE_LOOP('',(#695,#696,#697,#698));
#139=EDGE_LOOP('',(#699,#700,#701,#702));
#140=EDGE_LOOP('',(#703,#704,#705,#706));
#141=EDGE_LOOP('',(#707,#708,#709,#710,#711,#712));
#142=EDGE_LOOP('',(#713,#714,#715,#716,#717,#718));
#143=EDGE_LOOP('',(#719,#720,#721,#722));
#144=EDGE_LOOP('',(#723,#724,#725,#726));
#145=EDGE_LOOP('',(#727,#728,#729,#730));
#146=EDGE_LOOP('',(#731,#732,#733,#734));
#147=EDGE_LOOP('',(#735,#736,#737,#738));
#148=EDGE_LOOP('',(#739,#740,#741,#742));
#149=EDGE_LOOP('',(#743,#744,#745,#746));
#150=EDGE_LOOP('',(#747,#748,#749,#750));
#151=EDGE_LOOP('',(#751,#752,#753,#754));
#152=EDGE_LOOP('',(#755,#756,#757,#758,#759,#760,#761,#762,#763,#764,#765,
#766,#767,#768,#769,#770));
#153=EDGE_LOOP('',(#771));
#154=EDGE_LOOP('',(#772,#773,#774,#775));
#155=EDGE_LOOP('',(#776,#777,#778,#779));
#156=EDGE_LOOP('',(#780,#781,#782,#783));
#157=EDGE_LOOP('',(#784,#785,#786,#787));
#158=EDGE_LOOP('',(#788,#789,#790,#791));
#159=EDGE_LOOP('',(#792,#793,#794,#795));
#160=EDGE_LOOP('',(#796,#797,#798,#799));
#161=EDGE_LOOP('',(#800,#801,#802,#803));
#162=EDGE_LOOP('',(#804,#805,#806,#807));
#163=EDGE_LOOP('',(#808,#809,#810,#811));
#164=EDGE_LOOP('',(#812,#813,#814,#815));
#165=EDGE_LOOP('',(#816,#817,#818,#819));
#166=EDGE_LOOP('',(#820,#821,#822,#823));
#167=LINE('',#1314,#234);
#168=LINE('',#1317,#235);
#169=LINE('',#1323,#236);
#170=LINE('',#1328,#237);
#171=LINE('',#1335,#238);
#172=LINE('',#1338,#239);
#173=LINE('',#1341,#240);
#174=LINE('',#1344,#241);
#175=LINE('',#1347,#242);
#176=LINE('',#1350,#243);
#177=LINE('',#1355,#244);
#178=LINE('',#1360,#245);
#179=LINE('',#1362,#246);
#180=LINE('',#1364,#247);
#181=LINE('',#1365,#248);
#182=LINE('',#1368,#249);
#183=LINE('',#1370,#250);
#184=LINE('',#1375,#251);
#185=LINE('',#1377,#252);
#186=LINE('',#1379,#253);
#187=LINE('',#1380,#254);
#188=LINE('',#1384,#255);
#189=LINE('',#1386,#256);
#190=LINE('',#1388,#257);
#191=LINE('',#1390,#258);
#192=LINE('',#1392,#259);
#193=LINE('',#1393,#260);
#194=LINE('',#1397,#261);
#195=LINE('',#1401,#262);
#196=LINE('',#1406,#263);
#197=LINE('',#1408,#264);
#198=LINE('',#1410,#265);
#199=LINE('',#1412,#266);
#200=LINE('',#1414,#267);
#201=LINE('',#1415,#268);
#202=LINE('',#1449,#269);
#203=LINE('',#1452,#270);
#204=LINE('',#1467,#271);
#205=LINE('',#1470,#272);
#206=LINE('',#1473,#273);
#207=LINE('',#1476,#274);
#208=LINE('',#1479,#275);
#209=LINE('',#1480,#276);
#210=LINE('',#1484,#277);
#211=LINE('',#1485,#278);
#212=LINE('',#1507,#279);
#213=LINE('',#1509,#280);
#214=LINE('',#1513,#281);
#215=LINE('',#1520,#282);
#216=LINE('',#1522,#283);
#217=LINE('',#1525,#284);
#218=LINE('',#1557,#285);
#219=LINE('',#1565,#286);
#220=LINE('',#1572,#287);
#221=LINE('',#1574,#288);
#222=LINE('',#1579,#289);
#223=LINE('',#1581,#290);
#224=LINE('',#1583,#291);
#225=LINE('',#1585,#292);
#226=LINE('',#1587,#293);
#227=LINE('',#1589,#294);
#228=LINE('',#1591,#295);
#229=LINE('',#1593,#296);
#230=LINE('',#1595,#297);
#231=LINE('',#1597,#298);
#232=LINE('',#1599,#299);
#233=LINE('',#1601,#300);
#234=VECTOR('',#1023,1000.);
#235=VECTOR('',#1026,1000.);
#236=VECTOR('',#1033,1000.);
#237=VECTOR('',#1038,1000.);
#238=VECTOR('',#1045,1000.);
#239=VECTOR('',#1048,1000.);
#240=VECTOR('',#1051,1000.);
#241=VECTOR('',#1054,1000.);
#242=VECTOR('',#1057,1000.);
#243=VECTOR('',#1060,1000.);
#244=VECTOR('',#1065,1.625);
#245=VECTOR('',#1070,1000.);
#246=VECTOR('',#1071,1000.);
#247=VECTOR('',#1072,1000.);
#248=VECTOR('',#1073,1000.);
#249=VECTOR('',#1076,1000.);
#250=VECTOR('',#1077,1000.);
#251=VECTOR('',#1082,1000.);
#252=VECTOR('',#1083,1000.);
#253=VECTOR('',#1084,1000.);
#254=VECTOR('',#1085,1000.);
#255=VECTOR('',#1088,1000.);
#256=VECTOR('',#1089,1000.);
#257=VECTOR('',#1090,1000.);
#258=VECTOR('',#1091,1000.);
#259=VECTOR('',#1092,1000.);
#260=VECTOR('',#1093,1000.);
#261=VECTOR('',#1096,1000.);
#262=VECTOR('',#1099,1000.);
#263=VECTOR('',#1104,1000.);
#264=VECTOR('',#1105,1000.);
#265=VECTOR('',#1106,1000.);
#266=VECTOR('',#1107,1000.);
#267=VECTOR('',#1108,1000.);
#268=VECTOR('',#1109,1000.);
#269=VECTOR('',#1126,1000.);
#270=VECTOR('',#1129,1000.);
#271=VECTOR('',#1148,1000.);
#272=VECTOR('',#1151,1000.);
#273=VECTOR('',#1154,1000.);
#274=VECTOR('',#1157,1000.);
#275=VECTOR('',#1160,1000.);
#276=VECTOR('',#1161,1000.);
#277=VECTOR('',#1166,1000.);
#278=VECTOR('',#1167,1000.);
#279=VECTOR('',#1208,1000.);
#280=VECTOR('',#1209,1000.);
#281=VECTOR('',#1214,1000.);
#282=VECTOR('',#1221,1000.);
#283=VECTOR('',#1224,1000.);
#284=VECTOR('',#1229,1000.);
#285=VECTOR('',#1250,1000.);
#286=VECTOR('',#1257,1000.);
#287=VECTOR('',#1264,1000.);
#288=VECTOR('',#1265,1000.);
#289=VECTOR('',#1272,1000.);
#290=VECTOR('',#1275,1000.);
#291=VECTOR('',#1278,1000.);
#292=VECTOR('',#1281,1000.);
#293=VECTOR('',#1284,1000.);
#294=VECTOR('',#1287,1000.);
#295=VECTOR('',#1290,1000.);
#296=VECTOR('',#1293,1000.);
#297=VECTOR('',#1296,1000.);
#298=VECTOR('',#1299,1000.);
#299=VECTOR('',#1302,1000.);
#300=VECTOR('',#1305,1000.);
#301=CIRCLE('',#907,1.5);
#302=CIRCLE('',#908,2.);
#303=CIRCLE('',#910,21.);
#304=CIRCLE('',#911,21.5);
#305=CIRCLE('',#913,1.5);
#306=CIRCLE('',#914,2.);
#307=CIRCLE('',#916,33.7);
#308=CIRCLE('',#917,34.7);
#309=CIRCLE('',#919,2.);
#310=CIRCLE('',#921,2.);
#311=CIRCLE('',#923,1.625);
#312=CIRCLE('',#924,1.625);
#313=CIRCLE('',#927,34.7);
#314=CIRCLE('',#931,35.5);
#315=CIRCLE('',#932,35.5);
#316=CIRCLE('',#935,28.5);
#317=CIRCLE('',#936,28.5);
#318=CIRCLE('',#938,28.5);
#319=CIRCLE('',#940,28.5);
#320=CIRCLE('',#942,21.);
#321=CIRCLE('',#943,2.);
#322=CIRCLE('',#944,28.5);
#323=CIRCLE('',#945,4.);
#324=CIRCLE('',#946,2.);
#325=CIRCLE('',#947,2.);
#326=CIRCLE('',#948,4.);
#327=CIRCLE('',#949,28.5);
#328=CIRCLE('',#950,2.);
#329=CIRCLE('',#952,28.5);
#330=CIRCLE('',#954,28.5);
#331=CIRCLE('',#959,4.);
#332=CIRCLE('',#961,4.);
#333=CIRCLE('',#963,2.);
#334=CIRCLE('',#965,2.);
#335=CIRCLE('',#967,2.);
#336=CIRCLE('',#968,2.);
#337=CIRCLE('',#970,2.);
#338=CIRCLE('',#971,2.);
#339=CIRCLE('',#973,2.);
#340=CIRCLE('',#975,2.);
#341=CIRCLE('',#977,1.);
#342=CIRCLE('',#978,1.);
#343=CIRCLE('',#980,1.);
#344=CIRCLE('',#981,34.5);
#345=CIRCLE('',#982,1.);
#346=CIRCLE('',#988,1.);
#347=CIRCLE('',#989,1.);
#348=CIRCLE('',#991,1.);
#349=CIRCLE('',#992,1.);
#350=CIRCLE('',#995,4.5);
#351=CIRCLE('',#996,1.5);
#352=CIRCLE('',#997,35.);
#353=CIRCLE('',#998,1.5);
#354=CIRCLE('',#999,4.5);
#355=CIRCLE('',#1000,28.);
#356=CIRCLE('',#1001,1.5);
#357=CIRCLE('',#1002,1.5);
#358=CIRCLE('',#1003,28.);
#359=VERTEX_POINT('',#1310);
#360=VERTEX_POINT('',#1311);
#361=VERTEX_POINT('',#1313);
#362=VERTEX_POINT('',#1315);
#363=VERTEX_POINT('',#1319);
#364=VERTEX_POINT('',#1321);
#365=VERTEX_POINT('',#1325);
#366=VERTEX_POINT('',#1327);
#367=VERTEX_POINT('',#1331);
#368=VERTEX_POINT('',#1332);
#369=VERTEX_POINT('',#1334);
#370=VERTEX_POINT('',#1336);
#371=VERTEX_POINT('',#1340);
#372=VERTEX_POINT('',#1342);
#373=VERTEX_POINT('',#1346);
#374=VERTEX_POINT('',#1348);
#375=VERTEX_POINT('',#1352);
#376=VERTEX_POINT('',#1354);
#377=VERTEX_POINT('',#1358);
#378=VERTEX_POINT('',#1359);
#379=VERTEX_POINT('',#1361);
#380=VERTEX_POINT('',#1363);
#381=VERTEX_POINT('',#1367);
#382=VERTEX_POINT('',#1369);
#383=VERTEX_POINT('',#1373);
#384=VERTEX_POINT('',#1374);
#385=VERTEX_POINT('',#1376);
#386=VERTEX_POINT('',#1378);
#387=VERTEX_POINT('',#1382);
#388=VERTEX_POINT('',#1383);
#389=VERTEX_POINT('',#1385);
#390=VERTEX_POINT('',#1387);
#391=VERTEX_POINT('',#1389);
#392=VERTEX_POINT('',#1391);
#393=VERTEX_POINT('',#1395);
#394=VERTEX_POINT('',#1396);
#395=VERTEX_POINT('',#1398);
#396=VERTEX_POINT('',#1400);
#397=VERTEX_POINT('',#1404);
#398=VERTEX_POINT('',#1405);
#399=VERTEX_POINT('',#1407);
#400=VERTEX_POINT('',#1409);
#401=VERTEX_POINT('',#1411);
#402=VERTEX_POINT('',#1413);
#403=VERTEX_POINT('',#1417);
#404=VERTEX_POINT('',#1428);
#405=VERTEX_POINT('',#1441);
#406=VERTEX_POINT('',#1443);
#407=VERTEX_POINT('',#1448);
#408=VERTEX_POINT('',#1451);
#409=VERTEX_POINT('',#1453);
#410=VERTEX_POINT('',#1455);
#411=VERTEX_POINT('',#1460);
#412=VERTEX_POINT('',#1462);
#413=VERTEX_POINT('',#1466);
#414=VERTEX_POINT('',#1468);
#415=VERTEX_POINT('',#1472);
#416=VERTEX_POINT('',#1474);
#417=VERTEX_POINT('',#1478);
#418=VERTEX_POINT('',#1483);
#419=VERTEX_POINT('',#1505);
#420=VERTEX_POINT('',#1508);
#421=VERTEX_POINT('',#1512);
#422=VERTEX_POINT('',#1514);
#423=VERTEX_POINT('',#1516);
#424=VERTEX_POINT('',#1518);
#425=VERTEX_POINT('',#1553);
#426=VERTEX_POINT('',#1554);
#427=VERTEX_POINT('',#1556);
#428=VERTEX_POINT('',#1558);
#429=VERTEX_POINT('',#1560);
#430=VERTEX_POINT('',#1562);
#431=VERTEX_POINT('',#1564);
#432=VERTEX_POINT('',#1566);
#433=VERTEX_POINT('',#1568);
#434=VERTEX_POINT('',#1570);
#435=VERTEX_POINT('',#1573);
#436=VERTEX_POINT('',#1575);
#437=EDGE_CURVE('',#359,#360,#301,.T.);
#438=EDGE_CURVE('',#359,#361,#167,.T.);
#439=EDGE_CURVE('',#362,#361,#302,.T.);
#440=EDGE_CURVE('',#360,#362,#168,.T.);
#441=EDGE_CURVE('',#361,#363,#303,.T.);
#442=EDGE_CURVE('',#364,#359,#304,.T.);
#443=EDGE_CURVE('',#364,#363,#169,.T.);
#444=EDGE_CURVE('',#365,#364,#305,.T.);
#445=EDGE_CURVE('',#365,#366,#170,.T.);
#446=EDGE_CURVE('',#363,#366,#306,.T.);
#447=EDGE_CURVE('',#367,#368,#307,.T.);
#448=EDGE_CURVE('',#367,#369,#171,.T.);
#449=EDGE_CURVE('',#370,#369,#308,.T.);
#450=EDGE_CURVE('',#368,#370,#172,.T.);
#451=EDGE_CURVE('',#371,#366,#173,.T.);
#452=EDGE_CURVE('',#372,#371,#309,.T.);
#453=EDGE_CURVE('',#363,#372,#174,.T.);
#454=EDGE_CURVE('',#373,#361,#175,.T.);
#455=EDGE_CURVE('',#374,#373,#310,.T.);
#456=EDGE_CURVE('',#362,#374,#176,.T.);
#457=EDGE_CURVE('',#375,#375,#311,.T.);
#458=EDGE_CURVE('',#375,#376,#177,.T.);
#459=EDGE_CURVE('',#376,#376,#312,.T.);
#460=EDGE_CURVE('',#377,#378,#178,.T.);
#461=EDGE_CURVE('',#378,#379,#179,.T.);
#462=EDGE_CURVE('',#379,#380,#180,.T.);
#463=EDGE_CURVE('',#377,#380,#181,.T.);
#464=EDGE_CURVE('',#381,#370,#182,.T.);
#465=EDGE_CURVE('',#369,#382,#183,.T.);
#466=EDGE_CURVE('',#382,#381,#313,.T.);
#467=EDGE_CURVE('',#383,#384,#184,.T.);
#468=EDGE_CURVE('',#384,#385,#185,.T.);
#469=EDGE_CURVE('',#386,#385,#186,.T.);
#470=EDGE_CURVE('',#386,#383,#187,.T.);
#471=EDGE_CURVE('',#387,#388,#188,.T.);
#472=EDGE_CURVE('',#388,#389,#189,.T.);
#473=EDGE_CURVE('',#389,#390,#190,.T.);
#474=EDGE_CURVE('',#390,#391,#191,.T.);
#475=EDGE_CURVE('',#391,#392,#192,.T.);
#476=EDGE_CURVE('',#392,#387,#193,.T.);
#477=EDGE_CURVE('',#393,#394,#194,.T.);
#478=EDGE_CURVE('',#394,#395,#314,.T.);
#479=EDGE_CURVE('',#395,#396,#195,.T.);
#480=EDGE_CURVE('',#396,#393,#315,.T.);
#481=EDGE_CURVE('',#397,#398,#196,.T.);
#482=EDGE_CURVE('',#398,#399,#197,.T.);
#483=EDGE_CURVE('',#399,#400,#198,.T.);
#484=EDGE_CURVE('',#400,#401,#199,.T.);
#485=EDGE_CURVE('',#402,#401,#200,.T.);
#486=EDGE_CURVE('',#402,#397,#201,.T.);
#487=EDGE_CURVE('',#401,#403,#22,.T.);
#488=EDGE_CURVE('',#403,#404,#316,.T.);
#489=EDGE_CURVE('',#404,#392,#23,.T.);
#490=EDGE_CURVE('',#391,#386,#317,.T.);
#491=EDGE_CURVE('',#385,#405,#20,.T.);
#492=EDGE_CURVE('',#406,#405,#318,.T.);
#493=EDGE_CURVE('',#406,#378,#21,.T.);
#494=EDGE_CURVE('',#377,#402,#319,.T.);
#495=EDGE_CURVE('',#374,#407,#202,.T.);
#496=EDGE_CURVE('',#373,#372,#320,.T.);
#497=EDGE_CURVE('',#371,#408,#203,.T.);
#498=EDGE_CURVE('',#408,#409,#321,.T.);
#499=EDGE_CURVE('',#410,#409,#322,.T.);
#500=EDGE_CURVE('',#410,#397,#323,.T.);
#501=EDGE_CURVE('',#380,#381,#324,.T.);
#502=EDGE_CURVE('',#382,#383,#325,.T.);
#503=EDGE_CURVE('',#390,#411,#326,.T.);
#504=EDGE_CURVE('',#412,#411,#327,.T.);
#505=EDGE_CURVE('',#412,#407,#328,.T.);
#506=EDGE_CURVE('',#411,#413,#204,.T.);
#507=EDGE_CURVE('',#413,#414,#329,.T.);
#508=EDGE_CURVE('',#414,#412,#205,.T.);
#509=EDGE_CURVE('',#409,#415,#206,.T.);
#510=EDGE_CURVE('',#415,#416,#330,.T.);
#511=EDGE_CURVE('',#416,#410,#207,.T.);
#512=EDGE_CURVE('',#366,#417,#208,.T.);
#513=EDGE_CURVE('',#417,#408,#209,.T.);
#514=EDGE_CURVE('',#407,#418,#210,.T.);
#515=EDGE_CURVE('',#418,#362,#211,.T.);
#516=EDGE_CURVE('',#416,#398,#331,.T.);
#517=EDGE_CURVE('',#389,#413,#332,.T.);
#518=EDGE_CURVE('',#417,#415,#333,.T.);
#519=EDGE_CURVE('',#414,#418,#334,.T.);
#520=EDGE_CURVE('',#395,#388,#335,.T.);
#521=EDGE_CURVE('',#387,#396,#336,.T.);
#522=EDGE_CURVE('',#399,#394,#337,.T.);
#523=EDGE_CURVE('',#393,#400,#338,.T.);
#524=EDGE_CURVE('',#369,#384,#339,.T.);
#525=EDGE_CURVE('',#379,#370,#340,.T.);
#526=EDGE_CURVE('',#368,#419,#341,.T.);
#527=EDGE_CURVE('',#419,#406,#212,.T.);
#528=EDGE_CURVE('',#405,#420,#213,.T.);
#529=EDGE_CURVE('',#420,#367,#342,.T.);
#530=EDGE_CURVE('',#403,#421,#214,.T.);
#531=EDGE_CURVE('',#421,#422,#343,.T.);
#532=EDGE_CURVE('',#422,#423,#344,.T.);
#533=EDGE_CURVE('',#423,#424,#345,.T.);
#534=EDGE_CURVE('',#424,#404,#215,.T.);
#535=EDGE_CURVE('',#420,#384,#216,.T.);
#536=EDGE_CURVE('',#419,#379,#217,.T.);
#537=EDGE_CURVE('',#387,#424,#346,.T.);
#538=EDGE_CURVE('',#396,#423,#347,.T.);
#539=EDGE_CURVE('',#393,#422,#348,.T.);
#540=EDGE_CURVE('',#400,#421,#349,.T.);
#541=EDGE_CURVE('',#425,#426,#350,.T.);
#542=EDGE_CURVE('',#426,#427,#218,.T.);
#543=EDGE_CURVE('',#427,#428,#351,.T.);
#544=EDGE_CURVE('',#428,#429,#352,.T.);
#545=EDGE_CURVE('',#429,#430,#353,.T.);
#546=EDGE_CURVE('',#430,#431,#219,.T.);
#547=EDGE_CURVE('',#431,#432,#354,.T.);
#548=EDGE_CURVE('',#432,#433,#355,.T.);
#549=EDGE_CURVE('',#433,#434,#356,.T.);
#550=EDGE_CURVE('',#434,#365,#220,.T.);
#551=EDGE_CURVE('',#360,#435,#221,.T.);
#552=EDGE_CURVE('',#435,#436,#357,.T.);
#553=EDGE_CURVE('',#436,#425,#358,.T.);
#554=EDGE_CURVE('',#417,#434,#222,.T.);
#555=EDGE_CURVE('',#415,#433,#223,.T.);
#556=EDGE_CURVE('',#416,#432,#224,.T.);
#557=EDGE_CURVE('',#398,#431,#225,.T.);
#558=EDGE_CURVE('',#435,#418,#226,.T.);
#559=EDGE_CURVE('',#399,#430,#227,.T.);
#560=EDGE_CURVE('',#436,#414,#228,.T.);
#561=EDGE_CURVE('',#394,#429,#229,.T.);
#562=EDGE_CURVE('',#425,#413,#230,.T.);
#563=EDGE_CURVE('',#395,#428,#231,.T.);
#564=EDGE_CURVE('',#426,#389,#232,.T.);
#565=EDGE_CURVE('',#388,#427,#233,.T.);
#566=ORIENTED_EDGE('',*,*,#437,.F.);
#567=ORIENTED_EDGE('',*,*,#438,.T.);
#568=ORIENTED_EDGE('',*,*,#439,.F.);
#569=ORIENTED_EDGE('',*,*,#440,.F.);
#570=ORIENTED_EDGE('',*,*,#441,.F.);
#571=ORIENTED_EDGE('',*,*,#438,.F.);
#572=ORIENTED_EDGE('',*,*,#442,.F.);
#573=ORIENTED_EDGE('',*,*,#443,.T.);
#574=ORIENTED_EDGE('',*,*,#444,.F.);
#575=ORIENTED_EDGE('',*,*,#445,.T.);
#576=ORIENTED_EDGE('',*,*,#446,.F.);
#577=ORIENTED_EDGE('',*,*,#443,.F.);
#578=ORIENTED_EDGE('',*,*,#447,.F.);
#579=ORIENTED_EDGE('',*,*,#448,.T.);
#580=ORIENTED_EDGE('',*,*,#449,.F.);
#581=ORIENTED_EDGE('',*,*,#450,.F.);
#582=ORIENTED_EDGE('',*,*,#446,.T.);
#583=ORIENTED_EDGE('',*,*,#451,.F.);
#584=ORIENTED_EDGE('',*,*,#452,.F.);
#585=ORIENTED_EDGE('',*,*,#453,.F.);
#586=ORIENTED_EDGE('',*,*,#439,.T.);
#587=ORIENTED_EDGE('',*,*,#454,.F.);
#588=ORIENTED_EDGE('',*,*,#455,.F.);
#589=ORIENTED_EDGE('',*,*,#456,.F.);
#590=ORIENTED_EDGE('',*,*,#457,.T.);
#591=ORIENTED_EDGE('',*,*,#458,.T.);
#592=ORIENTED_EDGE('',*,*,#459,.F.);
#593=ORIENTED_EDGE('',*,*,#458,.F.);
#594=ORIENTED_EDGE('',*,*,#460,.T.);
#595=ORIENTED_EDGE('',*,*,#461,.T.);
#596=ORIENTED_EDGE('',*,*,#462,.T.);
#597=ORIENTED_EDGE('',*,*,#463,.F.);
#598=ORIENTED_EDGE('',*,*,#464,.T.);
#599=ORIENTED_EDGE('',*,*,#449,.T.);
#600=ORIENTED_EDGE('',*,*,#465,.T.);
#601=ORIENTED_EDGE('',*,*,#466,.T.);
#602=ORIENTED_EDGE('',*,*,#467,.T.);
#603=ORIENTED_EDGE('',*,*,#468,.T.);
#604=ORIENTED_EDGE('',*,*,#469,.F.);
#605=ORIENTED_EDGE('',*,*,#470,.T.);
#606=ORIENTED_EDGE('',*,*,#471,.T.);
#607=ORIENTED_EDGE('',*,*,#472,.T.);
#608=ORIENTED_EDGE('',*,*,#473,.T.);
#609=ORIENTED_EDGE('',*,*,#474,.T.);
#610=ORIENTED_EDGE('',*,*,#475,.T.);
#611=ORIENTED_EDGE('',*,*,#476,.T.);
#612=ORIENTED_EDGE('',*,*,#477,.T.);
#613=ORIENTED_EDGE('',*,*,#478,.T.);
#614=ORIENTED_EDGE('',*,*,#479,.T.);
#615=ORIENTED_EDGE('',*,*,#480,.T.);
#616=ORIENTED_EDGE('',*,*,#481,.T.);
#617=ORIENTED_EDGE('',*,*,#482,.T.);
#618=ORIENTED_EDGE('',*,*,#483,.T.);
#619=ORIENTED_EDGE('',*,*,#484,.T.);
#620=ORIENTED_EDGE('',*,*,#485,.F.);
#621=ORIENTED_EDGE('',*,*,#486,.T.);
#622=ORIENTED_EDGE('',*,*,#485,.T.);
#623=ORIENTED_EDGE('',*,*,#487,.T.);
#624=ORIENTED_EDGE('',*,*,#488,.T.);
#625=ORIENTED_EDGE('',*,*,#489,.T.);
#626=ORIENTED_EDGE('',*,*,#475,.F.);
#627=ORIENTED_EDGE('',*,*,#490,.T.);
#628=ORIENTED_EDGE('',*,*,#469,.T.);
#629=ORIENTED_EDGE('',*,*,#491,.T.);
#630=ORIENTED_EDGE('',*,*,#492,.F.);
#631=ORIENTED_EDGE('',*,*,#493,.T.);
#632=ORIENTED_EDGE('',*,*,#460,.F.);
#633=ORIENTED_EDGE('',*,*,#494,.T.);
#634=ORIENTED_EDGE('',*,*,#495,.F.);
#635=ORIENTED_EDGE('',*,*,#455,.T.);
#636=ORIENTED_EDGE('',*,*,#496,.T.);
#637=ORIENTED_EDGE('',*,*,#452,.T.);
#638=ORIENTED_EDGE('',*,*,#497,.T.);
#639=ORIENTED_EDGE('',*,*,#498,.T.);
#640=ORIENTED_EDGE('',*,*,#499,.F.);
#641=ORIENTED_EDGE('',*,*,#500,.T.);
#642=ORIENTED_EDGE('',*,*,#486,.F.);
#643=ORIENTED_EDGE('',*,*,#494,.F.);
#644=ORIENTED_EDGE('',*,*,#463,.T.);
#645=ORIENTED_EDGE('',*,*,#501,.T.);
#646=ORIENTED_EDGE('',*,*,#466,.F.);
#647=ORIENTED_EDGE('',*,*,#502,.T.);
#648=ORIENTED_EDGE('',*,*,#470,.F.);
#649=ORIENTED_EDGE('',*,*,#490,.F.);
#650=ORIENTED_EDGE('',*,*,#474,.F.);
#651=ORIENTED_EDGE('',*,*,#503,.T.);
#652=ORIENTED_EDGE('',*,*,#504,.F.);
#653=ORIENTED_EDGE('',*,*,#505,.T.);
#654=ORIENTED_EDGE('',*,*,#459,.T.);
#655=ORIENTED_EDGE('',*,*,#506,.T.);
#656=ORIENTED_EDGE('',*,*,#507,.T.);
#657=ORIENTED_EDGE('',*,*,#508,.T.);
#658=ORIENTED_EDGE('',*,*,#504,.T.);
#659=ORIENTED_EDGE('',*,*,#509,.T.);
#660=ORIENTED_EDGE('',*,*,#510,.T.);
#661=ORIENTED_EDGE('',*,*,#511,.T.);
#662=ORIENTED_EDGE('',*,*,#499,.T.);
#663=ORIENTED_EDGE('',*,*,#451,.T.);
#664=ORIENTED_EDGE('',*,*,#512,.T.);
#665=ORIENTED_EDGE('',*,*,#513,.T.);
#666=ORIENTED_EDGE('',*,*,#497,.F.);
#667=ORIENTED_EDGE('',*,*,#454,.T.);
#668=ORIENTED_EDGE('',*,*,#441,.T.);
#669=ORIENTED_EDGE('',*,*,#453,.T.);
#670=ORIENTED_EDGE('',*,*,#496,.F.);
#671=ORIENTED_EDGE('',*,*,#514,.T.);
#672=ORIENTED_EDGE('',*,*,#515,.T.);
#673=ORIENTED_EDGE('',*,*,#456,.T.);
#674=ORIENTED_EDGE('',*,*,#495,.T.);
#675=ORIENTED_EDGE('',*,*,#511,.F.);
#676=ORIENTED_EDGE('',*,*,#516,.T.);
#677=ORIENTED_EDGE('',*,*,#481,.F.);
#678=ORIENTED_EDGE('',*,*,#500,.F.);
#679=ORIENTED_EDGE('',*,*,#473,.F.);
#680=ORIENTED_EDGE('',*,*,#517,.T.);
#681=ORIENTED_EDGE('',*,*,#506,.F.);
#682=ORIENTED_EDGE('',*,*,#503,.F.);
#683=ORIENTED_EDGE('',*,*,#513,.F.);
#684=ORIENTED_EDGE('',*,*,#518,.T.);
#685=ORIENTED_EDGE('',*,*,#509,.F.);
#686=ORIENTED_EDGE('',*,*,#498,.F.);
#687=ORIENTED_EDGE('',*,*,#508,.F.);
#688=ORIENTED_EDGE('',*,*,#519,.T.);
#689=ORIENTED_EDGE('',*,*,#514,.F.);
#690=ORIENTED_EDGE('',*,*,#505,.F.);
#691=ORIENTED_EDGE('',*,*,#479,.F.);
#692=ORIENTED_EDGE('',*,*,#520,.T.);
#693=ORIENTED_EDGE('',*,*,#471,.F.);
#694=ORIENTED_EDGE('',*,*,#521,.T.);
#695=ORIENTED_EDGE('',*,*,#483,.F.);
#696=ORIENTED_EDGE('',*,*,#522,.T.);
#697=ORIENTED_EDGE('',*,*,#477,.F.);
#698=ORIENTED_EDGE('',*,*,#523,.T.);
#699=ORIENTED_EDGE('',*,*,#465,.F.);
#700=ORIENTED_EDGE('',*,*,#524,.T.);
#701=ORIENTED_EDGE('',*,*,#467,.F.);
#702=ORIENTED_EDGE('',*,*,#502,.F.);
#703=ORIENTED_EDGE('',*,*,#462,.F.);
#704=ORIENTED_EDGE('',*,*,#525,.T.);
#705=ORIENTED_EDGE('',*,*,#464,.F.);
#706=ORIENTED_EDGE('',*,*,#501,.F.);
#707=ORIENTED_EDGE('',*,*,#526,.T.);
#708=ORIENTED_EDGE('',*,*,#527,.T.);
#709=ORIENTED_EDGE('',*,*,#492,.T.);
#710=ORIENTED_EDGE('',*,*,#528,.T.);
#711=ORIENTED_EDGE('',*,*,#529,.T.);
#712=ORIENTED_EDGE('',*,*,#447,.T.);
#713=ORIENTED_EDGE('',*,*,#488,.F.);
#714=ORIENTED_EDGE('',*,*,#530,.T.);
#715=ORIENTED_EDGE('',*,*,#531,.T.);
#716=ORIENTED_EDGE('',*,*,#532,.T.);
#717=ORIENTED_EDGE('',*,*,#533,.T.);
#718=ORIENTED_EDGE('',*,*,#534,.T.);
#719=ORIENTED_EDGE('',*,*,#491,.F.);
#720=ORIENTED_EDGE('',*,*,#468,.F.);
#721=ORIENTED_EDGE('',*,*,#535,.F.);
#722=ORIENTED_EDGE('',*,*,#528,.F.);
#723=ORIENTED_EDGE('',*,*,#535,.T.);
#724=ORIENTED_EDGE('',*,*,#524,.F.);
#725=ORIENTED_EDGE('',*,*,#448,.F.);
#726=ORIENTED_EDGE('',*,*,#529,.F.);
#727=ORIENTED_EDGE('',*,*,#450,.T.);
#728=ORIENTED_EDGE('',*,*,#525,.F.);
#729=ORIENTED_EDGE('',*,*,#536,.F.);
#730=ORIENTED_EDGE('',*,*,#526,.F.);
#731=ORIENTED_EDGE('',*,*,#493,.F.);
#732=ORIENTED_EDGE('',*,*,#527,.F.);
#733=ORIENTED_EDGE('',*,*,#536,.T.);
#734=ORIENTED_EDGE('',*,*,#461,.F.);
#735=ORIENTED_EDGE('',*,*,#489,.F.);
#736=ORIENTED_EDGE('',*,*,#534,.F.);
#737=ORIENTED_EDGE('',*,*,#537,.F.);
#738=ORIENTED_EDGE('',*,*,#476,.F.);
#739=ORIENTED_EDGE('',*,*,#537,.T.);
#740=ORIENTED_EDGE('',*,*,#533,.F.);
#741=ORIENTED_EDGE('',*,*,#538,.F.);
#742=ORIENTED_EDGE('',*,*,#521,.F.);
#743=ORIENTED_EDGE('',*,*,#538,.T.);
#744=ORIENTED_EDGE('',*,*,#532,.F.);
#745=ORIENTED_EDGE('',*,*,#539,.F.);
#746=ORIENTED_EDGE('',*,*,#480,.F.);
#747=ORIENTED_EDGE('',*,*,#539,.T.);
#748=ORIENTED_EDGE('',*,*,#531,.F.);
#749=ORIENTED_EDGE('',*,*,#540,.F.);
#750=ORIENTED_EDGE('',*,*,#523,.F.);
#751=ORIENTED_EDGE('',*,*,#487,.F.);
#752=ORIENTED_EDGE('',*,*,#484,.F.);
#753=ORIENTED_EDGE('',*,*,#540,.T.);
#754=ORIENTED_EDGE('',*,*,#530,.F.);
#755=ORIENTED_EDGE('',*,*,#541,.T.);
#756=ORIENTED_EDGE('',*,*,#542,.T.);
#757=ORIENTED_EDGE('',*,*,#543,.T.);
#758=ORIENTED_EDGE('',*,*,#544,.T.);
#759=ORIENTED_EDGE('',*,*,#545,.T.);
#760=ORIENTED_EDGE('',*,*,#546,.T.);
#761=ORIENTED_EDGE('',*,*,#547,.T.);
#762=ORIENTED_EDGE('',*,*,#548,.T.);
#763=ORIENTED_EDGE('',*,*,#549,.T.);
#764=ORIENTED_EDGE('',*,*,#550,.T.);
#765=ORIENTED_EDGE('',*,*,#444,.T.);
#766=ORIENTED_EDGE('',*,*,#442,.T.);
#767=ORIENTED_EDGE('',*,*,#437,.T.);
#768=ORIENTED_EDGE('',*,*,#551,.T.);
#769=ORIENTED_EDGE('',*,*,#552,.T.);
#770=ORIENTED_EDGE('',*,*,#553,.T.);
#771=ORIENTED_EDGE('',*,*,#457,.F.);
#772=ORIENTED_EDGE('',*,*,#554,.F.);
#773=ORIENTED_EDGE('',*,*,#512,.F.);
#774=ORIENTED_EDGE('',*,*,#445,.F.);
#775=ORIENTED_EDGE('',*,*,#550,.F.);
#776=ORIENTED_EDGE('',*,*,#554,.T.);
#777=ORIENTED_EDGE('',*,*,#549,.F.);
#778=ORIENTED_EDGE('',*,*,#555,.F.);
#779=ORIENTED_EDGE('',*,*,#518,.F.);
#780=ORIENTED_EDGE('',*,*,#555,.T.);
#781=ORIENTED_EDGE('',*,*,#548,.F.);
#782=ORIENTED_EDGE('',*,*,#556,.F.);
#783=ORIENTED_EDGE('',*,*,#510,.F.);
#784=ORIENTED_EDGE('',*,*,#556,.T.);
#785=ORIENTED_EDGE('',*,*,#547,.F.);
#786=ORIENTED_EDGE('',*,*,#557,.F.);
#787=ORIENTED_EDGE('',*,*,#516,.F.);
#788=ORIENTED_EDGE('',*,*,#440,.T.);
#789=ORIENTED_EDGE('',*,*,#515,.F.);
#790=ORIENTED_EDGE('',*,*,#558,.F.);
#791=ORIENTED_EDGE('',*,*,#551,.F.);
#792=ORIENTED_EDGE('',*,*,#557,.T.);
#793=ORIENTED_EDGE('',*,*,#546,.F.);
#794=ORIENTED_EDGE('',*,*,#559,.F.);
#795=ORIENTED_EDGE('',*,*,#482,.F.);
#796=ORIENTED_EDGE('',*,*,#558,.T.);
#797=ORIENTED_EDGE('',*,*,#519,.F.);
#798=ORIENTED_EDGE('',*,*,#560,.F.);
#799=ORIENTED_EDGE('',*,*,#552,.F.);
#800=ORIENTED_EDGE('',*,*,#559,.T.);
#801=ORIENTED_EDGE('',*,*,#545,.F.);
#802=ORIENTED_EDGE('',*,*,#561,.F.);
#803=ORIENTED_EDGE('',*,*,#522,.F.);
#804=ORIENTED_EDGE('',*,*,#560,.T.);
#805=ORIENTED_EDGE('',*,*,#507,.F.);
#806=ORIENTED_EDGE('',*,*,#562,.F.);
#807=ORIENTED_EDGE('',*,*,#553,.F.);
#808=ORIENTED_EDGE('',*,*,#561,.T.);
#809=ORIENTED_EDGE('',*,*,#544,.F.);
#810=ORIENTED_EDGE('',*,*,#563,.F.);
#811=ORIENTED_EDGE('',*,*,#478,.F.);
#812=ORIENTED_EDGE('',*,*,#562,.T.);
#813=ORIENTED_EDGE('',*,*,#517,.F.);
#814=ORIENTED_EDGE('',*,*,#564,.F.);
#815=ORIENTED_EDGE('',*,*,#541,.F.);
#816=ORIENTED_EDGE('',*,*,#563,.T.);
#817=ORIENTED_EDGE('',*,*,#543,.F.);
#818=ORIENTED_EDGE('',*,*,#565,.F.);
#819=ORIENTED_EDGE('',*,*,#520,.F.);
#820=ORIENTED_EDGE('',*,*,#564,.T.);
#821=ORIENTED_EDGE('',*,*,#472,.F.);
#822=ORIENTED_EDGE('',*,*,#565,.T.);
#823=ORIENTED_EDGE('',*,*,#542,.F.);
#824=CONICAL_SURFACE('',#906,1.5,0.785398163397446);
#825=CONICAL_SURFACE('',#909,21.5,0.785398163397445);
#826=CONICAL_SURFACE('',#912,1.5,0.785398163397447);
#827=CONICAL_SURFACE('',#915,33.7,0.785398163397452);
#828=CONICAL_SURFACE('',#984,1.,0.785398163397451);
#829=CONICAL_SURFACE('',#985,1.,0.78539816339745);
#830=CONICAL_SURFACE('',#1005,1.5,0.785398163397446);
#831=CONICAL_SURFACE('',#1006,28.,0.785398163397445);
#832=CONICAL_SURFACE('',#1007,4.5,0.785398163397445);
#833=CONICAL_SURFACE('',#1010,1.5,0.785398163397447);
#834=CONICAL_SURFACE('',#1011,1.5,0.785398163397444);
#835=CONICAL_SURFACE('',#1012,28.,0.785398163397445);
#836=CONICAL_SURFACE('',#1013,35.,0.785398163397455);
#837=CONICAL_SURFACE('',#1014,4.5,0.785398163397445);
#838=CONICAL_SURFACE('',#1015,1.5,0.785398163397445);
#839=ADVANCED_FACE('',(#59),#824,.T.);
#840=ADVANCED_FACE('',(#60),#825,.F.);
#841=ADVANCED_FACE('',(#61),#826,.T.);
#842=ADVANCED_FACE('',(#62),#827,.F.);
#843=ADVANCED_FACE('',(#63),#40,.T.);
#844=ADVANCED_FACE('',(#64),#41,.T.);
#845=ADVANCED_FACE('',(#65),#42,.F.);
#846=ADVANCED_FACE('',(#66),#24,.F.);
#847=ADVANCED_FACE('',(#67),#43,.F.);
#848=ADVANCED_FACE('',(#68),#25,.T.);
#849=ADVANCED_FACE('',(#69),#26,.F.);
#850=ADVANCED_FACE('',(#70),#44,.T.);
#851=ADVANCED_FACE('',(#71),#27,.T.);
#852=ADVANCED_FACE('',(#72),#45,.F.);
#853=ADVANCED_FACE('',(#73,#18),#28,.F.);
#854=ADVANCED_FACE('',(#74),#46,.T.);
#855=ADVANCED_FACE('',(#75),#47,.T.);
#856=ADVANCED_FACE('',(#76),#29,.T.);
#857=ADVANCED_FACE('',(#77),#48,.F.);
#858=ADVANCED_FACE('',(#78),#30,.F.);
#859=ADVANCED_FACE('',(#79),#49,.F.);
#860=ADVANCED_FACE('',(#80),#50,.F.);
#861=ADVANCED_FACE('',(#81),#51,.T.);
#862=ADVANCED_FACE('',(#82),#52,.T.);
#863=ADVANCED_FACE('',(#83),#53,.T.);
#864=ADVANCED_FACE('',(#84),#54,.T.);
#865=ADVANCED_FACE('',(#85),#55,.F.);
#866=ADVANCED_FACE('',(#86),#56,.F.);
#867=ADVANCED_FACE('',(#87),#31,.F.);
#868=ADVANCED_FACE('',(#88),#32,.T.);
#869=ADVANCED_FACE('',(#89),#33,.F.);
#870=ADVANCED_FACE('',(#90),#828,.F.);
#871=ADVANCED_FACE('',(#91),#829,.F.);
#872=ADVANCED_FACE('',(#92),#34,.T.);
#873=ADVANCED_FACE('',(#93),#57,.T.);
#874=ADVANCED_FACE('',(#94),#16,.F.);
#875=ADVANCED_FACE('',(#95),#15,.T.);
#876=ADVANCED_FACE('',(#96),#17,.F.);
#877=ADVANCED_FACE('',(#97),#58,.T.);
#878=ADVANCED_FACE('',(#98,#19),#35,.T.);
#879=ADVANCED_FACE('',(#99),#36,.F.);
#880=ADVANCED_FACE('',(#100),#830,.T.);
#881=ADVANCED_FACE('',(#101),#831,.T.);
#882=ADVANCED_FACE('',(#102),#832,.F.);
#883=ADVANCED_FACE('',(#103),#37,.T.);
#884=ADVANCED_FACE('',(#104),#38,.F.);
#885=ADVANCED_FACE('',(#105),#833,.T.);
#886=ADVANCED_FACE('',(#106),#834,.T.);
#887=ADVANCED_FACE('',(#107),#835,.T.);
#888=ADVANCED_FACE('',(#108),#836,.T.);
#889=ADVANCED_FACE('',(#109),#837,.F.);
#890=ADVANCED_FACE('',(#110),#838,.T.);
#891=ADVANCED_FACE('',(#111),#39,.T.);
#892=CLOSED_SHELL('',(#839,#840,#841,#842,#843,#844,#845,#846,#847,#848,
#849,#850,#851,#852,#853,#854,#855,#856,#857,#858,#859,#860,#861,#862,#863,
#864,#865,#866,#867,#868,#869,#870,#871,#872,#873,#874,#875,#876,#877,#878,
#879,#880,#881,#882,#883,#884,#885,#886,#887,#888,#889,#890,#891));
#893=DERIVED_UNIT_ELEMENT(#895,1.);
#894=DERIVED_UNIT_ELEMENT(#1608,-3.);
#895=(
MASS_UNIT()
NAMED_UNIT(*)
SI_UNIT(.KILO.,.GRAM.)
);
#896=DERIVED_UNIT((#893,#894));
#897=MEASURE_REPRESENTATION_ITEM('density measure',
POSITIVE_RATIO_MEASURE(7850.),#896);
#898=PROPERTY_DEFINITION_REPRESENTATION(#903,#900);
#899=PROPERTY_DEFINITION_REPRESENTATION(#904,#901);
#900=REPRESENTATION('material name',(#902),#1605);
#901=REPRESENTATION('density',(#897),#1605);
#902=DESCRIPTIVE_REPRESENTATION_ITEM('Steel','Steel');
#903=PROPERTY_DEFINITION('material property','material name',#1615);
#904=PROPERTY_DEFINITION('material property','density of part',#1615);
#905=AXIS2_PLACEMENT_3D('',#1308,#1017,#1018);
#906=AXIS2_PLACEMENT_3D('',#1309,#1019,#1020);
#907=AXIS2_PLACEMENT_3D('',#1312,#1021,#1022);
#908=AXIS2_PLACEMENT_3D('',#1316,#1024,#1025);
#909=AXIS2_PLACEMENT_3D('',#1318,#1027,#1028);
#910=AXIS2_PLACEMENT_3D('',#1320,#1029,#1030);
#911=AXIS2_PLACEMENT_3D('',#1322,#1031,#1032);
#912=AXIS2_PLACEMENT_3D('',#1324,#1034,#1035);
#913=AXIS2_PLACEMENT_3D('',#1326,#1036,#1037);
#914=AXIS2_PLACEMENT_3D('',#1329,#1039,#1040);
#915=AXIS2_PLACEMENT_3D('',#1330,#1041,#1042);
#916=AXIS2_PLACEMENT_3D('',#1333,#1043,#1044);
#917=AXIS2_PLACEMENT_3D('',#1337,#1046,#1047);
#918=AXIS2_PLACEMENT_3D('',#1339,#1049,#1050);
#919=AXIS2_PLACEMENT_3D('',#1343,#1052,#1053);
#920=AXIS2_PLACEMENT_3D('',#1345,#1055,#1056);
#921=AXIS2_PLACEMENT_3D('',#1349,#1058,#1059);
#922=AXIS2_PLACEMENT_3D('',#1351,#1061,#1062);
#923=AXIS2_PLACEMENT_3D('',#1353,#1063,#1064);
#924=AXIS2_PLACEMENT_3D('',#1356,#1066,#1067);
#925=AXIS2_PLACEMENT_3D('',#1357,#1068,#1069);
#926=AXIS2_PLACEMENT_3D('',#1366,#1074,#1075);
#927=AXIS2_PLACEMENT_3D('',#1371,#1078,#1079);
#928=AXIS2_PLACEMENT_3D('',#1372,#1080,#1081);
#929=AXIS2_PLACEMENT_3D('',#1381,#1086,#1087);
#930=AXIS2_PLACEMENT_3D('',#1394,#1094,#1095);
#931=AXIS2_PLACEMENT_3D('',#1399,#1097,#1098);
#932=AXIS2_PLACEMENT_3D('',#1402,#1100,#1101);
#933=AXIS2_PLACEMENT_3D('',#1403,#1102,#1103);
#934=AXIS2_PLACEMENT_3D('',#1416,#1110,#1111);
#935=AXIS2_PLACEMENT_3D('',#1429,#1112,#1113);
#936=AXIS2_PLACEMENT_3D('',#1440,#1114,#1115);
#937=AXIS2_PLACEMENT_3D('',#1442,#1116,#1117);
#938=AXIS2_PLACEMENT_3D('',#1444,#1118,#1119);
#939=AXIS2_PLACEMENT_3D('',#1445,#1120,#1121);
#940=AXIS2_PLACEMENT_3D('',#1446,#1122,#1123);
#941=AXIS2_PLACEMENT_3D('',#1447,#1124,#1125);
#942=AXIS2_PLACEMENT_3D('',#1450,#1127,#1128);
#943=AXIS2_PLACEMENT_3D('',#1454,#1130,#1131);
#944=AXIS2_PLACEMENT_3D('',#1456,#1132,#1133);
#945=AXIS2_PLACEMENT_3D('',#1457,#1134,#1135);
#946=AXIS2_PLACEMENT_3D('',#1458,#1136,#1137);
#947=AXIS2_PLACEMENT_3D('',#1459,#1138,#1139);
#948=AXIS2_PLACEMENT_3D('',#1461,#1140,#1141);
#949=AXIS2_PLACEMENT_3D('',#1463,#1142,#1143);
#950=AXIS2_PLACEMENT_3D('',#1464,#1144,#1145);
#951=AXIS2_PLACEMENT_3D('',#1465,#1146,#1147);
#952=AXIS2_PLACEMENT_3D('',#1469,#1149,#1150);
#953=AXIS2_PLACEMENT_3D('',#1471,#1152,#1153);
#954=AXIS2_PLACEMENT_3D('',#1475,#1155,#1156);
#955=AXIS2_PLACEMENT_3D('',#1477,#1158,#1159);
#956=AXIS2_PLACEMENT_3D('',#1481,#1162,#1163);
#957=AXIS2_PLACEMENT_3D('',#1482,#1164,#1165);
#958=AXIS2_PLACEMENT_3D('',#1486,#1168,#1169);
#959=AXIS2_PLACEMENT_3D('',#1487,#1170,#1171);
#960=AXIS2_PLACEMENT_3D('',#1488,#1172,#1173);
#961=AXIS2_PLACEMENT_3D('',#1489,#1174,#1175);
#962=AXIS2_PLACEMENT_3D('',#1490,#1176,#1177);
#963=AXIS2_PLACEMENT_3D('',#1491,#1178,#1179);
#964=AXIS2_PLACEMENT_3D('',#1492,#1180,#1181);
#965=AXIS2_PLACEMENT_3D('',#1493,#1182,#1183);
#966=AXIS2_PLACEMENT_3D('',#1494,#1184,#1185);
#967=AXIS2_PLACEMENT_3D('',#1495,#1186,#1187);
#968=AXIS2_PLACEMENT_3D('',#1496,#1188,#1189);
#969=AXIS2_PLACEMENT_3D('',#1497,#1190,#1191);
#970=AXIS2_PLACEMENT_3D('',#1498,#1192,#1193);
#971=AXIS2_PLACEMENT_3D('',#1499,#1194,#1195);
#972=AXIS2_PLACEMENT_3D('',#1500,#1196,#1197);
#973=AXIS2_PLACEMENT_3D('',#1501,#1198,#1199);
#974=AXIS2_PLACEMENT_3D('',#1502,#1200,#1201);
#975=AXIS2_PLACEMENT_3D('',#1503,#1202,#1203);
#976=AXIS2_PLACEMENT_3D('',#1504,#1204,#1205);
#977=AXIS2_PLACEMENT_3D('',#1506,#1206,#1207);
#978=AXIS2_PLACEMENT_3D('',#1510,#1210,#1211);
#979=AXIS2_PLACEMENT_3D('',#1511,#1212,#1213);
#980=AXIS2_PLACEMENT_3D('',#1515,#1215,#1216);
#981=AXIS2_PLACEMENT_3D('',#1517,#1217,#1218);
#982=AXIS2_PLACEMENT_3D('',#1519,#1219,#1220);
#983=AXIS2_PLACEMENT_3D('',#1521,#1222,#1223);
#984=AXIS2_PLACEMENT_3D('',#1523,#1225,#1226);
#985=AXIS2_PLACEMENT_3D('',#1524,#1227,#1228);
#986=AXIS2_PLACEMENT_3D('',#1526,#1230,#1231);
#987=AXIS2_PLACEMENT_3D('',#1527,#1232,#1233);
#988=AXIS2_PLACEMENT_3D('',#1528,#1234,#1235);
#989=AXIS2_PLACEMENT_3D('',#1538,#1236,#1237);
#990=AXIS2_PLACEMENT_3D('',#1539,#1238,#1239);
#991=AXIS2_PLACEMENT_3D('',#1540,#1240,#1241);
#992=AXIS2_PLACEMENT_3D('',#1550,#1242,#1243);
#993=AXIS2_PLACEMENT_3D('',#1551,#1244,#1245);
#994=AXIS2_PLACEMENT_3D('',#1552,#1246,#1247);
#995=AXIS2_PLACEMENT_3D('',#1555,#1248,#1249);
#996=AXIS2_PLACEMENT_3D('',#1559,#1251,#1252);
#997=AXIS2_PLACEMENT_3D('',#1561,#1253,#1254);
#998=AXIS2_PLACEMENT_3D('',#1563,#1255,#1256);
#999=AXIS2_PLACEMENT_3D('',#1567,#1258,#1259);
#1000=AXIS2_PLACEMENT_3D('',#1569,#1260,#1261);
#1001=AXIS2_PLACEMENT_3D('',#1571,#1262,#1263);
#1002=AXIS2_PLACEMENT_3D('',#1576,#1266,#1267);
#1003=AXIS2_PLACEMENT_3D('',#1577,#1268,#1269);
#1004=AXIS2_PLACEMENT_3D('',#1578,#1270,#1271);
#1005=AXIS2_PLACEMENT_3D('',#1580,#1273,#1274);
#1006=AXIS2_PLACEMENT_3D('',#1582,#1276,#1277);
#1007=AXIS2_PLACEMENT_3D('',#1584,#1279,#1280);
#1008=AXIS2_PLACEMENT_3D('',#1586,#1282,#1283);
#1009=AXIS2_PLACEMENT_3D('',#1588,#1285,#1286);
#1010=AXIS2_PLACEMENT_3D('',#1590,#1288,#1289);
#1011=AXIS2_PLACEMENT_3D('',#1592,#1291,#1292);
#1012=AXIS2_PLACEMENT_3D('',#1594,#1294,#1295);
#1013=AXIS2_PLACEMENT_3D('',#1596,#1297,#1298);
#1014=AXIS2_PLACEMENT_3D('',#1598,#1300,#1301);
#1015=AXIS2_PLACEMENT_3D('',#1600,#1303,#1304);
#1016=AXIS2_PLACEMENT_3D('',#1602,#1306,#1307);
#1017=DIRECTION('axis',(0.,0.,1.));
#1018=DIRECTION('refdir',(1.,0.,0.));
#1019=DIRECTION('center_axis',(-1.,0.,0.));
#1020=DIRECTION('ref_axis',(0.,0.,1.));
#1021=DIRECTION('center_axis',(1.,0.,0.));
#1022=DIRECTION('ref_axis',(0.,0.,-1.));
#1023=DIRECTION('',(-0.70710678118655,0.518783510294581,0.480482746252588));
#1024=DIRECTION('center_axis',(-1.,0.,0.));
#1025=DIRECTION('ref_axis',(0.,1.73472347597681E-15,-1.));
#1026=DIRECTION('',(-0.707106781186549,-0.433551119718461,0.558599522548013));
#1027=DIRECTION('center_axis',(1.,0.,0.));
#1028=DIRECTION('ref_axis',(0.,0.,-1.));
#1029=DIRECTION('center_axis',(1.,0.,0.));
#1030=DIRECTION('ref_axis',(0.,0.,-1.));
#1031=DIRECTION('center_axis',(-1.,0.,0.));
#1032=DIRECTION('ref_axis',(0.,-3.5527136788005E-15,-1.));
#1033=DIRECTION('',(-0.707106781186548,-0.518783510294582,0.480482746252589));
#1034=DIRECTION('center_axis',(-1.,0.,0.));
#1035=DIRECTION('ref_axis',(0.,0.,1.));
#1036=DIRECTION('center_axis',(1.,0.,0.));
#1037=DIRECTION('ref_axis',(0.,0.,-1.));
#1038=DIRECTION('',(-0.70710678118655,0.433551119718461,0.558599522548011));
#1039=DIRECTION('center_axis',(-1.,0.,0.));
#1040=DIRECTION('ref_axis',(0.,0.,-1.));
#1041=DIRECTION('center_axis',(1.,0.,0.));
#1042=DIRECTION('ref_axis',(0.,0.,-1.));
#1043=DIRECTION('center_axis',(1.,0.,0.));
#1044=DIRECTION('ref_axis',(0.,0.,1.));
#1045=DIRECTION('',(0.707106781186545,-0.14055639381384,-0.692996320450586));
#1046=DIRECTION('center_axis',(-1.,0.,0.));
#1047=DIRECTION('ref_axis',(0.,0.,1.));
#1048=DIRECTION('',(0.707106781186545,0.14055639381384,-0.692996320450586));
#1049=DIRECTION('center_axis',(-1.,0.,0.));
#1050=DIRECTION('ref_axis',(0.,0.,1.));
#1051=DIRECTION('',(1.,0.,0.));
#1052=DIRECTION('center_axis',(-1.,0.,0.));
#1053=DIRECTION('ref_axis',(0.,3.46944695195362E-15,-1.));
#1054=DIRECTION('',(-1.,0.,0.));
#1055=DIRECTION('center_axis',(-1.,0.,0.));
#1056=DIRECTION('ref_axis',(0.,0.,1.));
#1057=DIRECTION('',(1.,0.,0.));
#1058=DIRECTION('center_axis',(-1.,0.,0.));
#1059=DIRECTION('ref_axis',(0.,1.73472347597681E-15,-1.));
#1060=DIRECTION('',(-1.,0.,0.));
#1061=DIRECTION('center_axis',(-1.,0.,0.));
#1062=DIRECTION('ref_axis',(0.,0.,1.));
#1063=DIRECTION('center_axis',(1.,0.,0.));
#1064=DIRECTION('ref_axis',(0.,0.,-1.));
#1065=DIRECTION('',(-1.,0.,0.));
#1066=DIRECTION('center_axis',(1.,0.,0.));
#1067=DIRECTION('ref_axis',(0.,0.,-1.));
#1068=DIRECTION('center_axis',(0.,1.,0.));
#1069=DIRECTION('ref_axis',(0.,0.,1.));
#1070=DIRECTION('',(-1.,0.,0.));
#1071=DIRECTION('',(0.,0.,-1.));
#1072=DIRECTION('',(1.,0.,0.));
#1073=DIRECTION('',(0.,0.,-1.));
#1074=DIRECTION('center_axis',(-1.,0.,0.));
#1075=DIRECTION('ref_axis',(0.,1.22464679914735E-16,-1.));
#1076=DIRECTION('',(-1.,0.,0.));
#1077=DIRECTION('',(1.,0.,0.));
#1078=DIRECTION('center_axis',(1.,0.,0.));
#1079=DIRECTION('ref_axis',(0.,0.,-1.));
#1080=DIRECTION('center_axis',(0.,1.,0.));
#1081=DIRECTION('ref_axis',(0.,0.,1.));
#1082=DIRECTION('',(-1.,0.,0.));
#1083=DIRECTION('',(0.,0.,1.));
#1084=DIRECTION('',(-1.,0.,0.));
#1085=DIRECTION('',(0.,0.,-1.));
#1086=DIRECTION('center_axis',(0.,1.,0.));
#1087=DIRECTION('ref_axis',(0.,0.,1.));
#1088=DIRECTION('',(1.,0.,0.));
#1089=DIRECTION('',(0.,0.,1.));
#1090=DIRECTION('',(-1.,0.,0.));
#1091=DIRECTION('',(0.,0.,1.));
#1092=DIRECTION('',(-1.,0.,0.));
#1093=DIRECTION('',(0.,0.,-1.));
#1094=DIRECTION('center_axis',(-1.,0.,0.));
#1095=DIRECTION('ref_axis',(0.,1.22464679914735E-16,-1.));
#1096=DIRECTION('',(1.,0.,0.));
#1097=DIRECTION('center_axis',(-1.,0.,0.));
#1098=DIRECTION('ref_axis',(0.,0.,-1.));
#1099=DIRECTION('',(-1.,0.,0.));
#1100=DIRECTION('center_axis',(1.,0.,0.));
#1101=DIRECTION('ref_axis',(0.,3.5527136788005E-15,1.));
#1102=DIRECTION('center_axis',(0.,1.,0.));
#1103=DIRECTION('ref_axis',(0.,0.,1.));
#1104=DIRECTION('',(1.,0.,0.));
#1105=DIRECTION('',(0.,0.,-1.));
#1106=DIRECTION('',(-1.,0.,0.));
#1107=DIRECTION('',(0.,0.,1.));
#1108=DIRECTION('',(-1.,0.,0.));
#1109=DIRECTION('',(0.,0.,-1.));
#1110=DIRECTION('center_axis',(-1.,0.,0.));
#1111=DIRECTION('ref_axis',(0.,1.22464679914735E-16,-1.));
#1112=DIRECTION('center_axis',(-1.,0.,0.));
#1113=DIRECTION('ref_axis',(0.,0.,1.));
#1114=DIRECTION('center_axis',(1.,0.,0.));
#1115=DIRECTION('ref_axis',(0.,0.,-1.));
#1116=DIRECTION('center_axis',(0.707106781186549,0.707106781186546,0.));
#1117=DIRECTION('ref_axis',(-0.707106781186546,0.707106781186549,0.));
#1118=DIRECTION('center_axis',(-1.,0.,0.));
#1119=DIRECTION('ref_axis',(0.,0.,1.));
#1120=DIRECTION('center_axis',(0.707106781186549,-0.707106781186546,0.));
#1121=DIRECTION('ref_axis',(0.707106781186546,0.707106781186549,0.));
#1122=DIRECTION('center_axis',(1.,0.,0.));
#1123=DIRECTION('ref_axis',(0.,0.,-1.));
#1124=DIRECTION('center_axis',(1.,0.,0.));
#1125=DIRECTION('ref_axis',(0.,0.,-1.));
#1126=DIRECTION('',(0.,-0.789979020722536,-0.613133873487889));
#1127=DIRECTION('center_axis',(1.,0.,0.));
#1128=DIRECTION('ref_axis',(0.,0.,-1.));
#1129=DIRECTION('',(0.,0.789979020722536,-0.613133873487889));
#1130=DIRECTION('center_axis',(-1.,0.,0.));
#1131=DIRECTION('ref_axis',(0.,-1.73472347597681E-15,-1.));
#1132=DIRECTION('center_axis',(1.,0.,0.));
#1133=DIRECTION('ref_axis',(0.,0.,-1.));
#1134=DIRECTION('center_axis',(1.,0.,0.));
#1135=DIRECTION('ref_axis',(0.,0.,-1.));
#1136=DIRECTION('center_axis',(-1.,0.,0.));
#1137=DIRECTION('ref_axis',(0.,-8.67361737988403E-16,-1.));
#1138=DIRECTION('center_axis',(-1.,0.,0.));
#1139=DIRECTION('ref_axis',(0.,0.,-1.));
#1140=DIRECTION('center_axis',(1.,0.,0.));
#1141=DIRECTION('ref_axis',(0.,0.,-1.));
#1142=DIRECTION('center_axis',(1.,0.,0.));
#1143=DIRECTION('ref_axis',(0.,0.,-1.));
#1144=DIRECTION('center_axis',(-1.,0.,0.));
#1145=DIRECTION('ref_axis',(0.,1.73472347597681E-15,-1.));
#1146=DIRECTION('center_axis',(-1.,0.,0.));
#1147=DIRECTION('ref_axis',(0.,0.,1.));
#1148=DIRECTION('',(1.,0.,0.));
#1149=DIRECTION('center_axis',(-1.,0.,0.));
#1150=DIRECTION('ref_axis',(0.,0.,-1.));
#1151=DIRECTION('',(-1.,0.,0.));
#1152=DIRECTION('center_axis',(-1.,0.,0.));
#1153=DIRECTION('ref_axis',(0.,0.,1.));
#1154=DIRECTION('',(1.,0.,0.));
#1155=DIRECTION('center_axis',(-1.,0.,0.));
#1156=DIRECTION('ref_axis',(0.,5.32907051820075E-15,-1.));
#1157=DIRECTION('',(-1.,0.,0.));
#1158=DIRECTION('center_axis',(0.,0.613133873487889,0.789979020722536));
#1159=DIRECTION('ref_axis',(0.,-0.789979020722536,0.613133873487889));
#1160=DIRECTION('',(0.,0.789979020722536,-0.613133873487889));
#1161=DIRECTION('',(-1.,0.,0.));
#1162=DIRECTION('center_axis',(-1.,0.,0.));
#1163=DIRECTION('ref_axis',(0.,-1.22464679914735E-16,-1.));
#1164=DIRECTION('center_axis',(0.,0.613133873487889,-0.789979020722536));
#1165=DIRECTION('ref_axis',(0.,0.789979020722536,0.613133873487889));
#1166=DIRECTION('',(1.,0.,0.));
#1167=DIRECTION('',(0.,0.789979020722536,0.613133873487889));
#1168=DIRECTION('center_axis',(-1.,0.,0.));
#1169=DIRECTION('ref_axis',(0.,0.,1.));
#1170=DIRECTION('center_axis',(1.,0.,0.));
#1171=DIRECTION('ref_axis',(0.,0.,-1.));
#1172=DIRECTION('center_axis',(-1.,0.,0.));
#1173=DIRECTION('ref_axis',(0.,0.,1.));
#1174=DIRECTION('center_axis',(1.,0.,0.));
#1175=DIRECTION('ref_axis',(0.,0.,-1.));
#1176=DIRECTION('center_axis',(-1.,0.,0.));
#1177=DIRECTION('ref_axis',(0.,0.,1.));
#1178=DIRECTION('center_axis',(-1.,0.,0.));
#1179=DIRECTION('ref_axis',(0.,-1.73472347597681E-15,-1.));
#1180=DIRECTION('center_axis',(-1.,0.,0.));
#1181=DIRECTION('ref_axis',(0.,0.,1.));
#1182=DIRECTION('center_axis',(-1.,0.,0.));
#1183=DIRECTION('ref_axis',(0.,1.73472347597681E-15,-1.));
#1184=DIRECTION('center_axis',(-1.,0.,0.));
#1185=DIRECTION('ref_axis',(0.,0.,1.));
#1186=DIRECTION('center_axis',(-1.,0.,0.));
#1187=DIRECTION('ref_axis',(0.,8.67361737988403E-16,-1.));
#1188=DIRECTION('center_axis',(1.,0.,0.));
#1189=DIRECTION('ref_axis',(0.,0.,1.));
#1190=DIRECTION('center_axis',(-1.,0.,0.));
#1191=DIRECTION('ref_axis',(0.,0.,1.));
#1192=DIRECTION('center_axis',(-1.,0.,0.));
#1193=DIRECTION('ref_axis',(0.,8.67361737988403E-16,-1.));
#1194=DIRECTION('center_axis',(1.,0.,0.));
#1195=DIRECTION('ref_axis',(0.,0.,1.));
#1196=DIRECTION('center_axis',(-1.,0.,0.));
#1197=DIRECTION('ref_axis',(0.,0.,1.));
#1198=DIRECTION('center_axis',(-1.,0.,0.));
#1199=DIRECTION('ref_axis',(0.,0.,1.));
#1200=DIRECTION('center_axis',(-1.,0.,0.));
#1201=DIRECTION('ref_axis',(0.,0.,1.));
#1202=DIRECTION('center_axis',(-1.,0.,0.));
#1203=DIRECTION('ref_axis',(0.,0.,1.));
#1204=DIRECTION('center_axis',(-1.,0.,0.));
#1205=DIRECTION('ref_axis',(0.,0.,1.));
#1206=DIRECTION('center_axis',(1.,0.,0.));
#1207=DIRECTION('ref_axis',(0.,0.,1.));
#1208=DIRECTION('',(0.,0.,1.));
#1209=DIRECTION('',(0.,0.,-1.));
#1210=DIRECTION('center_axis',(1.,0.,0.));
#1211=DIRECTION('ref_axis',(0.,0.,1.));
#1212=DIRECTION('center_axis',(-1.,0.,0.));
#1213=DIRECTION('ref_axis',(0.,0.,1.));
#1214=DIRECTION('',(0.,0.,-1.));
#1215=DIRECTION('center_axis',(-1.,0.,0.));
#1216=DIRECTION('ref_axis',(0.,0.,1.));
#1217=DIRECTION('center_axis',(-1.,0.,0.));
#1218=DIRECTION('ref_axis',(0.,0.,1.));
#1219=DIRECTION('center_axis',(-1.,0.,0.));
#1220=DIRECTION('ref_axis',(0.,0.,1.));
#1221=DIRECTION('',(0.,0.,1.));
#1222=DIRECTION('center_axis',(-0.707106781186549,-0.707106781186546,0.));
#1223=DIRECTION('ref_axis',(0.,0.,-1.));
#1224=DIRECTION('',(0.707106781186546,-0.707106781186549,0.));
#1225=DIRECTION('center_axis',(1.,0.,0.));
#1226=DIRECTION('ref_axis',(0.,0.,-1.));
#1227=DIRECTION('center_axis',(1.,0.,0.));
#1228=DIRECTION('ref_axis',(0.,0.,-1.));
#1229=DIRECTION('',(0.707106781186546,0.707106781186549,0.));
#1230=DIRECTION('center_axis',(0.707106781186549,-0.707106781186546,0.));
#1231=DIRECTION('ref_axis',(0.,0.,1.));
#1232=DIRECTION('center_axis',(0.,0.,-1.));
#1233=DIRECTION('ref_axis',(-1.,0.,0.));
#1234=DIRECTION('center_axis',(0.,0.,-1.));
#1235=DIRECTION('ref_axis',(-1.,0.,0.));
#1236=DIRECTION('center_axis',(-1.68874030081703E-15,0.970328341679286,
-0.24179104477612));
#1237=DIRECTION('ref_axis',(0.,0.24179104477612,0.970328341679286));
#1238=DIRECTION('center_axis',(-1.,0.,0.));
#1239=DIRECTION('ref_axis',(0.,-1.22464679914735E-16,-1.));
#1240=DIRECTION('center_axis',(5.48894710032617E-18,0.970328341679286,0.24179104477612));
#1241=DIRECTION('ref_axis',(-1.92592994438724E-34,-0.24179104477612,0.970328341679286));
#1242=DIRECTION('center_axis',(0.,0.,1.));
#1243=DIRECTION('ref_axis',(1.,0.,0.));
#1244=DIRECTION('center_axis',(0.,0.,-1.));
#1245=DIRECTION('ref_axis',(-1.,0.,0.));
#1246=DIRECTION('center_axis',(1.,0.,0.));
#1247=DIRECTION('ref_axis',(0.,0.,-1.));
#1248=DIRECTION('center_axis',(-1.,0.,0.));
#1249=DIRECTION('ref_axis',(0.,0.,-1.));
#1250=DIRECTION('',(0.,0.,-1.));
#1251=DIRECTION('center_axis',(1.,0.,0.));
#1252=DIRECTION('ref_axis',(0.,0.,-1.));
#1253=DIRECTION('center_axis',(1.,0.,0.));
#1254=DIRECTION('ref_axis',(0.,0.,-1.));
#1255=DIRECTION('center_axis',(1.,0.,0.));
#1256=DIRECTION('ref_axis',(0.,0.,-1.));
#1257=DIRECTION('',(0.,0.,1.));
#1258=DIRECTION('center_axis',(-1.,0.,0.));
#1259=DIRECTION('ref_axis',(0.,-7.70988211545248E-16,-1.));
#1260=DIRECTION('center_axis',(1.,0.,0.));
#1261=DIRECTION('ref_axis',(0.,0.,-1.));
#1262=DIRECTION('center_axis',(1.,0.,0.));
#1263=DIRECTION('ref_axis',(0.,0.,-1.));
#1264=DIRECTION('',(0.,-0.789979020722536,0.613133873487889));
#1265=DIRECTION('',(0.,-0.789979020722536,-0.613133873487889));
#1266=DIRECTION('center_axis',(1.,0.,0.));
#1267=DIRECTION('ref_axis',(0.,0.,-1.));
#1268=DIRECTION('center_axis',(1.,0.,0.));
#1269=DIRECTION('ref_axis',(0.,0.,-1.));
#1270=DIRECTION('center_axis',(-0.707106781186546,-0.433551119718462,-0.558599522548015));
#1271=DIRECTION('ref_axis',(2.77555756156289E-17,-0.789979020722536,0.613133873487889));
#1272=DIRECTION('',(0.70710678118655,-0.433551119718461,-0.558599522548011));
#1273=DIRECTION('center_axis',(-1.,0.,0.));
#1274=DIRECTION('ref_axis',(0.,0.,1.));
#1275=DIRECTION('',(0.707106781186549,-0.524285526361086,0.474473062299934));
#1276=DIRECTION('center_axis',(-1.,0.,0.));
#1277=DIRECTION('ref_axis',(0.,0.,1.));
#1278=DIRECTION('',(0.70710678118655,-0.306775557376318,0.637093994161337));
#1279=DIRECTION('center_axis',(1.,0.,0.));
#1280=DIRECTION('ref_axis',(0.,0.,-1.));
#1281=DIRECTION('',(0.70710678118655,-0.707106781186545,0.));
#1282=DIRECTION('center_axis',(0.707106781186545,-0.433551119718462,0.558599522548016));
#1283=DIRECTION('ref_axis',(-5.55111512312578E-17,0.789979020722537,0.613133873487889));
#1284=DIRECTION('',(-0.707106781186549,-0.433551119718456,0.558599522548015));
#1285=DIRECTION('center_axis',(-0.707106781186544,-0.707106781186551,0.));
#1286=DIRECTION('ref_axis',(0.,0.,1.));
#1287=DIRECTION('',(0.707106781186551,-0.707106781186544,0.));
#1288=DIRECTION('center_axis',(-1.,0.,0.));
#1289=DIRECTION('ref_axis',(0.,0.,1.));
#1290=DIRECTION('',(-0.707106781186549,-0.524285526361086,-0.474473062299934));
#1291=DIRECTION('center_axis',(-1.,0.,0.));
#1292=DIRECTION('ref_axis',(0.,0.,1.));
#1293=DIRECTION('',(0.707106781186552,-0.170972087391374,0.686125750378916));
#1294=DIRECTION('center_axis',(-1.,0.,0.));
#1295=DIRECTION('ref_axis',(0.,0.,1.));
#1296=DIRECTION('',(-0.70710678118655,-0.306775557376318,-0.637093994161337));
#1297=DIRECTION('center_axis',(-1.,0.,0.));
#1298=DIRECTION('ref_axis',(0.,1.22464679914735E-16,-1.));
#1299=DIRECTION('',(0.707106781186552,0.170972087391374,0.686125750378916));
#1300=DIRECTION('center_axis',(1.,0.,0.));
#1301=DIRECTION('ref_axis',(0.,0.,-1.));
#1302=DIRECTION('',(-0.70710678118655,-0.707106781186545,0.));
#1303=DIRECTION('center_axis',(-1.,0.,0.));
#1304=DIRECTION('ref_axis',(0.,0.,1.));
#1305=DIRECTION('',(0.707106781186549,0.707106781186546,0.));
#1306=DIRECTION('center_axis',(0.707106781186545,-0.70710678118655,0.));
#1307=DIRECTION('ref_axis',(0.,0.,1.));
#1308=CARTESIAN_POINT('',(0.,0.,0.));
#1309=CARTESIAN_POINT('Origin',(18.,-16.8744255524648,-15.6286199734437));
#1310=CARTESIAN_POINT('',(18.,-15.7739195381736,-14.6093621490887));
#1311=CARTESIAN_POINT('',(18.,-17.7941263626966,-14.4436514423599));
#1312=CARTESIAN_POINT('Origin',(18.,-16.8744255524648,-15.6286199734437));
#1313=CARTESIAN_POINT('',(17.5,-15.4070842000765,-14.2696095409703));
#1314=CARTESIAN_POINT('',(18.,-15.7739195381736,-14.6093621490887));
#1315=CARTESIAN_POINT('',(17.5,-18.1006932994406,-14.0486619319986));
#1316=CARTESIAN_POINT('Origin',(17.5,-16.8744255524648,-15.6286199734437));
#1317=CARTESIAN_POINT('',(18.,-17.7941263626966,-14.4436514423599));
#1318=CARTESIAN_POINT('Origin',(18.,0.,0.));
#1319=CARTESIAN_POINT('',(17.5,15.4070842000765,-14.2696095409703));
#1320=CARTESIAN_POINT('Origin',(17.5,0.,0.));
#1321=CARTESIAN_POINT('',(18.,15.7739195381736,-14.6093621490887));
#1322=CARTESIAN_POINT('Origin',(18.,0.,0.));
#1323=CARTESIAN_POINT('',(18.,15.7739195381736,-14.6093621490887));
#1324=CARTESIAN_POINT('Origin',(18.,16.8744255524648,-15.6286199734437));
#1325=CARTESIAN_POINT('',(18.,17.7941263626966,-14.4436514423599));
#1326=CARTESIAN_POINT('Origin',(18.,16.8744255524648,-15.6286199734437));
#1327=CARTESIAN_POINT('',(17.5,18.1006932994406,-14.0486619319986));
#1328=CARTESIAN_POINT('',(18.,17.7941263626966,-14.4436514423599));
#1329=CARTESIAN_POINT('Origin',(17.5,16.8744255524648,-15.6286199734437));
#1330=CARTESIAN_POINT('Origin',(0.,0.,0.));
#1331=CARTESIAN_POINT('',(0.,-6.69877675840978,-33.0275095933827));
#1332=CARTESIAN_POINT('',(0.,6.69877675840979,-33.0275095933827));
#1333=CARTESIAN_POINT('Origin',(0.,0.,0.));
#1334=CARTESIAN_POINT('',(0.999999999999994,-6.89755351681957,-34.0075543884386));
#1335=CARTESIAN_POINT('',(0.,-6.69877675840978,-33.0275095933827));
#1336=CARTESIAN_POINT('',(0.999999999999994,6.89755351681958,-34.0075543884386));
#1337=CARTESIAN_POINT('Origin',(0.999999999999994,0.,0.));
#1338=CARTESIAN_POINT('',(0.,6.69877675840979,-33.0275095933827));
#1339=CARTESIAN_POINT('Origin',(16.,16.8744255524648,-15.6286199734437));
#1340=CARTESIAN_POINT('',(14.,18.1006932994406,-14.0486619319986));
#1341=CARTESIAN_POINT('',(16.,18.1006932994406,-14.0486619319986));
#1342=CARTESIAN_POINT('',(14.,15.4070842000765,-14.2696095409703));
#1343=CARTESIAN_POINT('Origin',(14.,16.8744255524648,-15.6286199734437));
#1344=CARTESIAN_POINT('',(16.,15.4070842000765,-14.2696095409703));
#1345=CARTESIAN_POINT('Origin',(16.,-16.8744255524648,-15.6286199734437));
#1346=CARTESIAN_POINT('',(14.,-15.4070842000765,-14.2696095409703));
#1347=CARTESIAN_POINT('',(16.,-15.4070842000765,-14.2696095409703));
#1348=CARTESIAN_POINT('',(14.,-18.1006932994406,-14.0486619319986));
#1349=CARTESIAN_POINT('Origin',(14.,-16.8744255524648,-15.6286199734437));
#1350=CARTESIAN_POINT('',(14.,-18.1006932994406,-14.0486619319986));
#1351=CARTESIAN_POINT('Origin',(16.,0.,-25.));
#1352=CARTESIAN_POINT('',(18.,-1.99005104861445E-16,-26.625));
#1353=CARTESIAN_POINT('Origin',(18.,0.,-25.));
#1354=CARTESIAN_POINT('',(14.,-1.99005104861445E-16,-26.625));
#1355=CARTESIAN_POINT('',(16.,-1.99005104861445E-16,-26.625));
#1356=CARTESIAN_POINT('Origin',(14.,0.,-25.));
#1357=CARTESIAN_POINT('Origin',(14.,8.5,0.));
#1358=CARTESIAN_POINT('',(14.,8.5,-27.2029410174709));
#1359=CARTESIAN_POINT('',(0.999999999999994,8.5,-27.2029410174709));
#1360=CARTESIAN_POINT('',(14.,8.5,-27.2029410174709));
#1361=CARTESIAN_POINT('',(0.999999999999994,8.5,-32.0474647983269));
#1362=CARTESIAN_POINT('',(0.999999999999994,8.5,-32.0474647983269));
#1363=CARTESIAN_POINT('',(14.,8.5,-32.0474647983269));
#1364=CARTESIAN_POINT('',(14.,8.5,-32.0474647983269));
#1365=CARTESIAN_POINT('',(14.,8.5,0.));
#1366=CARTESIAN_POINT('Origin',(14.,0.,0.));
#1367=CARTESIAN_POINT('',(14.,6.89755351681957,-34.0075543884386));
#1368=CARTESIAN_POINT('',(14.,6.89755351681958,-34.0075543884386));
#1369=CARTESIAN_POINT('',(14.,-6.89755351681957,-34.0075543884386));
#1370=CARTESIAN_POINT('',(14.,-6.89755351681957,-34.0075543884386));
#1371=CARTESIAN_POINT('Origin',(14.,0.,0.));
#1372=CARTESIAN_POINT('Origin',(14.,-8.5,0.));
#1373=CARTESIAN_POINT('',(14.,-8.5,-32.0474647983269));
#1374=CARTESIAN_POINT('',(0.999999999999994,-8.5,-32.0474647983269));
#1375=CARTESIAN_POINT('',(0.,-8.5,-32.0474647983269));
#1376=CARTESIAN_POINT('',(0.999999999999994,-8.5,-27.2029410174709));
#1377=CARTESIAN_POINT('',(0.999999999999994,-8.5,0.));
#1378=CARTESIAN_POINT('',(14.,-8.5,-27.2029410174709));
#1379=CARTESIAN_POINT('',(14.,-8.5,-27.2029410174709));
#1380=CARTESIAN_POINT('',(14.,-8.5,0.));
#1381=CARTESIAN_POINT('Origin',(14.,-10.1,0.));
#1382=CARTESIAN_POINT('',(0.,-10.1,-32.5059994462561));
#1383=CARTESIAN_POINT('',(17.5,-10.1,-32.5059994462561));
#1384=CARTESIAN_POINT('',(14.,-10.1,-32.5059994462561));
#1385=CARTESIAN_POINT('',(17.5,-10.1,-29.2820764291059));
#1386=CARTESIAN_POINT('',(17.5,-10.1,-29.2820764291059));
#1387=CARTESIAN_POINT('',(14.,-10.1,-29.2820764291059));
#1388=CARTESIAN_POINT('',(14.,-10.1,-29.2820764291059));
#1389=CARTESIAN_POINT('',(14.,-10.1,-26.6503283281839));
#1390=CARTESIAN_POINT('',(14.,-10.1,0.));
#1391=CARTESIAN_POINT('',(0.,-10.1,-26.6503283281839));
#1392=CARTESIAN_POINT('',(14.,-10.1,-26.6503283281839));
#1393=CARTESIAN_POINT('',(0.,-10.1,-32.5059994462561));
#1394=CARTESIAN_POINT('Origin',(14.,0.,0.));
#1395=CARTESIAN_POINT('',(0.,8.58358208955224,-34.4466561296147));
#1396=CARTESIAN_POINT('',(17.5,8.58358208955224,-34.4466561296147));
#1397=CARTESIAN_POINT('',(14.,8.58358208955224,-34.4466561296147));
#1398=CARTESIAN_POINT('',(17.5,-8.58358208955224,-34.4466561296147));
#1399=CARTESIAN_POINT('Origin',(17.5,0.,0.));
#1400=CARTESIAN_POINT('',(0.,-8.58358208955224,-34.4466561296147));
#1401=CARTESIAN_POINT('',(14.,-8.58358208955224,-34.4466561296147));
#1402=CARTESIAN_POINT('Origin',(0.,0.,0.));
#1403=CARTESIAN_POINT('Origin',(14.,10.1,0.));
#1404=CARTESIAN_POINT('',(14.,10.1,-29.2820764291059));
#1405=CARTESIAN_POINT('',(17.5,10.1,-29.2820764291059));
#1406=CARTESIAN_POINT('',(14.,10.1,-29.2820764291059));
#1407=CARTESIAN_POINT('',(17.5,10.1,-32.5059994462561));
#1408=CARTESIAN_POINT('',(17.5,10.1,0.));
#1409=CARTESIAN_POINT('',(0.,10.1,-32.5059994462561));
#1410=CARTESIAN_POINT('',(0.,10.1,-32.5059994462561));
#1411=CARTESIAN_POINT('',(0.,10.1,-26.6503283281839));
#1412=CARTESIAN_POINT('',(0.,10.1,0.));
#1413=CARTESIAN_POINT('',(14.,10.1,-26.6503283281839));
#1414=CARTESIAN_POINT('',(14.,10.1,-26.6503283281839));
#1415=CARTESIAN_POINT('',(14.,10.1,0.));
#1416=CARTESIAN_POINT('Origin',(14.,0.,0.));
#1417=CARTESIAN_POINT('',(-1.,9.1,-27.0081469190317));
#1418=CARTESIAN_POINT('Ctrl Pts',(4.33680868994202E-17,10.1,-26.6503283281839));
#1419=CARTESIAN_POINT('Ctrl Pts',(-0.125312407956478,10.1,-26.6503283281839));
#1420=CARTESIAN_POINT('Ctrl Pts',(-0.258319436657939,10.0749676327605,-26.6598551354897));
#1421=CARTESIAN_POINT('Ctrl Pts',(-0.501585984576463,9.97504419173648,-26.6974032820633));
#1422=CARTESIAN_POINT('Ctrl Pts',(-0.611881389075606,9.90021013878708,-26.7253437987401));
#1423=CARTESIAN_POINT('Ctrl Pts',(-0.791274013032116,9.72499815009318,-26.7896189213207));
#1424=CARTESIAN_POINT('Ctrl Pts',(-0.870219353411747,9.6108497029103,-26.8309341836133));
#1425=CARTESIAN_POINT('Ctrl Pts',(-0.974574207101824,9.36163765561905,-26.9189004526946));
#1426=CARTESIAN_POINT('Ctrl Pts',(-1.,9.226563804162,-26.9655030967314));
#1427=CARTESIAN_POINT('Ctrl Pts',(-1.,9.1,-27.0081469190317));
#1428=CARTESIAN_POINT('',(-1.,-9.1,-27.0081469190317));
#1429=CARTESIAN_POINT('Origin',(-1.,0.,0.));
#1430=CARTESIAN_POINT('Ctrl Pts',(-1.,-9.1,-27.0081469190317));
#1431=CARTESIAN_POINT('Ctrl Pts',(-1.,-9.226563804162,-26.9655030967314));
#1432=CARTESIAN_POINT('Ctrl Pts',(-0.974574207101824,-9.36163765561905,
-26.9189004526946));
#1433=CARTESIAN_POINT('Ctrl Pts',(-0.870219353411747,-9.6108497029103,-26.8309341836133));
#1434=CARTESIAN_POINT('Ctrl Pts',(-0.791274013032116,-9.72499815009318,
-26.7896189213207));
#1435=CARTESIAN_POINT('Ctrl Pts',(-0.611881389075606,-9.90021013878708,
-26.7253437987401));
#1436=CARTESIAN_POINT('Ctrl Pts',(-0.501585984576463,-9.97504419173648,
-26.6974032820633));
#1437=CARTESIAN_POINT('Ctrl Pts',(-0.258319436657939,-10.0749676327605,
-26.6598551354897));
#1438=CARTESIAN_POINT('Ctrl Pts',(-0.125312407956478,-10.1,-26.6503283281839));
#1439=CARTESIAN_POINT('Ctrl Pts',(0.,-10.1,-26.6503283281839));
#1440=CARTESIAN_POINT('Origin',(14.,0.,0.));
#1441=CARTESIAN_POINT('',(0.,-7.5,-27.495454169735));
#1442=CARTESIAN_POINT('Origin',(-7.49999999999997,0.,0.));
#1443=CARTESIAN_POINT('',(0.,7.50000000000001,-27.495454169735));
#1444=CARTESIAN_POINT('Origin',(0.,0.,0.));
#1445=CARTESIAN_POINT('Origin',(-7.49999999999997,0.,0.));
#1446=CARTESIAN_POINT('Origin',(14.,0.,0.));
#1447=CARTESIAN_POINT('Origin',(14.,0.,0.));
#1448=CARTESIAN_POINT('',(14.,-20.8747378482736,-16.2017073102143));
#1449=CARTESIAN_POINT('',(14.,0.,0.));
#1450=CARTESIAN_POINT('Origin',(14.,0.,0.));
#1451=CARTESIAN_POINT('',(14.,20.8747378482736,-16.2017073102143));
#1452=CARTESIAN_POINT('',(14.,0.,0.));
#1453=CARTESIAN_POINT('',(14.,21.1313735051694,-19.1236778310299));
#1454=CARTESIAN_POINT('Origin',(14.,19.6484701012979,-17.7816653516594));
#1455=CARTESIAN_POINT('',(14.,12.3646153846154,-25.6781285609083));
#1456=CARTESIAN_POINT('Origin',(14.,0.,0.));
#1457=CARTESIAN_POINT('Origin',(14.,14.1,-29.2820764291059));
#1458=CARTESIAN_POINT('Origin',(14.,6.5,-32.0474647983269));
#1459=CARTESIAN_POINT('Origin',(14.,-6.5,-32.0474647983269));
#1460=CARTESIAN_POINT('',(14.,-12.3646153846154,-25.6781285609083));
#1461=CARTESIAN_POINT('Origin',(14.,-14.1,-29.2820764291059));
#1462=CARTESIAN_POINT('',(14.,-21.1313735051694,-19.1236778310299));
#1463=CARTESIAN_POINT('Origin',(14.,0.,0.));
#1464=CARTESIAN_POINT('Origin',(14.,-19.6484701012979,-17.7816653516594));
#1465=CARTESIAN_POINT('Origin',(16.,0.,0.));
#1466=CARTESIAN_POINT('',(17.5,-12.3646153846154,-25.6781285609083));
#1467=CARTESIAN_POINT('',(16.,-12.3646153846154,-25.6781285609083));
#1468=CARTESIAN_POINT('',(17.5,-21.1313735051694,-19.1236778310299));
#1469=CARTESIAN_POINT('Origin',(17.5,0.,0.));
#1470=CARTESIAN_POINT('',(16.,-21.1313735051694,-19.1236778310299));
#1471=CARTESIAN_POINT('Origin',(16.,0.,0.));
#1472=CARTESIAN_POINT('',(17.5,21.1313735051694,-19.1236778310299));
#1473=CARTESIAN_POINT('',(16.,21.1313735051694,-19.1236778310299));
#1474=CARTESIAN_POINT('',(17.5,12.3646153846154,-25.6781285609083));
#1475=CARTESIAN_POINT('Origin',(17.5,0.,0.));
#1476=CARTESIAN_POINT('',(16.,12.3646153846154,-25.6781285609083));
#1477=CARTESIAN_POINT('Origin',(16.,0.,0.));
#1478=CARTESIAN_POINT('',(17.5,20.8747378482736,-16.2017073102143));
#1479=CARTESIAN_POINT('',(17.5,0.,0.));
#1480=CARTESIAN_POINT('',(14.,20.8747378482736,-16.2017073102143));
#1481=CARTESIAN_POINT('Origin',(16.,0.,0.));
#1482=CARTESIAN_POINT('Origin',(16.,0.,0.));
#1483=CARTESIAN_POINT('',(17.5,-20.8747378482736,-16.2017073102143));
#1484=CARTESIAN_POINT('',(16.,-20.8747378482736,-16.2017073102143));
#1485=CARTESIAN_POINT('',(17.5,-18.1006932994406,-14.0486619319986));
#1486=CARTESIAN_POINT('Origin',(16.,14.1,-29.2820764291059));
#1487=CARTESIAN_POINT('Origin',(17.5,14.1,-29.2820764291059));
#1488=CARTESIAN_POINT('Origin',(16.,-14.1,-29.2820764291059));
#1489=CARTESIAN_POINT('Origin',(17.5,-14.1,-29.2820764291059));
#1490=CARTESIAN_POINT('Origin',(16.,19.6484701012979,-17.7816653516594));
#1491=CARTESIAN_POINT('Origin',(17.5,19.6484701012979,-17.7816653516594));
#1492=CARTESIAN_POINT('Origin',(16.,-19.6484701012979,-17.7816653516594));
#1493=CARTESIAN_POINT('Origin',(17.5,-19.6484701012979,-17.7816653516594));
#1494=CARTESIAN_POINT('Origin',(14.,-8.1,-32.5059994462561));
#1495=CARTESIAN_POINT('Origin',(17.5,-8.1,-32.5059994462561));
#1496=CARTESIAN_POINT('Origin',(0.,-8.1,-32.5059994462561));
#1497=CARTESIAN_POINT('Origin',(14.,8.1,-32.5059994462561));
#1498=CARTESIAN_POINT('Origin',(17.5,8.1,-32.5059994462561));
#1499=CARTESIAN_POINT('Origin',(0.,8.1,-32.5059994462561));
#1500=CARTESIAN_POINT('Origin',(14.,-6.5,-32.0474647983269));
#1501=CARTESIAN_POINT('Origin',(0.999999999999994,-6.5,-32.0474647983269));
#1502=CARTESIAN_POINT('Origin',(14.,6.5,-32.0474647983269));
#1503=CARTESIAN_POINT('Origin',(0.999999999999994,6.5,-32.0474647983269));
#1504=CARTESIAN_POINT('Origin',(0.,0.,0.));
#1505=CARTESIAN_POINT('',(0.,7.5,-32.0474647983269));
#1506=CARTESIAN_POINT('Origin',(0.,6.5,-32.0474647983269));
#1507=CARTESIAN_POINT('',(0.,7.5,-27.2029410174709));
#1508=CARTESIAN_POINT('',(0.,-7.5,-32.0474647983269));
#1509=CARTESIAN_POINT('',(0.,-7.5,0.));
#1510=CARTESIAN_POINT('Origin',(0.,-6.5,-32.0474647983269));
#1511=CARTESIAN_POINT('Origin',(-1.,0.,0.));
#1512=CARTESIAN_POINT('',(-1.,9.1,-32.5059994462561));
#1513=CARTESIAN_POINT('',(-1.,9.1,0.));
#1514=CARTESIAN_POINT('',(-1.,8.34179104477612,-33.4763277879354));
#1515=CARTESIAN_POINT('Origin',(-1.,8.1,-32.5059994462561));
#1516=CARTESIAN_POINT('',(-1.,-8.34179104477612,-33.4763277879354));
#1517=CARTESIAN_POINT('Origin',(-1.,0.,0.));
#1518=CARTESIAN_POINT('',(-1.,-9.1,-32.5059994462561));
#1519=CARTESIAN_POINT('Origin',(-1.,-8.1,-32.5059994462561));
#1520=CARTESIAN_POINT('',(-1.,-9.1,-26.6503283281839));
#1521=CARTESIAN_POINT('Origin',(0.,-7.5,0.));
#1522=CARTESIAN_POINT('',(0.,-7.5,-32.0474647983269));
#1523=CARTESIAN_POINT('Origin',(0.,-6.5,-32.0474647983269));
#1524=CARTESIAN_POINT('Origin',(0.,6.5,-32.0474647983269));
#1525=CARTESIAN_POINT('',(0.,7.5,-32.0474647983269));
#1526=CARTESIAN_POINT('Origin',(0.999999999999994,8.5,0.));
#1527=CARTESIAN_POINT('Origin',(0.,-9.1,0.));
#1528=CARTESIAN_POINT('Origin',(0.,-9.1,-32.5059994462561));
#1529=CARTESIAN_POINT('Ctrl Pts',(0.,-8.58358208955224,-34.4466561296147));
#1530=CARTESIAN_POINT('Ctrl Pts',(0.,-10.1,-34.0687878811722));
#1531=CARTESIAN_POINT('Ctrl Pts',(0.,-10.1,-32.5059994462561));
#1532=CARTESIAN_POINT('Ctrl Pts',(-1.,-8.58358208955224,-34.4466561296147));
#1533=CARTESIAN_POINT('Ctrl Pts',(-1.,-10.1,-34.0687878811722));
#1534=CARTESIAN_POINT('Ctrl Pts',(-1.,-10.1,-32.5059994462561));
#1535=CARTESIAN_POINT('Ctrl Pts',(-1.,-8.34179104477612,-33.4763277879354));
#1536=CARTESIAN_POINT('Ctrl Pts',(-1.,-9.1,-33.2873936637142));
#1537=CARTESIAN_POINT('Ctrl Pts',(-1.,-9.1,-32.5059994462561));
#1538=CARTESIAN_POINT('Origin',(0.,-8.34179104477612,-33.4763277879354));
#1539=CARTESIAN_POINT('Origin',(0.,0.,0.));
#1540=CARTESIAN_POINT('Origin',(0.,8.34179104477612,-33.4763277879354));
#1541=CARTESIAN_POINT('Ctrl Pts',(6.12323399573677E-17,10.1,-32.5059994462561));
#1542=CARTESIAN_POINT('Ctrl Pts',(6.12323399573677E-17,10.1,-34.0687878811722));
#1543=CARTESIAN_POINT('Ctrl Pts',(6.12323399573677E-17,8.58358208955224,
-34.4466561296147));
#1544=CARTESIAN_POINT('Ctrl Pts',(-1.,10.1,-32.5059994462561));
#1545=CARTESIAN_POINT('Ctrl Pts',(-1.,10.1,-34.0687878811722));
#1546=CARTESIAN_POINT('Ctrl Pts',(-1.,8.58358208955224,-34.4466561296147));
#1547=CARTESIAN_POINT('Ctrl Pts',(-1.,9.1,-32.5059994462561));
#1548=CARTESIAN_POINT('Ctrl Pts',(-1.,9.1,-33.2873936637142));
#1549=CARTESIAN_POINT('Ctrl Pts',(-1.,8.34179104477612,-33.4763277879354));
#1550=CARTESIAN_POINT('Origin',(0.,9.1,-32.5059994462561));
#1551=CARTESIAN_POINT('Origin',(0.,9.1,0.));
#1552=CARTESIAN_POINT('Origin',(18.,-16.8744255524648,-15.6286199734437));
#1553=CARTESIAN_POINT('',(18.,-12.1476923076923,-25.2276350773836));
#1554=CARTESIAN_POINT('',(18.,-9.6,-29.2820764291059));
#1555=CARTESIAN_POINT('Origin',(18.,-14.1,-29.2820764291059));
#1556=CARTESIAN_POINT('',(18.,-9.6,-32.5059994462561));
#1557=CARTESIAN_POINT('',(18.,-9.6,-32.5059994462561));
#1558=CARTESIAN_POINT('',(18.,-8.46268656716418,-33.961491958775));
#1559=CARTESIAN_POINT('Origin',(18.,-8.1,-32.5059994462561));
#1560=CARTESIAN_POINT('',(18.,8.46268656716418,-33.961491958775));
#1561=CARTESIAN_POINT('Origin',(18.,0.,0.));
#1562=CARTESIAN_POINT('',(18.,9.6,-32.5059994462561));
#1563=CARTESIAN_POINT('Origin',(18.,8.1,-32.5059994462561));
#1564=CARTESIAN_POINT('',(18.,9.6,-29.2820764291059));
#1565=CARTESIAN_POINT('',(18.,9.6,-15.6286199734437));
#1566=CARTESIAN_POINT('',(18.,12.1476923076923,-25.2276350773836));
#1567=CARTESIAN_POINT('Origin',(18.,14.1,-29.2820764291059));
#1568=CARTESIAN_POINT('',(18.,20.7606476542015,-18.7881747111873));
#1569=CARTESIAN_POINT('Origin',(18.,0.,0.));
#1570=CARTESIAN_POINT('',(18.,20.5681709115297,-16.5966968205756));
#1571=CARTESIAN_POINT('Origin',(18.,19.6484701012979,-17.7816653516594));
#1572=CARTESIAN_POINT('',(18.,-3.26741294485578,1.90303984755049));
#1573=CARTESIAN_POINT('',(18.,-20.5681709115297,-16.5966968205756));
#1574=CARTESIAN_POINT('',(18.,-20.5681709115297,-16.5966968205756));
#1575=CARTESIAN_POINT('',(18.,-20.7606476542015,-18.7881747111873));
#1576=CARTESIAN_POINT('Origin',(18.,-19.6484701012979,-17.7816653516594));
#1577=CARTESIAN_POINT('Origin',(18.,0.,0.));
#1578=CARTESIAN_POINT('Origin',(18.,-3.26741294485578,1.90303984755049));
#1579=CARTESIAN_POINT('',(17.5,20.8747378482736,-16.2017073102143));
#1580=CARTESIAN_POINT('Origin',(18.,19.6484701012979,-17.7816653516594));
#1581=CARTESIAN_POINT('',(17.5,21.1313735051694,-19.1236778310299));
#1582=CARTESIAN_POINT('Origin',(18.,0.,0.));
#1583=CARTESIAN_POINT('',(17.5,12.3646153846154,-25.6781285609083));
#1584=CARTESIAN_POINT('Origin',(18.,14.1,-29.2820764291059));
#1585=CARTESIAN_POINT('',(17.5,10.1,-29.2820764291059));
#1586=CARTESIAN_POINT('Origin',(18.,-17.7941263626966,-14.4436514423599));
#1587=CARTESIAN_POINT('',(18.,-20.5681709115297,-16.5966968205756));
#1588=CARTESIAN_POINT('Origin',(18.,9.6,-15.6286199734437));
#1589=CARTESIAN_POINT('',(17.5,10.1,-32.5059994462561));
#1590=CARTESIAN_POINT('Origin',(18.,-19.6484701012979,-17.7816653516594));
#1591=CARTESIAN_POINT('',(18.,-20.7606476542015,-18.7881747111873));
#1592=CARTESIAN_POINT('Origin',(18.,8.1,-32.5059994462561));
#1593=CARTESIAN_POINT('',(17.5,8.58358208955224,-34.4466561296147));
#1594=CARTESIAN_POINT('Origin',(18.,0.,0.));
#1595=CARTESIAN_POINT('',(18.,-12.1476923076923,-25.2276350773836));
#1596=CARTESIAN_POINT('Origin',(18.,0.,0.));
#1597=CARTESIAN_POINT('',(17.5,-8.58358208955224,-34.4466561296147));
#1598=CARTESIAN_POINT('Origin',(18.,-14.1,-29.2820764291059));
#1599=CARTESIAN_POINT('',(18.,-9.6,-29.2820764291059));
#1600=CARTESIAN_POINT('Origin',(18.,-8.1,-32.5059994462561));
#1601=CARTESIAN_POINT('',(17.5,-10.1,-32.5059994462561));
#1602=CARTESIAN_POINT('Origin',(18.,-9.6,-15.6286199734437));
#1603=UNCERTAINTY_MEASURE_WITH_UNIT(LENGTH_MEASURE(0.01),#1607,
'DISTANCE_ACCURACY_VALUE',
'Maximum model space distance between geometric entities at asserted c
onnectivities');
#1604=UNCERTAINTY_MEASURE_WITH_UNIT(LENGTH_MEASURE(0.01),#1607,
'DISTANCE_ACCURACY_VALUE',
'Maximum model space distance between geometric entities at asserted c
onnectivities');
#1605=(
GEOMETRIC_REPRESENTATION_CONTEXT(3)
GLOBAL_UNCERTAINTY_ASSIGNED_CONTEXT((#1603))
GLOBAL_UNIT_ASSIGNED_CONTEXT((#1607,#1609,#1610))
REPRESENTATION_CONTEXT('','3D')
);
#1606=(
GEOMETRIC_REPRESENTATION_CONTEXT(3)
GLOBAL_UNCERTAINTY_ASSIGNED_CONTEXT((#1604))
GLOBAL_UNIT_ASSIGNED_CONTEXT((#1607,#1609,#1610))
REPRESENTATION_CONTEXT('','3D')
);
#1607=(
LENGTH_UNIT()
NAMED_UNIT(*)
SI_UNIT(.MILLI.,.METRE.)
);
#1608=(
LENGTH_UNIT()
NAMED_UNIT(*)
SI_UNIT($,.METRE.)
);
#1609=(
NAMED_UNIT(*)
PLANE_ANGLE_UNIT()
SI_UNIT($,.RADIAN.)
);
#1610=(
NAMED_UNIT(*)
SI_UNIT($,.STERADIAN.)
SOLID_ANGLE_UNIT()
);
#1611=SHAPE_DEFINITION_REPRESENTATION(#1612,#1613);
#1612=PRODUCT_DEFINITION_SHAPE('',$,#1615);
#1613=SHAPE_REPRESENTATION('',(#905),#1605);
#1614=PRODUCT_DEFINITION_CONTEXT('part definition',#1619,'design');
#1615=PRODUCT_DEFINITION('Cable Cover Thick Bottom rev2',
'103107037_01 - WXAI_Idler_Cable_Shroud_PLA v1',#1616,#1614);
#1616=PRODUCT_DEFINITION_FORMATION('',$,#1621);
#1617=PRODUCT_RELATED_PRODUCT_CATEGORY(
'103107037_01 - WXAI_Idler_Cable_Shroud_PLA v1',
'103107037_01 - WXAI_Idler_Cable_Shroud_PLA v1',(#1621));
#1618=APPLICATION_PROTOCOL_DEFINITION('international standard',
'automotive_design',2009,#1619);
#1619=APPLICATION_CONTEXT(
'Core Data for Automotive Mechanical Design Process');
#1620=PRODUCT_CONTEXT('part definition',#1619,'mechanical');
#1621=PRODUCT('Cable Cover Thick Bottom rev2',
'103107037_01 - WXAI_Idler_Cable_Shroud_PLA v1','STEP AP214',(#1620));
#1622=PRESENTATION_STYLE_ASSIGNMENT((#1624));
#1623=PRESENTATION_STYLE_ASSIGNMENT((#1625));
#1624=SURFACE_STYLE_USAGE(.BOTH.,#1626);
#1625=SURFACE_STYLE_USAGE(.BOTH.,#1627);
#1626=SURFACE_SIDE_STYLE('',(#1628));
#1627=SURFACE_SIDE_STYLE('',(#1629));
#1628=SURFACE_STYLE_FILL_AREA(#1630);
#1629=SURFACE_STYLE_FILL_AREA(#1631);
#1630=FILL_AREA_STYLE('Steel - Satin',(#1632));
#1631=FILL_AREA_STYLE('Opaque(202,209,238)',(#1633));
#1632=FILL_AREA_STYLE_COLOUR('Steel - Satin',#1634);
#1633=FILL_AREA_STYLE_COLOUR('Opaque(202,209,238)',#1635);
#1634=COLOUR_RGB('Steel - Satin',0.627450980392157,0.627450980392157,0.627450980392157);
#1635=COLOUR_RGB('Opaque(202,209,238)',0.792156862745098,0.819607843137255,
0.933333333333333);
ENDSEC;
END-ISO-10303-21;
