ISO-10303-21;
HEADER;
/* Generated by software containing ST-Developer
 * from STEP Tools, Inc. (www.steptools.com) 
 */

FILE_DESCRIPTION(
/* description */ ('STEP AP214'),
/* implementation_level */ '2;1');

FILE_NAME(
/* name */ 'YPCB_CableLock_Molded.step',
/* time_stamp */ '2025-12-15T15:07:00-06:00',
/* author */ (''),
/* organization */ (''),
/* preprocessor_version */ 'ST-DEVELOPER v20.1',
/* originating_system */ 'Autodesk Translation Framework v14.21.0.0',
/* authorisation */ '');

FILE_SCHEMA (('AUTOMOTIVE_DESIGN { 1 0 10303 214 3 1 1 }'));
ENDSEC;

DATA;
#10=MECHANICAL_DESIGN_GEOMETRIC_PRESENTATION_REPRESENTATION('',(#13),#1537);
#11=SHAPE_REPRESENTATION_RELATIONSHIP('SRR','None',#1544,#12);
#12=ADVANCED_BREP_SHAPE_REPRESENTATION('',(#14),#1536);
#13=STYLED_ITEM('',(#1554),#14);
#14=MANIFOLD_SOLID_BREP('Body2',#755);
#15=(
BOUNDED_SURFACE()
B_SPLINE_SURFACE(3,2,((#1433,#1434,#1435),(#1436,#1437,#1438),(#1439,#1440,
#1441),(#1442,#1443,#1444),(#1445,#1446,#1447),(#1448,#1449,#1450),(#1451,
#1452,#1453),(#1454,#1455,#1456),(#1457,#1458,#1459),(#1460,#1461,#1462)),
 .UNSPECIFIED.,.F.,.F.,.F.)
B_SPLINE_SURFACE_WITH_KNOTS((4,2,2,2,4),(3,3),(5.2437530794793,5.50844453786458,
5.76669146096958,6.02493838407458,6.28962984245986),(-0.00644453528027372,
1.),.UNSPECIFIED.)
GEOMETRIC_REPRESENTATION_ITEM()
RATIONAL_B_SPLINE_SURFACE(((1.00562424847541,0.563642044708505,0.999999999999999),
(1.00593199992676,0.539765113481867,1.),(1.00623595521994,0.516182707617119,
1.),(1.0067981887202,0.472561757788295,1.),(1.00705751694146,0.452441748355058,
1.),(1.00750181292304,0.417970994277957,1.),(1.00768626731976,0.40366007900655,
1.),(1.00794295186862,0.383745179196286,1.),(1.00801184946386,0.378399751461912,
1.),(1.00800774336241,0.378718323808555,0.999999999999999)))
REPRESENTATION_ITEM('')
SURFACE()
);
#16=(
BOUNDED_SURFACE()
B_SPLINE_SURFACE(3,2,((#1496,#1497,#1498),(#1499,#1500,#1501),(#1502,#1503,
#1504),(#1505,#1506,#1507),(#1508,#1509,#1510),(#1511,#1512,#1513),(#1514,
#1515,#1516),(#1517,#1518,#1519),(#1520,#1521,#1522),(#1523,#1524,#1525),
(#1526,#1527,#1528),(#1529,#1530,#1531)),.UNSPECIFIED.,.F.,.F.,.F.)
B_SPLINE_SURFACE_WITH_KNOTS((4,2,2,2,2,4),(3,3),(3.14159265358979,3.53429173528852,
3.73064127613788,3.92699081698724,4.31968989868597,4.71238898038469),(0.,
1.),.UNSPECIFIED.)
GEOMETRIC_REPRESENTATION_ITEM()
RATIONAL_B_SPLINE_SURFACE(((1.,0.707106781186547,1.),(1.,0.706675772903687,
1.),(1.,0.726551717840148,1.),(1.,0.772396820852832,1.),(1.,0.790218009483512,
1.),(1.,0.827594268759836,1.),(1.,0.847131661035215,1.),(1.,0.903812889282887,
1.),(1.,0.938655651377984,1.),(1.,0.986729188384329,1.),(1.,1.00015858142346,
1.),(1.,1.,1.)))
REPRESENTATION_ITEM('')
SURFACE()
);
#17=(
BOUNDED_CURVE()
B_SPLINE_CURVE(3,(#1327,#1328,#1329,#1330,#1331,#1332,#1333,#1334,#1335,
#1336,#1337,#1338),.UNSPECIFIED.,.F.,.F.)
B_SPLINE_CURVE_WITH_KNOTS((4,2,2,2,2,4),(3.14159265358979,3.53429173528852,
3.73064127613788,3.92699081698724,4.31968989868597,4.71238898038469),
 .UNSPECIFIED.)
CURVE()
GEOMETRIC_REPRESENTATION_ITEM()
RATIONAL_B_SPLINE_CURVE((1.,1.,1.,1.,1.,1.,1.,1.,1.,1.,1.,1.))
REPRESENTATION_ITEM('')
);
#18=B_SPLINE_CURVE_WITH_KNOTS('',3,(#1265,#1266,#1267,#1268,#1269,#1270,
#1271,#1272,#1273,#1274,#1275,#1276,#1277,#1278,#1279,#1280),
 .UNSPECIFIED.,.F.,.F.,(4,3,3,3,3,4),(1.5707963267949,1.96349540849362,
2.35619449019234,2.55254403104171,2.74889357189107,3.14159265358979),
 .UNSPECIFIED.);
#19=B_SPLINE_CURVE_WITH_KNOTS('',3,(#1283,#1284,#1285,#1286,#1287,#1288,
#1289,#1290,#1291,#1292,#1293,#1294,#1295,#1296,#1297,#1298,#1299,#1300,
#1301,#1302,#1303,#1304,#1305,#1306,#1307,#1308,#1309,#1310,#1311,#1312,
#1313,#1314,#1315,#1316,#1317,#1318,#1319,#1320,#1321,#1322,#1323,#1324,
#1325),.UNSPECIFIED.,.F.,.F.,(4,3,3,3,3,3,3,3,3,3,3,3,3,3,4),(0.,0.0772546438750947,
0.15432709968466,0.230864613066501,0.307220249708779,0.383444313257716,
0.461041807531191,0.53715571876892,0.615495004560268,0.693834290351615,
0.77153878948306,0.849542236527217,0.927741716681489,1.00633668847199,1.03298769242001),
 .UNSPECIFIED.);
#20=B_SPLINE_CURVE_WITH_KNOTS('',3,(#1352,#1353,#1354,#1355,#1356,#1357,
#1358,#1359,#1360,#1361,#1362,#1363,#1364,#1365,#1366,#1367,#1368,#1369,
#1370,#1371,#1372,#1373,#1374,#1375,#1376,#1377,#1378,#1379,#1380,#1381,
#1382,#1383,#1384,#1385,#1386,#1387,#1388,#1389,#1390,#1391,#1392,#1393,
#1394,#1395,#1396,#1397,#1398,#1399,#1400),.UNSPECIFIED.,.F.,.F.,(4,3,3,
3,3,3,3,3,3,3,3,3,3,3,3,3,4),(5.25019761475957,5.32975477569351,5.40995024899151,
5.49047394106868,5.51268137379078,5.59091101646604,5.66872167596619,5.74546525497309,
5.76669962770231,5.8421682363612,5.91709351319925,5.99109925674497,6.02071412714576,
6.09551567692926,6.17004943697678,6.24418087201611,6.28318530717959),
 .UNSPECIFIED.);
#21=FACE_BOUND('',#211,.T.);
#22=FACE_BOUND('',#212,.T.);
#23=FACE_BOUND('',#214,.T.);
#24=FACE_BOUND('',#215,.T.);
#25=PLANE('',#792);
#26=PLANE('',#793);
#27=PLANE('',#794);
#28=PLANE('',#795);
#29=PLANE('',#796);
#30=PLANE('',#798);
#31=PLANE('',#801);
#32=PLANE('',#803);
#33=PLANE('',#809);
#34=LINE('',#1168,#78);
#35=LINE('',#1170,#79);
#36=LINE('',#1175,#80);
#37=LINE('',#1181,#81);
#38=LINE('',#1186,#82);
#39=LINE('',#1188,#83);
#40=LINE('',#1190,#84);
#41=LINE('',#1191,#85);
#42=LINE('',#1195,#86);
#43=LINE('',#1197,#87);
#44=LINE('',#1199,#88);
#45=LINE('',#1201,#89);
#46=LINE('',#1203,#90);
#47=LINE('',#1204,#91);
#48=LINE('',#1208,#92);
#49=LINE('',#1210,#93);
#50=LINE('',#1212,#94);
#51=LINE('',#1213,#95);
#52=LINE('',#1217,#96);
#53=LINE('',#1219,#97);
#54=LINE('',#1221,#98);
#55=LINE('',#1222,#99);
#56=LINE('',#1227,#100);
#57=LINE('',#1228,#101);
#58=LINE('',#1230,#102);
#59=LINE('',#1232,#103);
#60=LINE('',#1234,#104);
#61=LINE('',#1236,#105);
#62=LINE('',#1237,#106);
#63=LINE('',#1242,#107);
#64=LINE('',#1246,#108);
#65=LINE('',#1247,#109);
#66=LINE('',#1251,#110);
#67=LINE('',#1252,#111);
#68=LINE('',#1254,#112);
#69=LINE('',#1257,#113);
#70=LINE('',#1259,#114);
#71=LINE('',#1261,#115);
#72=LINE('',#1262,#116);
#73=LINE('',#1343,#117);
#74=LINE('',#1345,#118);
#75=LINE('',#1347,#119);
#76=LINE('',#1349,#120);
#77=LINE('',#1351,#121);
#78=VECTOR('',#911,1000.);
#79=VECTOR('',#914,1000.);
#80=VECTOR('',#919,1.625);
#81=VECTOR('',#926,1.625);
#82=VECTOR('',#931,1000.);
#83=VECTOR('',#932,1000.);
#84=VECTOR('',#933,1000.);
#85=VECTOR('',#934,1000.);
#86=VECTOR('',#937,1000.);
#87=VECTOR('',#938,1000.);
#88=VECTOR('',#939,1000.);
#89=VECTOR('',#940,1000.);
#90=VECTOR('',#941,1000.);
#91=VECTOR('',#942,1000.);
#92=VECTOR('',#945,1000.);
#93=VECTOR('',#946,1000.);
#94=VECTOR('',#947,1000.);
#95=VECTOR('',#948,1000.);
#96=VECTOR('',#951,1000.);
#97=VECTOR('',#952,1000.);
#98=VECTOR('',#953,1000.);
#99=VECTOR('',#954,1000.);
#100=VECTOR('',#959,1000.);
#101=VECTOR('',#960,1000.);
#102=VECTOR('',#961,1000.);
#103=VECTOR('',#962,1000.);
#104=VECTOR('',#963,1000.);
#105=VECTOR('',#964,1000.);
#106=VECTOR('',#965,1000.);
#107=VECTOR('',#970,1000.);
#108=VECTOR('',#973,1000.);
#109=VECTOR('',#974,1000.);
#110=VECTOR('',#977,1000.);
#111=VECTOR('',#978,1000.);
#112=VECTOR('',#981,1000.);
#113=VECTOR('',#984,1000.);
#114=VECTOR('',#985,1000.);
#115=VECTOR('',#986,1000.);
#116=VECTOR('',#987,1000.);
#117=VECTOR('',#1000,1000.);
#118=VECTOR('',#1001,1000.);
#119=VECTOR('',#1002,1000.);
#120=VECTOR('',#1003,1000.);
#121=VECTOR('',#1004,1000.);
#122=CYLINDRICAL_SURFACE('',#783,28.5);
#123=CYLINDRICAL_SURFACE('',#786,1.625);
#124=CYLINDRICAL_SURFACE('',#789,1.625);
#125=CYLINDRICAL_SURFACE('',#804,3.);
#126=CYLINDRICAL_SURFACE('',#806,3.);
#127=CYLINDRICAL_SURFACE('',#808,2.);
#128=CYLINDRICAL_SURFACE('',#813,0.5);
#129=CYLINDRICAL_SURFACE('',#815,0.5);
#130=CYLINDRICAL_SURFACE('',#818,0.500000000000001);
#131=CYLINDRICAL_SURFACE('',#829,0.5);
#132=CYLINDRICAL_SURFACE('',#831,0.5);
#133=CYLINDRICAL_SURFACE('',#833,0.5);
#134=CYLINDRICAL_SURFACE('',#835,0.5);
#135=CYLINDRICAL_SURFACE('',#837,0.5);
#136=CYLINDRICAL_SURFACE('',#840,0.5);
#137=CYLINDRICAL_SURFACE('',#851,0.5);
#138=CYLINDRICAL_SURFACE('',#853,0.5);
#139=CYLINDRICAL_SURFACE('',#855,0.500000000000001);
#140=CYLINDRICAL_SURFACE('',#857,0.5);
#141=CYLINDRICAL_SURFACE('',#863,0.5);
#142=CYLINDRICAL_SURFACE('',#865,0.5);
#143=CYLINDRICAL_SURFACE('',#868,0.5);
#144=CYLINDRICAL_SURFACE('',#874,0.5);
#145=CYLINDRICAL_SURFACE('',#876,0.5);
#146=TOROIDAL_SURFACE('',#773,1.5,0.5);
#147=TOROIDAL_SURFACE('',#778,1.5,0.5);
#148=TOROIDAL_SURFACE('',#810,3.5,0.5);
#149=TOROIDAL_SURFACE('',#866,3.5,0.5);
#150=TOROIDAL_SURFACE('',#869,29.,0.5);
#151=TOROIDAL_SURFACE('',#873,29.,0.5);
#152=FACE_OUTER_BOUND('',#204,.T.);
#153=FACE_OUTER_BOUND('',#205,.T.);
#154=FACE_OUTER_BOUND('',#206,.T.);
#155=FACE_OUTER_BOUND('',#207,.T.);
#156=FACE_OUTER_BOUND('',#208,.T.);
#157=FACE_OUTER_BOUND('',#209,.T.);
#158=FACE_OUTER_BOUND('',#210,.T.);
#159=FACE_OUTER_BOUND('',#213,.T.);
#160=FACE_OUTER_BOUND('',#216,.T.);
#161=FACE_OUTER_BOUND('',#217,.T.);
#162=FACE_OUTER_BOUND('',#218,.T.);
#163=FACE_OUTER_BOUND('',#219,.T.);
#164=FACE_OUTER_BOUND('',#220,.T.);
#165=FACE_OUTER_BOUND('',#221,.T.);
#166=FACE_OUTER_BOUND('',#222,.T.);
#167=FACE_OUTER_BOUND('',#223,.T.);
#168=FACE_OUTER_BOUND('',#224,.T.);
#169=FACE_OUTER_BOUND('',#225,.T.);
#170=FACE_OUTER_BOUND('',#226,.T.);
#171=FACE_OUTER_BOUND('',#227,.T.);
#172=FACE_OUTER_BOUND('',#228,.T.);
#173=FACE_OUTER_BOUND('',#229,.T.);
#174=FACE_OUTER_BOUND('',#230,.T.);
#175=FACE_OUTER_BOUND('',#231,.T.);
#176=FACE_OUTER_BOUND('',#232,.T.);
#177=FACE_OUTER_BOUND('',#233,.T.);
#178=FACE_OUTER_BOUND('',#234,.T.);
#179=FACE_OUTER_BOUND('',#235,.T.);
#180=FACE_OUTER_BOUND('',#236,.T.);
#181=FACE_OUTER_BOUND('',#237,.T.);
#182=FACE_OUTER_BOUND('',#238,.T.);
#183=FACE_OUTER_BOUND('',#239,.T.);
#184=FACE_OUTER_BOUND('',#240,.T.);
#185=FACE_OUTER_BOUND('',#241,.T.);
#186=FACE_OUTER_BOUND('',#242,.T.);
#187=FACE_OUTER_BOUND('',#243,.T.);
#188=FACE_OUTER_BOUND('',#244,.T.);
#189=FACE_OUTER_BOUND('',#245,.T.);
#190=FACE_OUTER_BOUND('',#246,.T.);
#191=FACE_OUTER_BOUND('',#247,.T.);
#192=FACE_OUTER_BOUND('',#248,.T.);
#193=FACE_OUTER_BOUND('',#249,.T.);
#194=FACE_OUTER_BOUND('',#250,.T.);
#195=FACE_OUTER_BOUND('',#251,.T.);
#196=FACE_OUTER_BOUND('',#252,.T.);
#197=FACE_OUTER_BOUND('',#253,.T.);
#198=FACE_OUTER_BOUND('',#254,.T.);
#199=FACE_OUTER_BOUND('',#255,.T.);
#200=FACE_OUTER_BOUND('',#256,.T.);
#201=FACE_OUTER_BOUND('',#257,.T.);
#202=FACE_OUTER_BOUND('',#258,.T.);
#203=FACE_OUTER_BOUND('',#259,.T.);
#204=EDGE_LOOP('',(#480,#481,#482));
#205=EDGE_LOOP('',(#483,#484,#485,#486));
#206=EDGE_LOOP('',(#487,#488,#489,#490));
#207=EDGE_LOOP('',(#491,#492,#493,#494));
#208=EDGE_LOOP('',(#495,#496,#497,#498));
#209=EDGE_LOOP('',(#499,#500,#501,#502));
#210=EDGE_LOOP('',(#503,#504,#505,#506));
#211=EDGE_LOOP('',(#507));
#212=EDGE_LOOP('',(#508));
#213=EDGE_LOOP('',(#509,#510,#511,#512,#513,#514));
#214=EDGE_LOOP('',(#515));
#215=EDGE_LOOP('',(#516));
#216=EDGE_LOOP('',(#517,#518,#519,#520));
#217=EDGE_LOOP('',(#521,#522,#523,#524));
#218=EDGE_LOOP('',(#525,#526,#527,#528,#529,#530,#531,#532));
#219=EDGE_LOOP('',(#533,#534,#535,#536,#537,#538));
#220=EDGE_LOOP('',(#539,#540,#541,#542,#543));
#221=EDGE_LOOP('',(#544,#545,#546,#547));
#222=EDGE_LOOP('',(#548,#549,#550,#551));
#223=EDGE_LOOP('',(#552,#553,#554,#555,#556));
#224=EDGE_LOOP('',(#557,#558,#559,#560));
#225=EDGE_LOOP('',(#561,#562,#563,#564,#565,#566));
#226=EDGE_LOOP('',(#567,#568,#569,#570));
#227=EDGE_LOOP('',(#571,#572,#573,#574));
#228=EDGE_LOOP('',(#575,#576,#577,#578));
#229=EDGE_LOOP('',(#579,#580,#581,#582));
#230=EDGE_LOOP('',(#583,#584,#585));
#231=EDGE_LOOP('',(#586,#587,#588));
#232=EDGE_LOOP('',(#589,#590,#591));
#233=EDGE_LOOP('',(#592,#593,#594,#595));
#234=EDGE_LOOP('',(#596,#597,#598,#599));
#235=EDGE_LOOP('',(#600,#601,#602,#603));
#236=EDGE_LOOP('',(#604,#605,#606,#607));
#237=EDGE_LOOP('',(#608,#609,#610,#611));
#238=EDGE_LOOP('',(#612,#613,#614,#615));
#239=EDGE_LOOP('',(#616,#617,#618,#619));
#240=EDGE_LOOP('',(#620,#621,#622));
#241=EDGE_LOOP('',(#623,#624,#625));
#242=EDGE_LOOP('',(#626,#627,#628));
#243=EDGE_LOOP('',(#629,#630,#631));
#244=EDGE_LOOP('',(#632,#633,#634,#635));
#245=EDGE_LOOP('',(#636,#637,#638,#639));
#246=EDGE_LOOP('',(#640,#641,#642,#643));
#247=EDGE_LOOP('',(#644,#645,#646,#647));
#248=EDGE_LOOP('',(#648,#649,#650));
#249=EDGE_LOOP('',(#651,#652,#653));
#250=EDGE_LOOP('',(#654,#655,#656,#657));
#251=EDGE_LOOP('',(#658,#659,#660,#661));
#252=EDGE_LOOP('',(#662,#663,#664,#665));
#253=EDGE_LOOP('',(#666,#667,#668,#669));
#254=EDGE_LOOP('',(#670,#671,#672,#673));
#255=EDGE_LOOP('',(#674,#675,#676));
#256=EDGE_LOOP('',(#677,#678,#679,#680));
#257=EDGE_LOOP('',(#681,#682,#683,#684));
#258=EDGE_LOOP('',(#685,#686,#687));
#259=EDGE_LOOP('',(#688,#689,#690,#691));
#260=CIRCLE('',#770,0.5);
#261=CIRCLE('',#771,0.5);
#262=CIRCLE('',#772,0.5);
#263=CIRCLE('',#774,2.);
#264=CIRCLE('',#775,0.5);
#265=CIRCLE('',#776,1.5);
#266=CIRCLE('',#777,0.500000000000001);
#267=CIRCLE('',#779,1.5);
#268=CIRCLE('',#780,0.5);
#269=CIRCLE('',#781,2.);
#270=CIRCLE('',#782,0.500000000000001);
#271=CIRCLE('',#784,28.5);
#272=CIRCLE('',#785,28.5);
#273=CIRCLE('',#787,1.625);
#274=CIRCLE('',#788,1.625);
#275=CIRCLE('',#790,1.625);
#276=CIRCLE('',#791,1.625);
#277=CIRCLE('',#797,3.5);
#278=CIRCLE('',#799,29.);
#279=CIRCLE('',#800,3.5);
#280=CIRCLE('',#802,29.);
#281=CIRCLE('',#805,3.);
#282=CIRCLE('',#807,3.);
#283=CIRCLE('',#811,0.499999999999998);
#284=CIRCLE('',#812,0.5);
#285=CIRCLE('',#814,0.5);
#286=CIRCLE('',#816,0.5);
#287=CIRCLE('',#817,0.5);
#288=CIRCLE('',#819,0.500000000000001);
#289=CIRCLE('',#820,0.500000000000001);
#290=CIRCLE('',#822,0.5);
#291=CIRCLE('',#823,0.5);
#292=CIRCLE('',#825,0.5);
#293=CIRCLE('',#826,0.5);
#294=CIRCLE('',#828,0.5);
#295=CIRCLE('',#830,0.5);
#296=CIRCLE('',#832,0.5);
#297=CIRCLE('',#834,0.5);
#298=CIRCLE('',#836,0.5);
#299=CIRCLE('',#838,0.5);
#300=CIRCLE('',#839,0.5);
#301=CIRCLE('',#841,0.5);
#302=CIRCLE('',#842,0.500000000000001);
#303=CIRCLE('',#844,0.5);
#304=CIRCLE('',#846,0.5);
#305=CIRCLE('',#848,0.500000000000001);
#306=CIRCLE('',#850,0.5);
#307=CIRCLE('',#852,0.5);
#308=CIRCLE('',#854,0.5);
#309=CIRCLE('',#856,0.500000000000001);
#310=CIRCLE('',#858,0.5);
#311=CIRCLE('',#860,0.5);
#312=CIRCLE('',#862,0.5);
#313=CIRCLE('',#864,0.5);
#314=CIRCLE('',#867,0.5);
#315=CIRCLE('',#870,0.5);
#316=CIRCLE('',#872,0.5);
#317=CIRCLE('',#875,0.5);
#318=VERTEX_POINT('',#1141);
#319=VERTEX_POINT('',#1142);
#320=VERTEX_POINT('',#1144);
#321=VERTEX_POINT('',#1148);
#322=VERTEX_POINT('',#1149);
#323=VERTEX_POINT('',#1151);
#324=VERTEX_POINT('',#1153);
#325=VERTEX_POINT('',#1157);
#326=VERTEX_POINT('',#1158);
#327=VERTEX_POINT('',#1160);
#328=VERTEX_POINT('',#1162);
#329=VERTEX_POINT('',#1167);
#330=VERTEX_POINT('',#1172);
#331=VERTEX_POINT('',#1174);
#332=VERTEX_POINT('',#1178);
#333=VERTEX_POINT('',#1180);
#334=VERTEX_POINT('',#1184);
#335=VERTEX_POINT('',#1185);
#336=VERTEX_POINT('',#1187);
#337=VERTEX_POINT('',#1189);
#338=VERTEX_POINT('',#1193);
#339=VERTEX_POINT('',#1194);
#340=VERTEX_POINT('',#1196);
#341=VERTEX_POINT('',#1198);
#342=VERTEX_POINT('',#1200);
#343=VERTEX_POINT('',#1202);
#344=VERTEX_POINT('',#1206);
#345=VERTEX_POINT('',#1207);
#346=VERTEX_POINT('',#1209);
#347=VERTEX_POINT('',#1211);
#348=VERTEX_POINT('',#1215);
#349=VERTEX_POINT('',#1216);
#350=VERTEX_POINT('',#1218);
#351=VERTEX_POINT('',#1220);
#352=VERTEX_POINT('',#1224);
#353=VERTEX_POINT('',#1225);
#354=VERTEX_POINT('',#1229);
#355=VERTEX_POINT('',#1231);
#356=VERTEX_POINT('',#1233);
#357=VERTEX_POINT('',#1235);
#358=VERTEX_POINT('',#1239);
#359=VERTEX_POINT('',#1241);
#360=VERTEX_POINT('',#1243);
#361=VERTEX_POINT('',#1245);
#362=VERTEX_POINT('',#1249);
#363=VERTEX_POINT('',#1250);
#364=VERTEX_POINT('',#1256);
#365=VERTEX_POINT('',#1258);
#366=VERTEX_POINT('',#1260);
#367=VERTEX_POINT('',#1282);
#368=VERTEX_POINT('',#1341);
#369=VERTEX_POINT('',#1342);
#370=VERTEX_POINT('',#1344);
#371=VERTEX_POINT('',#1346);
#372=VERTEX_POINT('',#1348);
#373=VERTEX_POINT('',#1350);
#374=EDGE_CURVE('',#318,#319,#260,.T.);
#375=EDGE_CURVE('',#319,#320,#261,.T.);
#376=EDGE_CURVE('',#318,#320,#262,.T.);
#377=EDGE_CURVE('',#321,#322,#263,.T.);
#378=EDGE_CURVE('',#321,#323,#264,.T.);
#379=EDGE_CURVE('',#324,#323,#265,.T.);
#380=EDGE_CURVE('',#322,#324,#266,.T.);
#381=EDGE_CURVE('',#325,#326,#267,.T.);
#382=EDGE_CURVE('',#325,#327,#268,.T.);
#383=EDGE_CURVE('',#328,#327,#269,.T.);
#384=EDGE_CURVE('',#326,#328,#270,.T.);
#385=EDGE_CURVE('',#322,#319,#271,.T.);
#386=EDGE_CURVE('',#319,#329,#34,.T.);
#387=EDGE_CURVE('',#329,#328,#272,.T.);
#388=EDGE_CURVE('',#328,#322,#35,.T.);
#389=EDGE_CURVE('',#330,#330,#273,.T.);
#390=EDGE_CURVE('',#330,#331,#36,.T.);
#391=EDGE_CURVE('',#331,#331,#274,.T.);
#392=EDGE_CURVE('',#332,#332,#275,.T.);
#393=EDGE_CURVE('',#332,#333,#37,.T.);
#394=EDGE_CURVE('',#333,#333,#276,.T.);
#395=EDGE_CURVE('',#334,#335,#38,.T.);
#396=EDGE_CURVE('',#335,#336,#39,.T.);
#397=EDGE_CURVE('',#336,#337,#40,.T.);
#398=EDGE_CURVE('',#337,#334,#41,.T.);
#399=EDGE_CURVE('',#338,#339,#42,.T.);
#400=EDGE_CURVE('',#339,#340,#43,.T.);
#401=EDGE_CURVE('',#340,#341,#44,.T.);
#402=EDGE_CURVE('',#341,#342,#45,.T.);
#403=EDGE_CURVE('',#342,#343,#46,.T.);
#404=EDGE_CURVE('',#343,#338,#47,.T.);
#405=EDGE_CURVE('',#344,#345,#48,.T.);
#406=EDGE_CURVE('',#345,#346,#49,.T.);
#407=EDGE_CURVE('',#346,#347,#50,.T.);
#408=EDGE_CURVE('',#347,#344,#51,.T.);
#409=EDGE_CURVE('',#348,#349,#52,.T.);
#410=EDGE_CURVE('',#349,#350,#53,.T.);
#411=EDGE_CURVE('',#350,#351,#54,.T.);
#412=EDGE_CURVE('',#351,#348,#55,.T.);
#413=EDGE_CURVE('',#352,#353,#277,.T.);
#414=EDGE_CURVE('',#353,#321,#56,.T.);
#415=EDGE_CURVE('',#321,#327,#57,.T.);
#416=EDGE_CURVE('',#327,#354,#58,.T.);
#417=EDGE_CURVE('',#354,#355,#59,.T.);
#418=EDGE_CURVE('',#355,#356,#60,.T.);
#419=EDGE_CURVE('',#356,#357,#61,.T.);
#420=EDGE_CURVE('',#357,#352,#62,.T.);
#421=EDGE_CURVE('',#326,#358,#278,.T.);
#422=EDGE_CURVE('',#358,#359,#63,.T.);
#423=EDGE_CURVE('',#359,#360,#279,.T.);
#424=EDGE_CURVE('',#360,#361,#64,.T.);
#425=EDGE_CURVE('',#361,#325,#65,.T.);
#426=EDGE_CURVE('',#362,#363,#66,.T.);
#427=EDGE_CURVE('',#363,#320,#67,.T.);
#428=EDGE_CURVE('',#320,#324,#280,.T.);
#429=EDGE_CURVE('',#323,#362,#68,.T.);
#430=EDGE_CURVE('',#364,#318,#69,.T.);
#431=EDGE_CURVE('',#318,#365,#70,.T.);
#432=EDGE_CURVE('',#365,#366,#71,.T.);
#433=EDGE_CURVE('',#366,#364,#72,.T.);
#434=EDGE_CURVE('',#362,#339,#281,.T.);
#435=EDGE_CURVE('',#338,#363,#18,.T.);
#436=EDGE_CURVE('',#343,#367,#19,.T.);
#437=EDGE_CURVE('',#367,#366,#282,.T.);
#438=EDGE_CURVE('',#365,#338,#17,.T.);
#439=EDGE_CURVE('',#368,#369,#73,.T.);
#440=EDGE_CURVE('',#369,#370,#74,.T.);
#441=EDGE_CURVE('',#370,#371,#75,.T.);
#442=EDGE_CURVE('',#371,#372,#76,.T.);
#443=EDGE_CURVE('',#372,#373,#77,.T.);
#444=EDGE_CURVE('',#373,#368,#20,.T.);
#445=EDGE_CURVE('',#367,#360,#283,.T.);
#446=EDGE_CURVE('',#366,#359,#284,.T.);
#447=EDGE_CURVE('',#358,#364,#285,.T.);
#448=EDGE_CURVE('',#347,#334,#286,.T.);
#449=EDGE_CURVE('',#335,#346,#287,.T.);
#450=EDGE_CURVE('',#344,#369,#288,.T.);
#451=EDGE_CURVE('',#370,#347,#289,.T.);
#452=EDGE_CURVE('',#344,#342,#290,.T.);
#453=EDGE_CURVE('',#342,#369,#291,.T.);
#454=EDGE_CURVE('',#335,#349,#292,.T.);
#455=EDGE_CURVE('',#349,#346,#293,.T.);
#456=EDGE_CURVE('',#370,#334,#294,.T.);
#457=EDGE_CURVE('',#343,#368,#295,.T.);
#458=EDGE_CURVE('',#345,#341,#296,.T.);
#459=EDGE_CURVE('',#350,#345,#297,.T.);
#460=EDGE_CURVE('',#336,#348,#298,.T.);
#461=EDGE_CURVE('',#337,#355,#299,.T.);
#462=EDGE_CURVE('',#356,#336,#300,.T.);
#463=EDGE_CURVE('',#371,#337,#301,.T.);
#464=EDGE_CURVE('',#367,#373,#302,.T.);
#465=EDGE_CURVE('',#350,#341,#303,.T.);
#466=EDGE_CURVE('',#356,#348,#304,.T.);
#467=EDGE_CURVE('',#371,#355,#305,.T.);
#468=EDGE_CURVE('',#360,#373,#306,.T.);
#469=EDGE_CURVE('',#351,#340,#307,.T.);
#470=EDGE_CURVE('',#357,#351,#308,.T.);
#471=EDGE_CURVE('',#372,#354,#309,.T.);
#472=EDGE_CURVE('',#361,#372,#310,.T.);
#473=EDGE_CURVE('',#357,#340,#311,.T.);
#474=EDGE_CURVE('',#361,#354,#312,.T.);
#475=EDGE_CURVE('',#352,#339,#313,.T.);
#476=EDGE_CURVE('',#353,#362,#314,.T.);
#477=EDGE_CURVE('',#358,#329,#315,.T.);
#478=EDGE_CURVE('',#364,#329,#316,.T.);
#479=EDGE_CURVE('',#363,#365,#317,.T.);
#480=ORIENTED_EDGE('',*,*,#374,.T.);
#481=ORIENTED_EDGE('',*,*,#375,.T.);
#482=ORIENTED_EDGE('',*,*,#376,.F.);
#483=ORIENTED_EDGE('',*,*,#377,.F.);
#484=ORIENTED_EDGE('',*,*,#378,.T.);
#485=ORIENTED_EDGE('',*,*,#379,.F.);
#486=ORIENTED_EDGE('',*,*,#380,.F.);
#487=ORIENTED_EDGE('',*,*,#381,.F.);
#488=ORIENTED_EDGE('',*,*,#382,.T.);
#489=ORIENTED_EDGE('',*,*,#383,.F.);
#490=ORIENTED_EDGE('',*,*,#384,.F.);
#491=ORIENTED_EDGE('',*,*,#385,.T.);
#492=ORIENTED_EDGE('',*,*,#386,.T.);
#493=ORIENTED_EDGE('',*,*,#387,.T.);
#494=ORIENTED_EDGE('',*,*,#388,.T.);
#495=ORIENTED_EDGE('',*,*,#389,.T.);
#496=ORIENTED_EDGE('',*,*,#390,.T.);
#497=ORIENTED_EDGE('',*,*,#391,.F.);
#498=ORIENTED_EDGE('',*,*,#390,.F.);
#499=ORIENTED_EDGE('',*,*,#392,.T.);
#500=ORIENTED_EDGE('',*,*,#393,.T.);
#501=ORIENTED_EDGE('',*,*,#394,.F.);
#502=ORIENTED_EDGE('',*,*,#393,.F.);
#503=ORIENTED_EDGE('',*,*,#395,.T.);
#504=ORIENTED_EDGE('',*,*,#396,.T.);
#505=ORIENTED_EDGE('',*,*,#397,.T.);
#506=ORIENTED_EDGE('',*,*,#398,.T.);
#507=ORIENTED_EDGE('',*,*,#392,.F.);
#508=ORIENTED_EDGE('',*,*,#389,.F.);
#509=ORIENTED_EDGE('',*,*,#399,.T.);
#510=ORIENTED_EDGE('',*,*,#400,.T.);
#511=ORIENTED_EDGE('',*,*,#401,.T.);
#512=ORIENTED_EDGE('',*,*,#402,.T.);
#513=ORIENTED_EDGE('',*,*,#403,.T.);
#514=ORIENTED_EDGE('',*,*,#404,.T.);
#515=ORIENTED_EDGE('',*,*,#394,.T.);
#516=ORIENTED_EDGE('',*,*,#391,.T.);
#517=ORIENTED_EDGE('',*,*,#405,.T.);
#518=ORIENTED_EDGE('',*,*,#406,.T.);
#519=ORIENTED_EDGE('',*,*,#407,.T.);
#520=ORIENTED_EDGE('',*,*,#408,.T.);
#521=ORIENTED_EDGE('',*,*,#409,.T.);
#522=ORIENTED_EDGE('',*,*,#410,.T.);
#523=ORIENTED_EDGE('',*,*,#411,.T.);
#524=ORIENTED_EDGE('',*,*,#412,.T.);
#525=ORIENTED_EDGE('',*,*,#413,.T.);
#526=ORIENTED_EDGE('',*,*,#414,.T.);
#527=ORIENTED_EDGE('',*,*,#415,.T.);
#528=ORIENTED_EDGE('',*,*,#416,.T.);
#529=ORIENTED_EDGE('',*,*,#417,.T.);
#530=ORIENTED_EDGE('',*,*,#418,.T.);
#531=ORIENTED_EDGE('',*,*,#419,.T.);
#532=ORIENTED_EDGE('',*,*,#420,.T.);
#533=ORIENTED_EDGE('',*,*,#381,.T.);
#534=ORIENTED_EDGE('',*,*,#421,.T.);
#535=ORIENTED_EDGE('',*,*,#422,.T.);
#536=ORIENTED_EDGE('',*,*,#423,.T.);
#537=ORIENTED_EDGE('',*,*,#424,.T.);
#538=ORIENTED_EDGE('',*,*,#425,.T.);
#539=ORIENTED_EDGE('',*,*,#426,.T.);
#540=ORIENTED_EDGE('',*,*,#427,.T.);
#541=ORIENTED_EDGE('',*,*,#428,.T.);
#542=ORIENTED_EDGE('',*,*,#379,.T.);
#543=ORIENTED_EDGE('',*,*,#429,.T.);
#544=ORIENTED_EDGE('',*,*,#430,.T.);
#545=ORIENTED_EDGE('',*,*,#431,.T.);
#546=ORIENTED_EDGE('',*,*,#432,.T.);
#547=ORIENTED_EDGE('',*,*,#433,.T.);
#548=ORIENTED_EDGE('',*,*,#426,.F.);
#549=ORIENTED_EDGE('',*,*,#434,.T.);
#550=ORIENTED_EDGE('',*,*,#399,.F.);
#551=ORIENTED_EDGE('',*,*,#435,.T.);
#552=ORIENTED_EDGE('',*,*,#404,.F.);
#553=ORIENTED_EDGE('',*,*,#436,.T.);
#554=ORIENTED_EDGE('',*,*,#437,.T.);
#555=ORIENTED_EDGE('',*,*,#432,.F.);
#556=ORIENTED_EDGE('',*,*,#438,.T.);
#557=ORIENTED_EDGE('',*,*,#415,.F.);
#558=ORIENTED_EDGE('',*,*,#377,.T.);
#559=ORIENTED_EDGE('',*,*,#388,.F.);
#560=ORIENTED_EDGE('',*,*,#383,.T.);
#561=ORIENTED_EDGE('',*,*,#439,.T.);
#562=ORIENTED_EDGE('',*,*,#440,.T.);
#563=ORIENTED_EDGE('',*,*,#441,.T.);
#564=ORIENTED_EDGE('',*,*,#442,.T.);
#565=ORIENTED_EDGE('',*,*,#443,.T.);
#566=ORIENTED_EDGE('',*,*,#444,.T.);
#567=ORIENTED_EDGE('',*,*,#437,.F.);
#568=ORIENTED_EDGE('',*,*,#445,.T.);
#569=ORIENTED_EDGE('',*,*,#423,.F.);
#570=ORIENTED_EDGE('',*,*,#446,.F.);
#571=ORIENTED_EDGE('',*,*,#422,.F.);
#572=ORIENTED_EDGE('',*,*,#447,.T.);
#573=ORIENTED_EDGE('',*,*,#433,.F.);
#574=ORIENTED_EDGE('',*,*,#446,.T.);
#575=ORIENTED_EDGE('',*,*,#448,.F.);
#576=ORIENTED_EDGE('',*,*,#407,.F.);
#577=ORIENTED_EDGE('',*,*,#449,.F.);
#578=ORIENTED_EDGE('',*,*,#395,.F.);
#579=ORIENTED_EDGE('',*,*,#450,.F.);
#580=ORIENTED_EDGE('',*,*,#408,.F.);
#581=ORIENTED_EDGE('',*,*,#451,.F.);
#582=ORIENTED_EDGE('',*,*,#440,.F.);
#583=ORIENTED_EDGE('',*,*,#452,.F.);
#584=ORIENTED_EDGE('',*,*,#450,.T.);
#585=ORIENTED_EDGE('',*,*,#453,.F.);
#586=ORIENTED_EDGE('',*,*,#454,.F.);
#587=ORIENTED_EDGE('',*,*,#449,.T.);
#588=ORIENTED_EDGE('',*,*,#455,.F.);
#589=ORIENTED_EDGE('',*,*,#451,.T.);
#590=ORIENTED_EDGE('',*,*,#448,.T.);
#591=ORIENTED_EDGE('',*,*,#456,.F.);
#592=ORIENTED_EDGE('',*,*,#453,.T.);
#593=ORIENTED_EDGE('',*,*,#439,.F.);
#594=ORIENTED_EDGE('',*,*,#457,.F.);
#595=ORIENTED_EDGE('',*,*,#403,.F.);
#596=ORIENTED_EDGE('',*,*,#452,.T.);
#597=ORIENTED_EDGE('',*,*,#402,.F.);
#598=ORIENTED_EDGE('',*,*,#458,.F.);
#599=ORIENTED_EDGE('',*,*,#405,.F.);
#600=ORIENTED_EDGE('',*,*,#455,.T.);
#601=ORIENTED_EDGE('',*,*,#406,.F.);
#602=ORIENTED_EDGE('',*,*,#459,.F.);
#603=ORIENTED_EDGE('',*,*,#410,.F.);
#604=ORIENTED_EDGE('',*,*,#454,.T.);
#605=ORIENTED_EDGE('',*,*,#409,.F.);
#606=ORIENTED_EDGE('',*,*,#460,.F.);
#607=ORIENTED_EDGE('',*,*,#396,.F.);
#608=ORIENTED_EDGE('',*,*,#461,.F.);
#609=ORIENTED_EDGE('',*,*,#397,.F.);
#610=ORIENTED_EDGE('',*,*,#462,.F.);
#611=ORIENTED_EDGE('',*,*,#418,.F.);
#612=ORIENTED_EDGE('',*,*,#456,.T.);
#613=ORIENTED_EDGE('',*,*,#398,.F.);
#614=ORIENTED_EDGE('',*,*,#463,.F.);
#615=ORIENTED_EDGE('',*,*,#441,.F.);
#616=ORIENTED_EDGE('',*,*,#457,.T.);
#617=ORIENTED_EDGE('',*,*,#444,.F.);
#618=ORIENTED_EDGE('',*,*,#464,.F.);
#619=ORIENTED_EDGE('',*,*,#436,.F.);
#620=ORIENTED_EDGE('',*,*,#459,.T.);
#621=ORIENTED_EDGE('',*,*,#458,.T.);
#622=ORIENTED_EDGE('',*,*,#465,.F.);
#623=ORIENTED_EDGE('',*,*,#462,.T.);
#624=ORIENTED_EDGE('',*,*,#460,.T.);
#625=ORIENTED_EDGE('',*,*,#466,.F.);
#626=ORIENTED_EDGE('',*,*,#463,.T.);
#627=ORIENTED_EDGE('',*,*,#461,.T.);
#628=ORIENTED_EDGE('',*,*,#467,.F.);
#629=ORIENTED_EDGE('',*,*,#445,.F.);
#630=ORIENTED_EDGE('',*,*,#464,.T.);
#631=ORIENTED_EDGE('',*,*,#468,.F.);
#632=ORIENTED_EDGE('',*,*,#465,.T.);
#633=ORIENTED_EDGE('',*,*,#401,.F.);
#634=ORIENTED_EDGE('',*,*,#469,.F.);
#635=ORIENTED_EDGE('',*,*,#411,.F.);
#636=ORIENTED_EDGE('',*,*,#466,.T.);
#637=ORIENTED_EDGE('',*,*,#412,.F.);
#638=ORIENTED_EDGE('',*,*,#470,.F.);
#639=ORIENTED_EDGE('',*,*,#419,.F.);
#640=ORIENTED_EDGE('',*,*,#467,.T.);
#641=ORIENTED_EDGE('',*,*,#417,.F.);
#642=ORIENTED_EDGE('',*,*,#471,.F.);
#643=ORIENTED_EDGE('',*,*,#442,.F.);
#644=ORIENTED_EDGE('',*,*,#468,.T.);
#645=ORIENTED_EDGE('',*,*,#443,.F.);
#646=ORIENTED_EDGE('',*,*,#472,.F.);
#647=ORIENTED_EDGE('',*,*,#424,.F.);
#648=ORIENTED_EDGE('',*,*,#470,.T.);
#649=ORIENTED_EDGE('',*,*,#469,.T.);
#650=ORIENTED_EDGE('',*,*,#473,.F.);
#651=ORIENTED_EDGE('',*,*,#472,.T.);
#652=ORIENTED_EDGE('',*,*,#471,.T.);
#653=ORIENTED_EDGE('',*,*,#474,.F.);
#654=ORIENTED_EDGE('',*,*,#473,.T.);
#655=ORIENTED_EDGE('',*,*,#400,.F.);
#656=ORIENTED_EDGE('',*,*,#475,.F.);
#657=ORIENTED_EDGE('',*,*,#420,.F.);
#658=ORIENTED_EDGE('',*,*,#474,.T.);
#659=ORIENTED_EDGE('',*,*,#416,.F.);
#660=ORIENTED_EDGE('',*,*,#382,.F.);
#661=ORIENTED_EDGE('',*,*,#425,.F.);
#662=ORIENTED_EDGE('',*,*,#475,.T.);
#663=ORIENTED_EDGE('',*,*,#434,.F.);
#664=ORIENTED_EDGE('',*,*,#476,.F.);
#665=ORIENTED_EDGE('',*,*,#413,.F.);
#666=ORIENTED_EDGE('',*,*,#476,.T.);
#667=ORIENTED_EDGE('',*,*,#429,.F.);
#668=ORIENTED_EDGE('',*,*,#378,.F.);
#669=ORIENTED_EDGE('',*,*,#414,.F.);
#670=ORIENTED_EDGE('',*,*,#384,.T.);
#671=ORIENTED_EDGE('',*,*,#387,.F.);
#672=ORIENTED_EDGE('',*,*,#477,.F.);
#673=ORIENTED_EDGE('',*,*,#421,.F.);
#674=ORIENTED_EDGE('',*,*,#447,.F.);
#675=ORIENTED_EDGE('',*,*,#477,.T.);
#676=ORIENTED_EDGE('',*,*,#478,.F.);
#677=ORIENTED_EDGE('',*,*,#380,.T.);
#678=ORIENTED_EDGE('',*,*,#428,.F.);
#679=ORIENTED_EDGE('',*,*,#375,.F.);
#680=ORIENTED_EDGE('',*,*,#385,.F.);
#681=ORIENTED_EDGE('',*,*,#478,.T.);
#682=ORIENTED_EDGE('',*,*,#386,.F.);
#683=ORIENTED_EDGE('',*,*,#374,.F.);
#684=ORIENTED_EDGE('',*,*,#430,.F.);
#685=ORIENTED_EDGE('',*,*,#435,.F.);
#686=ORIENTED_EDGE('',*,*,#438,.F.);
#687=ORIENTED_EDGE('',*,*,#479,.F.);
#688=ORIENTED_EDGE('',*,*,#479,.T.);
#689=ORIENTED_EDGE('',*,*,#431,.F.);
#690=ORIENTED_EDGE('',*,*,#376,.T.);
#691=ORIENTED_EDGE('',*,*,#427,.F.);
#692=SPHERICAL_SURFACE('',#769,0.5);
#693=SPHERICAL_SURFACE('',#821,0.5);
#694=SPHERICAL_SURFACE('',#824,0.5);
#695=SPHERICAL_SURFACE('',#827,0.5);
#696=SPHERICAL_SURFACE('',#843,0.5);
#697=SPHERICAL_SURFACE('',#845,0.5);
#698=SPHERICAL_SURFACE('',#847,0.5);
#699=SPHERICAL_SURFACE('',#849,0.5);
#700=SPHERICAL_SURFACE('',#859,0.5);
#701=SPHERICAL_SURFACE('',#861,0.5);
#702=SPHERICAL_SURFACE('',#871,0.5);
#703=ADVANCED_FACE('',(#152),#692,.T.);
#704=ADVANCED_FACE('',(#153),#146,.T.);
#705=ADVANCED_FACE('',(#154),#147,.T.);
#706=ADVANCED_FACE('',(#155),#122,.F.);
#707=ADVANCED_FACE('',(#156),#123,.F.);
#708=ADVANCED_FACE('',(#157),#124,.F.);
#709=ADVANCED_FACE('',(#158,#21,#22),#25,.F.);
#710=ADVANCED_FACE('',(#159,#23,#24),#26,.T.);
#711=ADVANCED_FACE('',(#160),#27,.F.);
#712=ADVANCED_FACE('',(#161),#28,.F.);
#713=ADVANCED_FACE('',(#162),#29,.F.);
#714=ADVANCED_FACE('',(#163),#30,.F.);
#715=ADVANCED_FACE('',(#164),#31,.T.);
#716=ADVANCED_FACE('',(#165),#32,.F.);
#717=ADVANCED_FACE('',(#166),#125,.F.);
#718=ADVANCED_FACE('',(#167),#126,.F.);
#719=ADVANCED_FACE('',(#168),#127,.T.);
#720=ADVANCED_FACE('',(#169),#33,.F.);
#721=ADVANCED_FACE('',(#170),#148,.T.);
#722=ADVANCED_FACE('',(#171),#128,.T.);
#723=ADVANCED_FACE('',(#172),#129,.T.);
#724=ADVANCED_FACE('',(#173),#130,.T.);
#725=ADVANCED_FACE('',(#174),#693,.T.);
#726=ADVANCED_FACE('',(#175),#694,.T.);
#727=ADVANCED_FACE('',(#176),#695,.T.);
#728=ADVANCED_FACE('',(#177),#131,.T.);
#729=ADVANCED_FACE('',(#178),#132,.T.);
#730=ADVANCED_FACE('',(#179),#133,.T.);
#731=ADVANCED_FACE('',(#180),#134,.T.);
#732=ADVANCED_FACE('',(#181),#135,.T.);
#733=ADVANCED_FACE('',(#182),#136,.T.);
#734=ADVANCED_FACE('',(#183),#15,.T.);
#735=ADVANCED_FACE('',(#184),#696,.T.);
#736=ADVANCED_FACE('',(#185),#697,.T.);
#737=ADVANCED_FACE('',(#186),#698,.T.);
#738=ADVANCED_FACE('',(#187),#699,.T.);
#739=ADVANCED_FACE('',(#188),#137,.T.);
#740=ADVANCED_FACE('',(#189),#138,.T.);
#741=ADVANCED_FACE('',(#190),#139,.T.);
#742=ADVANCED_FACE('',(#191),#140,.T.);
#743=ADVANCED_FACE('',(#192),#700,.T.);
#744=ADVANCED_FACE('',(#193),#701,.T.);
#745=ADVANCED_FACE('',(#194),#141,.T.);
#746=ADVANCED_FACE('',(#195),#142,.T.);
#747=ADVANCED_FACE('',(#196),#149,.T.);
#748=ADVANCED_FACE('',(#197),#143,.T.);
#749=ADVANCED_FACE('',(#198),#150,.T.);
#750=ADVANCED_FACE('',(#199),#702,.T.);
#751=ADVANCED_FACE('',(#200),#151,.T.);
#752=ADVANCED_FACE('',(#201),#144,.T.);
#753=ADVANCED_FACE('',(#202),#16,.T.);
#754=ADVANCED_FACE('',(#203),#145,.T.);
#755=CLOSED_SHELL('',(#703,#704,#705,#706,#707,#708,#709,#710,#711,#712,
#713,#714,#715,#716,#717,#718,#719,#720,#721,#722,#723,#724,#725,#726,#727,
#728,#729,#730,#731,#732,#733,#734,#735,#736,#737,#738,#739,#740,#741,#742,
#743,#744,#745,#746,#747,#748,#749,#750,#751,#752,#753,#754));
#756=DERIVED_UNIT_ELEMENT(#758,1.);
#757=DERIVED_UNIT_ELEMENT(#1539,-3.);
#758=(
MASS_UNIT()
NAMED_UNIT(*)
SI_UNIT(.KILO.,.GRAM.)
);
#759=DERIVED_UNIT((#756,#757));
#760=MEASURE_REPRESENTATION_ITEM('density measure',
POSITIVE_RATIO_MEASURE(7850.),#759);
#761=PROPERTY_DEFINITION_REPRESENTATION(#766,#763);
#762=PROPERTY_DEFINITION_REPRESENTATION(#767,#764);
#763=REPRESENTATION('material name',(#765),#1536);
#764=REPRESENTATION('density',(#760),#1536);
#765=DESCRIPTIVE_REPRESENTATION_ITEM('Steel','Steel');
#766=PROPERTY_DEFINITION('material property','material name',#1546);
#767=PROPERTY_DEFINITION('material property','density of part',#1546);
#768=AXIS2_PLACEMENT_3D('',#1139,#877,#878);
#769=AXIS2_PLACEMENT_3D('',#1140,#879,#880);
#770=AXIS2_PLACEMENT_3D('',#1143,#881,#882);
#771=AXIS2_PLACEMENT_3D('',#1145,#883,#884);
#772=AXIS2_PLACEMENT_3D('',#1146,#885,#886);
#773=AXIS2_PLACEMENT_3D('',#1147,#887,#888);
#774=AXIS2_PLACEMENT_3D('',#1150,#889,#890);
#775=AXIS2_PLACEMENT_3D('',#1152,#891,#892);
#776=AXIS2_PLACEMENT_3D('',#1154,#893,#894);
#777=AXIS2_PLACEMENT_3D('',#1155,#895,#896);
#778=AXIS2_PLACEMENT_3D('',#1156,#897,#898);
#779=AXIS2_PLACEMENT_3D('',#1159,#899,#900);
#780=AXIS2_PLACEMENT_3D('',#1161,#901,#902);
#781=AXIS2_PLACEMENT_3D('',#1163,#903,#904);
#782=AXIS2_PLACEMENT_3D('',#1164,#905,#906);
#783=AXIS2_PLACEMENT_3D('',#1165,#907,#908);
#784=AXIS2_PLACEMENT_3D('',#1166,#909,#910);
#785=AXIS2_PLACEMENT_3D('',#1169,#912,#913);
#786=AXIS2_PLACEMENT_3D('',#1171,#915,#916);
#787=AXIS2_PLACEMENT_3D('',#1173,#917,#918);
#788=AXIS2_PLACEMENT_3D('',#1176,#920,#921);
#789=AXIS2_PLACEMENT_3D('',#1177,#922,#923);
#790=AXIS2_PLACEMENT_3D('',#1179,#924,#925);
#791=AXIS2_PLACEMENT_3D('',#1182,#927,#928);
#792=AXIS2_PLACEMENT_3D('',#1183,#929,#930);
#793=AXIS2_PLACEMENT_3D('',#1192,#935,#936);
#794=AXIS2_PLACEMENT_3D('',#1205,#943,#944);
#795=AXIS2_PLACEMENT_3D('',#1214,#949,#950);
#796=AXIS2_PLACEMENT_3D('',#1223,#955,#956);
#797=AXIS2_PLACEMENT_3D('',#1226,#957,#958);
#798=AXIS2_PLACEMENT_3D('',#1238,#966,#967);
#799=AXIS2_PLACEMENT_3D('',#1240,#968,#969);
#800=AXIS2_PLACEMENT_3D('',#1244,#971,#972);
#801=AXIS2_PLACEMENT_3D('',#1248,#975,#976);
#802=AXIS2_PLACEMENT_3D('',#1253,#979,#980);
#803=AXIS2_PLACEMENT_3D('',#1255,#982,#983);
#804=AXIS2_PLACEMENT_3D('',#1263,#988,#989);
#805=AXIS2_PLACEMENT_3D('',#1264,#990,#991);
#806=AXIS2_PLACEMENT_3D('',#1281,#992,#993);
#807=AXIS2_PLACEMENT_3D('',#1326,#994,#995);
#808=AXIS2_PLACEMENT_3D('',#1339,#996,#997);
#809=AXIS2_PLACEMENT_3D('',#1340,#998,#999);
#810=AXIS2_PLACEMENT_3D('',#1401,#1005,#1006);
#811=AXIS2_PLACEMENT_3D('',#1402,#1007,#1008);
#812=AXIS2_PLACEMENT_3D('',#1403,#1009,#1010);
#813=AXIS2_PLACEMENT_3D('',#1404,#1011,#1012);
#814=AXIS2_PLACEMENT_3D('',#1405,#1013,#1014);
#815=AXIS2_PLACEMENT_3D('',#1406,#1015,#1016);
#816=AXIS2_PLACEMENT_3D('',#1407,#1017,#1018);
#817=AXIS2_PLACEMENT_3D('',#1408,#1019,#1020);
#818=AXIS2_PLACEMENT_3D('',#1409,#1021,#1022);
#819=AXIS2_PLACEMENT_3D('',#1410,#1023,#1024);
#820=AXIS2_PLACEMENT_3D('',#1411,#1025,#1026);
#821=AXIS2_PLACEMENT_3D('',#1412,#1027,#1028);
#822=AXIS2_PLACEMENT_3D('',#1413,#1029,#1030);
#823=AXIS2_PLACEMENT_3D('',#1414,#1031,#1032);
#824=AXIS2_PLACEMENT_3D('',#1415,#1033,#1034);
#825=AXIS2_PLACEMENT_3D('',#1416,#1035,#1036);
#826=AXIS2_PLACEMENT_3D('',#1417,#1037,#1038);
#827=AXIS2_PLACEMENT_3D('',#1418,#1039,#1040);
#828=AXIS2_PLACEMENT_3D('',#1419,#1041,#1042);
#829=AXIS2_PLACEMENT_3D('',#1420,#1043,#1044);
#830=AXIS2_PLACEMENT_3D('',#1421,#1045,#1046);
#831=AXIS2_PLACEMENT_3D('',#1422,#1047,#1048);
#832=AXIS2_PLACEMENT_3D('',#1423,#1049,#1050);
#833=AXIS2_PLACEMENT_3D('',#1424,#1051,#1052);
#834=AXIS2_PLACEMENT_3D('',#1425,#1053,#1054);
#835=AXIS2_PLACEMENT_3D('',#1426,#1055,#1056);
#836=AXIS2_PLACEMENT_3D('',#1427,#1057,#1058);
#837=AXIS2_PLACEMENT_3D('',#1428,#1059,#1060);
#838=AXIS2_PLACEMENT_3D('',#1429,#1061,#1062);
#839=AXIS2_PLACEMENT_3D('',#1430,#1063,#1064);
#840=AXIS2_PLACEMENT_3D('',#1431,#1065,#1066);
#841=AXIS2_PLACEMENT_3D('',#1432,#1067,#1068);
#842=AXIS2_PLACEMENT_3D('',#1463,#1069,#1070);
#843=AXIS2_PLACEMENT_3D('',#1464,#1071,#1072);
#844=AXIS2_PLACEMENT_3D('',#1465,#1073,#1074);
#845=AXIS2_PLACEMENT_3D('',#1466,#1075,#1076);
#846=AXIS2_PLACEMENT_3D('',#1467,#1077,#1078);
#847=AXIS2_PLACEMENT_3D('',#1468,#1079,#1080);
#848=AXIS2_PLACEMENT_3D('',#1469,#1081,#1082);
#849=AXIS2_PLACEMENT_3D('',#1470,#1083,#1084);
#850=AXIS2_PLACEMENT_3D('',#1471,#1085,#1086);
#851=AXIS2_PLACEMENT_3D('',#1472,#1087,#1088);
#852=AXIS2_PLACEMENT_3D('',#1473,#1089,#1090);
#853=AXIS2_PLACEMENT_3D('',#1474,#1091,#1092);
#854=AXIS2_PLACEMENT_3D('',#1475,#1093,#1094);
#855=AXIS2_PLACEMENT_3D('',#1476,#1095,#1096);
#856=AXIS2_PLACEMENT_3D('',#1477,#1097,#1098);
#857=AXIS2_PLACEMENT_3D('',#1478,#1099,#1100);
#858=AXIS2_PLACEMENT_3D('',#1479,#1101,#1102);
#859=AXIS2_PLACEMENT_3D('',#1480,#1103,#1104);
#860=AXIS2_PLACEMENT_3D('',#1481,#1105,#1106);
#861=AXIS2_PLACEMENT_3D('',#1482,#1107,#1108);
#862=AXIS2_PLACEMENT_3D('',#1483,#1109,#1110);
#863=AXIS2_PLACEMENT_3D('',#1484,#1111,#1112);
#864=AXIS2_PLACEMENT_3D('',#1485,#1113,#1114);
#865=AXIS2_PLACEMENT_3D('',#1486,#1115,#1116);
#866=AXIS2_PLACEMENT_3D('',#1487,#1117,#1118);
#867=AXIS2_PLACEMENT_3D('',#1488,#1119,#1120);
#868=AXIS2_PLACEMENT_3D('',#1489,#1121,#1122);
#869=AXIS2_PLACEMENT_3D('',#1490,#1123,#1124);
#870=AXIS2_PLACEMENT_3D('',#1491,#1125,#1126);
#871=AXIS2_PLACEMENT_3D('',#1492,#1127,#1128);
#872=AXIS2_PLACEMENT_3D('',#1493,#1129,#1130);
#873=AXIS2_PLACEMENT_3D('',#1494,#1131,#1132);
#874=AXIS2_PLACEMENT_3D('',#1495,#1133,#1134);
#875=AXIS2_PLACEMENT_3D('',#1532,#1135,#1136);
#876=AXIS2_PLACEMENT_3D('',#1533,#1137,#1138);
#877=DIRECTION('axis',(0.,0.,1.));
#878=DIRECTION('refdir',(1.,0.,0.));
#879=DIRECTION('center_axis',(1.,0.,0.));
#880=DIRECTION('ref_axis',(0.,0.,1.));
#881=DIRECTION('center_axis',(0.,1.,0.));
#882=DIRECTION('ref_axis',(0.,0.,1.));
#883=DIRECTION('center_axis',(-0.99269028761964,8.61021573153979E-16,0.120689655172414));
#884=DIRECTION('ref_axis',(0.120689655172414,0.,0.99269028761964));
#885=DIRECTION('center_axis',(-6.93889390390723E-15,0.,-1.));
#886=DIRECTION('ref_axis',(1.,0.,-6.93889390390723E-15));
#887=DIRECTION('center_axis',(0.,1.,0.));
#888=DIRECTION('ref_axis',(0.,0.,1.));
#889=DIRECTION('center_axis',(0.,-1.,0.));
#890=DIRECTION('ref_axis',(0.,0.,1.));
#891=DIRECTION('center_axis',(0.,0.,1.));
#892=DIRECTION('ref_axis',(1.,0.,0.));
#893=DIRECTION('center_axis',(0.,1.,0.));
#894=DIRECTION('ref_axis',(0.,0.,1.));
#895=DIRECTION('center_axis',(-0.888427797038639,1.02712941785914E-16,-0.459016393442621));
#896=DIRECTION('ref_axis',(-0.459016393442621,0.,0.888427797038639));
#897=DIRECTION('center_axis',(0.,1.,0.));
#898=DIRECTION('ref_axis',(0.,0.,1.));
#899=DIRECTION('center_axis',(0.,-1.,0.));
#900=DIRECTION('ref_axis',(0.,0.,1.));
#901=DIRECTION('center_axis',(0.,0.,1.));
#902=DIRECTION('ref_axis',(1.,0.,0.));
#903=DIRECTION('center_axis',(0.,1.,0.));
#904=DIRECTION('ref_axis',(0.,0.,1.));
#905=DIRECTION('center_axis',(-0.888427797038639,0.,-0.459016393442621));
#906=DIRECTION('ref_axis',(-0.459016393442621,0.,0.888427797038639));
#907=DIRECTION('center_axis',(0.,-1.,0.));
#908=DIRECTION('ref_axis',(0.,0.,-1.));
#909=DIRECTION('center_axis',(0.,1.,0.));
#910=DIRECTION('ref_axis',(0.,0.,1.));
#911=DIRECTION('',(0.,-1.,0.));
#912=DIRECTION('center_axis',(0.,-1.,0.));
#913=DIRECTION('ref_axis',(0.,0.,1.));
#914=DIRECTION('',(0.,1.,0.));
#915=DIRECTION('center_axis',(0.,0.,1.));
#916=DIRECTION('ref_axis',(1.,0.,0.));
#917=DIRECTION('center_axis',(0.,0.,-1.));
#918=DIRECTION('ref_axis',(-1.,0.,0.));
#919=DIRECTION('',(0.,0.,1.));
#920=DIRECTION('center_axis',(0.,0.,-1.));
#921=DIRECTION('ref_axis',(-1.,0.,0.));
#922=DIRECTION('center_axis',(0.,0.,1.));
#923=DIRECTION('ref_axis',(1.,0.,0.));
#924=DIRECTION('center_axis',(0.,0.,-1.));
#925=DIRECTION('ref_axis',(-1.,0.,0.));
#926=DIRECTION('',(0.,0.,1.));
#927=DIRECTION('center_axis',(0.,0.,-1.));
#928=DIRECTION('ref_axis',(-1.,0.,0.));
#929=DIRECTION('center_axis',(0.,0.,1.));
#930=DIRECTION('ref_axis',(1.,0.,0.));
#931=DIRECTION('',(0.,1.,0.));
#932=DIRECTION('',(1.,5.42101086242752E-17,0.));
#933=DIRECTION('',(0.,-1.,0.));
#934=DIRECTION('',(-1.,0.,0.));
#935=DIRECTION('center_axis',(0.,0.,1.));
#936=DIRECTION('ref_axis',(1.,0.,0.));
#937=DIRECTION('',(1.,0.,0.));
#938=DIRECTION('',(0.,1.,0.));
#939=DIRECTION('',(-1.,-5.42101086242752E-17,0.));
#940=DIRECTION('',(0.,-1.,0.));
#941=DIRECTION('',(1.,0.,0.));
#942=DIRECTION('',(0.,1.,0.));
#943=DIRECTION('center_axis',(1.,0.,0.));
#944=DIRECTION('ref_axis',(0.,0.,-1.));
#945=DIRECTION('',(0.,1.,0.));
#946=DIRECTION('',(0.,0.,-1.));
#947=DIRECTION('',(0.,-1.,0.));
#948=DIRECTION('',(0.,-0.707106781186546,0.707106781186549));
#949=DIRECTION('center_axis',(5.42101086242752E-17,-1.,0.));
#950=DIRECTION('ref_axis',(1.,5.42101086242752E-17,0.));
#951=DIRECTION('',(-1.,-5.42101086242752E-17,0.));
#952=DIRECTION('',(0.,0.,1.));
#953=DIRECTION('',(1.,5.42101086242752E-17,0.));
#954=DIRECTION('',(0.,0.,-1.));
#955=DIRECTION('center_axis',(-1.,0.,0.));
#956=DIRECTION('ref_axis',(0.,0.,1.));
#957=DIRECTION('center_axis',(-1.,0.,0.));
#958=DIRECTION('ref_axis',(0.,0.,1.));
#959=DIRECTION('',(0.,0.,1.));
#960=DIRECTION('',(0.,-1.,0.));
#961=DIRECTION('',(0.,0.,-1.));
#962=DIRECTION('',(0.,0.707106781186546,-0.707106781186549));
#963=DIRECTION('',(0.,1.,0.));
#964=DIRECTION('',(0.,0.,1.));
#965=DIRECTION('',(0.,-1.,0.));
#966=DIRECTION('center_axis',(0.,1.,0.));
#967=DIRECTION('ref_axis',(0.,0.,1.));
#968=DIRECTION('center_axis',(0.,1.,0.));
#969=DIRECTION('ref_axis',(0.,0.,1.));
#970=DIRECTION('',(0.,0.,-1.));
#971=DIRECTION('center_axis',(0.,1.,0.));
#972=DIRECTION('ref_axis',(0.,0.,1.));
#973=DIRECTION('',(1.,0.,0.));
#974=DIRECTION('',(0.,0.,1.));
#975=DIRECTION('center_axis',(0.,1.,0.));
#976=DIRECTION('ref_axis',(0.,0.,1.));
#977=DIRECTION('',(-1.,0.,0.));
#978=DIRECTION('',(0.,0.,1.));
#979=DIRECTION('center_axis',(0.,-1.,0.));
#980=DIRECTION('ref_axis',(2.66453525910038E-15,0.,1.));
#981=DIRECTION('',(0.,0.,-1.));
#982=DIRECTION('center_axis',(1.,0.,0.));
#983=DIRECTION('ref_axis',(0.,0.,-1.));
#984=DIRECTION('',(0.,1.,0.));
#985=DIRECTION('',(0.,0.,-1.));
#986=DIRECTION('',(0.,-1.,0.));
#987=DIRECTION('',(0.,0.,1.));
#988=DIRECTION('center_axis',(1.,0.,0.));
#989=DIRECTION('ref_axis',(0.,0.,-1.));
#990=DIRECTION('center_axis',(1.,0.,0.));
#991=DIRECTION('ref_axis',(0.,0.,1.));
#992=DIRECTION('center_axis',(0.,1.,0.));
#993=DIRECTION('ref_axis',(0.,0.,1.));
#994=DIRECTION('center_axis',(0.,-1.,0.));
#995=DIRECTION('ref_axis',(0.,0.,1.));
#996=DIRECTION('center_axis',(0.,-1.,0.));
#997=DIRECTION('ref_axis',(0.520088264892305,0.,0.854112519941788));
#998=DIRECTION('center_axis',(0.,0.707106781186549,0.707106781186546));
#999=DIRECTION('ref_axis',(-1.,0.,0.));
#1000=DIRECTION('',(-1.,0.,0.));
#1001=DIRECTION('',(0.,0.707106781186546,-0.707106781186549));
#1002=DIRECTION('',(1.,0.,0.));
#1003=DIRECTION('',(0.,-0.707106781186546,0.707106781186549));
#1004=DIRECTION('',(-1.,0.,0.));
#1005=DIRECTION('center_axis',(0.,1.,0.));
#1006=DIRECTION('ref_axis',(0.,0.,1.));
#1007=DIRECTION('center_axis',(0.512255205375268,0.,0.858833281007404));
#1008=DIRECTION('ref_axis',(-0.858833281007403,0.,0.512255205375268));
#1009=DIRECTION('center_axis',(0.,0.,1.));
#1010=DIRECTION('ref_axis',(1.,0.,0.));
#1011=DIRECTION('center_axis',(0.,0.,-1.));
#1012=DIRECTION('ref_axis',(-1.,0.,0.));
#1013=DIRECTION('center_axis',(0.,0.,-1.));
#1014=DIRECTION('ref_axis',(-1.,0.,0.));
#1015=DIRECTION('center_axis',(0.,1.,0.));
#1016=DIRECTION('ref_axis',(0.,0.,1.));
#1017=DIRECTION('center_axis',(0.,-1.,0.));
#1018=DIRECTION('ref_axis',(0.,0.,-1.));
#1019=DIRECTION('center_axis',(3.46944695195361E-15,1.,0.));
#1020=DIRECTION('ref_axis',(-1.,3.46944695195361E-15,0.));
#1021=DIRECTION('center_axis',(0.,-0.707106781186546,0.707106781186549));
#1022=DIRECTION('ref_axis',(0.,-0.707106781186549,-0.707106781186546));
#1023=DIRECTION('center_axis',(0.,-0.707106781186544,0.707106781186551));
#1024=DIRECTION('ref_axis',(0.,-0.707106781186551,-0.707106781186544));
#1025=DIRECTION('center_axis',(0.,0.707106781186544,-0.707106781186551));
#1026=DIRECTION('ref_axis',(0.,0.707106781186551,0.707106781186544));
#1027=DIRECTION('center_axis',(0.,0.,1.));
#1028=DIRECTION('ref_axis',(1.,0.,0.));
#1029=DIRECTION('center_axis',(0.,1.,0.));
#1030=DIRECTION('ref_axis',(0.,0.,-1.));
#1031=DIRECTION('center_axis',(1.,0.,0.));
#1032=DIRECTION('ref_axis',(0.,0.,1.));
#1033=DIRECTION('center_axis',(0.,1.,0.));
#1034=DIRECTION('ref_axis',(0.,0.,1.));
#1035=DIRECTION('center_axis',(1.,0.,0.));
#1036=DIRECTION('ref_axis',(0.,0.,1.));
#1037=DIRECTION('center_axis',(0.,0.,1.));
#1038=DIRECTION('ref_axis',(-1.,0.,0.));
#1039=DIRECTION('center_axis',(0.,1.,0.));
#1040=DIRECTION('ref_axis',(0.,0.,1.));
#1041=DIRECTION('center_axis',(1.,0.,0.));
#1042=DIRECTION('ref_axis',(0.,0.,1.));
#1043=DIRECTION('center_axis',(-1.,0.,0.));
#1044=DIRECTION('ref_axis',(0.,0.,1.));
#1045=DIRECTION('center_axis',(1.,0.,0.));
#1046=DIRECTION('ref_axis',(0.,0.,-1.));
#1047=DIRECTION('center_axis',(0.,-1.,0.));
#1048=DIRECTION('ref_axis',(0.,0.,-1.));
#1049=DIRECTION('center_axis',(0.,1.,0.));
#1050=DIRECTION('ref_axis',(0.,0.,1.));
#1051=DIRECTION('center_axis',(0.,0.,1.));
#1052=DIRECTION('ref_axis',(1.,0.,0.));
#1053=DIRECTION('center_axis',(0.,0.,1.));
#1054=DIRECTION('ref_axis',(1.,0.,0.));
#1055=DIRECTION('center_axis',(1.,5.42101086242752E-17,0.));
#1056=DIRECTION('ref_axis',(-5.42101086242752E-17,1.,0.));
#1057=DIRECTION('center_axis',(1.,0.,0.));
#1058=DIRECTION('ref_axis',(0.,0.,-1.));
#1059=DIRECTION('center_axis',(0.,-1.,0.));
#1060=DIRECTION('ref_axis',(0.,0.,-1.));
#1061=DIRECTION('center_axis',(0.,-1.,0.));
#1062=DIRECTION('ref_axis',(0.,0.,-1.));
#1063=DIRECTION('center_axis',(0.,1.,0.));
#1064=DIRECTION('ref_axis',(0.,0.,1.));
#1065=DIRECTION('center_axis',(-1.,0.,0.));
#1066=DIRECTION('ref_axis',(0.,0.,1.));
#1067=DIRECTION('center_axis',(1.,0.,0.));
#1068=DIRECTION('ref_axis',(0.,0.,-1.));
#1069=DIRECTION('center_axis',(0.388608370179741,-0.651530327239735,0.651530327239745));
#1070=DIRECTION('ref_axis',(8.32667268468867E-16,-0.707106781186552,-0.707106781186543));
#1071=DIRECTION('center_axis',(0.,1.,0.));
#1072=DIRECTION('ref_axis',(0.,0.,1.));
#1073=DIRECTION('center_axis',(1.,0.,0.));
#1074=DIRECTION('ref_axis',(0.,0.,1.));
#1075=DIRECTION('center_axis',(1.,0.,0.));
#1076=DIRECTION('ref_axis',(0.,1.,0.));
#1077=DIRECTION('center_axis',(0.,0.,1.));
#1078=DIRECTION('ref_axis',(-1.,0.,0.));
#1079=DIRECTION('center_axis',(0.,1.,0.));
#1080=DIRECTION('ref_axis',(0.,0.,-1.));
#1081=DIRECTION('center_axis',(0.,-0.707106781186544,0.707106781186551));
#1082=DIRECTION('ref_axis',(0.,0.707106781186551,0.707106781186544));
#1083=DIRECTION('center_axis',(1.,0.,0.));
#1084=DIRECTION('ref_axis',(0.,-0.923879532511286,0.382683432365091));
#1085=DIRECTION('center_axis',(1.,1.73472347597681E-15,3.17181545741001E-15));
#1086=DIRECTION('ref_axis',(3.17181545741001E-15,-5.16308340774849E-31,
-1.));
#1087=DIRECTION('center_axis',(-1.,-5.42101086242752E-17,0.));
#1088=DIRECTION('ref_axis',(5.42101086242752E-17,-1.,0.));
#1089=DIRECTION('center_axis',(1.,0.,0.));
#1090=DIRECTION('ref_axis',(0.,0.,-1.));
#1091=DIRECTION('center_axis',(0.,0.,1.));
#1092=DIRECTION('ref_axis',(1.,0.,0.));
#1093=DIRECTION('center_axis',(0.,0.,1.));
#1094=DIRECTION('ref_axis',(1.,0.,0.));
#1095=DIRECTION('center_axis',(0.,0.707106781186546,-0.707106781186549));
#1096=DIRECTION('ref_axis',(0.,0.707106781186549,0.707106781186546));
#1097=DIRECTION('center_axis',(-4.90653893338677E-15,-0.707106781186544,
0.707106781186551));
#1098=DIRECTION('ref_axis',(0.,-0.707106781186551,-0.707106781186544));
#1099=DIRECTION('center_axis',(1.,0.,0.));
#1100=DIRECTION('ref_axis',(0.,0.,-1.));
#1101=DIRECTION('center_axis',(1.,0.,0.));
#1102=DIRECTION('ref_axis',(0.,0.,-1.));
#1103=DIRECTION('center_axis',(1.,0.,0.));
#1104=DIRECTION('ref_axis',(0.,0.,1.));
#1105=DIRECTION('center_axis',(-3.46944695195361E-15,-1.,0.));
#1106=DIRECTION('ref_axis',(-1.,3.46944695195361E-15,0.));
#1107=DIRECTION('center_axis',(0.,1.,0.));
#1108=DIRECTION('ref_axis',(0.,0.,-1.));
#1109=DIRECTION('center_axis',(0.,0.,1.));
#1110=DIRECTION('ref_axis',(-1.,0.,0.));
#1111=DIRECTION('center_axis',(0.,1.,0.));
#1112=DIRECTION('ref_axis',(0.,0.,1.));
#1113=DIRECTION('center_axis',(0.,-1.,0.));
#1114=DIRECTION('ref_axis',(0.,0.,-1.));
#1115=DIRECTION('center_axis',(0.,0.,1.));
#1116=DIRECTION('ref_axis',(1.,0.,0.));
#1117=DIRECTION('center_axis',(-1.,0.,0.));
#1118=DIRECTION('ref_axis',(0.,0.,1.));
#1119=DIRECTION('center_axis',(0.,0.,1.));
#1120=DIRECTION('ref_axis',(1.,0.,0.));
#1121=DIRECTION('center_axis',(0.,0.,-1.));
#1122=DIRECTION('ref_axis',(-1.,0.,0.));
#1123=DIRECTION('center_axis',(0.,1.,0.));
#1124=DIRECTION('ref_axis',(0.177013875706618,0.,-0.984208355891842));
#1125=DIRECTION('center_axis',(-0.99269028761964,0.,0.120689655172414));
#1126=DIRECTION('ref_axis',(0.120689655172414,0.,0.99269028761964));
#1127=DIRECTION('center_axis',(0.,1.,0.));
#1128=DIRECTION('ref_axis',(-0.99269028761964,0.,0.12068965517242));
#1129=DIRECTION('center_axis',(0.,1.,0.));
#1130=DIRECTION('ref_axis',(0.,0.,1.));
#1131=DIRECTION('center_axis',(0.,1.,0.));
#1132=DIRECTION('ref_axis',(0.177013875706618,0.,-0.984208355891842));
#1133=DIRECTION('center_axis',(0.,-1.,0.));
#1134=DIRECTION('ref_axis',(-0.663064983552738,0.,0.748561839520428));
#1135=DIRECTION('center_axis',(0.,0.,1.));
#1136=DIRECTION('ref_axis',(1.,0.,0.));
#1137=DIRECTION('center_axis',(0.,0.,-1.));
#1138=DIRECTION('ref_axis',(-1.,0.,0.));
#1139=CARTESIAN_POINT('',(0.,0.,0.));
#1140=CARTESIAN_POINT('Origin',(-3.5,-24.5,-28.7880183409696));
#1141=CARTESIAN_POINT('',(-4.,-24.5,-28.7880183409696));
#1142=CARTESIAN_POINT('',(-3.43965517241379,-24.5,-28.2916731971597));
#1143=CARTESIAN_POINT('Origin',(-3.5,-24.5,-28.7880183409696));
#1144=CARTESIAN_POINT('',(-3.5,-24.,-28.7880183409696));
#1145=CARTESIAN_POINT('Origin',(-3.5,-24.5,-28.7880183409696));
#1146=CARTESIAN_POINT('Origin',(-3.5,-24.5,-28.7880183409696));
#1147=CARTESIAN_POINT('Origin',(14.,-24.5,-27.0970478096785));
#1148=CARTESIAN_POINT('',(16.,-24.5,-27.0970478096785));
#1149=CARTESIAN_POINT('',(13.0819672131148,-24.5,-25.3201922156012));
#1150=CARTESIAN_POINT('Origin',(14.,-24.5,-27.0970478096785));
#1151=CARTESIAN_POINT('',(15.5,-24.,-27.0970478096785));
#1152=CARTESIAN_POINT('Origin',(15.5,-24.5,-27.0970478096785));
#1153=CARTESIAN_POINT('',(13.3114754098361,-24.,-25.7644061141205));
#1154=CARTESIAN_POINT('Origin',(14.,-24.,-27.0970478096785));
#1155=CARTESIAN_POINT('Origin',(13.3114754098361,-24.5,-25.7644061141205));
#1156=CARTESIAN_POINT('Origin',(14.,-26.5,-27.0970478096785));
#1157=CARTESIAN_POINT('',(15.5,-27.,-27.0970478096785));
#1158=CARTESIAN_POINT('',(13.3114754098361,-27.,-25.7644061141205));
#1159=CARTESIAN_POINT('Origin',(14.,-27.,-27.0970478096785));
#1160=CARTESIAN_POINT('',(16.,-26.5,-27.0970478096785));
#1161=CARTESIAN_POINT('Origin',(15.5,-26.5,-27.0970478096785));
#1162=CARTESIAN_POINT('',(13.0819672131148,-26.5,-25.3201922156012));
#1163=CARTESIAN_POINT('Origin',(14.,-26.5,-27.0970478096785));
#1164=CARTESIAN_POINT('Origin',(13.3114754098361,-26.5,-25.7644061141205));
#1165=CARTESIAN_POINT('Origin',(0.,-24.,0.));
#1166=CARTESIAN_POINT('Origin',(0.,-24.5,0.));
#1167=CARTESIAN_POINT('',(-3.43965517241379,-26.5,-28.2916731971597));
#1168=CARTESIAN_POINT('',(-3.43965517241379,-24.,-28.2916731971597));
#1169=CARTESIAN_POINT('Origin',(0.,-26.5,0.));
#1170=CARTESIAN_POINT('',(13.0819672131148,-24.,-25.3201922156012));
#1171=CARTESIAN_POINT('Origin',(-12.,-13.5,-36.));
#1172=CARTESIAN_POINT('',(-13.625,-13.5,-36.));
#1173=CARTESIAN_POINT('Origin',(-12.,-13.5,-36.));
#1174=CARTESIAN_POINT('',(-13.625,-13.5,-33.));
#1175=CARTESIAN_POINT('',(-13.625,-13.5,-36.));
#1176=CARTESIAN_POINT('Origin',(-12.,-13.5,-33.));
#1177=CARTESIAN_POINT('Origin',(12.,-13.5,-36.));
#1178=CARTESIAN_POINT('',(10.375,-13.5,-36.));
#1179=CARTESIAN_POINT('Origin',(12.,-13.5,-36.));
#1180=CARTESIAN_POINT('',(10.375,-13.5,-33.));
#1181=CARTESIAN_POINT('',(10.375,-13.5,-36.));
#1182=CARTESIAN_POINT('Origin',(12.,-13.5,-33.));
#1183=CARTESIAN_POINT('Origin',(0.,0.,-36.));
#1184=CARTESIAN_POINT('',(-15.5,-22.7928932188135,-36.));
#1185=CARTESIAN_POINT('',(-15.5,-10.5,-36.));
#1186=CARTESIAN_POINT('',(-15.5,0.,-36.));
#1187=CARTESIAN_POINT('',(15.5,-10.5,-36.));
#1188=CARTESIAN_POINT('',(5.6920614055489E-16,-10.5,-36.));
#1189=CARTESIAN_POINT('',(15.5,-22.7928932188135,-36.));
#1190=CARTESIAN_POINT('',(15.5,0.,-36.));
#1191=CARTESIAN_POINT('',(-16.,-22.7928932188135,-36.));
#1192=CARTESIAN_POINT('Origin',(0.,0.,-33.));
#1193=CARTESIAN_POINT('',(-7.,-21.,-33.));
#1194=CARTESIAN_POINT('',(15.5,-21.,-33.));
#1195=CARTESIAN_POINT('',(16.,-21.,-33.));
#1196=CARTESIAN_POINT('',(15.5,-10.5,-33.));
#1197=CARTESIAN_POINT('',(15.5,-10.,-33.));
#1198=CARTESIAN_POINT('',(-15.5,-10.5,-33.));
#1199=CARTESIAN_POINT('',(-16.,-10.5,-33.));
#1200=CARTESIAN_POINT('',(-15.5,-24.7928932188134,-33.));
#1201=CARTESIAN_POINT('',(-15.5,-26.,-33.));
#1202=CARTESIAN_POINT('',(-7.,-24.7928932188134,-33.));
#1203=CARTESIAN_POINT('',(0.,-24.7928932188134,-33.));
#1204=CARTESIAN_POINT('',(-7.,0.,-33.));
#1205=CARTESIAN_POINT('Origin',(-16.,-27.,-36.));
#1206=CARTESIAN_POINT('',(-16.,-24.7928932188134,-33.5));
#1207=CARTESIAN_POINT('',(-16.,-10.5,-33.5));
#1208=CARTESIAN_POINT('',(-16.,-10.,-33.5));
#1209=CARTESIAN_POINT('',(-16.,-10.5,-35.5));
#1210=CARTESIAN_POINT('',(-16.,-10.5,-36.));
#1211=CARTESIAN_POINT('',(-16.,-22.7928932188135,-35.5));
#1212=CARTESIAN_POINT('',(-16.,-27.,-35.5));
#1213=CARTESIAN_POINT('',(-16.,-25.6464466094067,-32.6464466094067));
#1214=CARTESIAN_POINT('Origin',(16.,-10.,-36.));
#1215=CARTESIAN_POINT('',(15.5,-10.,-35.5));
#1216=CARTESIAN_POINT('',(-15.5,-10.,-35.5));
#1217=CARTESIAN_POINT('',(16.,-10.,-35.5));
#1218=CARTESIAN_POINT('',(-15.5,-10.,-33.5));
#1219=CARTESIAN_POINT('',(-15.5,-10.,-36.));
#1220=CARTESIAN_POINT('',(15.5,-10.,-33.5));
#1221=CARTESIAN_POINT('',(16.,-10.,-33.5));
#1222=CARTESIAN_POINT('',(15.5,-10.,-36.));
#1223=CARTESIAN_POINT('Origin',(16.,-27.,-36.));
#1224=CARTESIAN_POINT('',(16.,-21.,-33.5));
#1225=CARTESIAN_POINT('',(16.,-24.5,-30.));
#1226=CARTESIAN_POINT('Origin',(16.,-21.,-30.));
#1227=CARTESIAN_POINT('',(16.,-24.5,-27.0970478096785));
#1228=CARTESIAN_POINT('',(16.,-27.,-27.0970478096785));
#1229=CARTESIAN_POINT('',(16.,-26.5,-31.7928932188134));
#1230=CARTESIAN_POINT('',(16.,-26.5,-36.));
#1231=CARTESIAN_POINT('',(16.,-22.7928932188135,-35.5));
#1232=CARTESIAN_POINT('',(16.,-22.6464466094067,-35.6464466094067));
#1233=CARTESIAN_POINT('',(16.,-10.5,-35.5));
#1234=CARTESIAN_POINT('',(16.,-27.,-35.5));
#1235=CARTESIAN_POINT('',(16.,-10.5,-33.5));
#1236=CARTESIAN_POINT('',(16.,-10.5,-36.));
#1237=CARTESIAN_POINT('',(16.,-21.,-33.5));
#1238=CARTESIAN_POINT('Origin',(16.,-27.,-36.));
#1239=CARTESIAN_POINT('',(-3.5,-27.,-28.7880183409696));
#1240=CARTESIAN_POINT('Origin',(0.,-27.,0.));
#1241=CARTESIAN_POINT('',(-3.5,-27.,-30.));
#1242=CARTESIAN_POINT('',(-3.5,-27.,-36.));
#1243=CARTESIAN_POINT('',(-3.99408351647409,-27.,-31.7928932188134));
#1244=CARTESIAN_POINT('Origin',(-7.,-27.,-30.));
#1245=CARTESIAN_POINT('',(15.5,-27.,-31.7928932188134));
#1246=CARTESIAN_POINT('',(16.,-27.,-31.7928932188134));
#1247=CARTESIAN_POINT('',(15.5,-27.,-36.));
#1248=CARTESIAN_POINT('Origin',(-4.,-24.,-36.));
#1249=CARTESIAN_POINT('',(15.5,-24.,-30.));
#1250=CARTESIAN_POINT('',(-3.5,-24.,-30.));
#1251=CARTESIAN_POINT('',(-4.,-24.,-30.));
#1252=CARTESIAN_POINT('',(-3.5,-24.,-28.2179021190449));
#1253=CARTESIAN_POINT('Origin',(0.,-24.,0.));
#1254=CARTESIAN_POINT('',(15.5,-24.,-30.));
#1255=CARTESIAN_POINT('Origin',(-4.,0.,0.));
#1256=CARTESIAN_POINT('',(-4.,-26.5,-28.7880183409696));
#1257=CARTESIAN_POINT('',(-4.,0.,-28.7880183409696));
#1258=CARTESIAN_POINT('',(-4.,-24.5,-30.));
#1259=CARTESIAN_POINT('',(-4.,-24.5,-30.));
#1260=CARTESIAN_POINT('',(-4.,-26.5,-30.));
#1261=CARTESIAN_POINT('',(-4.,0.,-30.));
#1262=CARTESIAN_POINT('',(-4.,-26.5,0.));
#1263=CARTESIAN_POINT('Origin',(-4.,-21.,-30.));
#1264=CARTESIAN_POINT('Origin',(15.5,-21.,-30.));
#1265=CARTESIAN_POINT('Ctrl Pts',(-7.,-21.,-33.));
#1266=CARTESIAN_POINT('Ctrl Pts',(-6.54176847068298,-21.3927698822764,-33.));
#1267=CARTESIAN_POINT('Ctrl Pts',(-6.08388240163545,-21.7852436557409,-32.9219180289019));
#1268=CARTESIAN_POINT('Ctrl Pts',(-5.66060798672218,-22.1480502970953,-32.7716385975339));
#1269=CARTESIAN_POINT('Ctrl Pts',(-5.23733357180891,-22.5108569384496,-32.6213591661658));
#1270=CARTESIAN_POINT('Ctrl Pts',(-4.84908647714938,-22.8436401624433,-32.399000524676));
#1271=CARTESIAN_POINT('Ctrl Pts',(-4.52512626584709,-23.1213203435597,-32.1213203435596));
#1272=CARTESIAN_POINT('Ctrl Pts',(-4.36314616019594,-23.2601604341178,-31.9824802530015));
#1273=CARTESIAN_POINT('Ctrl Pts',(-4.21712330914141,-23.3853228778789,-31.8299693739671));
#1274=CARTESIAN_POINT('Ctrl Pts',(-4.08985635694109,-23.4944088369076,-31.6667106990588));
#1275=CARTESIAN_POINT('Ctrl Pts',(-3.96258940474077,-23.6034947959363,-31.5034520241505));
#1276=CARTESIAN_POINT('Ctrl Pts',(-3.85408463744492,-23.6964988821898,-31.3294536169518));
#1277=CARTESIAN_POINT('Ctrl Pts',(-3.7664216362105,-23.7716385975339,-31.1480502970953));
#1278=CARTESIAN_POINT('Ctrl Pts',(-3.59109563374165,-23.921918028222,-30.7852436573822));
#1279=CARTESIAN_POINT('Ctrl Pts',(-3.50000000000229,-24.,-30.392769881041));
#1280=CARTESIAN_POINT('Ctrl Pts',(-3.5,-24.,-30.));
#1281=CARTESIAN_POINT('Origin',(-7.,0.,-30.));
#1282=CARTESIAN_POINT('',(-4.42350015697779,-26.5,-31.5367656161258));
#1283=CARTESIAN_POINT('Ctrl Pts',(-7.,-24.7928932188134,-33.));
#1284=CARTESIAN_POINT('Ctrl Pts',(-6.92613464878397,-24.7928932188134,-33.));
#1285=CARTESIAN_POINT('Ctrl Pts',(-6.85150511367281,-24.7964858142726,-32.9972680499535));
#1286=CARTESIAN_POINT('Ctrl Pts',(-6.77643829870983,-24.8035989917791,-32.9916584306562));
#1287=CARTESIAN_POINT('Ctrl Pts',(-6.70154851229965,-24.8106953944228,-32.9860620404107));
#1288=CARTESIAN_POINT('Ctrl Pts',(-6.62622397584277,-24.8212957936583,-32.9776013106942));
#1289=CARTESIAN_POINT('Ctrl Pts',(-6.55080750393279,-24.8353286843567,-32.9661803892341));
#1290=CARTESIAN_POINT('Ctrl Pts',(-6.47591448064203,-24.8492641759448,-32.9548387377984));
#1291=CARTESIAN_POINT('Ctrl Pts',(-6.4009313043728,-24.8665846760649,-32.9405777441373));
#1292=CARTESIAN_POINT('Ctrl Pts',(-6.32620434293156,-24.8872201581801,-32.9233541373764));
#1293=CARTESIAN_POINT('Ctrl Pts',(-6.25165495580002,-24.9078066040249,-32.9061714592177));
#1294=CARTESIAN_POINT('Ctrl Pts',(-6.1773610883606,-24.9316922957446,-32.8860401831317));
#1295=CARTESIAN_POINT('Ctrl Pts',(-6.10366956775988,-24.958807704831,-32.8629690456308));
#1296=CARTESIAN_POINT('Ctrl Pts',(-6.03010502955031,-24.9858763896885,-32.8399376634259));
#1297=CARTESIAN_POINT('Ctrl Pts',(-5.95714129043284,-25.0161636708534,-32.813976580329));
#1298=CARTESIAN_POINT('Ctrl Pts',(-5.88511844971461,-25.0496003786252,-32.7851461593305));
#1299=CARTESIAN_POINT('Ctrl Pts',(-5.81179787731289,-25.0836395602044,-32.7557962621435));
#1300=CARTESIAN_POINT('Ctrl Pts',(-5.73945301027737,-25.1209426857329,-32.7234726573575));
#1301=CARTESIAN_POINT('Ctrl Pts',(-5.66842898456712,-25.1614367787669,-32.6882928841291));
#1302=CARTESIAN_POINT('Ctrl Pts',(-5.59876286404003,-25.2011566670404,-32.6537857114177));
#1303=CARTESIAN_POINT('Ctrl Pts',(-5.53036800180616,-25.2439466732969,-32.6165309056668));
#1304=CARTESIAN_POINT('Ctrl Pts',(-5.46354948490376,-25.2897379272766,-32.5766877604127));
#1305=CARTESIAN_POINT('Ctrl Pts',(-5.39477736681588,-25.3368679994791,-32.5356797043013));
#1306=CARTESIAN_POINT('Ctrl Pts',(-5.32767576169598,-25.3871773824452,-32.49192982738));
#1307=CARTESIAN_POINT('Ctrl Pts',(-5.26254674365754,-25.4405909868107,-32.4456606841557));
#1308=CARTESIAN_POINT('Ctrl Pts',(-5.19741772561911,-25.4940045911762,-32.3993915409314));
#1309=CARTESIAN_POINT('Ctrl Pts',(-5.13426174831469,-25.5505224169412,-32.350603544462));
#1310=CARTESIAN_POINT('Ctrl Pts',(-5.07334262188073,-25.6100693747413,-32.299563294919));
#1311=CARTESIAN_POINT('Ctrl Pts',(-5.01291712579331,-25.6691338209374,-32.2489366267509));
#1312=CARTESIAN_POINT('Ctrl Pts',(-4.95471679924341,-25.7307927235902,-32.1961152450819));
#1313=CARTESIAN_POINT('Ctrl Pts',(-4.8989421538474,-25.794664445534,-32.1413911196044));
#1314=CARTESIAN_POINT('Ctrl Pts',(-4.84295292996482,-25.858781897367,-32.0864564572433));
#1315=CARTESIAN_POINT('Ctrl Pts',(-4.78940834320819,-25.9251292277405,-32.029604844819));
#1316=CARTESIAN_POINT('Ctrl Pts',(-4.73846537996163,-25.9933203777711,-31.9711573154794));
#1317=CARTESIAN_POINT('Ctrl Pts',(-4.68739439022519,-26.0616829012951,-31.9125628996702));
#1318=CARTESIAN_POINT('Ctrl Pts',(-4.63893827680084,-26.1318985236529,-31.8523650354635));
#1319=CARTESIAN_POINT('Ctrl Pts',(-4.59320610036628,-26.2035782679869,-31.7909056716326));
#1320=CARTESIAN_POINT('Ctrl Pts',(-4.54724263475627,-26.2756205305796,-31.7291354788255));
#1321=CARTESIAN_POINT('Ctrl Pts',(-4.50403081939443,-26.3491417621078,-31.6660915075592));
#1322=CARTESIAN_POINT('Ctrl Pts',(-4.46362989988486,-26.423747054098,-31.6021319281638));
#1323=CARTESIAN_POINT('Ctrl Pts',(-4.4499302313078,-26.4490451855952,-31.5804436831763));
#1324=CARTESIAN_POINT('Ctrl Pts',(-4.43655333094546,-26.4744679667608,-31.5586502160451));
#1325=CARTESIAN_POINT('Ctrl Pts',(-4.42350015697779,-26.5,-31.5367656161258));
#1326=CARTESIAN_POINT('Origin',(-7.,-26.5,-30.));
#1327=CARTESIAN_POINT('Ctrl Pts',(-4.,-24.5,-30.));
#1328=CARTESIAN_POINT('Ctrl Pts',(-4.,-24.4999999999968,-30.3927698810411));
#1329=CARTESIAN_POINT('Ctrl Pts',(-4.07808197177796,-24.408904366258,-30.7852436573821));
#1330=CARTESIAN_POINT('Ctrl Pts',(-4.30350111781023,-24.1459153625553,-31.3294536169518));
#1331=CARTESIAN_POINT('Ctrl Pts',(-4.39650520406362,-24.0374105952592,-31.5034520241505));
#1332=CARTESIAN_POINT('Ctrl Pts',(-4.6146771221211,-23.7828766908586,-31.8299693739671));
#1333=CARTESIAN_POINT('Ctrl Pts',(-4.73983956588214,-23.6368538398041,-31.9824802530014));
#1334=CARTESIAN_POINT('Ctrl Pts',(-5.1563598375568,-23.1509135228506,-32.3990005246761));
#1335=CARTESIAN_POINT('Ctrl Pts',(-5.4891430615506,-22.7626664281919,-32.6213591661659));
#1336=CARTESIAN_POINT('Ctrl Pts',(-6.21475634425886,-21.9161175983637,-32.9219180289018));
#1337=CARTESIAN_POINT('Ctrl Pts',(-6.60723011772714,-21.4582315293205,-33.));
#1338=CARTESIAN_POINT('Ctrl Pts',(-7.00000000000001,-21.,-33.));
#1339=CARTESIAN_POINT('Origin',(14.,-24.,-27.0970478096785));
#1340=CARTESIAN_POINT('Origin',(0.,-23.,-36.));
#1341=CARTESIAN_POINT('',(-7.,-25.1464466094067,-33.8535533905933));
#1342=CARTESIAN_POINT('',(-15.5,-25.1464466094067,-33.8535533905933));
#1343=CARTESIAN_POINT('',(0.,-25.1464466094067,-33.8535533905933));
#1344=CARTESIAN_POINT('',(-15.5,-23.1464466094067,-35.8535533905933));
#1345=CARTESIAN_POINT('',(-15.5,-23.,-36.));
#1346=CARTESIAN_POINT('',(15.5,-23.1464466094067,-35.8535533905933));
#1347=CARTESIAN_POINT('',(16.,-23.1464466094067,-35.8535533905933));
#1348=CARTESIAN_POINT('',(15.5,-26.8535533905933,-32.1464466094067));
#1349=CARTESIAN_POINT('',(15.5,-27.,-32.));
#1350=CARTESIAN_POINT('',(-3.99408351647409,-26.8535533905933,-32.1464466094067));
#1351=CARTESIAN_POINT('',(-4.12771867673098,-26.8535533905933,-32.1464466094067));
#1352=CARTESIAN_POINT('Ctrl Pts',(-3.99408351647409,-26.8535533905933,-32.1464466094067));
#1353=CARTESIAN_POINT('Ctrl Pts',(-4.03954343140847,-26.777336521565,-32.222663478435));
#1354=CARTESIAN_POINT('Ctrl Pts',(-4.08840110824355,-26.7020543642495,-32.2979456357505));
#1355=CARTESIAN_POINT('Ctrl Pts',(-4.14058360714921,-26.6281435548135,-32.3718564451865));
#1356=CARTESIAN_POINT('Ctrl Pts',(-4.19318478281315,-26.5536397354845,-32.4463602645155));
#1357=CARTESIAN_POINT('Ctrl Pts',(-4.24916421479105,-26.48052983556,-32.51947016444));
#1358=CARTESIAN_POINT('Ctrl Pts',(-4.3083941163734,-26.4092592548583,-32.5907407451417));
#1359=CARTESIAN_POINT('Ctrl Pts',(-4.36786643021656,-26.3376969825931,-32.6623030174069));
#1360=CARTESIAN_POINT('Ctrl Pts',(-4.43061564508794,-26.2679896403717,-32.7320103596283));
#1361=CARTESIAN_POINT('Ctrl Pts',(-4.49646188414849,-26.2005787097918,-32.7994212902082));
#1362=CARTESIAN_POINT('Ctrl Pts',(-4.51462145788661,-26.1819876135942,-32.8180123864058));
#1363=CARTESIAN_POINT('Ctrl Pts',(-4.53301630452061,-26.1635710987473,-32.8364289012527));
#1364=CARTESIAN_POINT('Ctrl Pts',(-4.55164201805602,-26.1453382166634,-32.8546617833366));
#1365=CARTESIAN_POINT('Ctrl Pts',(-4.61725441606172,-26.0811096375109,-32.9188903624891));
#1366=CARTESIAN_POINT('Ctrl Pts',(-4.68573041570503,-26.0191669198516,-32.9808330801484));
#1367=CARTESIAN_POINT('Ctrl Pts',(-4.75679841198117,-25.9598423947516,-33.0401576052484));
#1368=CARTESIAN_POINT('Ctrl Pts',(-4.82748578150624,-25.9008356005914,-33.0991643994086));
#1369=CARTESIAN_POINT('Ctrl Pts',(-4.90073701310038,-25.8444193762082,-33.1555806237918));
#1370=CARTESIAN_POINT('Ctrl Pts',(-4.97624849505022,-25.7908950926489,-33.2091049073511));
#1371=CARTESIAN_POINT('Ctrl Pts',(-5.05072442698772,-25.7381048308711,-33.2618951691289));
#1372=CARTESIAN_POINT('Ctrl Pts',(-5.12739856021805,-25.6881280103966,-33.3118719896034));
#1373=CARTESIAN_POINT('Ctrl Pts',(-5.20595108609823,-25.6412241999899,-33.3587758000101));
#1374=CARTESIAN_POINT('Ctrl Pts',(-5.22768598086007,-25.6282462674321,-33.3717537325679));
#1375=CARTESIAN_POINT('Ctrl Pts',(-5.24956453649347,-25.6155034109726,-33.3844965890274));
#1376=CARTESIAN_POINT('Ctrl Pts',(-5.27157966134493,-25.6030006787348,-33.3969993212652));
#1377=CARTESIAN_POINT('Ctrl Pts',(-5.34982312363966,-25.5585649980368,-33.4414350019632));
#1378=CARTESIAN_POINT('Ctrl Pts',(-5.4297894264894,-25.5171670582359,-33.4828329417641));
#1379=CARTESIAN_POINT('Ctrl Pts',(-5.51111502256998,-25.4789518857026,-33.5210481142974));
#1380=CARTESIAN_POINT('Ctrl Pts',(-5.59185511979238,-25.4410118410622,-33.5589881589378));
#1381=CARTESIAN_POINT('Ctrl Pts',(-5.67393454748095,-25.4062090217431,-33.5937909782569));
#1382=CARTESIAN_POINT('Ctrl Pts',(-5.75698573104464,-25.3746501866338,-33.6253498133662));
#1383=CARTESIAN_POINT('Ctrl Pts',(-5.83901765473399,-25.3434786627334,-33.6565213372666));
#1384=CARTESIAN_POINT('Ctrl Pts',(-5.92199719907965,-25.3154720492916,-33.6845279507084));
#1385=CARTESIAN_POINT('Ctrl Pts',(-6.0055651908776,-25.2906974860679,-33.7093025139321));
#1386=CARTESIAN_POINT('Ctrl Pts',(-6.03900658512861,-25.2807834517788,-33.7192165482212));
#1387=CARTESIAN_POINT('Ctrl Pts',(-6.07254218999012,-25.2713865758021,-33.7286134241979));
#1388=CARTESIAN_POINT('Ctrl Pts',(-6.10614899377798,-25.2625094973026,-33.7374905026974));
#1389=CARTESIAN_POINT('Ctrl Pts',(-6.19103341071381,-25.2400876794682,-33.7599123205318));
#1390=CARTESIAN_POINT('Ctrl Pts',(-6.2763669651046,-25.2209854926083,-33.7790145073918));
#1391=CARTESIAN_POINT('Ctrl Pts',(-6.36176731524662,-25.2051577001872,-33.7948422998128));
#1392=CARTESIAN_POINT('Ctrl Pts',(-6.44686193192079,-25.1893865713028,-33.8106134286972));
#1393=CARTESIAN_POINT('Ctrl Pts',(-6.53202246119801,-25.1768663939361,-33.8231336060639));
#1394=CARTESIAN_POINT('Ctrl Pts',(-6.61688160002315,-25.1675167639686,-33.8324832360314));
#1395=CARTESIAN_POINT('Ctrl Pts',(-6.70128267858538,-25.1582176022715,-33.8417823977285));
#1396=CARTESIAN_POINT('Ctrl Pts',(-6.78538525547063,-25.1520547820948,-33.8479452179052));
#1397=CARTESIAN_POINT('Ctrl Pts',(-6.86884447146213,-25.1489146999961,-33.8510853000039));
#1398=CARTESIAN_POINT('Ctrl Pts',(-6.91275674130025,-25.1472625381493,-33.8527374618507));
#1399=CARTESIAN_POINT('Ctrl Pts',(-6.956491215059,-25.146446609407,-33.853553390593));
#1400=CARTESIAN_POINT('Ctrl Pts',(-6.99999999999999,-25.1464466094067,-33.8535533905933));
#1401=CARTESIAN_POINT('Origin',(-7.,-26.5,-30.));
#1402=CARTESIAN_POINT('Origin',(-3.99408351647409,-26.5,-31.7928932188134));
#1403=CARTESIAN_POINT('Origin',(-3.5,-26.5,-30.));
#1404=CARTESIAN_POINT('Origin',(-3.5,-26.5,-36.));
#1405=CARTESIAN_POINT('Origin',(-3.5,-26.5,-28.7880183409696));
#1406=CARTESIAN_POINT('Origin',(-15.5,0.,-35.5));
#1407=CARTESIAN_POINT('Origin',(-15.5,-22.7928932188135,-35.5));
#1408=CARTESIAN_POINT('Origin',(-15.5,-10.5,-35.5));
#1409=CARTESIAN_POINT('Origin',(-15.5,-24.6464466094067,-33.6464466094067));
#1410=CARTESIAN_POINT('Origin',(-15.5,-24.7928932188134,-33.5));
#1411=CARTESIAN_POINT('Origin',(-15.5,-22.7928932188135,-35.5));
#1412=CARTESIAN_POINT('Origin',(-15.5,-24.7928932188134,-33.5));
#1413=CARTESIAN_POINT('Origin',(-15.5,-24.7928932188134,-33.5));
#1414=CARTESIAN_POINT('Origin',(-15.5,-24.7928932188134,-33.5));
#1415=CARTESIAN_POINT('Origin',(-15.5,-10.5,-35.5));
#1416=CARTESIAN_POINT('Origin',(-15.5,-10.5,-35.5));
#1417=CARTESIAN_POINT('Origin',(-15.5,-10.5,-35.5));
#1418=CARTESIAN_POINT('Origin',(-15.5,-22.7928932188135,-35.5));
#1419=CARTESIAN_POINT('Origin',(-15.5,-22.7928932188135,-35.5));
#1420=CARTESIAN_POINT('Origin',(0.,-24.7928932188134,-33.5));
#1421=CARTESIAN_POINT('Origin',(-7.,-24.7928932188134,-33.5));
#1422=CARTESIAN_POINT('Origin',(-15.5,-27.,-33.5));
#1423=CARTESIAN_POINT('Origin',(-15.5,-10.5,-33.5));
#1424=CARTESIAN_POINT('Origin',(-15.5,-10.5,-36.));
#1425=CARTESIAN_POINT('Origin',(-15.5,-10.5,-33.5));
#1426=CARTESIAN_POINT('Origin',(5.6920614055489E-16,-10.5,-35.5));
#1427=CARTESIAN_POINT('Origin',(15.5,-10.5,-35.5));
#1428=CARTESIAN_POINT('Origin',(15.5,0.,-35.5));
#1429=CARTESIAN_POINT('Origin',(15.5,-22.7928932188135,-35.5));
#1430=CARTESIAN_POINT('Origin',(15.5,-10.5,-35.5));
#1431=CARTESIAN_POINT('Origin',(0.,-22.7928932188135,-35.5));
#1432=CARTESIAN_POINT('Origin',(15.5,-22.7928932188135,-35.5));
#1433=CARTESIAN_POINT('Ctrl Pts',(-4.41187269109974,-26.5154002132204,-31.5171602364865));
#1434=CARTESIAN_POINT('Ctrl Pts',(-4.66201030935181,-27.0726336385319,-31.9273663614684));
#1435=CARTESIAN_POINT('Ctrl Pts',(-3.98259076155827,-26.8729645409076,-32.1270354590924));
#1436=CARTESIAN_POINT('Ctrl Pts',(-4.5457167736232,-26.2490469197565,-31.7455066162178));
#1437=CARTESIAN_POINT('Ctrl Pts',(-4.84849555787836,-26.8433902271656,-32.1566097728298));
#1438=CARTESIAN_POINT('Ctrl Pts',(-4.13907429923576,-26.6067003908837,-32.3932996091163));
#1439=CARTESIAN_POINT('Ctrl Pts',(-4.70999087017502,-26.0035001799578,-31.9560754543911));
#1440=CARTESIAN_POINT('Ctrl Pts',(-5.05757021742064,-26.656616136239,-32.3433838637609));
#1441=CARTESIAN_POINT('Ctrl Pts',(-4.33096801072054,-26.3613580296537,-32.6386419703463));
#1442=CARTESIAN_POINT('Ctrl Pts',(-5.08350780239901,-25.5763204250207,-32.3224962728604));
#1443=CARTESIAN_POINT('Ctrl Pts',(-5.49202896091752,-26.3561821248633,-32.6438178751367));
#1444=CARTESIAN_POINT('Ctrl Pts',(-4.76694319834832,-25.9345779134228,-33.0654220865772));
#1445=CARTESIAN_POINT('Ctrl Pts',(-5.29150528494724,-25.3932944939288,-32.4795405066434));
#1446=CARTESIAN_POINT('Ctrl Pts',(-5.71584533964102,-26.2486723740512,-32.7513276259483));
#1447=CARTESIAN_POINT('Ctrl Pts',(-5.00959281513311,-25.7517870885373,-33.2482129114627));
#1448=CARTESIAN_POINT('Ctrl Pts',(-5.74091334714851,-25.0953190221878,-32.7352735799093));
#1449=CARTESIAN_POINT('Ctrl Pts',(-6.14557000521605,-26.0969462476347,-32.9030537523659));
#1450=CARTESIAN_POINT('Ctrl Pts',(-5.53356650755675,-25.4542142689323,-33.5457857310677));
#1451=CARTESIAN_POINT('Ctrl Pts',(-5.98231391148693,-24.980343702465,-32.8339833474355));
#1452=CARTESIAN_POINT('Ctrl Pts',(-6.34282231785341,-26.0593972822903,-32.9406027177086));
#1453=CARTESIAN_POINT('Ctrl Pts',(-5.81485188177138,-25.3394542536766,-33.6605457463234));
#1454=CARTESIAN_POINT('Ctrl Pts',(-6.48871038649929,-24.8242513243401,-32.9680090048129));
#1455=CARTESIAN_POINT('Ctrl Pts',(-6.70356285859537,-26.017199108696,-32.9828008913052));
#1456=CARTESIAN_POINT('Ctrl Pts',(-6.40471540639347,-25.1836445895048,-33.8163554104952));
#1457=CARTESIAN_POINT('Ctrl Pts',(-6.75414567701753,-24.7850304058656,-33.0016956537175));
#1458=CARTESIAN_POINT('Ctrl Pts',(-6.85659802372866,-26.0143756072575,-32.9856243927452));
#1459=CARTESIAN_POINT('Ctrl Pts',(-6.71374354523054,-25.1445177850049,-33.8554822149951));
#1460=CARTESIAN_POINT('Ctrl Pts',(-7.01937299112221,-24.7870362673705,-32.9999722362029));
#1461=CARTESIAN_POINT('Ctrl Pts',(-7.01129571411114,-26.0145308952038,-32.985469104796));
#1462=CARTESIAN_POINT('Ctrl Pts',(-7.02255656333008,-25.1465197117858,-33.8534802882142));
#1463=CARTESIAN_POINT('Origin',(-3.99408351647409,-26.5,-31.7928932188134));
#1464=CARTESIAN_POINT('Origin',(-15.5,-10.5,-33.5));
#1465=CARTESIAN_POINT('Origin',(-15.5,-10.5,-33.5));
#1466=CARTESIAN_POINT('Origin',(15.5,-10.5,-35.5));
#1467=CARTESIAN_POINT('Origin',(15.5,-10.5,-35.5));
#1468=CARTESIAN_POINT('Origin',(15.5,-22.7928932188135,-35.5));
#1469=CARTESIAN_POINT('Origin',(15.5,-22.7928932188135,-35.5));
#1470=CARTESIAN_POINT('Origin',(-3.99408351647409,-26.5,-31.7928932188134));
#1471=CARTESIAN_POINT('Origin',(-3.99408351647409,-26.5,-31.7928932188134));
#1472=CARTESIAN_POINT('Origin',(16.,-10.5,-33.5));
#1473=CARTESIAN_POINT('Origin',(15.5,-10.5,-33.5));
#1474=CARTESIAN_POINT('Origin',(15.5,-10.5,-36.));
#1475=CARTESIAN_POINT('Origin',(15.5,-10.5,-33.5));
#1476=CARTESIAN_POINT('Origin',(15.5,-24.6464466094067,-33.6464466094067));
#1477=CARTESIAN_POINT('Origin',(15.5,-26.5,-31.7928932188134));
#1478=CARTESIAN_POINT('Origin',(16.,-26.5,-31.7928932188134));
#1479=CARTESIAN_POINT('Origin',(15.5,-26.5,-31.7928932188134));
#1480=CARTESIAN_POINT('Origin',(15.5,-10.5,-33.5));
#1481=CARTESIAN_POINT('Origin',(15.5,-10.5,-33.5));
#1482=CARTESIAN_POINT('Origin',(15.5,-26.5,-31.7928932188134));
#1483=CARTESIAN_POINT('Origin',(15.5,-26.5,-31.7928932188134));
#1484=CARTESIAN_POINT('Origin',(15.5,-27.,-33.5));
#1485=CARTESIAN_POINT('Origin',(15.5,-21.,-33.5));
#1486=CARTESIAN_POINT('Origin',(15.5,-26.5,-36.));
#1487=CARTESIAN_POINT('Origin',(15.5,-21.,-30.));
#1488=CARTESIAN_POINT('Origin',(15.5,-24.5,-30.));
#1489=CARTESIAN_POINT('Origin',(15.5,-24.5,-36.));
#1490=CARTESIAN_POINT('Origin',(0.,-26.5,0.));
#1491=CARTESIAN_POINT('Origin',(-3.5,-26.5,-28.7880183409696));
#1492=CARTESIAN_POINT('Origin',(-3.5,-26.5,-28.7880183409696));
#1493=CARTESIAN_POINT('Origin',(-3.5,-26.5,-28.7880183409696));
#1494=CARTESIAN_POINT('Origin',(0.,-24.5,0.));
#1495=CARTESIAN_POINT('Origin',(-3.5,-24.,-28.7880183409696));
#1496=CARTESIAN_POINT('Ctrl Pts',(-3.5,-24.,-30.));
#1497=CARTESIAN_POINT('Ctrl Pts',(-4.,-24.,-30.));
#1498=CARTESIAN_POINT('Ctrl Pts',(-4.,-24.5,-30.));
#1499=CARTESIAN_POINT('Ctrl Pts',(-3.50000000000229,-24.,-30.392769881041));
#1500=CARTESIAN_POINT('Ctrl Pts',(-3.99999999998541,-24.0000000000142,-30.3247618935192));
#1501=CARTESIAN_POINT('Ctrl Pts',(-4.,-24.4999999999968,-30.3927698810411));
#1502=CARTESIAN_POINT('Ctrl Pts',(-3.59109563374165,-23.921918028222,-30.7852436573822));
#1503=CARTESIAN_POINT('Ctrl Pts',(-4.04331800106404,-23.9566819989353,-30.6463536417912));
#1504=CARTESIAN_POINT('Ctrl Pts',(-4.07808197177796,-24.408904366258,-30.7852436573821));
#1505=CARTESIAN_POINT('Ctrl Pts',(-3.85408463744492,-23.6964988821898,-31.3294536169518));
#1506=CARTESIAN_POINT('Ctrl Pts',(-4.22863074072998,-23.7713692592703,-31.1745505927287));
#1507=CARTESIAN_POINT('Ctrl Pts',(-4.30350111781023,-24.1459153625553,-31.3294536169518));
#1508=CARTESIAN_POINT('Ctrl Pts',(-3.96258940474077,-23.6034947959363,-31.5034520241505));
#1509=CARTESIAN_POINT('Ctrl Pts',(-4.30650706734749,-23.6934929326529,-31.3474764582036));
#1510=CARTESIAN_POINT('Ctrl Pts',(-4.39650520406362,-24.0374105952592,-31.5034520241505));
#1511=CARTESIAN_POINT('Ctrl Pts',(-4.21712330914141,-23.3853228778789,-31.8299693739671));
#1512=CARTESIAN_POINT('Ctrl Pts',(-4.50400326951275,-23.4959967304869,-31.6846568521946));
#1513=CARTESIAN_POINT('Ctrl Pts',(-4.6146771221211,-23.7828766908586,-31.8299693739671));
#1514=CARTESIAN_POINT('Ctrl Pts',(-4.36314616019594,-23.2601604341178,-31.9824802530015));
#1515=CARTESIAN_POINT('Ctrl Pts',(-4.62152031493293,-23.3784796850671,-31.8483902624761));
#1516=CARTESIAN_POINT('Ctrl Pts',(-4.73983956588214,-23.6368538398041,-31.9824802530014));
#1517=CARTESIAN_POINT('Ctrl Pts',(-4.84908647714938,-22.8436401624433,-32.399000524676));
#1518=CARTESIAN_POINT('Ctrl Pts',(-5.02197195059947,-22.9780280494005,-32.2941760417623));
#1519=CARTESIAN_POINT('Ctrl Pts',(-5.1563598375568,-23.1509135228506,-32.3990005246761));
#1520=CARTESIAN_POINT('Ctrl Pts',(-5.23733357180891,-22.5108569384496,-32.6213591661658));
#1521=CARTESIAN_POINT('Ctrl Pts',(-5.36846913566185,-22.6315308643387,-32.5575156275872));
#1522=CARTESIAN_POINT('Ctrl Pts',(-5.4891430615506,-22.7626664281919,-32.6213591661659));
#1523=CARTESIAN_POINT('Ctrl Pts',(-6.08388240163545,-21.7852436557409,-32.9219180289019));
#1524=CARTESIAN_POINT('Ctrl Pts',(-6.1399437989371,-21.8600562010624,-32.90411321969));
#1525=CARTESIAN_POINT('Ctrl Pts',(-6.21475634425886,-21.9161175983637,-32.9219180289018));
#1526=CARTESIAN_POINT('Ctrl Pts',(-6.54176847068299,-21.3927698822764,-33.));
#1527=CARTESIAN_POINT('Ctrl Pts',(-6.57455831583473,-21.4254416841698,-33.));
#1528=CARTESIAN_POINT('Ctrl Pts',(-6.60723011772714,-21.4582315293205,-33.));
#1529=CARTESIAN_POINT('Ctrl Pts',(-7.00000000000001,-21.,-33.));
#1530=CARTESIAN_POINT('Ctrl Pts',(-7.00000000000001,-21.,-33.));
#1531=CARTESIAN_POINT('Ctrl Pts',(-7.00000000000001,-21.,-33.));
#1532=CARTESIAN_POINT('Origin',(-3.5,-24.5,-30.));
#1533=CARTESIAN_POINT('Origin',(-3.5,-24.5,-36.));
#1534=UNCERTAINTY_MEASURE_WITH_UNIT(LENGTH_MEASURE(0.01),#1538,
'DISTANCE_ACCURACY_VALUE',
'Maximum model space distance between geometric entities at asserted c
onnectivities');
#1535=UNCERTAINTY_MEASURE_WITH_UNIT(LENGTH_MEASURE(0.01),#1538,
'DISTANCE_ACCURACY_VALUE',
'Maximum model space distance between geometric entities at asserted c
onnectivities');
#1536=(
GEOMETRIC_REPRESENTATION_CONTEXT(3)
GLOBAL_UNCERTAINTY_ASSIGNED_CONTEXT((#1534))
GLOBAL_UNIT_ASSIGNED_CONTEXT((#1538,#1540,#1541))
REPRESENTATION_CONTEXT('','3D')
);
#1537=(
GEOMETRIC_REPRESENTATION_CONTEXT(3)
GLOBAL_UNCERTAINTY_ASSIGNED_CONTEXT((#1535))
GLOBAL_UNIT_ASSIGNED_CONTEXT((#1538,#1540,#1541))
REPRESENTATION_CONTEXT('','3D')
);
#1538=(
LENGTH_UNIT()
NAMED_UNIT(*)
SI_UNIT(.MILLI.,.METRE.)
);
#1539=(
LENGTH_UNIT()
NAMED_UNIT(*)
SI_UNIT($,.METRE.)
);
#1540=(
NAMED_UNIT(*)
PLANE_ANGLE_UNIT()
SI_UNIT($,.RADIAN.)
);
#1541=(
NAMED_UNIT(*)
SI_UNIT($,.STERADIAN.)
SOLID_ANGLE_UNIT()
);
#1542=SHAPE_DEFINITION_REPRESENTATION(#1543,#1544);
#1543=PRODUCT_DEFINITION_SHAPE('',$,#1546);
#1544=SHAPE_REPRESENTATION('',(#768),#1536);
#1545=PRODUCT_DEFINITION_CONTEXT('part definition',#1550,'design');
#1546=PRODUCT_DEFINITION('Overmolded Y Split Cable Cover and Lock',
'(Unsaved)',#1547,#1545);
#1547=PRODUCT_DEFINITION_FORMATION('',$,#1552);
#1548=PRODUCT_RELATED_PRODUCT_CATEGORY('(Unsaved)','(Unsaved)',(#1552));
#1549=APPLICATION_PROTOCOL_DEFINITION('international standard',
'automotive_design',2009,#1550);
#1550=APPLICATION_CONTEXT(
'Core Data for Automotive Mechanical Design Process');
#1551=PRODUCT_CONTEXT('part definition',#1550,'mechanical');
#1552=PRODUCT('Overmolded Y Split Cable Cover and Lock','(Unsaved)',
'STEP AP214',(#1551));
#1553=PRESENTATION_STYLE_ASSIGNMENT((#1555));
#1554=PRESENTATION_STYLE_ASSIGNMENT((#1556));
#1555=SURFACE_STYLE_USAGE(.BOTH.,#1557);
#1556=SURFACE_STYLE_USAGE(.BOTH.,#1558);
#1557=SURFACE_SIDE_STYLE('',(#1559));
#1558=SURFACE_SIDE_STYLE('',(#1560));
#1559=SURFACE_STYLE_FILL_AREA(#1561);
#1560=SURFACE_STYLE_FILL_AREA(#1562);
#1561=FILL_AREA_STYLE('Steel - Satin',(#1563));
#1562=FILL_AREA_STYLE('Opaque(202,209,238)',(#1564));
#1563=FILL_AREA_STYLE_COLOUR('Steel - Satin',#1565);
#1564=FILL_AREA_STYLE_COLOUR('Opaque(202,209,238)',#1566);
#1565=COLOUR_RGB('Steel - Satin',0.627450980392157,0.627450980392157,0.627450980392157);
#1566=COLOUR_RGB('Opaque(202,209,238)',0.792156862745098,0.819607843137255,
0.933333333333333);
ENDSEC;
END-ISO-10303-21;
