ISO-10303-21;
HEADER;
/* Generated by software containing ST-Developer
 * from STEP Tools, Inc. (www.steptools.com) 
 */

FILE_DESCRIPTION(
/* description */ (''),
/* implementation_level */ '2;1');

FILE_NAME(
/* name */ '103107049_02 - Y PCB Shim 1mm.step',
/* time_stamp */ '2025-06-26T15:36:10-05:00',
/* author */ (''),
/* organization */ (''),
/* preprocessor_version */ 'ST-DEVELOPER v20.1',
/* originating_system */ 'Autodesk Translation Framework v14.10.0.0',
/* authorisation */ '');

FILE_SCHEMA (('AUTOMOTIVE_DESIGN { 1 0 10303 214 3 1 1 }'));
ENDSEC;

DATA;
#10=MECHANICAL_DESIGN_GEOMETRIC_PRESENTATION_REPRESENTATION('',(#13),#667);
#11=SHAPE_REPRESENTATION_RELATIONSHIP('SRR','None',#674,#12);
#12=ADVANCED_BREP_SHAPE_REPRESENTATION('',(#14),#666);
#13=STYLED_ITEM('',(#684),#14);
#14=MANIFOLD_SOLID_BREP('Body1',#349);
#15=CYLINDRICAL_SURFACE('',#398,0.5);
#16=CYLINDRICAL_SURFACE('',#410,0.5);
#17=CYLINDRICAL_SURFACE('',#414,0.5);
#18=CYLINDRICAL_SURFACE('',#422,0.5);
#19=TOROIDAL_SURFACE('',#377,26.,0.5);
#20=TOROIDAL_SURFACE('',#393,2.125,0.5);
#21=TOROIDAL_SURFACE('',#395,1.5,0.5);
#22=TOROIDAL_SURFACE('',#400,3.5,0.5);
#23=TOROIDAL_SURFACE('',#402,4.5,0.5);
#24=TOROIDAL_SURFACE('',#404,23.,0.5);
#25=TOROIDAL_SURFACE('',#406,4.5,0.5);
#26=TOROIDAL_SURFACE('',#408,3.5,0.5);
#27=TOROIDAL_SURFACE('',#412,1.5,0.5);
#28=TOROIDAL_SURFACE('',#416,4.5,0.5);
#29=TOROIDAL_SURFACE('',#418,23.,0.5);
#30=TOROIDAL_SURFACE('',#420,4.5,0.5);
#31=TOROIDAL_SURFACE('',#423,2.125,0.5);
#32=LINE('',#569,#40);
#33=LINE('',#581,#41);
#34=LINE('',#585,#42);
#35=LINE('',#592,#43);
#36=LINE('',#608,#44);
#37=LINE('',#616,#45);
#38=LINE('',#620,#46);
#39=LINE('',#631,#47);
#40=VECTOR('',#435,10.);
#41=VECTOR('',#446,10.);
#42=VECTOR('',#449,10.);
#43=VECTOR('',#456,10.);
#44=VECTOR('',#473,10.);
#45=VECTOR('',#480,10.);
#46=VECTOR('',#483,10.);
#47=VECTOR('',#494,10.);
#48=FACE_BOUND('',#74,.T.);
#49=FACE_BOUND('',#75,.T.);
#50=FACE_BOUND('',#76,.T.);
#51=FACE_BOUND('',#79,.T.);
#52=FACE_BOUND('',#80,.T.);
#53=FACE_BOUND('',#81,.T.);
#54=FACE_OUTER_BOUND('',#73,.T.);
#55=FACE_OUTER_BOUND('',#77,.T.);
#56=FACE_OUTER_BOUND('',#78,.T.);
#57=FACE_OUTER_BOUND('',#82,.T.);
#58=FACE_OUTER_BOUND('',#83,.T.);
#59=FACE_OUTER_BOUND('',#84,.T.);
#60=FACE_OUTER_BOUND('',#85,.T.);
#61=FACE_OUTER_BOUND('',#86,.T.);
#62=FACE_OUTER_BOUND('',#87,.T.);
#63=FACE_OUTER_BOUND('',#88,.T.);
#64=FACE_OUTER_BOUND('',#89,.T.);
#65=FACE_OUTER_BOUND('',#90,.T.);
#66=FACE_OUTER_BOUND('',#91,.T.);
#67=FACE_OUTER_BOUND('',#92,.T.);
#68=FACE_OUTER_BOUND('',#93,.T.);
#69=FACE_OUTER_BOUND('',#94,.T.);
#70=FACE_OUTER_BOUND('',#95,.T.);
#71=FACE_OUTER_BOUND('',#96,.T.);
#72=FACE_OUTER_BOUND('',#97,.T.);
#73=EDGE_LOOP('',(#226));
#74=EDGE_LOOP('',(#227));
#75=EDGE_LOOP('',(#228,#229,#230,#231,#232,#233,#234,#235,#236,#237,#238,
#239,#240,#241));
#76=EDGE_LOOP('',(#242));
#77=EDGE_LOOP('',(#243,#244,#245,#246));
#78=EDGE_LOOP('',(#247));
#79=EDGE_LOOP('',(#248));
#80=EDGE_LOOP('',(#249));
#81=EDGE_LOOP('',(#250,#251,#252,#253,#254,#255,#256,#257,#258,#259,#260,
#261,#262,#263));
#82=EDGE_LOOP('',(#264,#265,#266,#267));
#83=EDGE_LOOP('',(#268,#269,#270,#271));
#84=EDGE_LOOP('',(#272,#273,#274,#275));
#85=EDGE_LOOP('',(#276,#277,#278,#279));
#86=EDGE_LOOP('',(#280,#281,#282,#283));
#87=EDGE_LOOP('',(#284,#285,#286,#287));
#88=EDGE_LOOP('',(#288,#289,#290,#291));
#89=EDGE_LOOP('',(#292,#293,#294,#295));
#90=EDGE_LOOP('',(#296,#297,#298,#299));
#91=EDGE_LOOP('',(#300,#301,#302,#303));
#92=EDGE_LOOP('',(#304,#305,#306,#307));
#93=EDGE_LOOP('',(#308,#309,#310,#311));
#94=EDGE_LOOP('',(#312,#313,#314,#315));
#95=EDGE_LOOP('',(#316,#317,#318,#319));
#96=EDGE_LOOP('',(#320,#321,#322,#323));
#97=EDGE_LOOP('',(#324,#325,#326,#327));
#98=CIRCLE('',#364,26.);
#99=CIRCLE('',#365,2.125);
#100=CIRCLE('',#366,1.5);
#101=CIRCLE('',#367,3.5);
#102=CIRCLE('',#368,4.5);
#103=CIRCLE('',#369,23.);
#104=CIRCLE('',#370,4.5);
#105=CIRCLE('',#371,3.5);
#106=CIRCLE('',#372,1.5);
#107=CIRCLE('',#373,4.5);
#108=CIRCLE('',#374,23.);
#109=CIRCLE('',#375,4.5);
#110=CIRCLE('',#376,2.125);
#111=CIRCLE('',#378,26.);
#112=CIRCLE('',#379,0.5);
#113=CIRCLE('',#381,2.125);
#114=CIRCLE('',#382,2.125);
#115=CIRCLE('',#383,1.5);
#116=CIRCLE('',#384,4.5);
#117=CIRCLE('',#385,23.);
#118=CIRCLE('',#386,4.5);
#119=CIRCLE('',#387,1.5);
#120=CIRCLE('',#388,3.5);
#121=CIRCLE('',#389,4.5);
#122=CIRCLE('',#390,23.);
#123=CIRCLE('',#391,4.5);
#124=CIRCLE('',#392,3.5);
#125=CIRCLE('',#394,0.5);
#126=CIRCLE('',#396,0.499999999999989);
#127=CIRCLE('',#397,0.5);
#128=CIRCLE('',#399,0.500000000000007);
#129=CIRCLE('',#401,0.500000000000007);
#130=CIRCLE('',#403,0.500000000000007);
#131=CIRCLE('',#405,0.500000000000007);
#132=CIRCLE('',#407,0.500000000000007);
#133=CIRCLE('',#409,0.500000000000007);
#134=CIRCLE('',#411,0.500000000000007);
#135=CIRCLE('',#413,0.500000000000007);
#136=CIRCLE('',#415,0.500000000000007);
#137=CIRCLE('',#417,0.500000000000007);
#138=CIRCLE('',#419,0.500000000000007);
#139=CIRCLE('',#421,0.500000000000007);
#140=CIRCLE('',#424,0.5);
#141=VERTEX_POINT('',#561);
#142=VERTEX_POINT('',#563);
#143=VERTEX_POINT('',#565);
#144=VERTEX_POINT('',#566);
#145=VERTEX_POINT('',#568);
#146=VERTEX_POINT('',#570);
#147=VERTEX_POINT('',#572);
#148=VERTEX_POINT('',#574);
#149=VERTEX_POINT('',#576);
#150=VERTEX_POINT('',#578);
#151=VERTEX_POINT('',#580);
#152=VERTEX_POINT('',#582);
#153=VERTEX_POINT('',#584);
#154=VERTEX_POINT('',#586);
#155=VERTEX_POINT('',#588);
#156=VERTEX_POINT('',#590);
#157=VERTEX_POINT('',#593);
#158=VERTEX_POINT('',#596);
#159=VERTEX_POINT('',#600);
#160=VERTEX_POINT('',#602);
#161=VERTEX_POINT('',#604);
#162=VERTEX_POINT('',#605);
#163=VERTEX_POINT('',#607);
#164=VERTEX_POINT('',#609);
#165=VERTEX_POINT('',#611);
#166=VERTEX_POINT('',#613);
#167=VERTEX_POINT('',#615);
#168=VERTEX_POINT('',#617);
#169=VERTEX_POINT('',#619);
#170=VERTEX_POINT('',#621);
#171=VERTEX_POINT('',#623);
#172=VERTEX_POINT('',#625);
#173=VERTEX_POINT('',#627);
#174=VERTEX_POINT('',#629);
#175=EDGE_CURVE('',#141,#141,#98,.T.);
#176=EDGE_CURVE('',#142,#142,#99,.T.);
#177=EDGE_CURVE('',#143,#144,#100,.T.);
#178=EDGE_CURVE('',#145,#143,#32,.T.);
#179=EDGE_CURVE('',#146,#145,#101,.T.);
#180=EDGE_CURVE('',#147,#146,#102,.T.);
#181=EDGE_CURVE('',#148,#147,#103,.T.);
#182=EDGE_CURVE('',#149,#148,#104,.T.);
#183=EDGE_CURVE('',#150,#149,#105,.T.);
#184=EDGE_CURVE('',#151,#150,#33,.T.);
#185=EDGE_CURVE('',#152,#151,#106,.T.);
#186=EDGE_CURVE('',#153,#152,#34,.T.);
#187=EDGE_CURVE('',#154,#153,#107,.T.);
#188=EDGE_CURVE('',#155,#154,#108,.T.);
#189=EDGE_CURVE('',#156,#155,#109,.T.);
#190=EDGE_CURVE('',#144,#156,#35,.T.);
#191=EDGE_CURVE('',#157,#157,#110,.T.);
#192=EDGE_CURVE('',#158,#158,#111,.T.);
#193=EDGE_CURVE('',#158,#141,#112,.T.);
#194=EDGE_CURVE('',#159,#159,#113,.T.);
#195=EDGE_CURVE('',#160,#160,#114,.T.);
#196=EDGE_CURVE('',#161,#162,#115,.T.);
#197=EDGE_CURVE('',#163,#161,#36,.T.);
#198=EDGE_CURVE('',#164,#163,#116,.T.);
#199=EDGE_CURVE('',#165,#164,#117,.T.);
#200=EDGE_CURVE('',#166,#165,#118,.T.);
#201=EDGE_CURVE('',#167,#166,#37,.T.);
#202=EDGE_CURVE('',#168,#167,#119,.T.);
#203=EDGE_CURVE('',#169,#168,#38,.T.);
#204=EDGE_CURVE('',#170,#169,#120,.T.);
#205=EDGE_CURVE('',#171,#170,#121,.T.);
#206=EDGE_CURVE('',#172,#171,#122,.T.);
#207=EDGE_CURVE('',#173,#172,#123,.T.);
#208=EDGE_CURVE('',#174,#173,#124,.T.);
#209=EDGE_CURVE('',#162,#174,#39,.T.);
#210=EDGE_CURVE('',#159,#142,#125,.T.);
#211=EDGE_CURVE('',#144,#161,#126,.T.);
#212=EDGE_CURVE('',#162,#143,#127,.T.);
#213=EDGE_CURVE('',#145,#174,#128,.T.);
#214=EDGE_CURVE('',#146,#173,#129,.T.);
#215=EDGE_CURVE('',#147,#172,#130,.T.);
#216=EDGE_CURVE('',#148,#171,#131,.T.);
#217=EDGE_CURVE('',#149,#170,#132,.T.);
#218=EDGE_CURVE('',#150,#169,#133,.T.);
#219=EDGE_CURVE('',#168,#151,#134,.T.);
#220=EDGE_CURVE('',#167,#152,#135,.T.);
#221=EDGE_CURVE('',#166,#153,#136,.T.);
#222=EDGE_CURVE('',#165,#154,#137,.T.);
#223=EDGE_CURVE('',#164,#155,#138,.T.);
#224=EDGE_CURVE('',#163,#156,#139,.T.);
#225=EDGE_CURVE('',#160,#157,#140,.T.);
#226=ORIENTED_EDGE('',*,*,#175,.F.);
#227=ORIENTED_EDGE('',*,*,#176,.F.);
#228=ORIENTED_EDGE('',*,*,#177,.F.);
#229=ORIENTED_EDGE('',*,*,#178,.F.);
#230=ORIENTED_EDGE('',*,*,#179,.F.);
#231=ORIENTED_EDGE('',*,*,#180,.F.);
#232=ORIENTED_EDGE('',*,*,#181,.F.);
#233=ORIENTED_EDGE('',*,*,#182,.F.);
#234=ORIENTED_EDGE('',*,*,#183,.F.);
#235=ORIENTED_EDGE('',*,*,#184,.F.);
#236=ORIENTED_EDGE('',*,*,#185,.F.);
#237=ORIENTED_EDGE('',*,*,#186,.F.);
#238=ORIENTED_EDGE('',*,*,#187,.F.);
#239=ORIENTED_EDGE('',*,*,#188,.F.);
#240=ORIENTED_EDGE('',*,*,#189,.F.);
#241=ORIENTED_EDGE('',*,*,#190,.F.);
#242=ORIENTED_EDGE('',*,*,#191,.F.);
#243=ORIENTED_EDGE('',*,*,#192,.T.);
#244=ORIENTED_EDGE('',*,*,#193,.T.);
#245=ORIENTED_EDGE('',*,*,#175,.T.);
#246=ORIENTED_EDGE('',*,*,#193,.F.);
#247=ORIENTED_EDGE('',*,*,#192,.F.);
#248=ORIENTED_EDGE('',*,*,#194,.F.);
#249=ORIENTED_EDGE('',*,*,#195,.F.);
#250=ORIENTED_EDGE('',*,*,#196,.F.);
#251=ORIENTED_EDGE('',*,*,#197,.F.);
#252=ORIENTED_EDGE('',*,*,#198,.F.);
#253=ORIENTED_EDGE('',*,*,#199,.F.);
#254=ORIENTED_EDGE('',*,*,#200,.F.);
#255=ORIENTED_EDGE('',*,*,#201,.F.);
#256=ORIENTED_EDGE('',*,*,#202,.F.);
#257=ORIENTED_EDGE('',*,*,#203,.F.);
#258=ORIENTED_EDGE('',*,*,#204,.F.);
#259=ORIENTED_EDGE('',*,*,#205,.F.);
#260=ORIENTED_EDGE('',*,*,#206,.F.);
#261=ORIENTED_EDGE('',*,*,#207,.F.);
#262=ORIENTED_EDGE('',*,*,#208,.F.);
#263=ORIENTED_EDGE('',*,*,#209,.F.);
#264=ORIENTED_EDGE('',*,*,#194,.T.);
#265=ORIENTED_EDGE('',*,*,#210,.T.);
#266=ORIENTED_EDGE('',*,*,#176,.T.);
#267=ORIENTED_EDGE('',*,*,#210,.F.);
#268=ORIENTED_EDGE('',*,*,#211,.T.);
#269=ORIENTED_EDGE('',*,*,#196,.T.);
#270=ORIENTED_EDGE('',*,*,#212,.T.);
#271=ORIENTED_EDGE('',*,*,#177,.T.);
#272=ORIENTED_EDGE('',*,*,#213,.F.);
#273=ORIENTED_EDGE('',*,*,#178,.T.);
#274=ORIENTED_EDGE('',*,*,#212,.F.);
#275=ORIENTED_EDGE('',*,*,#209,.T.);
#276=ORIENTED_EDGE('',*,*,#214,.F.);
#277=ORIENTED_EDGE('',*,*,#179,.T.);
#278=ORIENTED_EDGE('',*,*,#213,.T.);
#279=ORIENTED_EDGE('',*,*,#208,.T.);
#280=ORIENTED_EDGE('',*,*,#215,.F.);
#281=ORIENTED_EDGE('',*,*,#180,.T.);
#282=ORIENTED_EDGE('',*,*,#214,.T.);
#283=ORIENTED_EDGE('',*,*,#207,.T.);
#284=ORIENTED_EDGE('',*,*,#216,.F.);
#285=ORIENTED_EDGE('',*,*,#181,.T.);
#286=ORIENTED_EDGE('',*,*,#215,.T.);
#287=ORIENTED_EDGE('',*,*,#206,.T.);
#288=ORIENTED_EDGE('',*,*,#217,.F.);
#289=ORIENTED_EDGE('',*,*,#182,.T.);
#290=ORIENTED_EDGE('',*,*,#216,.T.);
#291=ORIENTED_EDGE('',*,*,#205,.T.);
#292=ORIENTED_EDGE('',*,*,#218,.F.);
#293=ORIENTED_EDGE('',*,*,#183,.T.);
#294=ORIENTED_EDGE('',*,*,#217,.T.);
#295=ORIENTED_EDGE('',*,*,#204,.T.);
#296=ORIENTED_EDGE('',*,*,#219,.T.);
#297=ORIENTED_EDGE('',*,*,#184,.T.);
#298=ORIENTED_EDGE('',*,*,#218,.T.);
#299=ORIENTED_EDGE('',*,*,#203,.T.);
#300=ORIENTED_EDGE('',*,*,#220,.T.);
#301=ORIENTED_EDGE('',*,*,#185,.T.);
#302=ORIENTED_EDGE('',*,*,#219,.F.);
#303=ORIENTED_EDGE('',*,*,#202,.T.);
#304=ORIENTED_EDGE('',*,*,#221,.T.);
#305=ORIENTED_EDGE('',*,*,#186,.T.);
#306=ORIENTED_EDGE('',*,*,#220,.F.);
#307=ORIENTED_EDGE('',*,*,#201,.T.);
#308=ORIENTED_EDGE('',*,*,#222,.T.);
#309=ORIENTED_EDGE('',*,*,#187,.T.);
#310=ORIENTED_EDGE('',*,*,#221,.F.);
#311=ORIENTED_EDGE('',*,*,#200,.T.);
#312=ORIENTED_EDGE('',*,*,#223,.T.);
#313=ORIENTED_EDGE('',*,*,#188,.T.);
#314=ORIENTED_EDGE('',*,*,#222,.F.);
#315=ORIENTED_EDGE('',*,*,#199,.T.);
#316=ORIENTED_EDGE('',*,*,#224,.T.);
#317=ORIENTED_EDGE('',*,*,#189,.T.);
#318=ORIENTED_EDGE('',*,*,#223,.F.);
#319=ORIENTED_EDGE('',*,*,#198,.T.);
#320=ORIENTED_EDGE('',*,*,#224,.F.);
#321=ORIENTED_EDGE('',*,*,#197,.T.);
#322=ORIENTED_EDGE('',*,*,#211,.F.);
#323=ORIENTED_EDGE('',*,*,#190,.T.);
#324=ORIENTED_EDGE('',*,*,#195,.T.);
#325=ORIENTED_EDGE('',*,*,#225,.T.);
#326=ORIENTED_EDGE('',*,*,#191,.T.);
#327=ORIENTED_EDGE('',*,*,#225,.F.);
#328=PLANE('',#363);
#329=PLANE('',#380);
#330=ADVANCED_FACE('',(#54,#48,#49,#50),#328,.F.);
#331=ADVANCED_FACE('',(#55),#19,.T.);
#332=ADVANCED_FACE('',(#56,#51,#52,#53),#329,.T.);
#333=ADVANCED_FACE('',(#57),#20,.T.);
#334=ADVANCED_FACE('',(#58),#21,.T.);
#335=ADVANCED_FACE('',(#59),#15,.T.);
#336=ADVANCED_FACE('',(#60),#22,.T.);
#337=ADVANCED_FACE('',(#61),#23,.T.);
#338=ADVANCED_FACE('',(#62),#24,.T.);
#339=ADVANCED_FACE('',(#63),#25,.T.);
#340=ADVANCED_FACE('',(#64),#26,.T.);
#341=ADVANCED_FACE('',(#65),#16,.T.);
#342=ADVANCED_FACE('',(#66),#27,.T.);
#343=ADVANCED_FACE('',(#67),#17,.T.);
#344=ADVANCED_FACE('',(#68),#28,.T.);
#345=ADVANCED_FACE('',(#69),#29,.T.);
#346=ADVANCED_FACE('',(#70),#30,.T.);
#347=ADVANCED_FACE('',(#71),#18,.T.);
#348=ADVANCED_FACE('',(#72),#31,.T.);
#349=CLOSED_SHELL('',(#330,#331,#332,#333,#334,#335,#336,#337,#338,#339,
#340,#341,#342,#343,#344,#345,#346,#347,#348));
#350=DERIVED_UNIT_ELEMENT(#352,1.);
#351=DERIVED_UNIT_ELEMENT(#669,-3.);
#352=(
MASS_UNIT()
NAMED_UNIT(*)
SI_UNIT(.KILO.,.GRAM.)
);
#353=DERIVED_UNIT((#350,#351));
#354=MEASURE_REPRESENTATION_ITEM('density measure',
POSITIVE_RATIO_MEASURE(7850.),#353);
#355=PROPERTY_DEFINITION_REPRESENTATION(#360,#357);
#356=PROPERTY_DEFINITION_REPRESENTATION(#361,#358);
#357=REPRESENTATION('material name',(#359),#666);
#358=REPRESENTATION('density',(#354),#666);
#359=DESCRIPTIVE_REPRESENTATION_ITEM('Steel','Steel');
#360=PROPERTY_DEFINITION('material property','material name',#676);
#361=PROPERTY_DEFINITION('material property','density of part',#676);
#362=AXIS2_PLACEMENT_3D('',#559,#425,#426);
#363=AXIS2_PLACEMENT_3D('',#560,#427,#428);
#364=AXIS2_PLACEMENT_3D('',#562,#429,#430);
#365=AXIS2_PLACEMENT_3D('',#564,#431,#432);
#366=AXIS2_PLACEMENT_3D('',#567,#433,#434);
#367=AXIS2_PLACEMENT_3D('',#571,#436,#437);
#368=AXIS2_PLACEMENT_3D('',#573,#438,#439);
#369=AXIS2_PLACEMENT_3D('',#575,#440,#441);
#370=AXIS2_PLACEMENT_3D('',#577,#442,#443);
#371=AXIS2_PLACEMENT_3D('',#579,#444,#445);
#372=AXIS2_PLACEMENT_3D('',#583,#447,#448);
#373=AXIS2_PLACEMENT_3D('',#587,#450,#451);
#374=AXIS2_PLACEMENT_3D('',#589,#452,#453);
#375=AXIS2_PLACEMENT_3D('',#591,#454,#455);
#376=AXIS2_PLACEMENT_3D('',#594,#457,#458);
#377=AXIS2_PLACEMENT_3D('',#595,#459,#460);
#378=AXIS2_PLACEMENT_3D('',#597,#461,#462);
#379=AXIS2_PLACEMENT_3D('',#598,#463,#464);
#380=AXIS2_PLACEMENT_3D('',#599,#465,#466);
#381=AXIS2_PLACEMENT_3D('',#601,#467,#468);
#382=AXIS2_PLACEMENT_3D('',#603,#469,#470);
#383=AXIS2_PLACEMENT_3D('',#606,#471,#472);
#384=AXIS2_PLACEMENT_3D('',#610,#474,#475);
#385=AXIS2_PLACEMENT_3D('',#612,#476,#477);
#386=AXIS2_PLACEMENT_3D('',#614,#478,#479);
#387=AXIS2_PLACEMENT_3D('',#618,#481,#482);
#388=AXIS2_PLACEMENT_3D('',#622,#484,#485);
#389=AXIS2_PLACEMENT_3D('',#624,#486,#487);
#390=AXIS2_PLACEMENT_3D('',#626,#488,#489);
#391=AXIS2_PLACEMENT_3D('',#628,#490,#491);
#392=AXIS2_PLACEMENT_3D('',#630,#492,#493);
#393=AXIS2_PLACEMENT_3D('',#632,#495,#496);
#394=AXIS2_PLACEMENT_3D('',#633,#497,#498);
#395=AXIS2_PLACEMENT_3D('',#634,#499,#500);
#396=AXIS2_PLACEMENT_3D('',#635,#501,#502);
#397=AXIS2_PLACEMENT_3D('',#636,#503,#504);
#398=AXIS2_PLACEMENT_3D('',#637,#505,#506);
#399=AXIS2_PLACEMENT_3D('',#638,#507,#508);
#400=AXIS2_PLACEMENT_3D('',#639,#509,#510);
#401=AXIS2_PLACEMENT_3D('',#640,#511,#512);
#402=AXIS2_PLACEMENT_3D('',#641,#513,#514);
#403=AXIS2_PLACEMENT_3D('',#642,#515,#516);
#404=AXIS2_PLACEMENT_3D('',#643,#517,#518);
#405=AXIS2_PLACEMENT_3D('',#644,#519,#520);
#406=AXIS2_PLACEMENT_3D('',#645,#521,#522);
#407=AXIS2_PLACEMENT_3D('',#646,#523,#524);
#408=AXIS2_PLACEMENT_3D('',#647,#525,#526);
#409=AXIS2_PLACEMENT_3D('',#648,#527,#528);
#410=AXIS2_PLACEMENT_3D('',#649,#529,#530);
#411=AXIS2_PLACEMENT_3D('',#650,#531,#532);
#412=AXIS2_PLACEMENT_3D('',#651,#533,#534);
#413=AXIS2_PLACEMENT_3D('',#652,#535,#536);
#414=AXIS2_PLACEMENT_3D('',#653,#537,#538);
#415=AXIS2_PLACEMENT_3D('',#654,#539,#540);
#416=AXIS2_PLACEMENT_3D('',#655,#541,#542);
#417=AXIS2_PLACEMENT_3D('',#656,#543,#544);
#418=AXIS2_PLACEMENT_3D('',#657,#545,#546);
#419=AXIS2_PLACEMENT_3D('',#658,#547,#548);
#420=AXIS2_PLACEMENT_3D('',#659,#549,#550);
#421=AXIS2_PLACEMENT_3D('',#660,#551,#552);
#422=AXIS2_PLACEMENT_3D('',#661,#553,#554);
#423=AXIS2_PLACEMENT_3D('',#662,#555,#556);
#424=AXIS2_PLACEMENT_3D('',#663,#557,#558);
#425=DIRECTION('axis',(0.,0.,1.));
#426=DIRECTION('refdir',(1.,0.,0.));
#427=DIRECTION('center_axis',(1.,0.,0.));
#428=DIRECTION('ref_axis',(0.,1.,0.));
#429=DIRECTION('center_axis',(1.,0.,0.));
#430=DIRECTION('ref_axis',(0.,1.,0.));
#431=DIRECTION('center_axis',(-1.,0.,0.));
#432=DIRECTION('ref_axis',(0.,1.,0.));
#433=DIRECTION('center_axis',(1.,0.,0.));
#434=DIRECTION('ref_axis',(0.,0.707106781186549,0.707106781186546));
#435=DIRECTION('',(0.,2.87715179790334E-16,1.));
#436=DIRECTION('center_axis',(1.,0.,0.));
#437=DIRECTION('ref_axis',(0.,0.967699175835471,-0.252107725163968));
#438=DIRECTION('center_axis',(-1.,0.,0.));
#439=DIRECTION('ref_axis',(0.,-0.938540348039665,-0.345169545443373));
#440=DIRECTION('center_axis',(-1.,0.,0.));
#441=DIRECTION('ref_axis',(0.,-1.19176273787818E-13,-1.));
#442=DIRECTION('center_axis',(-1.,0.,0.));
#443=DIRECTION('ref_axis',(0.,0.938540348039601,-0.345169545443546));
#444=DIRECTION('center_axis',(1.,0.,0.));
#445=DIRECTION('ref_axis',(0.,-0.967699175835486,-0.252107725163908));
#446=DIRECTION('',(0.,0.,-1.));
#447=DIRECTION('center_axis',(1.,0.,0.));
#448=DIRECTION('ref_axis',(0.,-0.707106781186546,0.707106781186549));
#449=DIRECTION('',(0.,-1.,0.));
#450=DIRECTION('center_axis',(-1.,0.,0.));
#451=DIRECTION('ref_axis',(0.,0.813733471206735,-0.581238193719096));
#452=DIRECTION('center_axis',(-1.,0.,0.));
#453=DIRECTION('ref_axis',(0.,6.16790569236198E-17,1.));
#454=DIRECTION('center_axis',(-1.,0.,0.));
#455=DIRECTION('ref_axis',(0.,-0.813733471206735,-0.581238193719096));
#456=DIRECTION('',(0.,-1.,0.));
#457=DIRECTION('center_axis',(-1.,0.,0.));
#458=DIRECTION('ref_axis',(0.,1.,0.));
#459=DIRECTION('center_axis',(1.,0.,0.));
#460=DIRECTION('ref_axis',(0.,0.,-1.));
#461=DIRECTION('center_axis',(-1.,0.,0.));
#462=DIRECTION('ref_axis',(0.,1.,0.));
#463=DIRECTION('center_axis',(0.,-1.,-1.23067174899487E-16));
#464=DIRECTION('ref_axis',(0.,-1.23067174899487E-16,1.));
#465=DIRECTION('center_axis',(1.,0.,0.));
#466=DIRECTION('ref_axis',(0.,1.,0.));
#467=DIRECTION('center_axis',(1.,0.,0.));
#468=DIRECTION('ref_axis',(0.,1.,0.));
#469=DIRECTION('center_axis',(1.,0.,0.));
#470=DIRECTION('ref_axis',(0.,1.,0.));
#471=DIRECTION('center_axis',(-1.,0.,0.));
#472=DIRECTION('ref_axis',(0.,0.707106781186549,0.707106781186546));
#473=DIRECTION('',(0.,1.,0.));
#474=DIRECTION('center_axis',(1.,0.,0.));
#475=DIRECTION('ref_axis',(0.,-0.813733471206735,-0.581238193719096));
#476=DIRECTION('center_axis',(1.,0.,0.));
#477=DIRECTION('ref_axis',(0.,6.16790569236198E-17,1.));
#478=DIRECTION('center_axis',(1.,0.,0.));
#479=DIRECTION('ref_axis',(0.,0.813733471206735,-0.581238193719096));
#480=DIRECTION('',(0.,1.,0.));
#481=DIRECTION('center_axis',(-1.,0.,0.));
#482=DIRECTION('ref_axis',(0.,-0.707106781186546,0.707106781186549));
#483=DIRECTION('',(0.,0.,1.));
#484=DIRECTION('center_axis',(-1.,0.,0.));
#485=DIRECTION('ref_axis',(0.,-0.967699175835486,-0.252107725163908));
#486=DIRECTION('center_axis',(1.,0.,0.));
#487=DIRECTION('ref_axis',(0.,0.938540348039601,-0.345169545443546));
#488=DIRECTION('center_axis',(1.,0.,0.));
#489=DIRECTION('ref_axis',(0.,-1.19176273787818E-13,-1.));
#490=DIRECTION('center_axis',(1.,0.,0.));
#491=DIRECTION('ref_axis',(0.,-0.938540348039665,-0.345169545443373));
#492=DIRECTION('center_axis',(-1.,0.,0.));
#493=DIRECTION('ref_axis',(0.,0.967699175835471,-0.252107725163968));
#494=DIRECTION('',(0.,-2.87715179790334E-16,-1.));
#495=DIRECTION('center_axis',(-1.,0.,0.));
#496=DIRECTION('ref_axis',(0.,0.,1.));
#497=DIRECTION('center_axis',(0.,-1.,0.));
#498=DIRECTION('ref_axis',(0.,0.,-1.));
#499=DIRECTION('center_axis',(-1.,0.,0.));
#500=DIRECTION('ref_axis',(0.,0.,1.));
#501=DIRECTION('center_axis',(0.,1.,0.));
#502=DIRECTION('ref_axis',(0.,0.,1.));
#503=DIRECTION('center_axis',(0.,0.,1.));
#504=DIRECTION('ref_axis',(-3.5527136788005E-14,1.,0.));
#505=DIRECTION('center_axis',(0.,2.87715179790334E-16,1.));
#506=DIRECTION('ref_axis',(0.707106781186554,0.707106781186541,-2.0344535468005E-16));
#507=DIRECTION('center_axis',(0.,0.,-1.));
#508=DIRECTION('ref_axis',(-1.,0.,0.));
#509=DIRECTION('center_axis',(1.,0.,0.));
#510=DIRECTION('ref_axis',(0.,0.,-1.));
#511=DIRECTION('center_axis',(0.,-0.487928875725863,-0.872883389825294));
#512=DIRECTION('ref_axis',(-1.,0.,0.));
#513=DIRECTION('center_axis',(1.,0.,0.));
#514=DIRECTION('ref_axis',(0.,0.,-1.));
#515=DIRECTION('center_axis',(0.,0.937214045856628,-0.348754687780753));
#516=DIRECTION('ref_axis',(-1.,0.,0.));
#517=DIRECTION('center_axis',(-1.,0.,0.));
#518=DIRECTION('ref_axis',(0.,-1.18893075054114E-13,-1.));
#519=DIRECTION('center_axis',(0.,0.937214045856713,0.348754687780525));
#520=DIRECTION('ref_axis',(-1.,0.,0.));
#521=DIRECTION('center_axis',(1.,0.,0.));
#522=DIRECTION('ref_axis',(0.,0.,-1.));
#523=DIRECTION('center_axis',(0.,-0.487928875725743,0.872883389825361));
#524=DIRECTION('ref_axis',(-1.,0.,0.));
#525=DIRECTION('center_axis',(1.,0.,0.));
#526=DIRECTION('ref_axis',(0.,0.,-1.));
#527=DIRECTION('center_axis',(0.,0.,1.));
#528=DIRECTION('ref_axis',(-1.,0.,0.));
#529=DIRECTION('center_axis',(0.,0.,-1.));
#530=DIRECTION('ref_axis',(0.707106781186552,-0.707106781186543,0.));
#531=DIRECTION('center_axis',(0.,0.,-1.));
#532=DIRECTION('ref_axis',(1.,0.,0.));
#533=DIRECTION('center_axis',(-1.,0.,0.));
#534=DIRECTION('ref_axis',(0.,0.,1.));
#535=DIRECTION('center_axis',(0.,-1.,0.));
#536=DIRECTION('ref_axis',(1.,0.,0.));
#537=DIRECTION('center_axis',(0.,-1.,0.));
#538=DIRECTION('ref_axis',(0.70710678118656,0.,0.707106781186535));
#539=DIRECTION('center_axis',(0.,-1.,0.));
#540=DIRECTION('ref_axis',(1.,0.,0.));
#541=DIRECTION('center_axis',(1.,0.,0.));
#542=DIRECTION('ref_axis',(0.,0.,-1.));
#543=DIRECTION('center_axis',(0.,0.324324324324329,-0.945945945945944));
#544=DIRECTION('ref_axis',(1.,0.,0.));
#545=DIRECTION('center_axis',(-1.,0.,0.));
#546=DIRECTION('ref_axis',(0.,0.,1.));
#547=DIRECTION('center_axis',(0.,0.324324324324329,0.945945945945944));
#548=DIRECTION('ref_axis',(1.,0.,0.));
#549=DIRECTION('center_axis',(1.,0.,0.));
#550=DIRECTION('ref_axis',(0.,0.,-1.));
#551=DIRECTION('center_axis',(0.,-1.,0.));
#552=DIRECTION('ref_axis',(1.,0.,0.));
#553=DIRECTION('center_axis',(0.,-1.,0.));
#554=DIRECTION('ref_axis',(0.70710678118656,0.,0.707106781186535));
#555=DIRECTION('center_axis',(-1.,0.,0.));
#556=DIRECTION('ref_axis',(0.,0.,1.));
#557=DIRECTION('center_axis',(0.,-1.,0.));
#558=DIRECTION('ref_axis',(0.,0.,-1.));
#559=CARTESIAN_POINT('',(0.,0.,0.));
#560=CARTESIAN_POINT('Origin',(-94.5516446512725,-0.409190019565946,63.6104608972022));
#561=CARTESIAN_POINT('',(-94.5516446512725,-0.409190019565948,89.6104608972022));
#562=CARTESIAN_POINT('Origin',(-94.5516446512725,-0.409190019565945,63.6104608972022));
#563=CARTESIAN_POINT('',(-94.5516446512725,-13.8442188621122,48.0504320546614));
#564=CARTESIAN_POINT('Origin',(-94.5516446512725,-13.8442188621122,50.1754320546614));
#565=CARTESIAN_POINT('',(-94.5516446512725,-10.3442188621122,63.6104608972022));
#566=CARTESIAN_POINT('',(-94.5516446512725,-11.8442188621122,65.1104608972022));
#567=CARTESIAN_POINT('Origin',(-94.5516446512725,-11.8442188621122,63.6104608972022));
#568=CARTESIAN_POINT('',(-94.5516446512725,-10.3442188621122,50.1754320546614));
#569=CARTESIAN_POINT('',(-94.5516446512725,-10.3442188621122,64.6104608972022));
#570=CARTESIAN_POINT('',(-94.5516446512725,-10.7891269977236,48.4676809896209));
#571=CARTESIAN_POINT('Origin',(-94.5516446512725,-13.8442188621122,50.1754320546614));
#572=CARTESIAN_POINT('',(-94.5516446512725,-8.43054783852315,42.0545378424997));
#573=CARTESIAN_POINT('Origin',(-94.5516446512725,-6.86115174350979,46.2720010488545));
#574=CARTESIAN_POINT('',(-94.5516446512725,7.61216779938613,42.0545378424978));
#575=CARTESIAN_POINT('Origin',(-94.5516446512725,-0.409190019565945,63.6104608972022));
#576=CARTESIAN_POINT('',(-94.5516446512725,9.97074695858789,48.4676809896189));
#577=CARTESIAN_POINT('Origin',(-94.5516446512725,6.04277170437377,46.272001048853));
#578=CARTESIAN_POINT('',(-94.5516446512725,9.52583882297665,50.175432054659));
#579=CARTESIAN_POINT('Origin',(-94.5516446512725,13.0258388229766,50.175432054659));
#580=CARTESIAN_POINT('',(-94.5516446512725,9.52583882297665,63.6104608972022));
#581=CARTESIAN_POINT('',(-94.5516446512725,9.52583882297665,56.8929464759306));
#582=CARTESIAN_POINT('',(-94.5516446512725,11.0258388229766,65.1104608972022));
#583=CARTESIAN_POINT('Origin',(-94.5516446512725,11.0258388229766,63.6104608972022));
#584=CARTESIAN_POINT('',(-94.5516446512725,17.0908099804341,65.1104608972022));
#585=CARTESIAN_POINT('',(-94.5516446512725,4.30832440170535,65.1104608972022));
#586=CARTESIAN_POINT('',(-94.5516446512725,21.3475667371908,71.0699203566617));
#587=CARTESIAN_POINT('Origin',(-94.5516446512725,17.0908099804341,69.6104608972022));
#588=CARTESIAN_POINT('',(-94.5516446512725,-22.1659467763227,71.0699203566617));
#589=CARTESIAN_POINT('Origin',(-94.5516446512725,-0.409190019565945,63.6104608972022));
#590=CARTESIAN_POINT('',(-94.5516446512725,-17.9091900195659,65.1104608972022));
#591=CARTESIAN_POINT('Origin',(-94.5516446512725,-17.9091900195659,69.6104608972022));
#592=CARTESIAN_POINT('',(-94.5516446512725,-11.6146574350734,65.1104608972022));
#593=CARTESIAN_POINT('',(-94.5516446512725,13.0258388229766,48.050432054659));
#594=CARTESIAN_POINT('Origin',(-94.5516446512725,13.0258388229766,50.175432054659));
#595=CARTESIAN_POINT('Origin',(-94.0516446512725,-0.409190019565945,63.6104608972022));
#596=CARTESIAN_POINT('',(-93.5516446512725,-0.409190019565948,89.6104608972022));
#597=CARTESIAN_POINT('Origin',(-93.5516446512725,-0.409190019565945,63.6104608972022));
#598=CARTESIAN_POINT('Origin',(-94.0516446512725,-0.409190019565948,89.6104608972022));
#599=CARTESIAN_POINT('Origin',(-93.5516446512725,-0.409190019565946,63.6104608972022));
#600=CARTESIAN_POINT('',(-93.5516446512725,-13.8442188621122,48.0504320546614));
#601=CARTESIAN_POINT('Origin',(-93.5516446512725,-13.8442188621122,50.1754320546614));
#602=CARTESIAN_POINT('',(-93.5516446512725,13.0258388229766,48.050432054659));
#603=CARTESIAN_POINT('Origin',(-93.5516446512725,13.0258388229766,50.175432054659));
#604=CARTESIAN_POINT('',(-93.5516446512725,-11.8442188621122,65.1104608972022));
#605=CARTESIAN_POINT('',(-93.5516446512725,-10.3442188621122,63.6104608972022));
#606=CARTESIAN_POINT('Origin',(-93.5516446512725,-11.8442188621122,63.6104608972022));
#607=CARTESIAN_POINT('',(-93.5516446512725,-17.9091900195659,65.1104608972022));
#608=CARTESIAN_POINT('',(-93.5516446512725,-11.6146574350734,65.1104608972022));
#609=CARTESIAN_POINT('',(-93.5516446512725,-22.1659467763227,71.0699203566617));
#610=CARTESIAN_POINT('Origin',(-93.5516446512725,-17.9091900195659,69.6104608972022));
#611=CARTESIAN_POINT('',(-93.5516446512725,21.3475667371908,71.0699203566617));
#612=CARTESIAN_POINT('Origin',(-93.5516446512725,-0.409190019565945,63.6104608972022));
#613=CARTESIAN_POINT('',(-93.5516446512725,17.0908099804341,65.1104608972022));
#614=CARTESIAN_POINT('Origin',(-93.5516446512725,17.0908099804341,69.6104608972022));
#615=CARTESIAN_POINT('',(-93.5516446512725,11.0258388229766,65.1104608972022));
#616=CARTESIAN_POINT('',(-93.5516446512725,4.30832440170535,65.1104608972022));
#617=CARTESIAN_POINT('',(-93.5516446512725,9.52583882297665,63.6104608972022));
#618=CARTESIAN_POINT('Origin',(-93.5516446512725,11.0258388229766,63.6104608972022));
#619=CARTESIAN_POINT('',(-93.5516446512725,9.52583882297665,50.175432054659));
#620=CARTESIAN_POINT('',(-93.5516446512725,9.52583882297665,56.8929464759306));
#621=CARTESIAN_POINT('',(-93.5516446512725,9.97074695858789,48.4676809896189));
#622=CARTESIAN_POINT('Origin',(-93.5516446512725,13.0258388229766,50.175432054659));
#623=CARTESIAN_POINT('',(-93.5516446512725,7.61216779938613,42.0545378424978));
#624=CARTESIAN_POINT('Origin',(-93.5516446512725,6.04277170437377,46.272001048853));
#625=CARTESIAN_POINT('',(-93.5516446512725,-8.43054783852316,42.0545378424997));
#626=CARTESIAN_POINT('Origin',(-93.5516446512725,-0.409190019565945,63.6104608972022));
#627=CARTESIAN_POINT('',(-93.5516446512725,-10.7891269977236,48.4676809896209));
#628=CARTESIAN_POINT('Origin',(-93.5516446512725,-6.86115174350979,46.2720010488545));
#629=CARTESIAN_POINT('',(-93.5516446512725,-10.3442188621122,50.1754320546614));
#630=CARTESIAN_POINT('Origin',(-93.5516446512725,-13.8442188621122,50.1754320546614));
#631=CARTESIAN_POINT('',(-93.5516446512725,-10.3442188621122,64.6104608972022));
#632=CARTESIAN_POINT('Origin',(-94.0516446512725,-13.8442188621122,50.1754320546614));
#633=CARTESIAN_POINT('Origin',(-94.0516446512725,-13.8442188621122,48.0504320546614));
#634=CARTESIAN_POINT('Origin',(-94.0516446512725,-11.8442188621122,63.6104608972022));
#635=CARTESIAN_POINT('Origin',(-94.0516446512725,-11.8442188621122,65.1104608972022));
#636=CARTESIAN_POINT('Origin',(-94.0516446512725,-10.3442188621122,63.6104608972022));
#637=CARTESIAN_POINT('Origin',(-94.0516446512725,-10.3442188621122,64.6104608972022));
#638=CARTESIAN_POINT('Origin',(-94.0516446512725,-10.3442188621122,50.1754320546614));
#639=CARTESIAN_POINT('Origin',(-94.0516446512725,-13.8442188621122,50.1754320546614));
#640=CARTESIAN_POINT('Origin',(-94.0516446512725,-10.7891269977236,48.4676809896209));
#641=CARTESIAN_POINT('Origin',(-94.0516446512725,-6.86115174350979,46.2720010488545));
#642=CARTESIAN_POINT('Origin',(-94.0516446512725,-8.43054783852315,42.0545378424997));
#643=CARTESIAN_POINT('Origin',(-94.0516446512725,-0.409190019565945,63.6104608972022));
#644=CARTESIAN_POINT('Origin',(-94.0516446512725,7.61216779938613,42.0545378424978));
#645=CARTESIAN_POINT('Origin',(-94.0516446512725,6.04277170437377,46.272001048853));
#646=CARTESIAN_POINT('Origin',(-94.0516446512725,9.97074695858789,48.4676809896189));
#647=CARTESIAN_POINT('Origin',(-94.0516446512725,13.0258388229766,50.175432054659));
#648=CARTESIAN_POINT('Origin',(-94.0516446512725,9.52583882297665,50.175432054659));
#649=CARTESIAN_POINT('Origin',(-94.0516446512725,9.52583882297665,56.8929464759306));
#650=CARTESIAN_POINT('Origin',(-94.0516446512725,9.52583882297665,63.6104608972022));
#651=CARTESIAN_POINT('Origin',(-94.0516446512725,11.0258388229766,63.6104608972022));
#652=CARTESIAN_POINT('Origin',(-94.0516446512725,11.0258388229766,65.1104608972022));
#653=CARTESIAN_POINT('Origin',(-94.0516446512725,4.30832440170535,65.1104608972022));
#654=CARTESIAN_POINT('Origin',(-94.0516446512725,17.0908099804341,65.1104608972022));
#655=CARTESIAN_POINT('Origin',(-94.0516446512725,17.0908099804341,69.6104608972022));
#656=CARTESIAN_POINT('Origin',(-94.0516446512725,21.3475667371908,71.0699203566617));
#657=CARTESIAN_POINT('Origin',(-94.0516446512725,-0.409190019565945,63.6104608972022));
#658=CARTESIAN_POINT('Origin',(-94.0516446512725,-22.1659467763227,71.0699203566617));
#659=CARTESIAN_POINT('Origin',(-94.0516446512725,-17.9091900195659,69.6104608972022));
#660=CARTESIAN_POINT('Origin',(-94.0516446512725,-17.9091900195659,65.1104608972022));
#661=CARTESIAN_POINT('Origin',(-94.0516446512725,-11.6146574350734,65.1104608972022));
#662=CARTESIAN_POINT('Origin',(-94.0516446512725,13.0258388229766,50.175432054659));
#663=CARTESIAN_POINT('Origin',(-94.0516446512725,13.0258388229766,48.050432054659));
#664=UNCERTAINTY_MEASURE_WITH_UNIT(LENGTH_MEASURE(0.01),#668,
'DISTANCE_ACCURACY_VALUE',
'Maximum model space distance between geometric entities at asserted c
onnectivities');
#665=UNCERTAINTY_MEASURE_WITH_UNIT(LENGTH_MEASURE(0.01),#668,
'DISTANCE_ACCURACY_VALUE',
'Maximum model space distance between geometric entities at asserted c
onnectivities');
#666=(
GEOMETRIC_REPRESENTATION_CONTEXT(3)
GLOBAL_UNCERTAINTY_ASSIGNED_CONTEXT((#664))
GLOBAL_UNIT_ASSIGNED_CONTEXT((#668,#670,#671))
REPRESENTATION_CONTEXT('','3D')
);
#667=(
GEOMETRIC_REPRESENTATION_CONTEXT(3)
GLOBAL_UNCERTAINTY_ASSIGNED_CONTEXT((#665))
GLOBAL_UNIT_ASSIGNED_CONTEXT((#668,#670,#671))
REPRESENTATION_CONTEXT('','3D')
);
#668=(
LENGTH_UNIT()
NAMED_UNIT(*)
SI_UNIT(.MILLI.,.METRE.)
);
#669=(
LENGTH_UNIT()
NAMED_UNIT(*)
SI_UNIT($,.METRE.)
);
#670=(
NAMED_UNIT(*)
PLANE_ANGLE_UNIT()
SI_UNIT($,.RADIAN.)
);
#671=(
NAMED_UNIT(*)
SI_UNIT($,.STERADIAN.)
SOLID_ANGLE_UNIT()
);
#672=SHAPE_DEFINITION_REPRESENTATION(#673,#674);
#673=PRODUCT_DEFINITION_SHAPE('',$,#676);
#674=SHAPE_REPRESENTATION('',(#362),#666);
#675=PRODUCT_DEFINITION_CONTEXT('part definition',#680,'design');
#676=PRODUCT_DEFINITION('FusionComponent','103107049_02 v1',#677,#675);
#677=PRODUCT_DEFINITION_FORMATION('',$,#682);
#678=PRODUCT_RELATED_PRODUCT_CATEGORY('103107049_02 v1',
'103107049_02 v1',(#682));
#679=APPLICATION_PROTOCOL_DEFINITION('international standard',
'automotive_design',2009,#680);
#680=APPLICATION_CONTEXT(
'Core Data for Automotive Mechanical Design Process');
#681=PRODUCT_CONTEXT('part definition',#680,'mechanical');
#682=PRODUCT('FusionComponent','103107049_02 v1',$,(#681));
#683=PRESENTATION_STYLE_ASSIGNMENT((#685));
#684=PRESENTATION_STYLE_ASSIGNMENT((#686));
#685=SURFACE_STYLE_USAGE(.BOTH.,#687);
#686=SURFACE_STYLE_USAGE(.BOTH.,#688);
#687=SURFACE_SIDE_STYLE('',(#689));
#688=SURFACE_SIDE_STYLE('',(#690));
#689=SURFACE_STYLE_FILL_AREA(#691);
#690=SURFACE_STYLE_FILL_AREA(#692);
#691=FILL_AREA_STYLE('Plate',(#693));
#692=FILL_AREA_STYLE('Opaque(160,160,160)',(#694));
#693=FILL_AREA_STYLE_COLOUR('Plate',#695);
#694=FILL_AREA_STYLE_COLOUR('Opaque(160,160,160)',#696);
#695=COLOUR_RGB('Plate',0.6,0.6,0.6);
#696=COLOUR_RGB('Opaque(160,160,160)',0.627450980392157,0.627450980392157,
0.627450980392157);
ENDSEC;
END-ISO-10303-21;
